<svg width="100" height="100" viewBox="0 0 100 100" fill="none" xmlns="http://www.w3.org/2000/svg">
    <path d="M97.518 37.234c-.53.455-1.091.868-1.677 1.233a18.595 18.595 0 0 1-7.498 2.814c-2.593-2.33-4.58-5.368-5.762-8.809-1.066-3.397-.119-5.562 1.973-6.73a4.438 4.438 0 0 1 1.125-.412h.552c1.107-.048 2.194.34 3.062 1.095.869.754 1.463 1.825 1.674 3.017l.237 1.126.75-.974c.763-.849 1.774-1.377 2.856-1.492a4.33 4.33 0 0 1 3.063.864c.467.383.862.86 1.165 1.407 1.322 2.25 1.065 4.632-1.52 6.86z" fill="url(#b9i68505la)"/>
    <path d="M84.712 49.007a.622.622 0 0 1-.282-.068.68.68 0 0 1-.23-.192.787.787 0 0 1 .098-1.017 7.09 7.09 0 0 0 1.973-2.467.716.716 0 0 1 .15-.226.644.644 0 0 1 .218-.145.6.6 0 0 1 .5.025.69.69 0 0 1 .341.39.779.779 0 0 1-.005.54 8.722 8.722 0 0 1-2.27 3.009.634.634 0 0 1-.232.13.597.597 0 0 1-.26.021z" fill="#455A64"/>
    <path d="M4.775 90.365a.608.608 0 0 1-.317-.094.684.684 0 0 1-.235-.252 36.526 36.526 0 0 1-2.703-6.493.8.8 0 0 1 .04-.545c.078-.17.212-.3.374-.363a.58.58 0 0 1 .505.028.644.644 0 0 1 .202.176.715.715 0 0 1 .122.25 33.475 33.475 0 0 0 2.585 6.254c.086.164.11.359.065.541a.71.71 0 0 1-.302.433.475.475 0 0 1-.336.065zM.83 77.1a.599.599 0 0 1-.44-.172.717.717 0 0 1-.211-.456A34.766 34.766 0 0 1 0 72.965c-.004-1.23.062-2.458.198-3.68a.754.754 0 0 1 .25-.474.63.63 0 0 1 .48-.153.66.66 0 0 1 .432.275c.107.149.157.337.14.526a34.1 34.1 0 0 0-.197 3.506c0 1.121.06 2.241.177 3.355a.783.783 0 0 1-.154.519.657.657 0 0 1-.438.26H.83zm1.54-13.83H2.13a.646.646 0 0 1-.217-.149.72.72 0 0 1-.148-.23.773.773 0 0 1-.01-.551c.31-.85.658-1.68 1.046-2.49a44.473 44.473 0 0 1 2.131-3.808.686.686 0 0 1 .188-.192.6.6 0 0 1 .497-.088.631.631 0 0 1 .233.118c.07.055.13.125.174.206a.765.765 0 0 1 .08.544.755.755 0 0 1-.106.256 40.64 40.64 0 0 0-1.973 3.636c-.41.77-.767 1.573-1.066 2.402a.7.7 0 0 1-.262.266.621.621 0 0 1-.35.08h.02zm70.385-9.847a.621.621 0 0 1-.447-.194.744.744 0 0 1-.204-.477.778.778 0 0 1 .036-.281.731.731 0 0 1 .133-.244.659.659 0 0 1 .21-.168.605.605 0 0 1 .252-.064c2.084-.11 4.146-.51 6.137-1.19a.624.624 0 0 1 .45.107.731.731 0 0 1 .281.402.802.802 0 0 1-.022.505.713.713 0 0 1-.314.37 24.034 24.034 0 0 1-6.473 1.234h-.039zm-6.453-.368a33.475 33.475 0 0 1-6.314-1.731.637.637 0 0 1-.223-.138.71.71 0 0 1-.157-.222.77.77 0 0 1-.034-.55.723.723 0 0 1 .318-.413.619.619 0 0 1 .49-.062c1.99.76 4.037 1.325 6.118 1.688a.596.596 0 0 1 .24.094.659.659 0 0 1 .188.19.756.756 0 0 1 .104.538.73.73 0 0 1-.25.468.61.61 0 0 1-.48.138zM9.65 51.864a.609.609 0 0 1-.383-.114.704.704 0 0 1-.251-.336.78.78 0 0 1-.027-.434.728.728 0 0 1 .208-.371c1.633-1.6 3.42-3 5.327-4.177a.614.614 0 0 1 .497-.061c.083.026.16.07.227.128a.704.704 0 0 1 .164.214.767.767 0 0 1 .056.545.742.742 0 0 1-.117.249.672.672 0 0 1-.195.18 26.941 26.941 0 0 0-5.071 4.004c-.113.1-.25.16-.395.173h-.04zm44.556-3.268a.756.756 0 0 1-.295 0 47.942 47.942 0 0 1-3.77-2.337 48.015 48.015 0 0 1-1.815-1.299.724.724 0 0 1-.277-.457.774.774 0 0 1 .1-.538.654.654 0 0 1 .417-.304.608.608 0 0 1 .49.109 39.29 39.29 0 0 0 1.776 1.277c1.224.822 2.467 1.58 3.67 2.164a.644.644 0 0 1 .2.17c.056.07.098.152.124.241a.756.756 0 0 1-.047.541.669.669 0 0 1-.209.303.58.58 0 0 1-.324.13h-.04zM20.66 45.003a.632.632 0 0 1-.388-.138.735.735 0 0 1-.274-.642.768.768 0 0 1 .072-.273.705.705 0 0 1 .164-.22.633.633 0 0 1 .229-.133 37.731 37.731 0 0 1 6.373-1.602.601.601 0 0 1 .257.013.634.634 0 0 1 .233.12c.07.056.128.127.173.208a.772.772 0 0 1 .076.547.756.756 0 0 1-.11.255.684.684 0 0 1-.19.19.62.62 0 0 1-.241.095c-2.074.33-4.12.844-6.117 1.537l-.257.043zM33.29 42.84a.638.638 0 0 1-.449-.184.76.76 0 0 1-.222-.465.778.778 0 0 1 .155-.532.663.663 0 0 1 .205-.175.606.606 0 0 1 .252-.072c2.348-.217 4.44-.455 6.354-.714a.595.595 0 0 1 .255.02.631.631 0 0 1 .23.126.702.702 0 0 1 .166.213.766.766 0 0 1-.06.795.661.661 0 0 1-.433.274c-1.974.26-3.947.498-6.414.714h-.039zm12.727-1.796a.616.616 0 0 1-.423-.161.73.73 0 0 1-.228-.423.758.758 0 0 1 .098-.531.662.662 0 0 1 .18-.192.6.6 0 0 1 .235-.1 70.405 70.405 0 0 0 6.196-1.601.6.6 0 0 1 .535.014.662.662 0 0 1 .216.183.74.74 0 0 1 .128.264.78.78 0 0 1-.077.58.687.687 0 0 1-.192.214.619.619 0 0 1-.255.108 59.677 59.677 0 0 1-6.294 1.645h-.118zm-2.367-.368a.584.584 0 0 1-.248-.057.633.633 0 0 1-.206-.16 32.452 32.452 0 0 1-4.085-5.67.756.756 0 0 1-.092-.543.751.751 0 0 1 .103-.258.68.68 0 0 1 .186-.194.577.577 0 0 1 .713-.002.67.67 0 0 1 .175.196 31.54 31.54 0 0 0 3.947 5.281.696.696 0 0 1 .15.231.75.75 0 0 1-.15.786.695.695 0 0 1-.395.303l-.098.087zm14.76-3.722a.628.628 0 0 1-.35-.115.718.718 0 0 1-.304-.568.777.777 0 0 1 .039-.277.73.73 0 0 1 .132-.239.66.66 0 0 1 .206-.165 24.826 24.826 0 0 0 5.328-3.55.62.62 0 0 1 .928.109.773.773 0 0 1-.1 1.017 26.611 26.611 0 0 1-5.643 3.788.629.629 0 0 1-.237 0zM36.9 28.88a.632.632 0 0 1-.388-.138.735.735 0 0 1-.243-.36 27.96 27.96 0 0 1-1.086-7.12.778.778 0 0 1 .042-.275.728.728 0 0 1 .135-.236.656.656 0 0 1 .207-.162.582.582 0 0 1 .495-.016c.08.033.151.084.212.148.06.065.11.142.142.227a.75.75 0 0 1 .05.27 26.334 26.334 0 0 0 1.026 6.71.777.777 0 0 1-.034.55.712.712 0 0 1-.157.22.638.638 0 0 1-.223.139l-.178.043zm31.099-.887a.632.632 0 0 1-.336 0 .71.71 0 0 1-.302-.434.775.775 0 0 1 .065-.54 17.464 17.464 0 0 0 1.776-6.385.726.726 0 0 1 .06-.277.666.666 0 0 1 .16-.225.595.595 0 0 1 .23-.132.559.559 0 0 1 .26-.015.609.609 0 0 1 .246.079.666.666 0 0 1 .198.175.779.779 0 0 1 .148.525 18.838 18.838 0 0 1-1.973 6.947.686.686 0 0 1-.236.209.623.623 0 0 1-.296.073zM36.565 15.007h-.158a.606.606 0 0 1-.234-.114.673.673 0 0 1-.174-.206.738.738 0 0 1-.066-.545 26.348 26.348 0 0 1 2.486-6.688.667.667 0 0 1 .41-.325.61.61 0 0 1 .498.087c.15.1.256.262.297.449a.784.784 0 0 1-.08.547 23.845 23.845 0 0 0-2.348 6.276.715.715 0 0 1-.24.364.613.613 0 0 1-.391.134v.021zm32.953-.649a.617.617 0 0 1-.406-.16.728.728 0 0 1-.225-.403 16.598 16.598 0 0 0-2.447-6.103.786.786 0 0 1-.042-.797.7.7 0 0 1 .17-.21.6.6 0 0 1 .727-.046.68.68 0 0 1 .19.188 17.71 17.71 0 0 1 2.763 6.644.756.756 0 0 1-.082.538.668.668 0 0 1-.177.199.603.603 0 0 1-.234.107l-.237.043zM43.589 3.753a.648.648 0 0 1-.332-.113.763.763 0 0 1-.296-.822.74.74 0 0 1 .117-.248.67.67 0 0 1 .196-.18A18.963 18.963 0 0 1 49.529.16a.577.577 0 0 1 .49.115c.07.055.13.125.174.206.045.08.074.17.086.264a.793.793 0 0 1-.11.54.67.67 0 0 1-.423.304 17.596 17.596 0 0 0-5.92 2.164.54.54 0 0 1-.237 0zm18.53-.324a.47.47 0 0 1-.297 0 16.14 16.14 0 0 0-5.92-1.991.683.683 0 0 1-.434-.288.812.812 0 0 1-.138-.535.76.76 0 0 1 .086-.266.695.695 0 0 1 .173-.21.595.595 0 0 1 .491-.13 17.32 17.32 0 0 1 6.314 2.165.672.672 0 0 1 .196.18.782.782 0 0 1 .06.794.648.648 0 0 1-.233.213.585.585 0 0 1-.299.068z" fill="#8E49F2"/>
    <path d="M11.05 98.655a.544.544 0 0 1-.233-.038.586.586 0 0 1-.2-.135 35.055 35.055 0 0 1-2.408-2.532.696.696 0 0 1-.15-.232.75.75 0 0 1 .15-.786.651.651 0 0 1 .212-.157.602.602 0 0 1 .503 0c.08.036.152.09.212.157a28.99 28.99 0 0 0 2.31 2.446c.119.137.185.319.185.508 0 .19-.066.372-.186.509a.702.702 0 0 1-.395.26z" fill="#455A64"/>
    <defs>
        <linearGradient id="b9i68505la" x1="83.38" y1="36.638" x2="98.466" y2="36.757" gradientUnits="userSpaceOnUse">
            <stop stop-color="#FF4C35"/>
            <stop offset=".182" stop-color="#FE9B05"/>
            <stop offset=".365" stop-color="#FBC600"/>
            <stop offset=".594" stop-color="#72C63D"/>
            <stop offset=".781" stop-color="#665DFB"/>
            <stop offset="1" stop-color="#C92CE5"/>
        </linearGradient>
    </defs>
</svg>
