<svg width="100" height="100" viewBox="0 0 100 100" fill="none" xmlns="http://www.w3.org/2000/svg">
    <path d="M89.568 58.942V80.28c0 5.492-3.951 10.222-9.399 10.945a243.283 243.283 0 0 1-32.02 2.108c-10.855 0-21.544-.718-32.022-2.108-5.447-.723-9.398-5.453-9.398-10.945V58.942m82.839 0a10.944 10.944 0 0 0 3.765-8.339V31.61c0-5.427-3.856-10.116-9.223-10.92a241.552 241.552 0 0 0-17.135-1.942m22.593 40.194a10.222 10.222 0 0 1-3.38 1.908 120.382 120.382 0 0 1-38.04 6.125c-13.294 0-26.082-2.153-38.04-6.125a10.122 10.122 0 0 1-3.38-1.908m0 0a10.945 10.945 0 0 1-3.765-8.339V31.61c0-5.427 3.856-10.116 9.223-10.92 5.687-.85 11.402-1.499 17.135-1.942m37.654 0v-4.489A11.296 11.296 0 0 0 55.68 2.963H40.617a11.296 11.296 0 0 0-11.296 11.296v4.489m37.654 0a244.328 244.328 0 0 0-37.654 0m18.827 33.166h.04v.04h-.04v-.04z" stroke="url(#g6btvlamya)" stroke-width="2.963" stroke-linecap="round" stroke-linejoin="round"/>
    <defs>
        <linearGradient id="g6btvlamya" x1="9.3" y1="67.037" x2="86.413" y2="67.584" gradientUnits="userSpaceOnUse">
            <stop stop-color="#FF4C35"/>
            <stop offset=".182" stop-color="#FE9B05"/>
            <stop offset=".365" stop-color="#FBC600"/>
            <stop offset=".594" stop-color="#72C63D"/>
            <stop offset=".781" stop-color="#665DFB"/>
            <stop offset="1" stop-color="#C92CE5"/>
        </linearGradient>
    </defs>
</svg>
