<svg width="60" height="60" viewBox="0 0 60 60" fill="none" xmlns="http://www.w3.org/2000/svg">
    <rect width="60" height="60" rx="8" fill="#FFE99D"/>
    <g clip-path="url(#jizzawe17a)">
        <path d="M44 16h-4v-2c0-1.1-.9-2-2-2H22c-1.1 0-2 .9-2 2v2h-4c-2.2 0-4 1.8-4 4v2c0 5.1 3.84 9.26 8.78 9.88 1.26 3 3.96 5.26 7.22 5.92V44h-6c-1.1 0-2 .9-2 2s.9 2 2 2h16c1.1 0 2-.9 2-2s-.9-2-2-2h-6v-6.2c3.26-.66 5.96-2.92 7.22-5.92C44.16 31.26 48 27.1 48 22v-2c0-2.2-1.8-4-4-4zm-28 6v-2h4v7.64c-2.32-.84-4-3.04-4-5.64zm28 0c0 2.6-1.68 4.8-4 5.64V20h4v2z" fill="#BA9E3A"/>
    </g>
    <defs>
        <clipPath id="jizzawe17a">
            <path fill="#fff" transform="translate(6 6)" d="M0 0h48v48H0z"/>
        </clipPath>
    </defs>
</svg>
