<svg width="68" height="68" viewBox="0 0 68 68" fill="none" xmlns="http://www.w3.org/2000/svg">
    <path d="M27.347 31.767c0 .333-8.207 27.87-8.207 27.87l7.054-3.153L30.058 65l4.966-32.803-7.677-.43z" fill="url(#fgh0lxwjpa)"/>
    <path d="m33.352 32.933 1.672 31.584 6.145-8.663 7.937 5.679-7.937-31.022-7.817 2.422z" fill="url(#dqzh1zuagb)"/>
    <path d="M35.157 9.268c.7.06 1.392.199 2.062.413a.864.864 0 0 1 .063-.333c.604-1.616 1.206-3.23 1.805-4.84l.044-.04a1.555 1.555 0 0 1-.597-.599 1.882 1.882 0 0 0-1.622-.866c-.333 1.372-.73 3.25-1.022 4.42a5.275 5.275 0 0 1-.733 1.845z" fill="url(#vcaw1bflyc)"/>
    <path d="M26.464 23.977a9.524 9.524 0 0 1-1.072-2.139.78.78 0 0 1-.334.193l-.143.05c-.089.058-.182.108-.28.15a8.754 8.754 0 0 1-.925.297l-1.14.316c-.809.22-1.545.41-2.078.536a4.604 4.604 0 0 1-.872.177c.269-.126.55-.224.839-.293l.726-.213-1.665.37c-.217.945-.886 1.958-.297 2.687.063.075.136.14.217.193 2.121-.786 4.842-1.802 6.624-2.271.13-.04.265-.059.4-.053z" fill="url(#g7dlwdzztd)"/>
    <path d="M31.926 9.025v.503a9.515 9.515 0 0 1 2.332-.303v-.13l.11-1.752v-.36c.023-1.259.073-2.301.116-2.504-.353-.417-.69-1.29-1.402-1.383-.59-.076-.896 0-1.146.24.027 1.752-.03 3.967-.01 5.689z" fill="url(#0burv63oke)"/>
    <path d="M22.724 15.164c.146.057.293.11.44.16a71.445 71.445 0 0 1-1.876-.777c.423.197.906.41 1.436.617z" fill="url(#0jvlqu8bvf)"/>
    <path d="M24.865 18.224c.043-.732.17-1.458.38-2.161-.187-.057-.38-.12-.576-.187a9.81 9.81 0 0 1-1.999-.553 18.823 18.823 0 0 1-2.115-.999c-.366-.196-.626-.333-.749-.43l-.4-.17c-.26.424-.666.77-.949 1.193-.152.24-.234.518-.236.803 2.168.593 4.786 1.375 6.608 2.461l.036.043z" fill="url(#5gvheoksag)"/>
    <path d="M25.598 15.01a9.323 9.323 0 0 1 1-1.775l-.144-.093a16.888 16.888 0 0 1-2.997-2.541l-.024-.027c-.406-.333-.792-.69-1.136-1a.999.999 0 0 1-.23.39c-.516.517-1.485.184-2.054.64a1.029 1.029 0 0 0-.363.666 56.942 56.942 0 0 1 5.252 3.304c.273.17.516.32.696.436z" fill="url(#s4bzqehk2h)"/>
    <path d="M26.504 11.73c.233.333.44.62.593.846a9.487 9.487 0 0 1 1.768-1.619c-.2-.253-.446-.583-.719-.95a30.96 30.96 0 0 1-.81-.975 25.708 25.708 0 0 1-1.045-1.402 2.862 2.862 0 0 1-.377-.62s.104.087.247.263c-.233-.333-.453-.616-.646-.869-.137.308-.36.57-.64.756-.42.25-.976.237-1.452.333a35.765 35.765 0 0 1 2.665 3.637l.416.6z" fill="url(#xwwa15f6ji)"/>
    <path d="M29.455 10.57a9.282 9.282 0 0 1 1.726-.809c-.024-.07-.044-.143-.067-.226-.13-.45-.287-1.076-.423-1.779a21.714 21.714 0 0 1-.277-1.805 5.708 5.708 0 0 1-.046-.723l-.02-.13a1.688 1.688 0 0 1-1.24-.403c-.549-.493-1.481-.43-2.2-.12.759 1.829 1.894 4.33 2.52 5.932.01.02.017.04.027.063z" fill="url(#2v41y6omdj)"/>
    <path d="m27.014 12.672-.024-.027.02.034.004-.007z" fill="url(#7me11qk8ok)"/>
    <path d="M25.225 21.315a9.63 9.63 0 0 1-.363-2.291h-.053a26.91 26.91 0 0 1-2.265 0h-.78a20.778 20.778 0 0 1-2.59-.18l-.507-.03c-.113.173-.227.333-.333.526-.29.51-.473 1.15-.2 1.665l.03.044c2.205.053 4.408.117 6.608.193.154-.006.308.02.453.073z" fill="url(#e9aor7xl0l)"/>
    <path d="m28.32 26.215.14-.09a9.593 9.593 0 0 1-1.666-1.709.8.8 0 0 1-.26.28.619.619 0 0 1-.186.256c-.427.333-1.026.703-1.696 1.143-.67.44-1.275.812-1.722 1.082-.231.161-.479.297-.74.407.205-.192.428-.363.667-.51.247-.167.546-.373.883-.593-.646.39-1.296.78-1.879 1.136.11.493-.063 1.066.163 1.529.227.463.693.6 1.213.692l3.963-2.944c.341-.276.717-.504 1.12-.68z" fill="url(#a98cc6a2tm)"/>
    <path d="m46.418 27.747.543.426a.32.32 0 0 1 .033-.037l-.176-.116-.4-.273z" fill="url(#vhuzl3d84n)"/>
    <path d="M41.472 24.899a9.527 9.527 0 0 1-1.695 1.535c.175.18.339.371.49.573a.549.549 0 0 1 .052.04c.27.269.495.58.667.92l.686 1.169.02.04c.446.742.892 1.515 1.285 2.188a1.09 1.09 0 0 1 .197-.297c.693-.723 2.098-.02 2.83-.696.073-.069.136-.147.187-.233-1.349-1.469-3.147-3.527-4.293-4.73a3.178 3.178 0 0 1-.426-.51zm.53 1.579c.299.379.575.776.825 1.189.297.381.572.78.823 1.192a4.115 4.115 0 0 1-.966-1.092 4.261 4.261 0 0 1-.682-1.29z" fill="url(#mgn17v9x5o)"/>
    <path d="M34.57 4.539a.152.152 0 0 1-.023-.024c.003.055.003.11 0 .164l.024-.14z" fill="url(#pmh8070i0p)"/>
    <path d="M43.73 19.79a9.427 9.427 0 0 1-.456 1.998l.26.127.919.48a6.078 6.078 0 0 1-.893-.553c.964.418 1.904.889 2.815 1.412.666.363 1.299.706 1.775.976l.31.13a1.35 1.35 0 0 1 .066-.46c.26-.75 1.22-1.142 1.549-1.802-2.012-.736-4.596-1.652-6.345-2.308z" fill="url(#w8xz57c2uq)"/>
    <path d="M41.918 24.353c.184.143.417.333.666.513l.09.063a129.65 129.65 0 0 1 4.2 2.988l.2.153c.333-.24.733-.39 1.08-.596-1.713-1.5-3.734-3.57-5.273-4.75a9.659 9.659 0 0 1-.963 1.629z" fill="url(#w2bwglkewr)"/>
    <path d="M31.074 27.74a1.684 1.684 0 0 0-.104-.19 9.418 9.418 0 0 1-1.735-.876l-.046.06c-.124.15-.264.31-.417.48a27.473 27.473 0 0 1-2.285 2.445 2.758 2.758 0 0 1-.546.456s.03-.063.107-.153c-.273.273-.53.54-.763.789.366.763 0 1.875.626 2.491.11.11.243.196.39.25 1.332-1.788 3.147-4.103 4.44-5.539.08-.11.2-.185.333-.213z" fill="url(#n1o9vvq0bs)"/>
    <path d="M34.87 28.146a.79.79 0 0 1 .15.437c.108.328.131.679.067 1.019l-.163 1.289c-.08.603-.16 1.166-.23 1.665-.053.636-.103 1.263-.16 1.829.341.32.73.584 1.153.782.64.207 1.209-.103 1.775-.516-.13-2.135-.243-4.796-.157-6.694l.1.233c-.03-.11-.04-.174-.03-.177.135.239.242.493.317.756a34.75 34.75 0 0 1 .782 2.482c.234.789.437 1.585.59 2.331.236-.105.491-.158.75-.153.586.017 1.205.366 1.758.44-.94-2.275-1.942-5.123-2.332-7.068a9.445 9.445 0 0 1-4.37 1.345zm1.21 3.62a3.355 3.355 0 0 1-.074-.932 3.564 3.564 0 0 1 .017-.936 3.47 3.47 0 0 1 .057 1.869z" fill="url(#bxfpj8i82t)"/>
    <path d="M33.961 28.186a.174.174 0 0 1 .037-.033 9.347 9.347 0 0 1-2.954-.576c.023.03.05.063.08.106.01.022.02.043.033.064.193.053.253.333.23.543a2.496 2.496 0 0 1-.053.31c-.02.295-.086.587-.197.862-.147.383-.333.78-.546 1.199a21.996 21.996 0 0 1-1.173 2.072c-.196.306-.356.533-.456.666.12.014.24.043.353.086.93.363 1.432 1.712 2.421 1.596l.09-.017c.58-1.845 1.16-4.403 1.739-6.118.074-.28.21-.54.396-.76z" fill="url(#1w5n802b0u)"/>
    <path d="M42.185 13.412c.11-.1.222-.197.333-.29.12-.17.268-.316.44-.433.263-.187.556-.37.869-.56.623-.38 1.202-.692 1.632-.906.293-.143.51-.24.623-.28l.592-.35c-.586-.918.174-2.314-.516-3.16a1.051 1.051 0 0 0-.103-.106c-1.735 1.285-3.974 2.744-5.922 3.896a9.478 9.478 0 0 1 2.052 2.189zm.416-3.724c.393-.284.806-.54 1.236-.766a4.488 4.488 0 0 1-1.143.913c-.396.29-.835.514-1.302.666.383-.3.787-.572 1.21-.813z" fill="url(#ei1h4pzaav)"/>
    <path d="M43.67 17.162c.082.505.123 1.017.124 1.529v.283h.156c.28 0 .556.026.836.046h.197c.573 0 1.362.054 2.235.117a52.8 52.8 0 0 1 2.111.203c.14-.63.916-.942 1.146-1.552a1.289 1.289 0 0 0-.067-.956c-2.035.113-4.786.28-6.481.333l-.257-.003z" fill="url(#sdirwxoa2w)"/>
    <path d="M41.359 5.378 37.98 9.625c-.071.09-.155.168-.25.233a9.324 9.324 0 0 1 2.096 1.129l.046-.06a1 1 0 0 1 .207-.333c.15-.173.333-.376.526-.596 1-1.2 2.138-2.412 3.09-3.417a1.442 1.442 0 0 1-.519-.334c-.42-.423-.51-1.129-.999-1.452a1.15 1.15 0 0 0-.523-.166 1 1 0 0 1-.296.75z" fill="url(#ife5jb8l7x)"/>
    <path d="m43.45 16.166.277-.123c.208-.115.425-.214.65-.293.412-.17.998-.39 1.625-.623a48.413 48.413 0 0 1 1.642-.576c.225-.09.46-.154.7-.19 0 0-.08.06-.24.13l.859-.283c0-.693.193-1.43-.16-2.019a1.435 1.435 0 0 0-.333-.376c-1.816.733-4.297 1.885-5.889 2.218a9.4 9.4 0 0 1 .87 2.135z" fill="url(#ar64qr2i3y)"/>
    <path d="m49.302 19.487-.742-.057c.246.017.493.037.742.057z" fill="url(#z34zlwkklz)"/>
    <path d="M31.24 9.505c.02.08.034.153.047.22l.053-.017a7.408 7.408 0 0 1-.14-.393c.004.063.02.133.04.19z" fill="url(#3u8y0nllzA)"/>
    <path d="M42.345 13.658a.969.969 0 0 1 .18-.536c-.118.093-.23.19-.334.29.04.08.1.163.154.246z" fill="url(#1zr42gzi1B)"/>
    <path d="M34.678 28.153c.142.09.257.219.333.37 0 .02 0 .04.023.06a.79.79 0 0 0-.15-.437l-.206.007z" fill="url(#il6egwsrdC)"/>
    <path d="M31.157 27.747c.106.198.166.418.177.643.005.07.005.14 0 .21.024-.103.041-.206.053-.31.023-.214-.037-.49-.23-.543z" fill="url(#zph8iiu0iD)"/>
    <path d="M37.282 9.345a.864.864 0 0 0-.063.333c.173.057.333.116.513.183.094-.065.178-.144.25-.233l3.377-4.247a1 1 0 0 0 .3-.739c-.61-.05-1.31.253-1.919.063a4.522 4.522 0 0 1-.43-.15c-.173.523-.46 1.333-.796 2.225-.327.951-.708 1.883-1.139 2.791.27-.968.596-1.92.976-2.85.333-.903.65-1.703.863-2.212a.518.518 0 0 1-.073-.04l-.044.04-1.815 4.836zm1.759-1.392c.29-.416.619-.805.979-1.163-.22.46-.504.888-.843 1.27-.292.418-.64.794-1.036 1.118.263-.434.564-.844.9-1.225z" fill="url(#lv6o10f75E)"/>
    <path d="M41.499 9.018c.562-.609 1.079-1.155 1.458-1.545a4.22 4.22 0 0 1 .643-.606 4.567 4.567 0 0 1-.553.69c-.356.409-.859.969-1.418 1.578-.56.61-1.08 1.16-1.46 1.546a.666.666 0 0 0-.23.386l.19.146c1.95-1.152 4.187-2.61 5.923-3.896a1.43 1.43 0 0 0-.543-.334c-.56-.193-1.25-.186-1.802-.403-.953 1-2.099 2.219-3.091 3.418.256-.293.56-.626.883-.98z" fill="url(#qufs8mkg5F)"/>
    <path d="M46.178 10.934c-.207.16-.43.299-.666.413-.41.24-.98.566-1.599.942-.62.377-1.229.69-1.405 1.116a.876.876 0 0 0-.08.413l.13.226c1.592-.333 4.073-1.485 5.888-2.218-.552-.443-1.382-.616-1.775-1.219l-.583.327c.054 0 .087-.02.09 0zm-1.169 1.998a3.662 3.662 0 0 1-.962.356 4.663 4.663 0 0 1 1.875-.822c-.282.189-.59.337-.913.44v.026z" fill="url(#17fk4d5peG)"/>
    <path d="M47.69 14.667c-.413.167-.999.387-1.628.623-.63.237-1.223.437-1.646.573a2.861 2.861 0 0 1-.696.19l-.276.123c.09.33.164.663.22 1h.25c1.694-.044 4.446-.21 6.48-.334a2.91 2.91 0 0 0-.392-.666c-.363-.456-.813-.876-.973-1.435a2.165 2.165 0 0 1-.073-.55l-.86.283-.406.193z" fill="url(#2cibuy6n8H)"/>
    <path d="m47.197 19.32-2.228-.17a5.39 5.39 0 0 1-.922-.106c.243-.032.488-.038.732-.02-.28-.02-.556-.037-.836-.047h-.156c0 .277-.027.546-.057.816 1.749.666 4.33 1.572 6.345 2.308a1 1 0 0 0 .113-.436c.024-.796-.936-1.405-.886-2.175-.25-.02-.496-.04-.742-.066l-1.363-.104z" fill="url(#4psl1cz8iI)"/>
    <path d="m44.453 22.394-.92-.47-.26-.126a9.15 9.15 0 0 1-.376.926c1.54 1.18 3.56 3.25 5.273 4.75.215-.119.398-.29.53-.497.412-.726-.15-1.608-.23-2.441a104.275 104.275 0 0 1-4.017-2.142z" fill="url(#ysgewldy2J)"/>
    <path d="M44.703 26.544c-.82-.582-1.56-1.122-2.085-1.515-.377-.283-.647-.49-.763-.596-.123.16-.25.316-.383.466.12.184.258.354.413.51 1.146 1.202 2.944 3.26 4.293 4.73.313-.52.237-1.276.613-1.786a1.23 1.23 0 0 1 .17-.18l-.543-.426c-.486-.337-1.08-.75-1.715-1.203z" fill="url(#qju5uwajoK)"/>
    <path d="M41.509 29.222c-.24-.413-.467-.81-.666-1.176a3.873 3.873 0 0 0-.59-.906.632.632 0 0 0-.643-.143c-.156.057-.2.16-.213.147-.013-.014 0-.117.183-.21a.695.695 0 0 1 .696.073 5.626 5.626 0 0 0-.49-.573c-.172.12-.35.24-.529.35.383 1.945 1.386 4.793 2.332 7.068a1 1 0 0 0 .772-.177c.593-.453.35-1.405.553-2.118l-.133-.213a55.374 55.374 0 0 1-1.272-2.122z" fill="url(#597z9zaciL)"/>
    <path d="M38.807 32.55c.079.263.127.534.144.809a4.23 4.23 0 0 1-.26-.776l-.553-1.895c-.21-.706-.4-1.35-.563-1.892-.077-.27-.137-.483-.17-.62l-.1-.233c-.086 1.899.027 4.56.157 6.695a8.573 8.573 0 0 1 1.602-1.073 29.507 29.507 0 0 0-.59-2.331c.14.506.253.96.333 1.316z" fill="url(#oxy9j6ovgM)"/>
    <path d="M34.588 33.222a5.484 5.484 0 0 1-.187.96 5.119 5.119 0 0 1 .067-.976c.063-.6.163-1.426.283-2.332l.18-1.285a1.961 1.961 0 0 0-.044-1 .897.897 0 0 0-.363-.416h-.533a.173.173 0 0 0-.036.033 1.945 1.945 0 0 0-.397.763c-.58 1.715-1.159 4.273-1.738 6.118.686-.143 1.129-.979 1.838-1.025.321 0 .63.12.87.333.056-.567.106-1.193.16-1.829-.03.227-.067.456-.1.656z" fill="url(#iroy7munkN)"/>
    <path d="M30.437 30.584c.204-.412.403-.812.553-1.175.138-.316.212-.655.22-1a1.641 1.641 0 0 0-.136-.665.553.553 0 0 0-.334.213c-1.292 1.435-3.114 3.75-4.44 5.538.733.277 1.74-.193 2.602-.1.08-.146.223-.392.413-.722.3-.53.71-1.263 1.122-2.089z" fill="url(#k9knkerxrO)"/>
    <path d="M26.048 29.962c.233-.277.832-.9 1.522-1.642.75-.803 1.375-1.49 1.592-1.69a12.021 12.021 0 0 1-.633-.449c-.264.248-.54.481-.83.7a4.79 4.79 0 0 1-1.038.7c.27-.323.583-.604.932-.837.28-.216.536-.403.726-.53-.403.171-.782.395-1.125.667l-3.947 2.957c.686.12 1.462.15 1.892.666.064.079.12.165.163.257.216-.26.473-.51.746-.8z" fill="url(#qfk8ntv64P)"/>
    <path d="M24.546 25.948c.666-.433 1.288-.81 1.708-1.089a.543.543 0 0 0 .193-.246.333.333 0 0 0 0-.233c-.043-.13-.133-.154-.126-.167.006-.013.11 0 .19.14a.417.417 0 0 1 .01.343.798.798 0 0 0 .26-.28c-.107-.143-.214-.29-.317-.44a1.182 1.182 0 0 0-.4.054c-1.782.47-4.503 1.485-6.624 2.271.666.487 1.881.277 2.311 1.026.047.092.082.19.103.29.583-.357 1.233-.746 1.879-1.136.253-.17.513-.346.813-.533z" fill="url(#72zpy6jhbQ)"/>
    <path d="m22.527 22.677 1.143-.306c.353-.09.666-.16.922-.253.275-.097.522-.26.72-.473 0 0-.02.09-.124.21-.078.088-.169.164-.27.226l.144-.05a.78.78 0 0 0 .333-.193c-.06-.173-.117-.333-.167-.523a1.18 1.18 0 0 0-.446-.08 545.903 545.903 0 0 0-6.608-.193c.306.52 1 .75 1.272 1.286.16.342.187.731.077 1.092l1.665-.37c.393-.126.856-.243 1.34-.373z" fill="url(#c44mocdxvR)"/>
    <path d="M18.917 18.774c.28-.026.56-.026.84 0 .519.02 1.232.047 2.021.063.79.017 1.505.02 2.022.024.281-.015.563-.004.842.033a3.618 3.618 0 0 1-.839.09c-.333.02-.773.03-1.249.033.82.033 1.605.043 2.265 0h.053v-.799l-.046-.03c-1.822-1.086-4.44-1.869-6.608-2.462a.79.79 0 0 0 .51.853l-.048-.3c.537.233.683.956.513 1.516-.125.356-.3.692-.52.999l.507.03a.778.778 0 0 1-.263-.05zm4.663-.47c.377.04.747.135 1.096.284a3.824 3.824 0 0 1-1.126-.11 3.741 3.741 0 0 1-1.093-.284c.378-.02.756.018 1.123.11z" fill="url(#armifnnojS)"/>
    <path d="M19.713 13.845c.306.1.603.228.886.382l.69.333c.612.264 1.252.53 1.874.777.576.209 1.169.366 1.772.47a.666.666 0 0 0 .36-.06.274.274 0 0 0 .047-.04c.066-.197.136-.39.216-.584-.306-.15-.773-.403-1.292-.702a9.544 9.544 0 0 1-1.572-1c.579.235 1.136.52 1.665.853l.54.333a56.958 56.958 0 0 0-5.26-3.34c-.106.626.134 1.425-.06 2.075-.045.137-.106.27-.183.393l.4.17c-.053-.03-.087-.057-.083-.06z" fill="url(#3eakrg0y4T)"/>
    <path d="M22.93 9.968c.22.16.421.344.603.546.363.333.87.82 1.449 1.312.58.493 1.129.916 1.532 1.216l.137.103c.116-.16.233-.316.36-.466l-.02-.034c-.177-.21-.397-.492-.63-.816a5.763 5.763 0 0 1-.793-1.312c.194.184.364.393.506.62A35.767 35.767 0 0 0 23.41 7.5c-.279.043-.534.18-.723.39-.37.449-.233 1.155-.413 1.688.333.306.73.646 1.136 1a3.224 3.224 0 0 1-.48-.61z" fill="url(#g21ul17b5U)"/>
    <path d="M27.473 8.935c.833 1.053 1.529 1.892 1.512 1.945.154-.104.31-.204.47-.3 0-.023-.017-.043-.027-.063-.626-1.599-1.762-4.103-2.521-5.932a3.519 3.519 0 0 0-.353.183c-.556.334-.74 1.056-1.04 1.646.194.253.414.55.647.87.233.319.75.942 1.312 1.651zm.86-.483c.213.34.394.701.54 1.076.195.351.357.72.482 1.102a5.182 5.182 0 0 1-1.023-2.178z" fill="url(#sjkeckfeuV)"/>
    <path d="M30.378 5.191c.077.242.13.491.16.743.08.456.19 1.093.332 1.789.12.61.237 1.155.333 1.592.047.143.094.273.14.393.177-.06.357-.113.543-.163a8.358 8.358 0 0 1-.17-1.103 5.174 5.174 0 0 1-.113-1.126c.165.347.262.723.287 1.106.03.22.043.426.05.603 0-1.722.036-3.937.033-5.689-.277.263-.48.723-.926 1.382a.92.92 0 0 1-.686.38l.02.13c-.01-.02-.007-.037-.003-.037z" fill="url(#pqj0cer2fW)"/>
    <path d="M34.57 6.987c-.016.969-.046 1.808-.083 2.238.227 0 .453 0 .667.037a5.277 5.277 0 0 0 .732-1.842c.293-1.17.697-3.048 1.023-4.42a1.439 1.439 0 0 0-.59.17c-.513.283-1.135 1.522-1.458 1.529a.423.423 0 0 1-.3-.16v.14c.01.406.01 1.285.01 2.308z" fill="url(#y744gstvtX)"/>
    <path d="M34.324 26.994a8.303 8.303 0 1 0 0-16.607 8.303 8.303 0 0 0 0 16.607z" fill="#FAFAFA"/>
    <path d="m34.967 14.028 1.17 2.365a.404.404 0 0 0 .3.22l2.61.376a.4.4 0 0 1 .22.666l-1.888 1.838a.396.396 0 0 0-.114.354l.443 2.6a.396.396 0 0 1-.576.42l-2.331-1.229a.41.41 0 0 0-.373 0l-2.332 1.23a.396.396 0 0 1-.576-.42l.446-2.602a.399.399 0 0 0-.116-.352l-1.889-1.839a.4.4 0 0 1 .223-.666l2.608-.377a.404.404 0 0 0 .3-.22l1.17-2.364a.396.396 0 0 1 .705 0z" fill="url(#bg0svq632Y)"/>
    <path d="m37.768 13.292.14.453a.636.636 0 0 0 .423.42l.453.142-.456.154a.647.647 0 0 0-.4.396l-.16.463-.176-.483a.646.646 0 0 0-.4-.386l-.436-.144.43-.146a.628.628 0 0 0 .39-.373l.192-.496z" fill="url(#hovuq6hy7Z)"/>
    <defs>
        <linearGradient id="fgh0lxwjpa" x1="20.254" y1="55.33" x2="33.808" y2="55.376" gradientUnits="userSpaceOnUse">
            <stop stop-color="#FF4C35"/>
            <stop offset=".182" stop-color="#FE9B05"/>
            <stop offset=".365" stop-color="#FBC600"/>
            <stop offset=".594" stop-color="#72C63D"/>
            <stop offset=".781" stop-color="#665DFB"/>
            <stop offset="1" stop-color="#C92CE5"/>
        </linearGradient>
        <linearGradient id="dqzh1zuagb" x1="34.456" y1="54.622" x2="47.9" y2="54.666" gradientUnits="userSpaceOnUse">
            <stop stop-color="#FF4C35"/>
            <stop offset=".182" stop-color="#FE9B05"/>
            <stop offset=".365" stop-color="#FBC600"/>
            <stop offset=".594" stop-color="#72C63D"/>
            <stop offset=".781" stop-color="#665DFB"/>
            <stop offset="1" stop-color="#C92CE5"/>
        </linearGradient>
        <linearGradient id="vcaw1bflyc" x1="35.436" y1="7.738" x2="38.826" y2="7.752" gradientUnits="userSpaceOnUse">
            <stop stop-color="#FF4C35"/>
            <stop offset=".182" stop-color="#FE9B05"/>
            <stop offset=".365" stop-color="#FBC600"/>
            <stop offset=".594" stop-color="#72C63D"/>
            <stop offset=".781" stop-color="#665DFB"/>
            <stop offset="1" stop-color="#C92CE5"/>
        </linearGradient>
        <linearGradient id="g7dlwdzztd" x1="19.511" y1="25.003" x2="25.891" y2="25.078" gradientUnits="userSpaceOnUse">
            <stop stop-color="#FF4C35"/>
            <stop offset=".182" stop-color="#FE9B05"/>
            <stop offset=".365" stop-color="#FBC600"/>
            <stop offset=".594" stop-color="#72C63D"/>
            <stop offset=".781" stop-color="#665DFB"/>
            <stop offset="1" stop-color="#C92CE5"/>
        </linearGradient>
        <linearGradient id="0burv63oke" x1="32.102" y1="7.648" x2="34.288" y2="7.654" gradientUnits="userSpaceOnUse">
            <stop stop-color="#FF4C35"/>
            <stop offset=".182" stop-color="#FE9B05"/>
            <stop offset=".365" stop-color="#FBC600"/>
            <stop offset=".594" stop-color="#72C63D"/>
            <stop offset=".781" stop-color="#665DFB"/>
            <stop offset="1" stop-color="#C92CE5"/>
        </linearGradient>
        <linearGradient id="0jvlqu8bvf" x1="21.42" y1="15.098" x2="23.02" y2="15.125" gradientUnits="userSpaceOnUse">
            <stop stop-color="#FF4C35"/>
            <stop offset=".182" stop-color="#FE9B05"/>
            <stop offset=".365" stop-color="#FBC600"/>
            <stop offset=".594" stop-color="#72C63D"/>
            <stop offset=".781" stop-color="#665DFB"/>
            <stop offset="1" stop-color="#C92CE5"/>
        </linearGradient>
        <linearGradient id="5gvheoksag" x1="18.713" y1="16.915" x2="24.707" y2="16.981" gradientUnits="userSpaceOnUse">
            <stop stop-color="#FF4C35"/>
            <stop offset=".182" stop-color="#FE9B05"/>
            <stop offset=".365" stop-color="#FBC600"/>
            <stop offset=".594" stop-color="#72C63D"/>
            <stop offset=".781" stop-color="#665DFB"/>
            <stop offset="1" stop-color="#C92CE5"/>
        </linearGradient>
        <linearGradient id="s4bzqehk2h" x1="20.137" y1="13.429" x2="26.065" y2="13.482" gradientUnits="userSpaceOnUse">
            <stop stop-color="#FF4C35"/>
            <stop offset=".182" stop-color="#FE9B05"/>
            <stop offset=".365" stop-color="#FBC600"/>
            <stop offset=".594" stop-color="#72C63D"/>
            <stop offset=".781" stop-color="#665DFB"/>
            <stop offset="1" stop-color="#C92CE5"/>
        </linearGradient>
        <linearGradient id="xwwa15f6ji" x1="23.805" y1="10.78" x2="28.449" y2="10.809" gradientUnits="userSpaceOnUse">
            <stop stop-color="#FF4C35"/>
            <stop offset=".182" stop-color="#FE9B05"/>
            <stop offset=".365" stop-color="#FBC600"/>
            <stop offset=".594" stop-color="#72C63D"/>
            <stop offset=".781" stop-color="#665DFB"/>
            <stop offset="1" stop-color="#C92CE5"/>
        </linearGradient>
        <linearGradient id="2v41y6omdj" x1="27.207" y1="8.756" x2="30.853" y2="8.774" gradientUnits="userSpaceOnUse">
            <stop stop-color="#FF4C35"/>
            <stop offset=".182" stop-color="#FE9B05"/>
            <stop offset=".365" stop-color="#FBC600"/>
            <stop offset=".594" stop-color="#72C63D"/>
            <stop offset=".781" stop-color="#665DFB"/>
            <stop offset="1" stop-color="#C92CE5"/>
        </linearGradient>
        <linearGradient id="7me11qk8ok" x1="26.992" y1="12.669" x2="27.012" y2="12.669" gradientUnits="userSpaceOnUse">
            <stop stop-color="#FF4C35"/>
            <stop offset=".182" stop-color="#FE9B05"/>
            <stop offset=".365" stop-color="#FBC600"/>
            <stop offset=".594" stop-color="#72C63D"/>
            <stop offset=".781" stop-color="#665DFB"/>
            <stop offset="1" stop-color="#C92CE5"/>
        </linearGradient>
        <linearGradient id="e9aor7xl0l" x1="18.507" y1="20.587" x2="24.669" y2="20.714" gradientUnits="userSpaceOnUse">
            <stop stop-color="#FF4C35"/>
            <stop offset=".182" stop-color="#FE9B05"/>
            <stop offset=".365" stop-color="#FBC600"/>
            <stop offset=".594" stop-color="#72C63D"/>
            <stop offset=".781" stop-color="#665DFB"/>
            <stop offset="1" stop-color="#C92CE5"/>
        </linearGradient>
        <linearGradient id="a98cc6a2tm" x1="22.324" y1="28.261" x2="27.954" y2="28.309" gradientUnits="userSpaceOnUse">
            <stop stop-color="#FF4C35"/>
            <stop offset=".182" stop-color="#FE9B05"/>
            <stop offset=".365" stop-color="#FBC600"/>
            <stop offset=".594" stop-color="#72C63D"/>
            <stop offset=".781" stop-color="#665DFB"/>
            <stop offset="1" stop-color="#C92CE5"/>
        </linearGradient>
        <linearGradient id="vhuzl3d84n" x1="46.458" y1="28.049" x2="46.95" y2="28.054" gradientUnits="userSpaceOnUse">
            <stop stop-color="#FF4C35"/>
            <stop offset=".182" stop-color="#FE9B05"/>
            <stop offset=".365" stop-color="#FBC600"/>
            <stop offset=".594" stop-color="#72C63D"/>
            <stop offset=".781" stop-color="#665DFB"/>
            <stop offset="1" stop-color="#C92CE5"/>
        </linearGradient>
        <linearGradient id="mgn17v9x5o" x1="40.226" y1="29.483" x2="45.7" y2="29.521" gradientUnits="userSpaceOnUse">
            <stop stop-color="#FF4C35"/>
            <stop offset=".182" stop-color="#FE9B05"/>
            <stop offset=".365" stop-color="#FBC600"/>
            <stop offset=".594" stop-color="#72C63D"/>
            <stop offset=".781" stop-color="#665DFB"/>
            <stop offset="1" stop-color="#C92CE5"/>
        </linearGradient>
        <linearGradient id="pmh8070i0p" x1="34.549" y1="4.631" x2="34.569" y2="4.631" gradientUnits="userSpaceOnUse">
            <stop stop-color="#FF4C35"/>
            <stop offset=".182" stop-color="#FE9B05"/>
            <stop offset=".365" stop-color="#FBC600"/>
            <stop offset=".594" stop-color="#72C63D"/>
            <stop offset=".781" stop-color="#665DFB"/>
            <stop offset="1" stop-color="#C92CE5"/>
        </linearGradient>
        <linearGradient id="w8xz57c2uq" x1="43.751" y1="23.03" x2="49.554" y2="23.091" gradientUnits="userSpaceOnUse">
            <stop stop-color="#FF4C35"/>
            <stop offset=".182" stop-color="#FE9B05"/>
            <stop offset=".365" stop-color="#FBC600"/>
            <stop offset=".594" stop-color="#72C63D"/>
            <stop offset=".781" stop-color="#665DFB"/>
            <stop offset="1" stop-color="#C92CE5"/>
        </linearGradient>
        <linearGradient id="w2bwglkewr" x1="42.355" y1="26.514" x2="47.676" y2="26.558" gradientUnits="userSpaceOnUse">
            <stop stop-color="#FF4C35"/>
            <stop offset=".182" stop-color="#FE9B05"/>
            <stop offset=".365" stop-color="#FBC600"/>
            <stop offset=".594" stop-color="#72C63D"/>
            <stop offset=".781" stop-color="#665DFB"/>
            <stop offset="1" stop-color="#C92CE5"/>
        </linearGradient>
        <linearGradient id="n1o9vvq0bs" x1="25.691" y1="31.508" x2="30.631" y2="31.538" gradientUnits="userSpaceOnUse">
            <stop stop-color="#FF4C35"/>
            <stop offset=".182" stop-color="#FE9B05"/>
            <stop offset=".365" stop-color="#FBC600"/>
            <stop offset=".594" stop-color="#72C63D"/>
            <stop offset=".781" stop-color="#665DFB"/>
            <stop offset="1" stop-color="#C92CE5"/>
        </linearGradient>
        <linearGradient id="bxfpj8i82t" x1="35.028" y1="32.779" x2="41.033" y2="32.815" gradientUnits="userSpaceOnUse">
            <stop stop-color="#FF4C35"/>
            <stop offset=".182" stop-color="#FE9B05"/>
            <stop offset=".365" stop-color="#FBC600"/>
            <stop offset=".594" stop-color="#72C63D"/>
            <stop offset=".781" stop-color="#665DFB"/>
            <stop offset="1" stop-color="#C92CE5"/>
        </linearGradient>
        <linearGradient id="1w5n802b0u" x1="29.315" y1="32.902" x2="33.612" y2="32.923" gradientUnits="userSpaceOnUse">
            <stop stop-color="#FF4C35"/>
            <stop offset=".182" stop-color="#FE9B05"/>
            <stop offset=".365" stop-color="#FBC600"/>
            <stop offset=".594" stop-color="#72C63D"/>
            <stop offset=".781" stop-color="#665DFB"/>
            <stop offset="1" stop-color="#C92CE5"/>
        </linearGradient>
        <linearGradient id="ei1h4pzaav" x1="40.592" y1="11.641" x2="46.173" y2="11.684" gradientUnits="userSpaceOnUse">
            <stop stop-color="#FF4C35"/>
            <stop offset=".182" stop-color="#FE9B05"/>
            <stop offset=".365" stop-color="#FBC600"/>
            <stop offset=".594" stop-color="#72C63D"/>
            <stop offset=".781" stop-color="#665DFB"/>
            <stop offset="1" stop-color="#C92CE5"/>
        </linearGradient>
        <linearGradient id="sdirwxoa2w" x1="44.152" y1="18.61" x2="50.009" y2="18.724" gradientUnits="userSpaceOnUse">
            <stop stop-color="#FF4C35"/>
            <stop offset=".182" stop-color="#FE9B05"/>
            <stop offset=".365" stop-color="#FBC600"/>
            <stop offset=".594" stop-color="#72C63D"/>
            <stop offset=".781" stop-color="#665DFB"/>
            <stop offset="1" stop-color="#C92CE5"/>
        </linearGradient>
        <linearGradient id="ife5jb8l7x" x1="38.15" y1="9.137" x2="43.24" y2="9.171" gradientUnits="userSpaceOnUse">
            <stop stop-color="#FF4C35"/>
            <stop offset=".182" stop-color="#FE9B05"/>
            <stop offset=".365" stop-color="#FBC600"/>
            <stop offset=".594" stop-color="#72C63D"/>
            <stop offset=".781" stop-color="#665DFB"/>
            <stop offset="1" stop-color="#C92CE5"/>
        </linearGradient>
        <linearGradient id="ar64qr2i3y" x1="43.032" y1="14.899" x2="48.522" y2="14.957" gradientUnits="userSpaceOnUse">
            <stop stop-color="#FF4C35"/>
            <stop offset=".182" stop-color="#FE9B05"/>
            <stop offset=".365" stop-color="#FBC600"/>
            <stop offset=".594" stop-color="#72C63D"/>
            <stop offset=".781" stop-color="#665DFB"/>
            <stop offset="1" stop-color="#C92CE5"/>
        </linearGradient>
        <linearGradient id="z34zlwkklz" x1="48.612" y1="19.47" x2="49.24" y2="19.529" gradientUnits="userSpaceOnUse">
            <stop stop-color="#FF4C35"/>
            <stop offset=".182" stop-color="#FE9B05"/>
            <stop offset=".365" stop-color="#FBC600"/>
            <stop offset=".594" stop-color="#72C63D"/>
            <stop offset=".781" stop-color="#665DFB"/>
            <stop offset="1" stop-color="#C92CE5"/>
        </linearGradient>
        <linearGradient id="3u8y0nllzA" x1="31.21" y1="9.605" x2="31.329" y2="9.606" gradientUnits="userSpaceOnUse">
            <stop stop-color="#FF4C35"/>
            <stop offset=".182" stop-color="#FE9B05"/>
            <stop offset=".365" stop-color="#FBC600"/>
            <stop offset=".594" stop-color="#72C63D"/>
            <stop offset=".781" stop-color="#665DFB"/>
            <stop offset="1" stop-color="#C92CE5"/>
        </linearGradient>
        <linearGradient id="1zr42gzi1B" x1="42.215" y1="13.502" x2="42.499" y2="13.503" gradientUnits="userSpaceOnUse">
            <stop stop-color="#FF4C35"/>
            <stop offset=".182" stop-color="#FE9B05"/>
            <stop offset=".365" stop-color="#FBC600"/>
            <stop offset=".594" stop-color="#72C63D"/>
            <stop offset=".781" stop-color="#665DFB"/>
            <stop offset="1" stop-color="#C92CE5"/>
        </linearGradient>
        <linearGradient id="il6egwsrdC" x1="34.703" y1="28.456" x2="35.007" y2="28.457" gradientUnits="userSpaceOnUse">
            <stop stop-color="#FF4C35"/>
            <stop offset=".182" stop-color="#FE9B05"/>
            <stop offset=".365" stop-color="#FBC600"/>
            <stop offset=".594" stop-color="#72C63D"/>
            <stop offset=".781" stop-color="#665DFB"/>
            <stop offset="1" stop-color="#C92CE5"/>
        </linearGradient>
        <linearGradient id="zph8iiu0iD" x1="31.173" y1="28.351" x2="31.374" y2="28.352" gradientUnits="userSpaceOnUse">
            <stop stop-color="#FF4C35"/>
            <stop offset=".182" stop-color="#FE9B05"/>
            <stop offset=".365" stop-color="#FBC600"/>
            <stop offset=".594" stop-color="#72C63D"/>
            <stop offset=".781" stop-color="#665DFB"/>
            <stop offset="1" stop-color="#C92CE5"/>
        </linearGradient>
        <linearGradient id="lv6o10f75E" x1="37.53" y1="8.292" x2="41.32" y2="8.314" gradientUnits="userSpaceOnUse">
            <stop stop-color="#FF4C35"/>
            <stop offset=".182" stop-color="#FE9B05"/>
            <stop offset=".365" stop-color="#FBC600"/>
            <stop offset=".594" stop-color="#72C63D"/>
            <stop offset=".781" stop-color="#665DFB"/>
            <stop offset="1" stop-color="#C92CE5"/>
        </linearGradient>
        <linearGradient id="qufs8mkg5F" x1="40.368" y1="9.865" x2="45.583" y2="9.914" gradientUnits="userSpaceOnUse">
            <stop stop-color="#FF4C35"/>
            <stop offset=".182" stop-color="#FE9B05"/>
            <stop offset=".365" stop-color="#FBC600"/>
            <stop offset=".594" stop-color="#72C63D"/>
            <stop offset=".781" stop-color="#665DFB"/>
            <stop offset="1" stop-color="#C92CE5"/>
        </linearGradient>
        <linearGradient id="17fk4d5peG" x1="42.849" y1="13.044" x2="47.985" y2="13.108" gradientUnits="userSpaceOnUse">
            <stop stop-color="#FF4C35"/>
            <stop offset=".182" stop-color="#FE9B05"/>
            <stop offset=".365" stop-color="#FBC600"/>
            <stop offset=".594" stop-color="#72C63D"/>
            <stop offset=".781" stop-color="#665DFB"/>
            <stop offset="1" stop-color="#C92CE5"/>
        </linearGradient>
        <linearGradient id="2cibuy6n8H" x1="43.931" y1="16.307" x2="49.861" y2="16.405" gradientUnits="userSpaceOnUse">
            <stop stop-color="#FF4C35"/>
            <stop offset=".182" stop-color="#FE9B05"/>
            <stop offset=".365" stop-color="#FBC600"/>
            <stop offset=".594" stop-color="#72C63D"/>
            <stop offset=".781" stop-color="#665DFB"/>
            <stop offset="1" stop-color="#C92CE5"/>
        </linearGradient>
        <linearGradient id="4psl1cz8iI" x1="44.183" y1="21.192" x2="49.693" y2="21.273" gradientUnits="userSpaceOnUse">
            <stop stop-color="#FF4C35"/>
            <stop offset=".182" stop-color="#FE9B05"/>
            <stop offset=".365" stop-color="#FBC600"/>
            <stop offset=".594" stop-color="#72C63D"/>
            <stop offset=".781" stop-color="#665DFB"/>
            <stop offset="1" stop-color="#C92CE5"/>
        </linearGradient>
        <linearGradient id="ysgewldy2J" x1="43.315" y1="25.822" x2="48.394" y2="25.86" gradientUnits="userSpaceOnUse">
            <stop stop-color="#FF4C35"/>
            <stop offset=".182" stop-color="#FE9B05"/>
            <stop offset=".365" stop-color="#FBC600"/>
            <stop offset=".594" stop-color="#72C63D"/>
            <stop offset=".781" stop-color="#665DFB"/>
            <stop offset="1" stop-color="#C92CE5"/>
        </linearGradient>
        <linearGradient id="qju5uwajoK" x1="41.857" y1="28.478" x2="46.541" y2="28.51" gradientUnits="userSpaceOnUse">
            <stop stop-color="#FF4C35"/>
            <stop offset=".182" stop-color="#FE9B05"/>
            <stop offset=".365" stop-color="#FBC600"/>
            <stop offset=".594" stop-color="#72C63D"/>
            <stop offset=".781" stop-color="#665DFB"/>
            <stop offset="1" stop-color="#C92CE5"/>
        </linearGradient>
        <linearGradient id="597z9zaciL" x1="39.514" y1="31.705" x2="42.634" y2="31.716" gradientUnits="userSpaceOnUse">
            <stop stop-color="#FF4C35"/>
            <stop offset=".182" stop-color="#FE9B05"/>
            <stop offset=".365" stop-color="#FBC600"/>
            <stop offset=".594" stop-color="#72C63D"/>
            <stop offset=".781" stop-color="#665DFB"/>
            <stop offset="1" stop-color="#C92CE5"/>
        </linearGradient>
        <linearGradient id="oxy9j6ovgM" x1="37.4" y1="32.69" x2="38.927" y2="32.693" gradientUnits="userSpaceOnUse">
            <stop stop-color="#FF4C35"/>
            <stop offset=".182" stop-color="#FE9B05"/>
            <stop offset=".365" stop-color="#FBC600"/>
            <stop offset=".594" stop-color="#72C63D"/>
            <stop offset=".781" stop-color="#665DFB"/>
            <stop offset="1" stop-color="#C92CE5"/>
        </linearGradient>
        <linearGradient id="iroy7munkN" x1="32.041" y1="33.075" x2="34.734" y2="33.084" gradientUnits="userSpaceOnUse">
            <stop stop-color="#FF4C35"/>
            <stop offset=".182" stop-color="#FE9B05"/>
            <stop offset=".365" stop-color="#FBC600"/>
            <stop offset=".594" stop-color="#72C63D"/>
            <stop offset=".781" stop-color="#665DFB"/>
            <stop offset="1" stop-color="#C92CE5"/>
        </linearGradient>
        <linearGradient id="k9knkerxrO" x1="26.645" y1="31.884" x2="30.834" y2="31.909" gradientUnits="userSpaceOnUse">
            <stop stop-color="#FF4C35"/>
            <stop offset=".182" stop-color="#FE9B05"/>
            <stop offset=".365" stop-color="#FBC600"/>
            <stop offset=".594" stop-color="#72C63D"/>
            <stop offset=".781" stop-color="#665DFB"/>
            <stop offset="1" stop-color="#C92CE5"/>
        </linearGradient>
        <linearGradient id="qfk8ntv64P" x1="23.662" y1="29.428" x2="28.709" y2="29.474" gradientUnits="userSpaceOnUse">
            <stop stop-color="#FF4C35"/>
            <stop offset=".182" stop-color="#FE9B05"/>
            <stop offset=".365" stop-color="#FBC600"/>
            <stop offset=".594" stop-color="#72C63D"/>
            <stop offset=".781" stop-color="#665DFB"/>
            <stop offset="1" stop-color="#C92CE5"/>
        </linearGradient>
        <linearGradient id="72zpy6jhbQ" x1="19.954" y1="26.557" x2="26.217" y2="26.647" gradientUnits="userSpaceOnUse">
            <stop stop-color="#FF4C35"/>
            <stop offset=".182" stop-color="#FE9B05"/>
            <stop offset=".365" stop-color="#FBC600"/>
            <stop offset=".594" stop-color="#72C63D"/>
            <stop offset=".781" stop-color="#665DFB"/>
            <stop offset="1" stop-color="#C92CE5"/>
        </linearGradient>
        <linearGradient id="c44mocdxvR" x1="18.68" y1="22.728" x2="24.839" y2="22.861" gradientUnits="userSpaceOnUse">
            <stop stop-color="#FF4C35"/>
            <stop offset=".182" stop-color="#FE9B05"/>
            <stop offset=".365" stop-color="#FBC600"/>
            <stop offset=".594" stop-color="#72C63D"/>
            <stop offset=".781" stop-color="#665DFB"/>
            <stop offset="1" stop-color="#C92CE5"/>
        </linearGradient>
        <linearGradient id="armifnnojS" x1="18.677" y1="18.08" x2="24.361" y2="18.161" gradientUnits="userSpaceOnUse">
            <stop stop-color="#FF4C35"/>
            <stop offset=".182" stop-color="#FE9B05"/>
            <stop offset=".365" stop-color="#FBC600"/>
            <stop offset=".594" stop-color="#72C63D"/>
            <stop offset=".781" stop-color="#665DFB"/>
            <stop offset="1" stop-color="#C92CE5"/>
        </linearGradient>
        <linearGradient id="3eakrg0y4T" x1="19.828" y1="14.488" x2="25.086" y2="14.539" gradientUnits="userSpaceOnUse">
            <stop stop-color="#FF4C35"/>
            <stop offset=".182" stop-color="#FE9B05"/>
            <stop offset=".365" stop-color="#FBC600"/>
            <stop offset=".594" stop-color="#72C63D"/>
            <stop offset=".781" stop-color="#665DFB"/>
            <stop offset="1" stop-color="#C92CE5"/>
        </linearGradient>
        <linearGradient id="g21ul17b5U" x1="22.606" y1="11.502" x2="26.648" y2="11.526" gradientUnits="userSpaceOnUse">
            <stop stop-color="#FF4C35"/>
            <stop offset=".182" stop-color="#FE9B05"/>
            <stop offset=".365" stop-color="#FBC600"/>
            <stop offset=".594" stop-color="#72C63D"/>
            <stop offset=".781" stop-color="#665DFB"/>
            <stop offset="1" stop-color="#C92CE5"/>
        </linearGradient>
        <linearGradient id="sjkeckfeuV" x1="25.791" y1="9.049" x2="29.153" y2="9.063" gradientUnits="userSpaceOnUse">
            <stop stop-color="#FF4C35"/>
            <stop offset=".182" stop-color="#FE9B05"/>
            <stop offset=".365" stop-color="#FBC600"/>
            <stop offset=".594" stop-color="#72C63D"/>
            <stop offset=".781" stop-color="#665DFB"/>
            <stop offset="1" stop-color="#C92CE5"/>
        </linearGradient>
        <linearGradient id="pqj0cer2fW" x1="30.474" y1="7.854" x2="31.85" y2="7.856" gradientUnits="userSpaceOnUse">
            <stop stop-color="#FF4C35"/>
            <stop offset=".182" stop-color="#FE9B05"/>
            <stop offset=".365" stop-color="#FBC600"/>
            <stop offset=".594" stop-color="#72C63D"/>
            <stop offset=".781" stop-color="#665DFB"/>
            <stop offset="1" stop-color="#C92CE5"/>
        </linearGradient>
        <linearGradient id="y744gstvtX" x1="34.657" y1="7.44" x2="36.724" y2="7.445" gradientUnits="userSpaceOnUse">
            <stop stop-color="#FF4C35"/>
            <stop offset=".182" stop-color="#FE9B05"/>
            <stop offset=".365" stop-color="#FBC600"/>
            <stop offset=".594" stop-color="#72C63D"/>
            <stop offset=".781" stop-color="#665DFB"/>
            <stop offset="1" stop-color="#C92CE5"/>
        </linearGradient>
        <linearGradient id="bg0svq632Y" x1="30.522" y1="20.265" x2="38.646" y2="20.326" gradientUnits="userSpaceOnUse">
            <stop stop-color="#FF4C35"/>
            <stop offset=".182" stop-color="#FE9B05"/>
            <stop offset=".365" stop-color="#FBC600"/>
            <stop offset=".594" stop-color="#72C63D"/>
            <stop offset=".781" stop-color="#665DFB"/>
            <stop offset="1" stop-color="#C92CE5"/>
        </linearGradient>
        <linearGradient id="hovuq6hy7Z" x1="36.898" y1="14.73" x2="38.629" y2="14.742" gradientUnits="userSpaceOnUse">
            <stop stop-color="#FF4C35"/>
            <stop offset=".182" stop-color="#FE9B05"/>
            <stop offset=".365" stop-color="#FBC600"/>
            <stop offset=".594" stop-color="#72C63D"/>
            <stop offset=".781" stop-color="#665DFB"/>
            <stop offset="1" stop-color="#C92CE5"/>
        </linearGradient>
    </defs>
</svg>
