<svg width="18" height="18" viewBox="0 0 18 18" fill="none" xmlns="http://www.w3.org/2000/svg">
    <path d="M13.604 10.69c-.485-.485-1.094-.485-1.579 0l-1.107 1.107c-.097.111-.18.125-.305.056-.235-.125-.484-.236-.72-.374-1.066-.678-1.966-1.537-2.769-2.52-.388-.485-.748-1.01-.997-1.593-.041-.11-.028-.193.07-.29.373-.36.733-.72 1.093-1.094.512-.513.512-1.108 0-1.62-.304-.291-.581-.582-.872-.873-.305-.29-.595-.595-.9-.886-.485-.47-1.094-.47-1.579 0-.373.36-.733.748-1.107 1.108-.36.332-.54.734-.568 1.205-.07.775.125 1.509.388 2.215.554 1.468 1.384 2.783 2.395 3.988 1.37 1.62 2.99 2.908 4.902 3.836.858.415 1.744.733 2.713.789.665.042 1.246-.125 1.703-.65.319-.36.679-.68 1.011-1.012.499-.498.499-1.107 0-1.606-.581-.595-1.177-1.19-1.772-1.786z" fill="url(#5rczn9gpaa)"/>
    <defs>
        <linearGradient id="5rczn9gpaa" x1="3.197" y1="11.822" x2="14.716" y2="11.903" gradientUnits="userSpaceOnUse">
            <stop stop-color="#FF4C35"/>
            <stop offset=".182" stop-color="#FE9B05"/>
            <stop offset=".365" stop-color="#FBC600"/>
            <stop offset=".594" stop-color="#72C63D"/>
            <stop offset=".781" stop-color="#665DFB"/>
            <stop offset="1" stop-color="#C92CE5"/>
        </linearGradient>
    </defs>
</svg>
