<svg width="18" height="18" viewBox="0 0 18 18" fill="none" xmlns="http://www.w3.org/2000/svg">
    <g clip-path="url(#exhdgxfpca)">
        <path d="m15.967 4.418-7.5 7.5a.747.747 0 0 1-1.057 0L5.288 9.794a.747.747 0 1 1 1.057-1.057l1.59 1.59 6.968-6.968a.747.747 0 0 1 1.057 0c.3.292.3.765.007 1.058zm-4.14-2.363a7.534 7.534 0 0 0-4.207-.428c-3.052.548-5.49 3.008-6.007 6.06a7.507 7.507 0 0 0 8.392 8.745c2.97-.382 5.46-2.594 6.24-5.482.3-1.102.33-2.167.157-3.165-.097-.6-.84-.833-1.275-.405a.755.755 0 0 0-.202.667 5.64 5.64 0 0 1-.39 3.195c-.87 2.033-2.76 3.525-4.957 3.728a6.005 6.005 0 0 1-6.525-6.735C3.375 5.58 5.513 3.42 8.16 3.053a5.98 5.98 0 0 1 3.578.607.752.752 0 0 0 .697-1.335c-.203-.09-.405-.188-.607-.27z" fill="#78909C"/>
    </g>
    <defs>
        <clipPath id="exhdgxfpca">
            <path fill="#fff" d="M0 0h18v18H0z"/>
        </clipPath>
    </defs>
</svg>
