<svg width="20" height="20" viewBox="0 0 20 20" fill="none" xmlns="http://www.w3.org/2000/svg">
    <path d="M15.208 14.167v-2.709H12.5v-1.25h2.708V7.5h1.25v2.708h2.709v1.25h-2.709v2.709h-1.25zM9.167 17.5 6.52 15.125c-1-.903-1.858-1.708-2.573-2.417a17.977 17.977 0 0 1-1.771-2c-.465-.625-.806-1.229-1.02-1.812a5.253 5.253 0 0 1-.324-1.834c0-1.305.438-2.392 1.313-3.26C3.02 2.934 4.11 2.5 5.416 2.5a4.901 4.901 0 0 1 3.75 1.73 4.901 4.901 0 0 1 3.75-1.73c1.181 0 2.17.358 2.97 1.073.798.715 1.294 1.552 1.489 2.51-.25-.097-.5-.17-.75-.218a3.816 3.816 0 0 0-.73-.073c-1.402 0-2.596.49-3.583 1.468-.986.98-1.479 2.17-1.479 3.573 0 .723.146 1.407.438 2.052a4.762 4.762 0 0 0 1.229 1.657c-.264.236-.608.538-1.031.906-.424.368-.788.69-1.094.969L9.167 17.5z" fill="url(#vdjdqqnjca)"/>
    <defs>
        <linearGradient id="vdjdqqnjca" x1="2.119" y1="13.135" x2="17.762" y2="13.271" gradientUnits="userSpaceOnUse">
            <stop stop-color="#FF4C35"/>
            <stop offset=".182" stop-color="#FE9B05"/>
            <stop offset=".365" stop-color="#FBC600"/>
            <stop offset=".594" stop-color="#72C63D"/>
            <stop offset=".781" stop-color="#665DFB"/>
            <stop offset="1" stop-color="#C92CE5"/>
        </linearGradient>
    </defs>
</svg>
