<svg width="40" height="40" viewBox="0 0 40 40" fill="none" xmlns="http://www.w3.org/2000/svg">
    <rect width="40" height="40" rx="20" transform="matrix(-1 0 0 1 40 0)" fill="#BA9E3A"/>
    <g clip-path="url(#ishoujuefa)">
        <path d="M16.15 12.492a1.041 1.041 0 0 1 1.475 0l6.925 6.925a.83.83 0 0 1 0 1.175l-6.925 6.925a1.041 1.041 0 0 1-1.475 0 1.041 1.041 0 0 1 0-1.475L22.183 20l-6.041-6.042c-.4-.4-.4-1.066.008-1.466z" fill="#fff"/>
    </g>
    <defs>
        <clipPath id="ishoujuefa">
            <rect width="20" height="20" rx="10" transform="matrix(-1 0 0 1 30 10)" fill="#fff"/>
        </clipPath>
    </defs>
</svg>
