<svg width="274" height="182" viewBox="0 0 274 182" fill="none" xmlns="http://www.w3.org/2000/svg">
    <path d="M34.381 118.687c-2.81.05-6.9.16-9.674.16h-.16v-.16l-.019-4.074v-.185h.183c2.897 0 6.92.025 9.776.083 0 1.234-.08 2.912-.102 4.172l-.004.004zm0 0c-.036-1.194-.073-2.912-.098-4.074l.098.099a720 720 0 0 1-9.674.08l.183-.179-.022 4.074-.16-.164c2.736 0 6.9.105 9.673.164zM28.986 123.821c-2.81.051-6.901.16-9.674.16h-.165V119.562h.183c2.894 0 6.92.026 9.773.084 0 1.234-.077 2.912-.099 4.172l-.018.003zm0 0a403.967 403.967 0 0 1-.099-4.073l.099.098c-2.799.051-6.835.073-9.674.08l.182-.178-.021 4.073-.161-.164c2.733 0 6.901.106 9.674.164zM165.456 66.19c-2.806.051-6.901.16-9.674.16h-.15v-.16l-.022-4.073v-.185h.183c2.897 0 6.923.025 9.776.083 0 1.234-.08 2.912-.102 4.172l-.011.003zm0 0a892.303 892.303 0 0 1-.099-4.073l.099.099c-2.795.05-6.835.072-9.674.083l.183-.182-.019 4.073-.164-.163c2.736 0 6.905.105 9.674.163zM160.06 71.343c-2.809.05-6.901.16-9.674.16h-.161v-.16l-.022-4.073v-.186h.183c2.897 0 6.919.025 9.776.084 0 1.234-.08 2.912-.102 4.171v.004zm0 0c-.037-1.194-.073-2.912-.099-4.073l.099.098a770.71 770.71 0 0 1-9.674.084l.183-.182-.019 4.073-.164-.164c2.736 0 6.901.105 9.674.164zM154.686 66.19c-2.809.051-6.901.16-9.674.16h-.161v-.16l-.018-4.073v-.185h.183c2.893 0 6.919.025 9.772.083 0 1.234-.076 2.912-.098 4.172l-.004.003zm0 0c-.036-1.194-.073-2.912-.099-4.073l.099.099c-2.798.05-6.835.072-9.674.083l.183-.182-.022 4.073-.161-.163c2.736 0 6.901.105 9.674.163zM254.689 123.822c-2.81.051-6.901.16-9.674.16h-.161v-.16l-.022-4.066v-.186h.183c2.897 0 6.919.026 9.776.084 0 1.234-.08 2.912-.102 4.171v-.003zm0 0c-.037-1.194-.073-2.912-.099-4.073l.099.098c-2.795.051-6.836.073-9.674.08l.182-.178v4.073l-.164-.164c2.736 0 6.901.106 9.674.164h-.018zM249.292 24.202c-2.809.05-6.901.16-9.674.16h-.16v-.164l-.019-4.073v-.186h.183c2.897 0 6.92.026 9.776.084 0 1.234-.08 2.912-.102 4.172l-.004.007zm0 0a541.937 541.937 0 0 1-.098-4.073l.098.098c-2.798.051-6.835.076-9.674.084l.183-.182v4.073l-.164-.164c2.736 0 6.901.106 9.674.164h-.019zM254.689 29.337c-2.81.05-6.901.16-9.674.16h-.161v-.16l-.022-4.073v-.186h.183c2.897 0 6.919.026 9.776.084 0 1.234-.08 2.912-.102 4.171v.004zm0 0c-.037-1.194-.073-2.912-.099-4.073l.099.098c-2.795.051-6.836.077-9.674.084l.182-.182v4.073l-.164-.164c2.736 0 6.901.106 9.674.164h-.018zM34.382 24.202c-2.81.051-6.901.16-9.674.16h-.16V24.2l-.023-4.07v-.186h.183c2.897 0 6.92.026 9.776.084 0 1.234-.08 2.912-.102 4.171v.004zm0 0c-.037-1.194-.073-2.912-.099-4.073l.099.098c-2.798.051-6.835.077-9.674.084l.183-.182-.022 4.073-.161-.178c2.736 0 6.901.105 9.674.164v.014zM23.461 154.132h68.281l1.417-27.915H22.04l1.421 27.915z" fill="#EBEBEB"/>
    <path d="M88.506 138.992H59.96l-.533-9.689h29.716l-.636 9.689zm-28.225-.342h27.896l.6-9.005h-28.99l.494 9.005zM87.98 150.142H61.076l-.434-8.736h27.886l-.549 8.736zm-26.575-.342h26.25l.504-8.063H61.01l.394 8.063z" fill="#DBDBDB"/>
    <path d="M76.98 135.2h-4.798l-.3-2.337h5.4l-.303 2.337zm-4.494-.342h4.19l.215-1.653h-4.617l.212 1.653zM76.98 146.94h-4.798l-.3-2.336h5.4l-.303 2.336zm-4.494-.345h4.19l.215-1.649h-4.617l.212 1.649zM54.928 138.992H26.38l-.534-9.689h29.706l-.625 9.689zm-28.218-.342h27.896l.578-9.005H26.209l.5 9.005zM54.402 150.142H27.5l-.434-8.736H54.95l-.548 8.736zm-26.574-.342H54.07l.508-8.063H27.426l.402 8.063z" fill="#DBDBDB"/>
    <path d="M43.406 135.2h-4.797l-.303-2.337h5.4l-.3 2.337zm-4.498-.342h4.202l.212-1.653h-4.625l.211 1.653zM43.406 146.94h-4.797l-.303-2.336h5.4l-.3 2.336zm-4.498-.345h4.202l.212-1.649h-4.625l.211 1.649z" fill="#DBDBDB"/>
    <path d="m29.585 154.133-.427 3.039-.866 6.112h-1.684v-9.151h2.977z" fill="#EBEBEB"/>
    <path d="m29.585 154.133-.427 3.039h-2.55v-3.039h2.977z" fill="#DBDBDB"/>
    <path d="m85.616 154.133.431 3.039.862 6.112h1.685v-9.151h-2.978z" fill="#EBEBEB"/>
    <path d="m85.616 154.133.431 3.039h2.547v-3.039h-2.978z" fill="#DBDBDB"/>
    <path d="M254.879 31.096h-20.678v24.988h20.678V31.096z" fill="#EBEBEB"/>
    <path d="M252.511 33.379h-15.95v20.428h15.95V33.379z" fill="#fff"/>
    <path d="M237.182 33.379h-.621v20.428h.621V33.379zM255.496 31.096h-.621v24.988h.621V31.096zM245.669 36.191h-3.763v11.164h3.763V36.191z" fill="#DBDBDB"/>
    <path d="M250.479 49.449h-10.397v-5.824h10.397v5.824zm-10.032-.364h9.667v-5.096h-9.667v5.096zM244.539 64.982h-20.678v24.989h20.678V64.982z" fill="#EBEBEB"/>
    <path d="M242.171 67.26h-15.95v20.427h15.95V67.26z" fill="#fff"/>
    <path d="M226.842 67.26h-.621v20.427h.621V67.26zM245.158 64.982h-.621v24.989h.621V64.982z" fill="#DBDBDB"/>
    <path d="M235.878 72.541h-3.222v8.117h3.222v-8.117z" fill="#EBEBEB"/>
    <path d="M239.452 83.25h-9.02V77.29h9.02v5.959zm-8.655-.364h8.289v-5.231h-8.289v5.23z" fill="#DBDBDB"/>
    <path d="M57.387 38.27c2.71-8.428-1.948-17.449-10.407-20.15-8.458-2.7-17.512 1.942-20.222 10.37-2.711 8.426 1.948 17.448 10.406 20.148 8.458 2.701 17.512-1.941 20.223-10.368z" fill="#EBEBEB"/>
    <path d="M49.054 47.698c7.741-3.435 11.221-12.473 7.773-20.186-3.448-7.713-12.519-11.18-20.26-7.744-7.74 3.435-11.22 12.473-7.773 20.185 3.448 7.713 12.519 11.18 20.26 7.745z" fill="#DBDBDB"/>
    <path d="M45.43 48.103c7.86-1.345 13.138-8.784 11.789-16.615-1.35-7.831-8.816-13.09-16.676-11.745-7.86 1.345-13.138 8.783-11.789 16.615 1.35 7.831 8.816 13.09 16.676 11.745z" fill="#fff"/>
    <path opacity=".5" d="M56.857 30.695c-6.543 3.95-17.302 10.436-23.32 13.989a14.386 14.386 0 0 1-3.927-5.264L49.5 21.053a14.374 14.374 0 0 1 4.75 4.008 14.31 14.31 0 0 1 2.607 5.634zM57.176 34.234a14.176 14.176 0 0 1-.95 4.656l-17.93 8.448c-.782-.259-1.54-.584-2.266-.971 5.418-3.116 15.315-8.791 21.146-12.133z" fill="#EBEBEB"/>
    <path d="M42.949 20.45h-.278v2.169h.278v-2.17zM36.264 22.157l-.24.138 1.088 1.879.24-.139-1.088-1.878zM31.328 26.971l-.139.24 1.886 1.085.139-.24-1.886-1.085zM31.653 33.596h-2.177v.276h2.177v-.276zM33.076 39.171l-1.885 1.085.138.24 1.886-1.085-.139-.24zM37.11 43.288l-1.087 1.88.24.138 1.087-1.88-.24-.138zM42.949 44.848h-.278v2.17h.278v-2.17zM48.503 43.29l-.24.138 1.088 1.879.24-.139-1.088-1.879zM52.535 39.167l-.14.24 1.886 1.084.14-.24-1.886-1.084zM56.137 33.596H53.96v.276h2.177v-.276zM54.286 26.976 52.4 28.06l.14.24 1.885-1.086-.139-.24zM49.353 22.16l-1.087 1.88.24.137 1.088-1.88-.24-.137z" fill="#C7C7C7"/>
    <path d="m43.019 21.437.47 13.264-1.362-.014.519-13.257.373.007z" fill="#C7C7C7"/>
    <path d="m51.311 29.11-8.958 5.696-.65-1.194 9.433-4.827.175.324z" fill="#A6A6A6"/>
    <path d="M43.274 33.736a.464.464 0 0 1-.29.43.47.47 0 0 1-.637-.342.465.465 0 0 1 .463-.554.464.464 0 0 1 .464.465z" fill="#C7C7C7"/>
    <path d="M222.63 34.828H51.373V163.28H222.63V34.828z" fill="#EBEBEB"/>
    <path d="M42.338 163.281h9.035V34.829h-9.035v128.452z" fill="#DBDBDB"/>
    <path d="M222.63 34.828H51.373v13.858H222.63V34.828zM86.598 62.478H69.632v16.905h16.966V62.479z" fill="#B0BEC5"/>
    <path opacity=".8" d="M86.598 62.478H69.632v16.905h16.966V62.479z" fill="#fff"/>
    <path d="M106.217 62.478H89.251v16.905h16.966V62.479zM125.858 62.478h-16.966v16.905h16.966V62.479zM145.484 62.478h-16.966v16.905h16.966V62.479zM165.113 62.478h-16.967v16.905h16.967V62.479zM184.739 62.478h-16.967v16.905h16.967V62.479zM204.367 62.478h-16.966v16.905h16.966V62.479z" fill="#fff"/>
    <path d="M86.598 81.596H69.632V98.5h16.966V81.596z" fill="#B0BEC5"/>
    <path opacity=".8" d="M86.598 81.596H69.632V98.5h16.966V81.596z" fill="#fff"/>
    <path d="M106.228 81.596H89.262V98.5h16.966V81.596zM125.854 81.596h-16.966V98.5h16.966V81.596zM145.484 81.596h-16.966V98.5h16.966V81.596zM165.112 81.596h-16.966V98.5h16.966V81.596zM184.742 81.596h-16.966V98.5h16.966V81.596zM204.367 81.596h-16.966V98.5h16.966V81.596z" fill="#fff"/>
    <path d="M86.598 100.713H69.632v16.904h16.966v-16.904z" fill="#B0BEC5"/>
    <path opacity=".8" d="M86.598 100.713H69.632v16.904h16.966v-16.904z" fill="#fff"/>
    <path d="M106.228 100.713H89.262v16.904h16.966v-16.904zM125.858 100.713h-16.966v16.904h16.966v-16.904zM145.484 100.713h-16.966v16.904h16.966v-16.904zM165.113 100.713h-16.967v16.904h16.967v-16.904zM184.739 100.713h-16.967v16.904h16.967v-16.904zM204.367 100.713h-16.966v16.904h16.966v-16.904z" fill="#fff"/>
    <path d="M86.598 119.83H69.632v16.904h16.966V119.83z" fill="#B0BEC5"/>
    <path opacity=".8" d="M86.598 119.83H69.632v16.904h16.966V119.83z" fill="#fff"/>
    <path d="M106.228 119.83H89.262v16.904h16.966V119.83zM125.854 119.83h-16.966v16.904h16.966V119.83zM145.484 119.83h-16.966v16.904h16.966V119.83zM165.113 119.83h-16.967v16.904h16.967V119.83zM184.742 119.83h-16.966v16.904h16.966V119.83zM204.367 119.83h-16.966v16.904h16.966V119.83z" fill="#fff"/>
    <path d="M86.598 138.947H69.632v16.904h16.966v-16.904z" fill="#B0BEC5"/>
    <path opacity=".8" d="M86.598 138.947H69.632v16.904h16.966v-16.904z" fill="#fff"/>
    <path d="M106.228 138.951H89.262v16.904h16.966v-16.904zM125.854 138.947h-16.966v16.904h16.966v-16.904zM145.484 138.947h-16.966v16.904h16.966v-16.904zM165.112 138.947h-16.966v16.904h16.966v-16.904zM184.739 138.947h-16.967v16.904h16.967v-16.904zM204.367 138.947h-16.966v16.904h16.966v-16.904z" fill="#fff"/>
    <path d="M76.103 58.267a.756.756 0 0 0-.289-.193 1.008 1.008 0 0 0-.405-.077.766.766 0 0 0-.49.128.422.422 0 0 0-.153.342c-.004.066.01.13.04.19a.366.366 0 0 0 .128.127c.069.04.142.07.219.09l.314.08c.124.024.246.055.365.095.1.031.193.077.278.135a.52.52 0 0 1 .175.193.606.606 0 0 1 .059.284.675.675 0 0 1-.066.306.62.62 0 0 1-.19.21.803.803 0 0 1-.288.128c-.12.029-.243.042-.366.04a1.516 1.516 0 0 1-1.019-.364l.124-.204c.049.05.103.096.161.135.139.093.296.156.46.186.093.019.187.029.282.029a.868.868 0 0 0 .47-.11.365.365 0 0 0 .173-.33.41.41 0 0 0-.048-.197.365.365 0 0 0-.146-.139 1 1 0 0 0-.241-.101 4.69 4.69 0 0 0-.333-.088 7.602 7.602 0 0 1-.365-.094 1.012 1.012 0 0 1-.252-.124.532.532 0 0 1-.157-.182.601.601 0 0 1-.051-.259.726.726 0 0 1 .066-.313.568.568 0 0 1 .19-.225.798.798 0 0 1 .284-.139 1.36 1.36 0 0 1 .819.026c.134.05.258.124.365.218l-.113.197zM77.817 60.12a.825.825 0 0 0 .398-.09.729.729 0 0 0 .252-.24.936.936 0 0 0 .135-.335c.023-.126.035-.254.036-.382v-1.278h.249v1.278c0 .163-.018.325-.055.484a1.13 1.13 0 0 1-.186.407.902.902 0 0 1-.329.277 1.25 1.25 0 0 1-1.005 0 .89.89 0 0 1-.328-.284 1.11 1.11 0 0 1-.18-.408 2.007 2.007 0 0 1-.054-.47v-1.277h.245v1.278c0 .13.013.261.04.39.024.118.07.232.135.334.063.097.15.177.252.233a.773.773 0 0 0 .395.084zM79.742 58.26v2.065h-.252v-2.53h.194l1.68 2.108v-2.104h.252v2.526h-.219l-1.655-2.064zM96.02 60.324v-2.086l-.928 1.605h-.146l-.928-1.605v2.075h-.249v-2.53h.256l.994 1.733.997-1.733h.252v2.53l-.248.01zM97.932 60.342a1.07 1.07 0 0 1-.486-.11 1.125 1.125 0 0 1-.365-.287c-.107-.12-.19-.26-.245-.412a1.324 1.324 0 0 1 .003-.957c.06-.15.145-.29.252-.411.104-.116.228-.213.366-.284a1.098 1.098 0 0 1 .957.007c.14.075.263.175.365.295a1.403 1.403 0 0 1 .33.881 1.33 1.33 0 0 1-.71 1.176 1.099 1.099 0 0 1-.467.102zm-.943-1.282c0 .136.023.27.07.397a1.036 1.036 0 0 0 .49.575c.118.06.25.09.383.088a.814.814 0 0 0 .387-.095c.114-.06.216-.142.3-.24a1.17 1.17 0 0 0-.011-1.464.934.934 0 0 0-.3-.232.867.867 0 0 0-1.063.24c-.083.1-.148.215-.19.338-.044.127-.067.26-.066.393zM99.846 58.26v2.065h-.252v-2.53h.193l1.681 2.108v-2.104h.252v2.526h-.219l-1.655-2.064zM115.965 58.017h-.906v2.308h-.252v-2.308h-.903v-.222h2.061v.222zM117.371 60.12a.837.837 0 0 0 .401-.09.731.731 0 0 0 .253-.24 1.01 1.01 0 0 0 .131-.335c.026-.126.04-.254.04-.382v-1.278h.249v1.278c.001.163-.018.325-.059.484a1.133 1.133 0 0 1-.182.407.895.895 0 0 1-.333.277 1.076 1.076 0 0 1-.497.102 1.051 1.051 0 0 1-.504-.11.9.9 0 0 1-.332-.283 1.175 1.175 0 0 1-.179-.408 2.006 2.006 0 0 1-.052-.47v-1.277h.234v1.278c.001.13.014.26.04.389.023.12.069.233.136.335a.733.733 0 0 0 .654.324zM120.75 60.106v.219h-1.706v-2.53h1.673v.222h-1.425v.914h1.243v.207h-1.243v.968h1.458zM134.034 57.812h.237l.366.899.365-.899h.237l-.442 1.092.486 1.143.921-2.242h.27l-1.074 2.53h-.226l-.534-1.249-.537 1.248h-.219l-1.07-2.53h.266l.925 2.243.482-1.143-.453-1.092zM138.527 60.106v.219h-1.706v-2.53h1.674v.222h-1.422v.914h1.243v.207h-1.243v.968h1.454zM139.002 60.323v-2.53h.859c.183-.004.365.03.533.102a1.092 1.092 0 0 1 .592.67c.052.159.078.325.077.492.004.177-.025.353-.084.52a1.074 1.074 0 0 1-.629.655 1.31 1.31 0 0 1-.504.091h-.844zm1.827-1.267a1.294 1.294 0 0 0-.066-.418 1.03 1.03 0 0 0-.186-.331.87.87 0 0 0-.304-.215 1.041 1.041 0 0 0-.412-.077h-.611v2.09h.611c.144.002.287-.025.42-.08a.831.831 0 0 0 .299-.222.964.964 0 0 0 .187-.332 1.39 1.39 0 0 0 .062-.414zM154.989 58.017h-.906v2.308h-.252v-2.308h-.902v-.222h2.06v.222zM157.371 57.795v2.53h-.249v-1.183h-1.49v1.183h-.252v-2.53h.252v1.128h1.505v-1.128h.234zM159.037 60.12a.814.814 0 0 0 .398-.09.73.73 0 0 0 .255-.24.99.99 0 0 0 .132-.335c.025-.126.037-.254.037-.382v-1.278h.252v1.278c.001.163-.019.325-.059.484a1.118 1.118 0 0 1-.183.407.918.918 0 0 1-.332.277 1.076 1.076 0 0 1-.497.102 1.051 1.051 0 0 1-.504-.11.9.9 0 0 1-.332-.283 1.157 1.157 0 0 1-.179-.408 1.955 1.955 0 0 1-.055-.47v-1.277h.248v1.278c-.001.13.012.261.04.389.024.119.068.232.132.335a.73.73 0 0 0 .647.324zM173.898 60.325v-2.53h1.666v.222h-1.413v.95h1.209v.204h-1.195v1.172l-.267-.018zM176.017 60.325v-2.53h1.075c.103 0 .206.024.299.07a.817.817 0 0 1 .449.728.84.84 0 0 1-.153.491.658.658 0 0 1-.413.265l.625.976h-.285l-.596-.932h-.752v.932h-.249zm.249-1.154h.829a.427.427 0 0 0 .358-.178.663.663 0 0 0 .103-.186.712.712 0 0 0 .036-.215.584.584 0 0 0-.044-.222.547.547 0 0 0-.274-.306.422.422 0 0 0-.197-.047h-.811v1.154zM178.352 60.325v-2.53h.252v2.53h-.252zM194.5 58.267a.758.758 0 0 0-.289-.193 1.015 1.015 0 0 0-.405-.076.783.783 0 0 0-.493.127.409.409 0 0 0-.117.153.41.41 0 0 0-.037.19.365.365 0 0 0 .168.316c.07.039.145.07.223.09l.314.08c.124.024.246.056.365.096a.99.99 0 0 1 .274.134c.075.05.136.116.18.193a.605.605 0 0 1 .058.284.674.674 0 0 1-.066.306.618.618 0 0 1-.19.211.819.819 0 0 1-.292.127 1.44 1.44 0 0 1-.365.04 1.528 1.528 0 0 1-1.023-.364l.128-.203c.048.05.102.095.16.134.139.093.296.156.461.186.091.019.184.029.277.029a.87.87 0 0 0 .475-.11.363.363 0 0 0 .172-.33.367.367 0 0 0-.194-.335 1.068 1.068 0 0 0-.241-.102 4.655 4.655 0 0 0-.332-.088 7.634 7.634 0 0 1-.366-.094 1.025 1.025 0 0 1-.252-.124.54.54 0 0 1-.157-.182.604.604 0 0 1-.051-.258.72.72 0 0 1 .066-.313.589.589 0 0 1 .186-.226.856.856 0 0 1 .289-.139c.118-.034.241-.051.365-.05.153-.003.306.023.449.076.135.05.259.123.366.218l-.106.197zM195.928 57.795h.212l1.056 2.53h-.282l-.329-.79h-1.132l-.325.79h-.271l1.071-2.53zm.621 1.536-.512-1.248-.522 1.248h1.034zM199.106 58.017h-.906v2.308h-.248v-2.308h-.906v-.222h2.06v.222z" fill="#37474F"/>
    <path d="M103.188 65.824H92.283v.845h10.905v-.845zM98.454 67.676h-6.17v.844h6.17v-.844zM122.649 142.252h-10.905v.844h10.905v-.844zM117.915 144.102h-6.171v.844h6.171v-.844zM161.821 122.797h-10.905v.844h10.905v-.844zM156.626 126.502h-5.71v.844h5.71v-.844zM158.778 124.648h-7.862v.845h7.862v-.845zM117.177 107.578h-5.71v.845h5.71v-.845zM119.329 105.729h-7.862v.844h7.862v-.844z" fill="#C7C7C7"/>
    <path d="m125.23 104.851-.044-.091c.091.194.04.088.044.091zM125.938 106.825l-.011-.036.073.302-.062-.266zM126.139 108.769a5.824 5.824 0 0 0-.044-1.056v-.058a1.116 1.116 0 0 0-.029-.153c.063.419.087.843.073 1.267zM125.992 109.8c.018-.062-.029.223.044-.238v.044c-.018.041-.026.099-.044.194zM126.04 109.605c.037-.205-.025.132 0 0zM125.814 110.522c.028-.084.052-.171.069-.258a1.13 1.13 0 0 1-.066.196c-.08.262-.058.211-.003.062zM125.752 110.771l.04-.132a.65.65 0 0 0-.04.132zM125.875 110.355l-.084.284a.394.394 0 0 0 .037-.131c0 .026.011-.032.047-.153zM125.92 110.191c.036-.146.088-.335.029-.069a1.88 1.88 0 0 0 .066-.364 7.467 7.467 0 0 1-.095.433zM126.152 108.871v-.379c.008.088-.007.393 0 .379zM125.09 112.027c0 .018.058-.069.076-.084l.095-.172c-.054.085-.157.249-.171.256zM125.167 111.943a2.44 2.44 0 0 1-.161.256c.161-.216.168-.267.161-.256zM125.755 110.825l.138-.473c-.058.185-.102.364-.171.56l.033-.087zM124.382 112.907l.106-.132-.194.231.088-.099zM123.848 113.42c.084-.091-.142.095-.051 0l-.409.343c.117-.102.267-.197.46-.343zM123.169 113.93c.072-.05.142-.103.208-.16-.066.054-.139.102-.208.16zM124.7 112.598a1.31 1.31 0 0 0-.165.168l.088-.077.077-.091zM124.626 112.686zM124.717 112.576l-.018.021.018-.021zM125.427 111.535c-.066.164-.256.477-.062.182.055-.116-.055.062.062-.182zM124.827 112.474c.066-.08.124-.168.19-.255 0 0-.047.047 0-.026-.073.095-.124.19-.19.281zM124.732 112.599l.096-.124-.077.091-.019.033zM123.618 113.629c-.106.083-.219.182-.365.276.157-.094.3-.215.446-.32.018-.018.073-.077-.081.044zM124.137 113.201l-.022.021.022-.021zM121.799 114.702l.026-.007.003-.007-.029.014z" fill="#3E494E"/>
    <path d="M123.727 113.566a1.58 1.58 0 0 0 .22-.197c-.078.075-.16.146-.245.212 0 0-.007.015.025-.015zM122.781 114.182c.071-.033.139-.071.205-.114l-.205.114zM124.074 113.246c-.021.011-.014.011 0 0zM124.074 113.246l-.128.128.168-.153-.04.025zM121.382 115.021c.204-.115.416-.212.636-.291.274-.146.062-.117-.194-.037l-.288.146c.109-.018.65-.251.416-.127a2.326 2.326 0 0 1-.511.196c.088-.022-.033.037-.165.102-.131.066-.274.117-.222.124.117-.044.23-.088.343-.142.007.004-.106.062-.015.029zM122.365 114.441l.113-.066c-.132.07-.27.128-.412.175a1.52 1.52 0 0 0-.238.138c.19-.091.387-.175.574-.269l-.037.022z" fill="#3E494E"/>
    <path d="M122.979 114.086c-.069.08-.34.233-.161.16a3.45 3.45 0 0 0 .402-.287c-.511.338.139-.102-.237.127l.274-.182-.271.164-.018.022c-.15.095-.026 0 .018-.022-.164.12-.365.208-.522.313.124-.069.288-.138.515-.295zM125.225 112.014c-.033.051-.036.066 0 0zM125.079 112.223c.021-.04.047-.08.12-.192.073-.113 0 0 0 0 .04-.077.146-.27 0-.037l-.022.037a4.225 4.225 0 0 1-.318.415c.078-.07.151-.144.22-.223zM124.115 113.281c-.128.113-.244.237-.365.342.072-.048.142-.1.208-.156.19-.189.135-.153.157-.186zM121.74 114.714l.052-.048-.26.139.208-.091zM121.123 114.953l.015-.025-.161.066.146-.041zM124.721 104.83l.102.121-.102-.121zM123.998 103.941h-.033c.044.026.062.037.033 0zM108.438 109.627c.037-.214.088-.447.048-.422l-.037.062c.005.12.001.241-.011.36zM115.424 102.225h-.065l-.139.069.204-.069zM115.541 102.023l.296-.033-.296.033zM125.613 110.709l-.033.19c.095-.274.044-.161.033-.19zM114.415 115.697c-.186-.026-.328-.074-.456-.095.145.059.3.092.456.095zM124.118 104.727c.062.062.095.088.099.081-.066-.066-.106-.103-.099-.081zM113.433 115.488l.095.037c.131.022.27.04.431.077a4.325 4.325 0 0 0-.526-.114zM108.898 109.007v-.048a.193.193 0 0 0 0 .048zM112.296 103.945l-.223.132.223-.132zM118.528 115.566c.14-.026.022 0 0 0zM119.223 115.555c-.029 0-.051 0-.051.022a.164.164 0 0 1 .051-.022zM118.734 115.541l-.179.022.179-.022zM118.708 115.537l.125-.018s0-.008-.125.018z" fill="#3E494E"/>
    <path d="m118.336 115.594.226-.03h-.032l-.194.03zM116.965 115.303h-.029c-.143.025-.081.018.029 0zM109.282 105.559a2.007 2.007 0 0 1-.255.451l.19-.084c.018-.105.018-.236.065-.367z" fill="#3E494E"/>
    <path d="m125.825 107.268-.055-.364c.179.419.194.754.187.394a2.877 2.877 0 0 1-.263-.71c-.11-.364-.274-.674-.337-.674-.021-.08-.054-.153-.084-.229l.073.131c-.16-.451-.23-.277-.533-.801-.117-.178-.186-.309-.091-.2a3.598 3.598 0 0 0-.311-.364c-.087-.109-.047-.098.037 0l-.234-.277-.256-.254a10.524 10.524 0 0 0-.365-.262c-.124-.135.077.051.055 0-.11-.077-.212-.164-.325-.233-.106-.128.175.047.365.24-.201-.339-.256-.211-.881-.728.113.059.222.126.326.2a1.204 1.204 0 0 0-.315-.28 10.343 10.343 0 0 0-.467-.317c.091.058.683.546.296.339a1.78 1.78 0 0 0-.457-.244c.022-.04-.183-.146-.449-.251l.04-.048a1.553 1.553 0 0 0-.461-.105.998.998 0 0 1-.445-.251c-.534-.153.365.171-.285 0a3.083 3.083 0 0 0-.614-.146 5.217 5.217 0 0 0-.694-.062c-.314-.058.058-.033-.051-.062l-.285.018c-.07 0-.048-.018-.037-.025-.237 0-.022.058-.394.058-.099.055-.767-.116-1.224 0-.113 0 .051-.04.018-.062-.353.04-.702.114-1.041.222-.15 0-.296 0-.442.029.325-.018-.073.113-.413.233h.281l-.551.146c-.07 0-.019-.026.065-.069l-.098.036c-.201.029-.11-.036.025-.102h.212c.132-.065.252-.131.216-.16-.037-.029-.102.033-.179.055.033-.018.055-.033.036-.037a1.156 1.156 0 0 0-.168.059l-.142-.04-.026.032-.73.153c-.501.219-.917.455-1.685.823.176-.128 0-.091 0-.149.155-.037.304-.096.442-.175.187-.103.384-.185.589-.244-.223.065-.187.025-.132 0-.25.102-.494.217-.731.346 0-.048-.175.022-.365.105.186.022-.511.31-.763.521-.03 0 0-.098.365-.277-.424.146-.428.386-.822.561.077-.059.128-.077.15-.113-.179.138-.621.466-.537.364l.076-.058a3.76 3.76 0 0 0-.453.364 5.012 5.012 0 0 0-.467.455 2.067 2.067 0 0 0-.479.666.367.367 0 0 1 0-.168 7.524 7.524 0 0 0-.42 1.092c0-.116-.343.139-.102-.338a2.356 2.356 0 0 0-.314.59c.054-.091.204-.19.142-.062a3.25 3.25 0 0 0-.395.651c.077-.142.092.055.022.284 0-.04-.102 0-.087-.102-.022.211-.059.415-.07.623 0-.157-.076-.048-.131.083.029-.062-.11.525-.103.692l.052-.258c-.084.695.065.695.091 1.368-.029-.08-.143-.196-.124.157.029.076.102.247.208.462.106.215.216.477.314.753v.117l.19.408a4.94 4.94 0 0 1-.69-1.391c-.001.156.016.311.051.462 0 .146-.081-.2-.099-.316.047.305.115.607.205.902.036-.058.299.637.34.583a6.83 6.83 0 0 1-.388-.917c.022-.026.099.101.194.309.095.207.23.488.365.772.055.153-.142-.066-.153-.048-.011.018.102.168.175.299.073.131.157.251.165.28-.055-.073-.117-.142-.169-.218.172.32.366.469.585.837.08.124.234.386.278.382-.121-.222 0-.364.142-.291l.252.327c.132.157.285.313.336.383.15.196-.365-.157-.219 0a.912.912 0 0 1 .175.105c.11.109-.087 0 .187.2.08 0 .551.412.157.059.274.185.278.214.61.411-.044-.044.048-.026.183.025.135.051.328.106.475.172-.022 0 .036.05.065.076.3.138.545.222.779.32.233.099.471.153.778.219.054.022.365.091.215.087.123.006.245.019.366.04.365.102-.424-.065-.154.033.029 0 .504.029.778.036a8.81 8.81 0 0 0-.902-.109c0-.029.128-.04.329-.029s.482 0 .803.022c.512 0 .22.043.311.036.292.019.584.006.873-.04.248-.036.498-.053.749-.051.322 0 .018.069.091.088-.416.051-.646 0-.931.025h.365a4.71 4.71 0 0 1-.57.029c.798.002 1.594-.046 2.386-.142.131-.025.365-.08.248-.073l-.234.04c-.219 0 .435-.101.139-.069.307-.076.654-.142 1.096-.233l.088.019c-.139.013-.276.04-.409.08.293-.046.582-.112.866-.197-.103.018-.205.04-.311.051l1.049-.339c-.179.022-.081.04-.366.077.249 0-.972.255-.581.207-.292 0-.489.095-.865.117 0 0 .135 0-.19.047l-.07.022s-.018 0 0 0a.988.988 0 0 1 .172 0 7.766 7.766 0 0 1-.855.164c-.194 0 .08-.022-.026-.022l-.263.051c-.029-.022-.522 0-.065-.055-.139.019-.278.022-.413.033-.249 0-.581.022-.789.033-.209.011-.494.047-.325.022a6.354 6.354 0 0 1-.647.018h-.486c-.164 0-.329-.026-.501-.04a5.234 5.234 0 0 1-1.03-.197 6.517 6.517 0 0 1-.76-.218l-.058-.051a7.143 7.143 0 0 1-.486-.197 2.22 2.22 0 0 0-.365-.174 8.978 8.978 0 0 0-.691-.448l-.424-.309a3.753 3.753 0 0 1-.328-.288l-.041.018a4.417 4.417 0 0 1-.365-.346 3.748 3.748 0 0 1-.365-.411v.044a5.147 5.147 0 0 1-.731-1.267c.052.078.093.163.124.251-.219-.622-.562-1.292-.577-1.907a1.93 1.93 0 0 1-.029-.364v.036-.269a.732.732 0 0 0 0 .175c-.018-.113 0-.292-.022-.463l.044-.072v-.037c0-.167 0-.138-.055-.051v-.229c.08-.128.018-.455.139-.623-.033-.127.182-.844.15-.957 0 0 .036-.047 0 .04.082-.169.151-.344.204-.524l.088-.051.128-.408c.149-.211.237-.284.135-.051.149-.307.317-.605.504-.891v.043c.101-.17.224-.327.365-.466.088-.065.212-.2.391-.345.202-.181.413-.352.632-.51a7.273 7.273 0 0 1 1.579-.91c-.238 0 .482-.153.489-.244.07 0 .212-.044.059.044.202-.093.412-.168.628-.226.174-.051.344-.116.508-.193.065 0-.106.066-.048.066a.969.969 0 0 1 .223-.066c.059 0-.069.04-.153.077.544-.15.581-.244.602-.328.217-.01.429-.062.625-.153.102 0 .271 0-.073.077.194-.055 1.198-.164 1.213-.223.11.002.221-.008.329-.029.442-.04.482-.025.92-.04h-.124c.176-.083.366-.025.731 0 .402.04.486.062.573.062.19.009.378.042.559.098l-.036-.054c.044-.04.219 0 .435.069.227.087.459.161.694.222a1.155 1.155 0 0 0-.15-.073c.3.115.583.271.84.463.048.029-.084-.022-.153-.048.57.317.106-.029.548.171.066.069-.139 0 .146.175a4.61 4.61 0 0 1 1.169.728c-.058-.084-.117-.167.066-.033.281.211.606.728.858.907.026.04.03.054.026.062.088.101.223.269.343.429.088.132.184.26.285.382a3.6 3.6 0 0 0 .366.848c.153.364.259.688.19.703.038.13.068.263.091.397.028.132.049.266.062.4v-.022c.022.259.04.43.051.568.011.138.029.218.044.317.015.098-.022.032-.029.022a3.885 3.885 0 0 1-.051.455c-.019.123-.026.225-.044.316-.029.193-.044.364-.11.685l-.062.051c-.072.224-.17.439-.292.64a5.648 5.648 0 0 1-.303.462 5.573 5.573 0 0 1-.326.477s0-.025.041-.073c-.486.707-1.546 1.264-1.728 1.54l-.227.168-.241.145c.654-.327-.066.106.212 0-.252.142-.683.302-.365.135l.054-.022c.041-.062-.164.036-.365.142a1.375 1.375 0 0 1-.457.164 13.128 13.128 0 0 1-4.117.892l.157.04-.468.036c-.124 0-.168-.029.169-.055a3.292 3.292 0 0 0-.57.062c-.658 0 .255-.062.054-.062h-.274.063c-.212.04-.428.054-.643.041-.256-.026-.132-.041-.231-.048a.653.653 0 0 0-.153 0c-.194-.018-.395 0-.588-.051.076.022.153.048.23.062-.263 0-.548-.076-.285 0-.194-.065-.731-.131-1.257-.269a4.56 4.56 0 0 1-.705-.208l-.405-.142a4.354 4.354 0 0 1-1.038-.538c.088.069.124.138-.194-.084.041 0 .026-.022-.021-.062a1.706 1.706 0 0 1-.209-.189 3.446 3.446 0 0 1-.456-.495c.142.24-.673-.856-.446-.484-.161-.281 0-.03-.099-.248a5.353 5.353 0 0 1-.793-2.475s0 .145-.032-.055v-.251l.025-.247a2.941 2.941 0 0 1 0-.514c0 .048-.018.12 0 0 .11-.939.424-1.843.921-2.65l.405-.589.494-.524c.162-.176.342-.335.537-.474a5.99 5.99 0 0 1 .573-.426c-.226.128-.077.041.091-.061-.109.065 0 0-.021 0l.686-.404c.121-.084.782-.346.855-.386l-.23.102c.307-.135-.438.178-.394.153a5.29 5.29 0 0 0-.632.334 3.948 3.948 0 0 0-.753.485c-.11.08.091-.077.029-.033-.12.102-.27.218-.548.429l.029-.025a6.598 6.598 0 0 0-1.552 1.973l.033-.04-.194.364c-.106.251.31-.601.216-.364-.234.244-.607 1.568-.64 1.783-.066.364.04-.102-.025.259a.456.456 0 0 0-.026.098v.091a1.59 1.59 0 0 1-.044.364v-.233c0 .156-.025.364-.029.575-.004.211.036.364.04.419l-.022-.364c.026.251.044.517.081.786.036.269.117.542.19.808s.193.524.306.768c.114.244.256.466.391.67a.292.292 0 0 1-.033-.069c.262.4.571.766.921 1.092l-.025-.019c.065.048.131.121.219.179l.27.182c-.179-.106.307.247.073.105.153.116.323.207.504.27.066.022.099.025.347.12l.103.076c.197.044.391.1.581.168-.322-.091.233.12-.128.018.309.134.635.228.968.28.256.058.453.08.643.146.201 0 .018-.04-.186-.073a1.046 1.046 0 0 1-.318-.069c-.088-.033 0-.026.131 0 .132.025.329.036.461.062.368.109.748.177 1.132.204h-.142c.259.036.504 0 .822.036.175-.044.409 0 .46-.055h-.632c.365-.021.69-.058 1.279-.083-.048 0-.22.04-.34.058.171 0 .329-.037.508-.033-.378.07-.76.106-1.144.106.186.025.731-.048.533 0 .271-.102.68-.029 1.137-.146l-.026.04c.073-.018.223-.054.365-.073l-.237.08c.365-.101.731-.054 1.096-.167-.731.153-.175 0-.493.025a3.6 3.6 0 0 1 .73-.12 2.43 2.43 0 0 0 .826-.16c-.135.048-.519.131-.31.051a2.48 2.48 0 0 1 .577-.127c.665-.211-.117 0 .161-.117.244-.018.314-.131.591-.255l.019.037c.73-.277.171-.131.822-.422l-.245.185.325-.182-.048.077c.348-.219.472-.251.812-.466-.095.025 0-.091.295-.28.212-.121-.076.12.315-.19a.74.74 0 0 1-.366.281c0 .021-.08.08-.091.101a2.72 2.72 0 0 0 .365-.233l.296-.254c-.05.041-.103.08-.157.116.175-.171.365-.335.523-.509.087-.073.04 0-.022.072.106-.102.157-.196.303-.364 0 .062.022.077-.179.317l.449-.542c.051 0 .252-.259.208-.179.133-.189.255-.386.366-.589a9.23 9.23 0 0 0 .329-.728 1.22 1.22 0 0 1 .051-.186c.187-.463.289-.957.299-1.456l.077-.324c0-.451-.069.437-.11-.309-.043-.525.044-.201.048-.386-.051-.262-.186-.699-.267-1.18.077.201.099.31.139.455zm-3.156-4.368c.121.053.236.122.339.204a.755.755 0 0 1-.339-.189v-.015zm-8.038-.593a1.26 1.26 0 0 1 .325-.076 2.352 2.352 0 0 1-.321.091l-.004-.015zm2.36 13.443c-.241 0-.157 0 0 0zm.479-.022h.025a1.762 1.762 0 0 1-.263.025.828.828 0 0 0 .238-.032v.007zm-2.02-.655h.095c-.212.003-.154 0-.099-.008l.004.008z" fill="#3E494E"/>
    <path d="M115.525 102.045a.079.079 0 0 1 .048 0c.04 0 .04-.007-.048 0zM110.331 114.32a.962.962 0 0 1-.132-.146s.015.04.132.146zM119.954 115.277c-.095.03-.194.051-.293.073.143-.032.198-.032.271-.047-.011-.007-.07 0 .022-.026zM122.493 114.499l.121-.073c-.183.091-.293.168-.121.073zM120.253 115.291c.143-.016.283-.051.417-.105h-.037c.051-.037-.164.036-.38.105zM120.717 115.168l.186-.063c.022-.021-.077.022-.186.063zM118.072 115.641c.103 0 .059-.037.117-.033.059.003-.668.113-.117.033zM120.44 115.316l-.08-.007-.114.054.194-.047zM118.773 115.665l.343-.048s.037 0 .088-.025c-.208.033-.442.066-.431.073zM119.205 115.595a2.68 2.68 0 0 0 .27-.066l-.27.066zM119.986 115.451l-.098.018-.238.052.336-.07zM115.08 115.897c-.128 0-.252 0-.365-.026-.04 0 .062.029.201.037.139.007.223 0 .164-.011zM116.22 115.993a.705.705 0 0 1-.165-.022v.044l.165-.022zM115.117 116.002c-.036.022-.552 0-.069.029.033-.011.42-.011.069-.029zM109.987 113.82l.066.07.048-.066-.114-.004zM107.985 109.286c-.018.463.044.11.037.524v-.116c0-.084 0-.167.018-.113-.007-.273.004-.422-.055-.295zM113.225 103.463l.263-.117-.172.073-.091.044zM113.728 103.24l.062-.026.157-.069-.219.095zM122 102.41h-.025c.07.048.143.092.219.132a1.949 1.949 0 0 0-.194-.132zM124.981 105.088l-.037-.059.022.139.015-.08zM126.077 108.284c0-.142-.037-.302-.048-.444.048.302-.014.484.048.444z" fill="#3E494E"/>
    <path d="M51.37 34.828h-9.035v13.858h9.035V34.828z" fill="#B0BEC5"/>
    <path opacity=".1" d="M51.37 34.828h-9.035v13.858h9.035V34.828z" fill="#000"/>
    <path d="M43.12 48.688h-.182v114.594h.182V48.687zM44.213 48.688h-.183v114.594h.183V48.687zM45.305 48.688h-.183v114.594h.183V48.687zM46.397 48.688h-.182v114.594h.182V48.687zM47.494 48.688h-.182v114.594h.182V48.687zM48.586 48.688h-.183v114.594h.183V48.687zM49.679 48.688h-.183v114.594h.183V48.687zM50.775 48.688h-.183v114.594h.183V48.687z" fill="#C7C7C7"/>
    <path opacity=".1" d="M67.802 40.745a2.363 2.363 0 0 1-1.468 2.189 2.387 2.387 0 0 1-2.592-.514 2.367 2.367 0 0 1-.515-2.582 2.372 2.372 0 0 1 2.197-1.463 2.382 2.382 0 0 1 2.198 1.462c.12.288.181.596.18.908z" fill="#000"/>
    <path d="M66.856 40.745a1.431 1.431 0 0 1-.888 1.325 1.443 1.443 0 0 1-1.963-1.045 1.43 1.43 0 0 1 .612-1.473 1.443 1.443 0 0 1 2.13.643c.073.175.11.361.11.55z" fill="#263238"/>
    <path opacity=".1" d="M77.834 43.114a2.374 2.374 0 0 0 2.379-2.37 2.374 2.374 0 0 0-2.379-2.369 2.374 2.374 0 0 0-2.378 2.37 2.374 2.374 0 0 0 2.378 2.37z" fill="#000"/>
    <path d="M79.278 40.745a1.431 1.431 0 0 1-.888 1.325 1.444 1.444 0 0 1-1.963-1.045 1.428 1.428 0 0 1 .612-1.473 1.443 1.443 0 0 1 2.13.643c.073.175.11.361.11.55z" fill="#263238"/>
    <path opacity=".1" d="M92.623 40.745a2.363 2.363 0 0 1-1.468 2.189 2.385 2.385 0 0 1-2.592-.514 2.367 2.367 0 0 1-.516-2.582 2.385 2.385 0 0 1 3.879-.769c.446.444.697 1.047.697 1.676z" fill="#000"/>
    <path d="M91.7 40.745a1.43 1.43 0 0 1-.885 1.323 1.444 1.444 0 0 1-1.565-.302 1.432 1.432 0 0 1 .988-2.455 1.445 1.445 0 0 1 1.35.88c.073.175.111.364.111.554z" fill="#263238"/>
    <path opacity=".1" d="M105.067 40.745a2.371 2.371 0 0 1-1.468 2.19 2.386 2.386 0 0 1-2.592-.515 2.36 2.36 0 0 1-.515-2.582 2.382 2.382 0 0 1 3.108-1.283 2.382 2.382 0 0 1 1.287 1.282c.119.288.181.596.18.908z" fill="#000"/>
    <path d="M104.12 40.745a1.432 1.432 0 0 1-.889 1.325 1.441 1.441 0 0 1-1.962-1.045 1.425 1.425 0 0 1 .612-1.473 1.44 1.44 0 0 1 1.351-.133 1.426 1.426 0 0 1 .779.776c.072.175.109.361.109.55z" fill="#263238"/>
    <path opacity=".1" d="M115.143 43.114a2.374 2.374 0 0 0 2.378-2.37 2.374 2.374 0 0 0-2.378-2.369 2.373 2.373 0 0 0-2.378 2.37 2.373 2.373 0 0 0 2.378 2.37z" fill="#000"/>
    <path d="M116.582 40.745a1.438 1.438 0 0 1-1.72 1.407 1.44 1.44 0 0 1-1.131-1.127 1.433 1.433 0 0 1 1.412-1.714 1.441 1.441 0 0 1 1.439 1.434z" fill="#263238"/>
    <path opacity=".1" d="M127.523 43.114a2.374 2.374 0 0 0 2.378-2.37 2.374 2.374 0 0 0-2.378-2.369 2.373 2.373 0 0 0-2.378 2.37 2.373 2.373 0 0 0 2.378 2.37z" fill="#000"/>
    <path d="M128.963 40.745a1.432 1.432 0 0 1-.889 1.325 1.441 1.441 0 0 1-1.962-1.045 1.425 1.425 0 0 1 .612-1.473 1.44 1.44 0 0 1 1.351-.133 1.426 1.426 0 0 1 .779.776c.072.175.109.361.109.55z" fill="#263238"/>
    <path opacity=".1" d="M139.945 43.114a2.374 2.374 0 0 0 2.378-2.37 2.374 2.374 0 0 0-2.378-2.369 2.373 2.373 0 0 0-2.378 2.37 2.373 2.373 0 0 0 2.378 2.37z" fill="#000"/>
    <path d="M141.384 40.745a1.432 1.432 0 0 1-.889 1.325 1.443 1.443 0 0 1-1.962-1.045 1.433 1.433 0 0 1 1.411-1.714c.382 0 .748.15 1.018.42.27.269.422.633.422 1.014z" fill="#263238"/>
    <path opacity=".1" d="M152.407 43.114a2.374 2.374 0 0 0 2.378-2.37 2.374 2.374 0 0 0-2.378-2.369 2.374 2.374 0 0 0-2.379 2.37 2.374 2.374 0 0 0 2.379 2.37z" fill="#000"/>
    <path d="M153.845 40.745a1.431 1.431 0 0 1-.888 1.325 1.446 1.446 0 0 1-1.569-.311 1.433 1.433 0 0 1 1.018-2.448c.382 0 .748.15 1.018.42.27.269.421.633.421 1.014z" fill="#263238"/>
    <path opacity=".1" d="M167.173 40.745a2.366 2.366 0 0 1-1.468 2.189 2.386 2.386 0 0 1-2.592-.514 2.366 2.366 0 0 1 .36-3.646 2.385 2.385 0 0 1 3.003.295c.446.444.697 1.047.697 1.676z" fill="#000"/>
    <path d="M166.226 40.745a1.431 1.431 0 0 1-.888 1.325 1.446 1.446 0 0 1-1.569-.311 1.433 1.433 0 0 1 1.018-2.448c.382 0 .748.15 1.018.42.27.269.421.633.421 1.014z" fill="#263238"/>
    <path opacity=".1" d="M179.612 40.745a2.371 2.371 0 0 1-1.468 2.19 2.386 2.386 0 0 1-2.592-.515 2.366 2.366 0 0 1 .36-3.646 2.387 2.387 0 0 1 3.52 1.063c.119.288.181.596.18.908z" fill="#000"/>
    <path d="M178.674 40.745a1.432 1.432 0 0 1-.889 1.325 1.441 1.441 0 0 1-1.962-1.045 1.433 1.433 0 0 1 1.411-1.714 1.444 1.444 0 0 1 1.019.419 1.425 1.425 0 0 1 .421 1.015z" fill="#263238"/>
    <path opacity=".1" d="M192.002 40.745a2.366 2.366 0 0 1-1.468 2.189 2.389 2.389 0 0 1-2.592-.514 2.366 2.366 0 0 1 .36-3.646 2.384 2.384 0 0 1 3.52 1.063c.119.288.18.596.18.908z" fill="#000"/>
    <path d="M191.069 40.745a1.432 1.432 0 0 1-.883 1.323 1.445 1.445 0 0 1-1.566-.301 1.434 1.434 0 0 1-.326-1.556 1.444 1.444 0 0 1 2.665-.02c.073.175.111.364.11.554z" fill="#263238"/>
    <path opacity=".1" d="M204.441 40.745a2.371 2.371 0 0 1-1.468 2.19 2.386 2.386 0 0 1-2.592-.515 2.366 2.366 0 0 1 .36-3.646 2.387 2.387 0 0 1 3.52 1.063c.119.288.181.596.18.908z" fill="#000"/>
    <path d="M203.491 40.745a1.431 1.431 0 0 1-.888 1.325 1.445 1.445 0 0 1-1.569-.311 1.425 1.425 0 0 1 .218-2.206 1.444 1.444 0 0 1 2.131.642c.072.175.109.361.108.55z" fill="#263238"/>
    <path opacity=".1" d="M214.476 43.114a2.374 2.374 0 0 0 2.379-2.37 2.374 2.374 0 0 0-2.379-2.369 2.374 2.374 0 0 0-2.378 2.37 2.374 2.374 0 0 0 2.378 2.37z" fill="#000"/>
    <path d="M215.913 40.745a1.438 1.438 0 0 1-1.72 1.407 1.44 1.44 0 0 1-1.131-1.127 1.425 1.425 0 0 1 .612-1.473 1.444 1.444 0 0 1 2.13.643c.073.175.109.361.109.55z" fill="#263238"/>
    <path d="M66.593 35.735c0 1.183-.132 5.035-.132 5.035 0 1.34-2.079 1.335-2.079 0v-5.875c0-2.963-1.297-4.03-2.583-4.03-1.607 0-2.557 1.93-2.557 3.96h-2.09c0-4.611 2.214-6.391 4.49-6.391 3.46 0 4.95 2.3 4.95 7.301zM79.015 35.735c0 1.183-.132 5.035-.132 5.035 0 1.34-2.075 1.335-2.075 0v-5.875c0-2.963-1.293-4.03-2.583-4.03-1.607 0-2.557 1.93-2.557 3.96h-2.09c0-4.611 2.214-6.391 4.49-6.391 3.456 0 4.947 2.3 4.947 7.301zM91.44 35.735c0 1.183-.132 5.035-.132 5.035 0 1.34-2.078 1.335-2.078 0v-5.875c0-2.963-1.297-4.03-2.587-4.03-1.607 0-2.557 1.93-2.557 3.96h-2.09c0-4.611 2.214-6.391 4.49-6.391 3.46 0 4.954 2.3 4.954 7.301zM103.861 35.735c0 1.183-.131 5.035-.131 5.035 0 1.34-2.079 1.335-2.079 0v-5.875c0-2.963-1.297-4.03-2.583-4.03-1.607 0-2.557 1.93-2.557 3.96h-2.09c0-4.611 2.214-6.391 4.49-6.391 3.46 0 4.95 2.3 4.95 7.301zM116.282 35.735c0 1.183-.131 5.035-.131 5.035 0 1.34-2.079 1.335-2.079 0v-5.875c0-2.963-1.293-4.03-2.583-4.03-1.607 0-2.557 1.93-2.557 3.96h-2.09c0-4.611 2.214-6.391 4.49-6.391 3.46 0 4.95 2.3 4.95 7.301zM128.707 35.735c0 1.183-.136 5.035-.136 5.035 0 1.34-2.075 1.335-2.075 0v-5.875c0-2.963-1.297-4.03-2.586-4.03-1.608 0-2.558 1.93-2.558 3.96h-2.089c0-4.611 2.21-6.391 4.49-6.391 3.459 0 4.954 2.3 4.954 7.301zM141.128 35.735c0 1.183-.131 5.035-.131 5.035 0 1.34-2.079 1.335-2.079 0v-5.875c0-2.963-1.297-4.03-2.586-4.03-1.608 0-2.558 1.93-2.558 3.96h-2.089c0-4.611 2.213-6.391 4.49-6.391 3.463 0 4.953 2.3 4.953 7.301zM153.55 35.735c0 1.183-.132 5.035-.132 5.035 0 1.34-2.079 1.335-2.079 0v-5.875c0-2.963-1.293-4.03-2.583-4.03-1.607 0-2.557 1.93-2.557 3.96h-2.09c0-4.611 2.214-6.391 4.49-6.391 3.46 0 4.951 2.3 4.951 7.301zM165.975 35.735c0 1.183-.135 5.035-.135 5.035 0 1.34-2.075 1.335-2.075 0v-5.875c0-2.963-1.293-4.03-2.583-4.03-1.608 0-2.557 1.93-2.557 3.96h-2.094c0-4.611 2.214-6.391 4.494-6.391 3.456 0 4.95 2.3 4.95 7.301zM178.396 35.735c0 1.183-.131 5.035-.131 5.035 0 1.34-2.079 1.335-2.079 0v-5.875c0-2.963-1.297-4.03-2.587-4.03-1.607 0-2.557 1.93-2.557 3.96h-2.09c0-4.611 2.214-6.391 4.49-6.391 3.464 0 4.954 2.3 4.954 7.301zM190.818 35.735c0 1.183-.131 5.035-.131 5.035 0 1.34-2.079 1.335-2.079 0v-5.875c0-2.963-1.293-4.03-2.583-4.03-1.607 0-2.557 1.93-2.557 3.96h-2.09c0-4.611 2.214-6.391 4.49-6.391 3.46 0 4.95 2.3 4.95 7.301zM203.243 35.735c0 1.183-.135 5.035-.135 5.035 0 1.34-2.076 1.335-2.076 0v-5.875c0-2.963-1.293-4.03-2.582-4.03-1.608 0-2.558 1.93-2.558 3.96h-2.093c0-4.611 2.214-6.391 4.49-6.391 3.459 0 4.954 2.3 4.954 7.301zM215.663 35.735c0 1.183-.131 5.035-.131 5.035 0 1.34-2.079 1.335-2.079 0v-5.875c0-2.963-1.297-4.03-2.586-4.03-1.608 0-2.558 1.93-2.558 3.96h-2.089c0-4.611 2.214-6.391 4.49-6.391 3.463 0 4.953 2.3 4.953 7.301z" fill="#37474F"/>
    <path d="M22.041 163.285c73.651-.222 156.268-.226 229.919 0-73.651.226-156.268.222-229.919 0z" fill="#263238"/>
    <path d="M145.984 97.37h-14.248a7.584 7.584 0 0 1-.705-2.825V83.17h14.248v11.52c0 1.15.705 2.68.705 2.68z" fill="#37474F"/>
    <path d="M133.479 86.527c1.673-.139 3.35-.171 5.027-.179a57.99 57.99 0 0 1 5.027.179c-1.677.138-3.35.167-5.027.174a59.439 59.439 0 0 1-5.027-.174zM133.479 88.398c1.505-.138 3.014-.167 4.522-.175a46.868 46.868 0 0 1 4.52.175c-1.506.139-3.014.171-4.52.175-1.505.004-3.017-.036-4.522-.175zM133.479 90.273c1.318-.135 2.637-.167 3.953-.175a36.004 36.004 0 0 1 3.956.175c-1.319.139-2.638.171-3.956.178a36.937 36.937 0 0 1-3.953-.178zM133.479 92.144c1.673-.138 3.35-.171 5.027-.178a57.99 57.99 0 0 1 5.027.178c-1.677.138-3.35.167-5.027.175a59.397 59.397 0 0 1-5.027-.175z" fill="#fff"/>
    <path d="M125.923 135.409h-14.248a7.583 7.583 0 0 1-.705-2.828v-11.368h14.248v11.52c0 1.14.705 2.676.705 2.676z" fill="#455A64"/>
    <path d="M113.418 124.556c1.673-.138 3.35-.171 5.027-.178 1.677-.008 3.35.04 5.027.178-1.677.135-3.35.167-5.027.175a59.238 59.238 0 0 1-5.027-.175zM113.418 126.427c1.505-.138 3.014-.167 4.519-.174a46.838 46.838 0 0 1 4.523.174c-1.505.139-3.014.172-4.523.175-1.509.004-3.014-.036-4.519-.175zM113.418 128.3c1.315-.134 2.634-.167 3.953-.174a35.85 35.85 0 0 1 3.956.174c-1.318.139-2.637.172-3.956.179a35.77 35.77 0 0 1-3.953-.179zM113.418 130.173c1.673-.138 3.35-.171 5.027-.178a58.23 58.23 0 0 1 5.027.178c-1.677.135-3.35.168-5.027.175a57.622 57.622 0 0 1-5.027-.175z" fill="#fff"/>
    <path d="M105.41 97.116H91.162a7.554 7.554 0 0 1-.709-2.829V82.916h14.248v11.52c0 1.15.709 2.68.709 2.68z" fill="#A6A6A6"/>
    <path d="M92.9 86.269c1.677-.138 3.354-.171 5.031-.178 1.677-.008 3.35.04 5.027.178-1.677.135-3.354.167-5.027.175a58.12 58.12 0 0 1-5.03-.175zM92.9 88.142c1.51-.138 3.018-.167 4.523-.174a47.01 47.01 0 0 1 4.523.174c-1.509.139-3.014.168-4.523.175a46.963 46.963 0 0 1-4.523-.175zM92.9 90.013c1.32-.134 2.638-.167 3.957-.174a35.984 35.984 0 0 1 3.957.174c-1.32.139-2.638.171-3.957.179a35.975 35.975 0 0 1-3.957-.179zM92.9 91.89c1.677-.138 3.354-.171 5.031-.178 1.677-.008 3.35.04 5.027.178-1.677.135-3.354.168-5.027.175a59.594 59.594 0 0 1-5.03-.175z" fill="#fff"/>
    <path d="M161.821 154.436h-11.325a19.515 19.515 0 0 1-.245-2.825v-11.375h14.248v11.521c-.004 1.15-2.678 2.679-2.678 2.679z" fill="#B0BEC5"/>
    <path opacity=".2" d="M164.496 151.753c0 1.121-2.514 2.584-2.671 2.675.417-.28.347-2.504.347-2.504s2.283-.295 2.324-.171z" fill="#000"/>
    <path d="M152.345 143.591c1.673-.138 3.35-.171 5.027-.178a58.23 58.23 0 0 1 5.027.178c-1.677.139-3.35.168-5.027.175a59.397 59.397 0 0 1-5.027-.175zM152.345 145.463c1.315-.139 2.634-.168 3.953-.175a35.874 35.874 0 0 1 3.956.175 38.992 38.992 0 0 1-3.956.174c-1.319-.007-2.638-.036-3.953-.174zM152.345 147.334c1.315-.135 2.634-.168 3.953-.175 1.318-.007 2.637.04 3.956.175-1.319.138-2.638.171-3.956.178a36.014 36.014 0 0 1-3.953-.178z" fill="#fff"/>
    <path d="M200.334 115.973h-11.325a19.568 19.568 0 0 1-.245-2.828v-11.372h14.248v11.521c0 1.15-2.678 2.679-2.678 2.679z" fill="#B0BEC5"/>
    <path opacity=".2" d="M203.009 113.291c0 1.122-2.514 2.585-2.667 2.676.416-.28.343-2.505.343-2.505s2.284-.298 2.324-.171z" fill="#000"/>
    <path d="M190.857 105.13c1.674-.138 3.351-.171 5.027-.178 1.677-.007 3.354.04 5.027.178-1.673.135-3.35.168-5.027.175a59.426 59.426 0 0 1-5.027-.175zM190.857 107.015c1.319-.138 2.638-.167 3.953-.174a39.011 39.011 0 0 1 3.957.174c-1.319.139-2.638.168-3.957.175a39.755 39.755 0 0 1-3.953-.175zM190.857 108.873c1.319-.135 2.638-.168 3.953-.175a35.913 35.913 0 0 1 3.957.175c-1.319.138-2.638.171-3.957.178a35.936 35.936 0 0 1-3.953-.178z" fill="#fff"/>
    <path d="M237.182 140.788s6.152-1.387 9.524-4.484c3.372-3.098 5.253-8.638 5.253-8.638a52.594 52.594 0 0 0-6.897 1.82 11.545 11.545 0 0 0-2.09 2.941c-.052-.7-.052-1.403 0-2.104a9.524 9.524 0 0 0-2.192 1.325c-2.809 2.424-3.598 9.14-3.598 9.14z" fill="#B0BEC5"/>
    <path d="M248.119 130.358c.837-.578 1.692-1.135 2.525-1.718a.033.033 0 0 0 .013-.013.045.045 0 0 0 .008-.017.054.054 0 0 0 0-.018.036.036 0 0 0-.007-.017.035.035 0 0 0-.013-.014.044.044 0 0 0-.017-.007c-.006-.001-.012-.002-.018-.001l-.017.007a77.122 77.122 0 0 0-4.658 3.007c-.527.364-1.045.75-1.557 1.139l.106-.178c.186-.31.365-.612.574-.914a13.06 13.06 0 0 1 1.308-1.736c0-.018 0-.047-.03-.029-.478.549-.957 1.092-1.395 1.678-.208.28-.402.564-.585.859-.095.153-.19.306-.277.462l-.092.16a35.112 35.112 0 0 0-2.309 1.959c-.456.422-.895.862-1.322 1.314.237-.728.446-1.493.731-2.224 0-.022-.033-.033-.041 0-.27.764-.562 1.536-.77 2.322-.472.506-.921 1.03-1.345 1.58l.022-.102c.071-.287.144-.574.219-.863.15-.553.314-1.092.501-1.649a9.548 9.548 0 0 1 1.655-3.108c0-.022 0-.051-.033-.03a11.964 11.964 0 0 0-2.368 4.893c-.065.262-.127.524-.186.786-.033.138-.069.28-.091.426-.187.247-.366.502-.545.76a26.627 26.627 0 0 0-2.601 5.096 58.128 58.128 0 0 0-1.973 6.123c0 .008.001.015.006.022a.03.03 0 0 0 .018.013.033.033 0 0 0 .022-.001.044.044 0 0 0 .017-.016c1.205-3.589 2.433-7.225 4.493-10.432a24.11 24.11 0 0 1 1.403-1.955 11.624 11.624 0 0 0 2.992-.597 13.125 13.125 0 0 0 3-1.456 17.593 17.593 0 0 0 1.534-1.157l.005-.006.001-.008v-.007l-.004-.007-.006-.004-.008-.002-.007.001a15.77 15.77 0 0 1-7.306 2.974 26.225 26.225 0 0 1 1.827-2.002c.208-.208.423-.404.635-.604.718-.5 1.478-.935 2.273-1.3 1.008-.484 2.002-.997 2.999-1.503.563-.288 1.122-.579 1.688-.856.025 0 0-.047-.022-.032-1.012.484-2.039.939-3.058 1.405-.961.44-1.932.881-2.853 1.394l-.117.069a40.553 40.553 0 0 1 2.579-2.075 66.237 66.237 0 0 1 2.477-1.791z" fill="#263238"/>
    <path d="M247.769 133.519c-.501.219-1.012.415-1.506.645-.5.242-.988.509-1.461.801-.022 0 0 .04.022.029.49-.233.986-.452 1.461-.696.475-.243.99-.513 1.498-.728.022-.021.011-.061-.014-.051z" fill="#263238"/>
    <path d="M217.197 110.096a8.751 8.751 0 0 1 1.827 5.096c.018.549-.069 1.314-.132 2.213a14.61 14.61 0 0 1 4.019 3.418 7.312 7.312 0 0 0-4.059-.965c.032.612.111 1.221.238 1.82.894.001 1.78.176 2.608.513a5.886 5.886 0 0 0-2.353.466c1.096 3.477 4.355 7.047 13.357 8.562a18.75 18.75 0 0 0-1.596-12.617c-2.686-5.278-13.909-8.506-13.909-8.506z" fill="#B0BEC5"/>
    <path d="M235.824 145.906a87.207 87.207 0 0 0-.581-4.44 88.681 88.681 0 0 0-1.826-8.776 34.889 34.889 0 0 0-1.301-4.004c.026-.242.037-.485.033-.728v-.863c0-.575-.037-1.147-.084-1.718a20.912 20.912 0 0 0-.552-3.363c-.164-.641-.365-1.267-.544-1.901a.034.034 0 0 0-.008-.009c-.004-.002-.008-.004-.012-.004a.025.025 0 0 0-.012.004.017.017 0 0 0-.008.009c.298 1.103.52 2.224.665 3.357.16 1.116.26 2.24.299 3.367 0 .305.018.615.018.924v.397a28.297 28.297 0 0 0-1.516-3.131 37.98 37.98 0 0 0-3.079-4.59 1.947 1.947 0 0 0-.074-.502l-.131-.601a27.499 27.499 0 0 0-.307-1.219c-.223-.815-.519-1.598-.774-2.402a.022.022 0 0 0-.021-.013.027.027 0 0 0-.012.003.027.027 0 0 0-.008.01c.238.797.395 1.619.578 2.428a122.377 122.377 0 0 1 .394 1.801v.044a83.15 83.15 0 0 0-1.096-1.35c-1.721-2.01-3.606-3.862-5.502-5.701a74.577 74.577 0 0 0-.708-.669s-.048 0-.03.029c1.827 1.885 3.599 3.789 5.29 5.784.402.485.797.97 1.184 1.456l-.614-.408a26.455 26.455 0 0 0-1.6-.976c-.548-.302-1.096-.604-1.659-.88-.562-.277-1.194-.517-1.749-.841-.022 0-.044.025 0 .036.567.264 1.115.567 1.64.907.548.324 1.096.651 1.633.99.537.338 1.059.662 1.585 1.004.439.284.87.594 1.323.856a42.507 42.507 0 0 1 2.882 4.178 30.319 30.319 0 0 1 1.491 2.818l-.322-.139-.825-.364c-.526-.236-1.06-.462-1.589-.695-1.012-.437-2.035-.837-3.025-1.318-.559-.261-1.1-.56-1.619-.895-.022 0-.04.022 0 .036 1.827 1.271 3.913 2.163 5.955 3.062l.888.393c.241.105.486.226.731.32a31.23 31.23 0 0 1 1.49 4.175 82.871 82.871 0 0 1 1.958 8.678c.519 2.912.866 5.875 1.137 8.838.032.364.065.728.109 1.092 0 .031.012.06.034.082a.117.117 0 0 0 .083.034.117.117 0 0 0 .083-.034.115.115 0 0 0 .034-.082c-.015-1.496-.172-2.981-.329-4.496z" fill="#263238"/>
    <path d="M230.348 121.142c-.164-.91-.405-1.802-.654-2.693.002-.004.002-.007.002-.011a.017.017 0 0 0-.003-.01.018.018 0 0 0-.008-.007.023.023 0 0 0-.011-.003.02.02 0 0 0-.01.003.018.018 0 0 0-.008.007.03.03 0 0 0-.004.01l.002.011c.227.877.391 1.769.555 2.657.165.888.318 1.82.446 2.73h.026a23.02 23.02 0 0 0-.333-2.694zM226.474 123.615a16.88 16.88 0 0 0-1.958-1.092c-.329-.171-.662-.331-.994-.491-.333-.16-.698-.302-1.038-.473-.022 0-.044.025 0 .036.329.164.64.364.965.539l.997.546a21.95 21.95 0 0 0 1.995 1.026.053.053 0 0 0 .03-.009.045.045 0 0 0 .019-.024.05.05 0 0 0 .001-.032.056.056 0 0 0-.017-.026z" fill="#263238"/>
    <path opacity=".1" d="M237.295 130.174s5.692-1.354 8.304-5.157c2.495-3.64 3.288-9.828 3.365-10.374-.103.502-1.275 5.915-5.152 8.433-2.966 1.933-5.834 3.52-6.517 7.098z" fill="#263238"/>
    <path d="M242.548 120.375a7.249 7.249 0 0 0-2.101 3.443h.019a8.433 8.433 0 0 1 2.108-3.418c.007-.014.007-.043-.026-.025z" fill="#263238"/>
    <path d="M237.295 130.365s5.691-1.354 8.304-5.161c2.495-3.64 3.288-9.828 3.364-10.371a.109.109 0 0 0 0-.036s-2.729 3.866-5.589 4.852c-2.861.986-6.905 4.397-6.079 10.716z" fill="#B0BEC5"/>
    <path d="M247.962 116.738a23.222 23.222 0 0 1-1.757 2.996 12.17 12.17 0 0 1-2.342 2.402c-.774.612-1.593 1.165-2.374 1.766v-.029c.146-.215.303-.426.464-.634a20.08 20.08 0 0 1 1.041-1.194c.708-.764 1.428-1.514 2.064-2.344.352-.454.658-.942.913-1.456 0-.025-.029-.036-.04 0-.924 1.919-2.766 3.145-4.084 4.761-.187.233-.366.47-.527.728a3.078 3.078 0 0 0-.325.579 11.86 11.86 0 0 0-1.943 1.955c.051-.369.128-.734.23-1.092.132-.505.335-.989.603-1.438 0-.022-.022-.047-.037-.022a6.651 6.651 0 0 0-.661 1.427 4.791 4.791 0 0 0-.208 1.223c-.282.38-.538.777-.767 1.19a29.007 29.007 0 0 1 .453-2.053 10.05 10.05 0 0 1 1.37-3.192c0-.022-.019-.047-.033-.025a12.15 12.15 0 0 0-1.52 3.126 19.657 19.657 0 0 0-.453 1.693c-.062.28-.117.561-.172.841a18.44 18.44 0 0 0-.084.444 20.222 20.222 0 0 0-1.311 3.844 55.976 55.976 0 0 0-1.213 7.171 59.6 59.6 0 0 0-.395 7.614c0 .317.026.637.044.954 0 .084.128.095.131 0 .055-1.256.088-2.515.161-3.775.073-1.259.187-2.511.322-3.767a66.299 66.299 0 0 1 1.187-7.331c.46-2.075 1.06-4.16 2.192-5.977a11.318 11.318 0 0 1 2.053-2.435c.797-.728 1.67-1.339 2.514-1.998a13.779 13.779 0 0 0 2.305-2.21 17.968 17.968 0 0 0 1.827-2.912c.135-.255.27-.513.409-.768.011-.062-.026-.087-.037-.062z" fill="#263238"/>
    <path d="M216.404 127.859s-.091 8.059 4.75 10.385c4.84 2.326 7.431.39 10.719 1.169-.128-.193-2.474-3.553-6.211-4.477-3.84-.958-8.092-3.721-9.258-7.077z" fill="#B0BEC5"/>
    <path opacity=".2" d="M216.404 127.859s-.091 8.059 4.75 10.385c4.84 2.326 7.431.39 10.719 1.169a18.193 18.193 0 0 0-5.48-1.616c-3.08-.372-8.907-2.352-9.989-9.938z" fill="#000"/>
    <path d="M232.187 139.361a8.164 8.164 0 0 0-1.926-1.295c-.102-.051-.208-.091-.314-.135a2.225 2.225 0 0 0-.164-.186 6.328 6.328 0 0 0-.453-.429 6.451 6.451 0 0 0-.976-.699c-.8-.47-1.677-.801-2.499-1.234-.022 0-.043.022-.018.036.406.208.797.441 1.191.67.395.229.775.433 1.147.673.337.219.657.462.957.728.084.073.168.153.249.237a12.79 12.79 0 0 0-1.633-.433c-.888-.178-1.783-.306-2.667-.492a12.89 12.89 0 0 1-1.282-.345c-.402-.324-.801-.645-1.18-.99a9.854 9.854 0 0 1-1.254-1.384c0-.021-.051 0-.032.022a14.7 14.7 0 0 0 1.98 2.184c-.209-.08-.413-.164-.618-.255a9.97 9.97 0 0 1-4.121-3.418c0-.021-.051 0-.036.022a11.307 11.307 0 0 0 3.335 3.189c.662.412 1.369.745 2.108.994.857.264 1.731.471 2.616.618.866.141 1.721.344 2.557.608a7.621 7.621 0 0 1 2.149 1.125 10.031 10.031 0 0 1 2.897 3.582 17.83 17.83 0 0 1 1.596 5.893c0 .084.146.084.139 0-.219-3.411-1.129-6.931-3.748-9.286z" fill="#263238"/>
    <path d="M226.571 136.734a2.76 2.76 0 0 0-.994-.896 3.658 3.658 0 0 1-1.18-.975c-.018-.022-.055 0-.037.021.291.37.645.686 1.045.932.44.231.827.551 1.136.939a.017.017 0 0 0 .013.007c.004.001.009 0 .013-.003s.007-.007.007-.012c.001-.005 0-.01-.003-.013z" fill="#263238"/>
    <path d="m229.141 145.309.219 4.433.676 13.541h10.145l.672-13.541.223-4.433h-11.935z" fill="#455A64"/>
    <path d="m229.141 145.309.219 4.433h11.493l.223-4.433h-11.935z" fill="#263238"/>
    <path d="M228.431 147.689h13.356v-4.226h-13.356v4.226z" fill="#455A64"/>
    <path d="M75.519 79.734v9.038h1.271v2.192l2.2-2.192h12.074v-9.038H75.519z" fill="#fff"/>
    <path d="M75.519 79.733c.033 2.257.084 6.785.11 9.038l-.11-.11h1.388v2.305l-.23-.095 2.192-2.206c.055-.054.04-.047.11-.047l12.055-.022-.178.178.025-9.038.153.157c-3.872-.022-11.672-.106-15.544-.157l.029-.003zm0 0a3212.63 3212.63 0 0 1 15.71-.157v.157l.021 9.038v.178h-.179l-12.056-.022.113-.047-2.451 2.41c0-.11.025-2.334.022-2.52l.117.12H75.43c.026-2.307.077-6.839.113-9.146l-.025-.011z" fill="#263238"/>
    <path d="M86.22 84.253a.726.726 0 0 0 .451.673.733.733 0 0 0 .996-.53.725.725 0 0 0-.31-.748.733.733 0 0 0-1.137.605zM82.566 84.253a.727.727 0 0 0 .451.673.733.733 0 0 0 .997-.53.725.725 0 0 0-.311-.748.732.732 0 0 0-1.137.605zM78.88 84.253a.726.726 0 0 0 .45.673.733.733 0 0 0 .996-.53.725.725 0 0 0-.716-.87.732.732 0 0 0-.73.727z" fill="#263238"/>
    <path d="M216.336 36.162v9.035h1.275v2.19l2.2-2.19h12.074v-9.035h-15.549z" fill="#fff"/>
    <path d="M216.337 36.162c.036 2.254.084 6.782.109 9.035l-.109-.11h1.392v2.305l-.231-.095 2.192-2.206c.052-.054.041-.043.11-.043l12.074-.026-.179.178.022-9.034.157.153c-3.876-.022-11.69-.106-15.548-.153l.011-.004zm0 0c3.956-.05 11.749-.134 15.709-.156v.156l.022 9.035v.178h-.179l-12.074-.022.109-.047c-.073.077-2.473 2.435-2.447 2.41 0-.11.025-2.334.018-2.52l.12.121h-1.384c.025-2.308.076-6.84.109-9.144l-.003-.01z" fill="#263238"/>
    <path d="M227.051 40.68a.728.728 0 0 0 .873.713.729.729 0 1 0-.659-1.229.727.727 0 0 0-.214.515zM223.373 40.68a.728.728 0 0 0 .874.713.737.737 0 0 0 .574-.572.73.73 0 1 0-1.448-.142zM219.698 40.68a.727.727 0 0 0 .873.714.733.733 0 0 0 .574-.573.721.721 0 0 0-.311-.747.731.731 0 0 0-1.136.605z" fill="#263238"/>
</svg>
