<svg width="274" height="182" viewBox="0 0 274 182" fill="none" xmlns="http://www.w3.org/2000/svg">
    <path d="m211.366 43.191.366 1.285-1.162 8.183-2.166.6 1.147-7.818-2.864.786.39 1.398-1.76.495-.844-3.018 6.893-1.91zM220.194 47.083c.424 1.521-.325 3.156-2.784 3.836a6.2 6.2 0 0 1-3.544 0l.366-1.74c.856.312 1.79.345 2.667.095.993-.276 1.494-.863 1.3-1.561-.193-.7-.756-.994-2.32-.561l-2.192.612-.906-4.955 5.254-1.456.434 1.599-3.594.993.321 1.671.702-.197c2.546-.717 3.872.146 4.296 1.664zM220.032 43.231c-.387-1.398.139-2.548 1.297-2.868 1.158-.32 2.192.364 2.594 1.79.402 1.428-.15 2.549-1.297 2.869-1.147.32-2.203-.393-2.594-1.791zm3.288-.906c-.31-1.114-1.023-1.631-1.826-1.409-.804.222-1.144 1.041-.833 2.148.31 1.106 1.012 1.634 1.826 1.408.815-.225 1.129-1.03.819-2.147h.014zm3.255-3.346.731-.2-3.485 10.21-.731.2 3.485-10.21zm-.12 6.836c-.387-1.397.15-2.548 1.293-2.868 1.144-.32 2.192.393 2.598 1.791.405 1.398-.139 2.548-1.297 2.868-1.158.32-2.218-.393-2.609-1.79h.015zm3.288-.906c-.307-1.092-1.012-1.634-1.827-1.409-.815.226-1.147 1.03-.833 2.144.314 1.114 1.023 1.631 1.827 1.409.804-.222 1.11-1.041.804-2.144h.029z" fill="#E0E0E0"/>
    <path d="m230.133 162.678 25.722.201.255-32.351-25.722-.202-.255 32.352z" fill="#EBEBEB"/>
    <path d="m246.045 131.486-.457 31.322-4.063-.029.87-31.322 3.65.029z" fill="#FAFAFA"/>
    <path d="m215.616 131.25 14.756.116 25.723.201-25.749 3.374-.219 27.748-14.752-.113.241-31.326z" fill="#E0E0E0"/>
    <path d="m223.648 131.312-.588 31.322-4.376-.033.716-31.322 4.248.033z" fill="#FAFAFA"/>
    <path d="M235.329 121.78c0 .066-.435.146-1.228.222a31.906 31.906 0 0 1-3.372.149c-1.7.007-3.394-.214-5.034-.659a3.574 3.574 0 0 1-.731-.327 1.961 1.961 0 0 1-.672-.634 1.767 1.767 0 0 1-.271-.935c.001-.29.038-.578.11-.859.23-1.052.549-2.082.954-3.079a7.759 7.759 0 0 1 .833-1.478 4.641 4.641 0 0 1 1.223-1.205c.258-.173.545-.296.848-.364a2.2 2.2 0 0 1 .935 0 3.7 3.7 0 0 1 1.421.772 14.712 14.712 0 0 1 3.347 3.825 12.222 12.222 0 0 1 1.355 3.12c.201.779.223 1.223.168 1.237-.16.048-.522-1.703-2.089-4.004a15.502 15.502 0 0 0-3.329-3.483 2.968 2.968 0 0 0-1.096-.579 1.387 1.387 0 0 0-1.077.233c-.376.265-.7.596-.958.975a7.312 7.312 0 0 0-.73 1.304c-.38.946-.686 1.919-.917 2.912-.134.353-.125.745.025 1.092.233.301.557.518.925.618.416.135.839.247 1.267.335.421.095.837.168 1.243.23.807.127 1.567.2 2.268.247 1.399.095 2.558.113 3.336.153.778.04 1.242.116 1.246.182z" fill="#E0E0E0"/>
    <path d="M234.795 122.015c0-.065.468-.204 1.333-.4.866-.197 2.13-.455 3.654-.823a34.946 34.946 0 0 0 5.253-1.652 5.87 5.87 0 0 0 1.319-.699c.174-.123.318-.282.424-.466a.81.81 0 0 0 .073-.532 2.935 2.935 0 0 0-.252-.691c-.121-.259-.245-.521-.365-.783a12.84 12.84 0 0 0-.841-1.507 6.54 6.54 0 0 0-1.096-1.27 4.182 4.182 0 0 0-1.308-.841 2.098 2.098 0 0 0-1.355-.058 3.535 3.535 0 0 0-1.217.728 18.42 18.42 0 0 0-3.518 4.131 15.906 15.906 0 0 0-1.563 3.327c-.274.834-.384 1.311-.457 1.3-.073-.011-.069-.506.099-1.391a12.719 12.719 0 0 1 1.337-3.574 17.507 17.507 0 0 1 3.525-4.448c.433-.418.95-.739 1.516-.943a3.003 3.003 0 0 1 1.948.047c.306.11.597.255.869.433.265.175.518.369.756.579.476.429.892.918 1.239 1.456.337.519.638 1.06.902 1.62l.365.804c.148.295.253.609.315.932a1.71 1.71 0 0 1-.179 1.114 2.35 2.35 0 0 1-.687.754 6.606 6.606 0 0 1-1.535.786 30.203 30.203 0 0 1-5.447 1.499 45.817 45.817 0 0 1-3.741.532c-.884.091-1.355.098-1.366.036z" fill="#FAFAFA"/>
    <path d="m210.933 131.204 37.811.296.085-10.709-37.811-.295-.085 10.708z" fill="#E0E0E0"/>
    <path d="m224.844 131.309 34.176.267.084-10.708-34.176-.268-.084 10.709z" fill="#EBEBEB"/>
    <path d="m248.61 120.8-.238 10.757-3.985-.084.277-10.705 3.946.032zM220.293 120.632l-.387 10.662-4.381-.037.234-10.712 4.534.087z" fill="#FAFAFA"/>
    <path d="m249.753 163.056 11.749.092.116-14.778-11.748-.091-.117 14.777z" fill="#EBEBEB"/>
    <path d="m257.019 148.817-.208 14.306-1.86-.011.398-14.309 1.67.014z" fill="#FAFAFA"/>
    <path d="m243.117 148.707 6.741.051 11.749.095-11.76 1.539-.102 12.675-6.737-.051.109-14.309z" fill="#E0E0E0"/>
    <path d="m246.786 148.737-.266 14.309-2.002-.018.328-14.305 1.94.014z" fill="#FAFAFA"/>
    <path d="M252.123 144.384c0 .12-.785.302-2.108.364a8.235 8.235 0 0 1-2.371-.258 1.389 1.389 0 0 1-.775-.532 1.044 1.044 0 0 1-.164-.557c0-.153.017-.305.051-.455.106-.497.255-.984.446-1.456.109-.257.246-.501.409-.728a2.31 2.31 0 0 1 .632-.622 1.287 1.287 0 0 1 1.005-.179c.271.081.52.22.73.408a6.593 6.593 0 0 1 1.539 1.82c.661 1.205.653 2.075.54 2.089-.113.015-.365-.728-1.096-1.725a7.288 7.288 0 0 0-1.512-1.5 1.08 1.08 0 0 0-.406-.214.383.383 0 0 0-.299.08 1.545 1.545 0 0 0-.366.382 3.098 3.098 0 0 0-.303.55 8.727 8.727 0 0 0-.409 1.285c-.055.203-.044.294-.026.316a.561.561 0 0 0 .289.186c.358.118.724.209 1.096.273.365.065.701.109 1.016.142 1.264.131 2.078.189 2.082.331z" fill="#E0E0E0"/>
    <path d="M251.879 144.507c-.022-.139.859-.364 2.243-.728a18.137 18.137 0 0 0 2.349-.797c.193-.077.376-.176.545-.295a.431.431 0 0 0 .12-.135v-.084a4.042 4.042 0 0 0-.263-.604 6.13 6.13 0 0 0-.365-.659 2.924 2.924 0 0 0-.45-.531 1.72 1.72 0 0 0-.511-.335.7.7 0 0 0-.46-.029 1.34 1.34 0 0 0-.472.277 8.774 8.774 0 0 0-1.607 1.801c-.771 1.158-.932 2.046-1.096 2.024-.059 0-.099-.244-.051-.662a5.193 5.193 0 0 1 .551-1.697 7.783 7.783 0 0 1 1.612-2.122c.22-.215.484-.38.774-.484a1.599 1.599 0 0 1 1.049.018c.16.054.312.129.453.222.128.086.25.181.365.284.234.215.439.46.61.728.16.246.303.503.427.768.059.128.114.252.172.364.075.156.13.322.161.492.038.228-.001.462-.11.666a1.335 1.335 0 0 1-.387.422 3.022 3.022 0 0 1-.76.364c-.822.301-1.673.517-2.539.644-1.428.201-2.338.19-2.36.088z" fill="#FAFAFA"/>
    <path d="m240.987 148.679 17.269.135.038-4.892-17.268-.135-.039 4.892z" fill="#E0E0E0"/>
    <path d="m247.337 148.729 15.61.123.039-4.892-15.61-.123-.039 4.892z" fill="#EBEBEB"/>
    <path d="m258.189 143.936-.11 4.911-1.819-.037.128-4.888 1.801.014zM245.252 143.856l-.176 4.871-2.002-.015.11-4.896 2.068.04z" fill="#FAFAFA"/>
    <path d="m26.202 163.007 21.071.165.21-26.502-21.072-.165-.21 26.502z" fill="#EBEBEB"/>
    <path d="m39.232 137.446-.373 25.662-3.332-.026.716-25.658 2.989.022z" fill="#FAFAFA"/>
    <path d="m14.307 137.252 12.088.095 21.073.163-21.094 2.767-.18 22.732-12.085-.095.198-25.662z" fill="#E0E0E0"/>
    <path d="m20.887 137.305-.48 25.658-3.587-.025.585-25.659 3.482.026z" fill="#FAFAFA"/>
    <path d="M30.454 129.495c0 .131-.365.266-.997.397a18.05 18.05 0 0 1-4.75.255c-.365-.033-.73-.073-1.095-.138a9.369 9.369 0 0 1-1.206-.263 3.374 3.374 0 0 1-.712-.309 2.158 2.158 0 0 1-.731-.681 2.005 2.005 0 0 1-.31-1.044 3.4 3.4 0 0 1 .098-.838c.189-.895.456-1.772.8-2.62.197-.462.441-.901.73-1.311a6.35 6.35 0 0 1 .501-.589c.197-.206.42-.386.662-.535.268-.174.567-.297.88-.364a2.3 2.3 0 0 1 .997.021 3.5 3.5 0 0 1 1.363.75 11.765 11.765 0 0 1 2.762 3.309c.476.84.808 1.752.983 2.701.106.67.05 1.055-.07 1.092-.281.069-.73-1.307-2.046-3.058a13.315 13.315 0 0 0-2.71-2.657 1.85 1.85 0 0 0-.69-.364.608.608 0 0 0-.468.131 2.006 2.006 0 0 0-.31.269 5.231 5.231 0 0 0-.319.394c-.21.303-.388.626-.533.964-.298.745-.542 1.51-.73 2.29a1.615 1.615 0 0 0-.07.386v.109c.122.145.287.25.471.298.317.112.64.207.968.284.333.084.661.149.98.211.639.117 1.249.2 1.826.266 1.125.127 2.06.204 2.707.302.647.098 1.016.211 1.02.342z" fill="#E0E0E0"/>
    <path d="M30.019 129.685c-.048-.269 1.53-.706 4.019-1.387a32.12 32.12 0 0 0 4.19-1.456c.338-.132.657-.307.95-.52a.632.632 0 0 0 .193-.211v-.091a2.162 2.162 0 0 0-.168-.423l-.303-.629a10.802 10.802 0 0 0-.654-1.169 4.926 4.926 0 0 0-.789-.935 3.69 3.69 0 0 0-.453-.364 2.008 2.008 0 0 0-.431-.23 1.171 1.171 0 0 0-.764-.054 2.33 2.33 0 0 0-.814.48 15.858 15.858 0 0 0-2.883 3.193c-1.392 2.053-1.706 3.64-1.995 3.596-.124 0-.211-.441-.131-1.198a9.25 9.25 0 0 1 .965-3.068 13.837 13.837 0 0 1 2.886-3.837c.404-.394.889-.698 1.42-.892a3 3 0 0 1 1.948.033c.292.102.57.239.83.408.241.156.471.33.686.52.421.381.79.816 1.096 1.293.29.447.548.912.775 1.394l.306.67c.14.287.24.592.296.906.073.43-.002.873-.211 1.256-.182.314-.431.584-.731.79a5.76 5.76 0 0 1-1.388.695c-1.48.537-3.011.918-4.57 1.135a23.4 23.4 0 0 1-3.117.266c-.72.022-1.14-.04-1.158-.171z" fill="#FAFAFA"/>
    <path d="m10.477 137.222 30.972.243.07-8.772-30.973-.243-.069 8.772z" fill="#E0E0E0"/>
    <path d="m21.861 137.31 27.998.219.07-8.772-27.999-.219-.069 8.772z" fill="#EBEBEB"/>
    <path d="m41.333 128.691-.194 8.813-3.266-.069.227-8.769 3.233.025zM18.134 128.554l-.314 8.736-3.591-.03.193-8.776 3.712.07z" fill="#FAFAFA"/>
    <path d="m50.343 27.91.365 1.387-5.572 1.427-.285-1.092 2.156-3.404c.493-.786.512-1.194.42-1.55-.15-.58-.636-.812-1.414-.612a1.853 1.853 0 0 0-1.337 1.125l-1.461-.48c.365-.976 1.25-1.773 2.557-2.115 1.644-.42 2.956.142 3.288 1.456.186.727.154 1.415-.636 2.635l-1.282 2.027 3.2-.804zM50.437 25.45c-.624-2.427.366-4.145 2.192-4.608 1.827-.462 3.515.565 4.14 2.989.624 2.424-.366 4.142-2.192 4.608-1.827.466-3.515-.564-4.14-2.988zm4.604-1.179c-.432-1.67-1.199-2.21-2.054-1.99-.855.218-1.253 1.058-.822 2.726.431 1.667 1.199 2.209 2.043 1.994.843-.215 1.264-1.063.833-2.73zM57.179 21.88c-.31-1.198.16-2.185 1.15-2.421.99-.237 1.867.364 2.193 1.569.325 1.204-.172 2.184-1.151 2.42-.98.237-1.886-.375-2.192-1.569zm2.802-.729c-.249-.957-.848-1.408-1.531-1.23-.683.178-.99.866-.73 1.82.259.954.832 1.409 1.53 1.23.698-.178.975-.855.73-1.809v-.01zm2.827-2.795.621-.157-3.149 8.645-.62.16 3.148-8.648zm-.219 5.824c-.307-1.198.172-2.184 1.151-2.42.98-.238 1.87.363 2.192 1.568.322 1.205-.16 2.184-1.15 2.417-.99.233-1.882-.364-2.193-1.558v-.007zm2.802-.728c-.244-.947-.833-1.409-1.53-1.23-.698.178-.99.855-.731 1.82.26.964.847 1.404 1.53 1.23.684-.175.976-.86.735-1.802l-.004-.018zM119.547 50.926c.029 1.504-1.096 2.912-3.653 2.941a6.137 6.137 0 0 1-3.423-.895l.774-1.59c.753.51 1.647.775 2.558.756 1.033-.018 1.665-.447 1.655-1.175 0-.674-.519-1.092-1.692-1.063h-.946l-.022-1.362 1.801-2.103-3.807.065-.025-1.656 6.254-.106.026 1.336-1.969 2.337c1.614.23 2.447 1.205 2.469 2.515zM120.476 49.182c-.051-2.955 1.545-4.633 3.737-4.674 2.192-.04 3.858 1.602 3.909 4.54.051 2.937-1.541 4.637-3.748 4.673-2.207.037-3.847-1.601-3.898-4.539zm5.582-.098c-.036-2.02-.767-2.85-1.801-2.832-1.034.018-1.721.87-1.684 2.912.036 2.042.763 2.85 1.783 2.832 1.019-.018 1.735-.888 1.702-2.912zM129.149 46.934c-.026-1.456.775-2.432 1.976-2.454 1.202-.022 2.035.921 2.061 2.385.026 1.463-.789 2.431-1.976 2.45-1.188.017-2.035-.933-2.061-2.381zm3.398-.059c-.022-1.157-.581-1.82-1.411-1.82-.829 0-1.37.728-1.348 1.871.022 1.143.567 1.82 1.411 1.82.843 0 1.366-.699 1.348-1.87zm3.993-2.424h.752l-5.947 9.01h-.753l5.948-9.01zm-1.827 6.585c-.022-1.456.789-2.432 1.977-2.45 1.187-.018 2.034.932 2.06 2.38.026 1.45-.775 2.432-1.976 2.454-1.202.022-2.05-.932-2.076-2.384h.015zm3.398-.058c-.019-1.143-.567-1.82-1.411-1.82-.843 0-1.366.71-1.348 1.867.019 1.157.581 1.82 1.411 1.82.829 0 1.355-.72 1.333-1.867h.015z" fill="#E0E0E0"/>
    <path d="M162.785 23.415c-.175 1.136-1.165 1.998-3.006 1.718a4.51 4.51 0 0 1-2.353-1.06l.763-1.048a3.142 3.142 0 0 0 1.743.856c.749.113 1.257-.128 1.337-.652.08-.524-.204-.884-1.374-1.063l-1.647-.25.884-3.564 3.931.596-.183 1.194-2.689-.407-.288 1.201.526.08c1.907.291 2.532 1.26 2.356 2.399zM163.575 22.316c.325-2.122 1.688-3.145 3.288-2.912 1.6.233 2.579 1.62 2.254 3.742-.325 2.122-1.68 3.14-3.288 2.912-1.607-.23-2.575-1.624-2.254-3.742zm4.019.611c.223-1.456-.201-2.144-.946-2.257-.746-.113-1.345.415-1.568 1.875-.223 1.46.198 2.14.936 2.253.738.113 1.362-.411 1.585-1.867l-.007-.004zM170.089 21.756c.161-1.045.858-1.653 1.724-1.522s1.348.91 1.188 1.966c-.161 1.056-.866 1.653-1.725 1.522-.858-.132-1.348-.918-1.187-1.966zm5.637-.88.544.083-5.403 5.751-.544-.084 5.403-5.75zm-3.167 1.255c.127-.837-.194-1.39-.793-1.482-.599-.09-1.071.364-1.198 1.18-.128.815.182 1.387.792 1.481.61.095 1.052-.346 1.18-1.18h.019zm1.033 3.254c.161-1.045.866-1.652 1.725-1.522.858.132 1.348.921 1.187 1.966-.161 1.045-.858 1.653-1.724 1.522s-1.367-.918-1.206-1.966h.018zm2.452.364c.124-.826-.183-1.39-.793-1.481-.61-.091-1.07.342-1.198 1.175-.128.834.193 1.394.793 1.485.599.091 1.052-.356 1.18-1.168l.018-.011zM16.161 54.304l-1.337 5.69-1.308-.299 1.096-4.634-1.143-.265.248-1.06 2.444.568zM16.49 57.385c.44-1.878 1.736-2.7 3.139-2.373 1.403.327 2.192 1.638 1.753 3.512-.438 1.875-1.724 2.701-3.138 2.373-1.414-.327-2.195-1.634-1.753-3.512zm3.566.83c.304-1.292-.029-1.937-.69-2.09-.661-.152-1.235.277-1.538 1.57-.303 1.291.025 1.936.68 2.089.653.153 1.241-.277 1.548-1.57zM27.47 56.943l.482.113-5.239 4.779-.479-.113 5.236-4.78zm-5.115.397c.22-.929.888-1.424 1.655-1.245.767.178 1.143.91.924 1.845-.219.936-.891 1.42-1.651 1.245-.76-.175-1.133-.921-.917-1.846h-.011zm2.17.505c.175-.728-.073-1.259-.603-1.383-.53-.123-.986.24-1.158.972-.172.732.066 1.26.607 1.383.54.124.993-.214 1.165-.972h-.011zm.702 2.992c.215-.928.89-1.42 1.65-1.244.76.174 1.144.92.929 1.845-.216.925-.888 1.423-1.655 1.245-.767-.178-1.133-.92-.914-1.846h-.01zm2.173.506c.172-.728-.066-1.259-.603-1.383-.537-.123-.986.233-1.158.972-.171.74.073 1.26.603 1.383.53.124.994-.24 1.158-.971z" fill="#F5F5F5"/>
    <path d="M50.746 113.156c-6.36-6.483-16.323-9.209-25.113-6.865a45.873 45.873 0 0 0 25.409 7.909M42.226 83.105c1.049-7.375-1.827-15.653-7.369-21.029-.182 7.31 2.923 15.532 7.369 21.029zM46.657 97.031a39.452 39.452 0 0 0-18.16-17.279c2.312 8.488 9.6 15.434 18.215 17.36M47.573 99.736c-4.468.123-8.994-.033-13.316-1.172-4.322-1.14-8.461-3.331-11.325-6.742a44.628 44.628 0 0 1 24.561 7.466M45.3 90.868c2.27-8.474 6.014-14.334 12.696-19.08a17.567 17.567 0 0 1-2.813 11.874 17.678 17.678 0 0 1-9.882 7.206zM62.176 105.48c.016-2.471-.7-4.892-2.061-6.959a12.57 12.57 0 0 0-5.586-4.656c.366 4.368 3.822 9.435 7.647 11.615zM64.299 98.334c.508-7.076 5.553-13.624 12.286-15.94-1.53 7.08-5.637 12.974-12.286 15.94zM61.094 111.02c1.574-2.246 4.146-3.64 6.81-4.339 2.663-.699 5.443-.754 8.194-.812a19.15 19.15 0 0 1-6.722 4.687 19.216 19.216 0 0 1-8.074 1.454M57.898 129.07a21.06 21.06 0 0 1 15.174 1.084 20.95 20.95 0 0 1 10.455 11.011c-9.31-1.754-18.497-5.878-25.629-12.095zM47.684 122.795c1.545 4.554 1.249 10.061-2.192 13.985a16.64 16.64 0 0 1 2.192-13.985zM41.65 120.266a17.103 17.103 0 0 1-2.921 8.192 17.183 17.183 0 0 1-6.579 5.712 1.062 1.062 0 0 1-.84.135c-.42-.167-.456-.728-.405-1.187.672-5.824 5.012-11.476 10.744-12.852zM37.699 119.672a14.106 14.106 0 0 1-4.67 3.316 14.152 14.152 0 0 1-11.228.058 14.117 14.117 0 0 1-4.703-3.268c6.546-.728 14.105-1.19 20.6-.106z" fill="#B0BEC5"/>
    <path d="M36.719 67.51c.014.066.033.13.058.193.051.134.117.316.201.55.186.494.45 1.204.79 2.114.339.91.76 2.039 1.23 3.349l.757 2.093c.26.728.533 1.536.818 2.362 1.162 3.305 2.448 7.28 3.84 11.685 1.392 4.404 2.802 9.307 4.212 14.458a388.15 388.15 0 0 1 3.675 14.607c1.049 4.51 1.9 8.591 2.532 12.034l.464 2.453c.135.776.26 1.511.365 2.184.238 1.369.439 2.548.578 3.52.138.972.263 1.707.343 2.228.04.244.073.437.095.579.008.066.021.132.04.196a1.172 1.172 0 0 0 0-.2c-.018-.142-.04-.335-.073-.582l-.296-2.235c-.128-.961-.31-2.155-.533-3.528-.113-.687-.23-1.423-.366-2.202-.135-.779-.288-1.594-.445-2.457-.614-3.45-1.462-7.531-2.48-12.052-1.02-4.521-2.27-9.464-3.654-14.622-1.385-5.157-2.853-10.039-4.234-14.461a300.017 300.017 0 0 0-3.891-11.674c-.292-.825-.571-1.61-.837-2.355l-.774-2.09a147.59 147.59 0 0 0-1.272-3.337c-.365-.91-.64-1.605-.833-2.097l-.223-.542a1.427 1.427 0 0 0-.087-.171z" fill="#263238"/>
    <path d="M72.702 86.178a.7.7 0 0 0-.114.105l-.314.328c-.274.291-.668.728-1.161 1.296a45.562 45.562 0 0 0-3.858 5.125 34.198 34.198 0 0 0-4.019 8.594c-1.096 3.418-1.754 7.309-2.418 11.371-1.334 8.136-2.967 15.423-4.15 20.694-.596 2.624-1.097 4.75-1.418 6.242-.16.728-.289 1.292-.365 1.696-.04.186-.07.332-.096.445a.777.777 0 0 0-.021.152.698.698 0 0 0 .047-.149c.03-.109.07-.255.117-.437.102-.4.241-.964.424-1.685.365-1.485.866-3.607 1.494-6.224 1.227-5.26 2.89-12.547 4.223-20.694.669-4.062 1.33-7.939 2.393-11.346a34.735 34.735 0 0 1 3.96-8.565 48.723 48.723 0 0 1 3.782-5.154c.482-.582.865-1.026 1.129-1.328.12-.142.219-.255.292-.346a.832.832 0 0 0 .073-.12zM35.744 119.393a.777.777 0 0 0 .234.043l.68.073.489.051.577.084c.417.062.892.123 1.407.236l.815.164.869.219c.606.134 1.231.364 1.9.556a28.052 28.052 0 0 1 4.146 1.82c1.321.737 2.567 1.6 3.72 2.578.498.429.974.884 1.424 1.365.402.41.78.844 1.129 1.299.3.367.579.75.837 1.147.209.295.4.603.573.921l.347.586a.905.905 0 0 0 .135.196.803.803 0 0 0-.09-.222l-.308-.608a7.322 7.322 0 0 0-.54-.935 12.647 12.647 0 0 0-.812-1.18c-.346-.465-.719-.91-1.117-1.332-.45-.491-.927-.956-1.429-1.394a22.319 22.319 0 0 0-3.748-2.617 26.764 26.764 0 0 0-4.194-1.82c-.676-.197-1.308-.411-1.922-.539l-.88-.207-.822-.146c-.523-.105-1.001-.153-1.422-.204l-.584-.065-.493-.026-.683-.043a.859.859 0 0 0-.238 0zM33.877 86.33c.139.167.294.32.464.455l1.348 1.165c1.147.975 2.74 2.308 4.508 3.77a384.324 384.324 0 0 0 4.556 3.717l1.4 1.092c.163.14.342.263.532.364a3.188 3.188 0 0 0-.47-.455l-1.349-1.164a467.82 467.82 0 0 0-4.508-3.772 381.623 381.623 0 0 0-4.552-3.712l-1.4-1.092a3.614 3.614 0 0 0-.529-.368zM32.266 94.964c0 .066 3.42 1.136 7.672 2.392 4.252 1.255 7.734 2.216 7.752 2.15.018-.065-3.42-1.138-7.672-2.39-4.252-1.253-7.73-2.217-7.752-2.152zM44.965 91.528c.138-.152.26-.316.365-.492l.906-1.376a78.372 78.372 0 0 1 3.153-4.426 83.408 83.408 0 0 1 3.452-4.193c.431-.495.797-.91 1.096-1.238a3.14 3.14 0 0 0 .366-.473c-.168.115-.32.25-.453.404-.278.273-.672.677-1.151 1.187a58.688 58.688 0 0 0-3.518 4.164 56.18 56.18 0 0 0-3.102 4.477 42.768 42.768 0 0 0-.84 1.423c-.113.17-.205.352-.274.543zM56.904 96.318c.24.458.51.9.808 1.322a72.523 72.523 0 0 1 1.932 3.185 90.085 90.085 0 0 1 1.765 3.276c.213.47.457.926.73 1.365a8.064 8.064 0 0 0-.57-1.456c-.39-.874-.979-2.061-1.702-3.335a42.535 42.535 0 0 0-2.002-3.16 8.008 8.008 0 0 0-.96-1.197z" fill="#263238"/>
    <path d="M61.012 111.248c.018.033.672-.287 1.746-.768a61.088 61.088 0 0 1 4.267-1.703 47.414 47.414 0 0 1 4.402-1.318c1.14-.288 1.853-.451 1.827-.488a1.957 1.957 0 0 0-.511.055 22.15 22.15 0 0 0-1.374.258c-1.507.329-2.992.75-4.446 1.26a38.318 38.318 0 0 0-4.26 1.776c-.53.262-.95.484-1.238.652a2.08 2.08 0 0 0-.413.276zM57.773 129.1a.875.875 0 0 0 .212.069l.621.156 2.287.528a75.116 75.116 0 0 1 7.468 1.966 33.094 33.094 0 0 1 6.97 3.276c.833.527 1.484.993 1.922 1.332.22.183.45.354.69.51 0 0-.047-.062-.153-.164a7.422 7.422 0 0 0-.479-.423c-.6-.504-1.23-.973-1.885-1.405a30.572 30.572 0 0 0-6.981-3.348 61.685 61.685 0 0 0-7.515-1.9l-2.305-.477a5.815 5.815 0 0 0-.852-.12zM46.145 133.495c.066 0 .475-2.391.913-5.365.439-2.974.73-5.394.665-5.405-.066-.011-.475 2.395-.913 5.369-.439 2.974-.735 5.394-.665 5.401zM34.035 129.117c.394-.406.76-.838 1.096-1.292.654-.812 1.56-1.929 2.587-3.145a186.434 186.434 0 0 1 2.663-3.083c.395-.405.761-.837 1.096-1.292-.135.081-.258.18-.365.295-.212.203-.508.502-.873.88-.731.754-1.696 1.82-2.726 3.04a64.18 64.18 0 0 0-2.535 3.196c-.31.422-.556.768-.731 1.008-.09.12-.16.253-.212.393z" fill="#263238"/>
    <path d="M66.082 140.307v5.962h-1.498l-5.315 16.726H47.472l-5.151-16.562-1.995-.164v-5.962h25.756z" fill="#455A64"/>
    <path d="M41.322 146.433c0 .069 5.206.128 11.629.128 6.422 0 11.632-.059 11.632-.128 0-.07-5.206-.124-11.632-.124-6.426 0-11.629.054-11.629.124zM32.84 108.086c.246.089.499.157.756.204l2.068.498a92.23 92.23 0 0 1 6.74 1.952 85.64 85.64 0 0 1 6.576 2.504l1.951.848c.236.117.48.216.73.295a4.362 4.362 0 0 0-.682-.382 40.343 40.343 0 0 0-1.922-.925 68.15 68.15 0 0 0-13.327-4.466 46.145 46.145 0 0 0-2.09-.419 4.901 4.901 0 0 0-.8-.109z" fill="#263238"/>
    <path d="M45.24 155.722c0 .069 3.654.124 8.158.124 4.505 0 8.162-.055 8.162-.124 0-.07-3.654-.124-8.162-.124-4.508 0-8.158.054-8.158.124zM44.78 154.335c0 .07 3.872.124 8.647.124s8.65-.054 8.65-.124c0-.069-3.872-.124-8.65-.124-4.779 0-8.648.058-8.648.124z" fill="#FAFAFA"/>
    <path d="m232.406 117.126-24.357-27.264a10.309 10.309 0 0 0-3.447-2.527 10.347 10.347 0 0 0-4.181-.916l-80.187-.579a10.318 10.318 0 0 0-7.349 2.99 10.235 10.235 0 0 0-3.037 7.307l.135 56.574a10.247 10.247 0 0 0 3.043 7.264 10.316 10.316 0 0 0 7.31 2.986l79.91-.335a10.336 10.336 0 0 0 7.774-3.556l24.503-28.392a10.257 10.257 0 0 0-.117-13.552zm-13.554 9.828a8.476 8.476 0 0 1-3.107 3.824 8.535 8.535 0 0 1-9.45.063 8.481 8.481 0 0 1-3.158-3.782 8.44 8.44 0 0 1-.516-4.893 8.465 8.465 0 0 1 2.298-4.354 8.534 8.534 0 0 1 9.257-1.898 8.488 8.488 0 0 1 4.626 4.549 8.441 8.441 0 0 1 .05 6.476v.015z" fill="#B0BEC5"/>
    <path d="m232.406 117.126-24.357-27.264a10.309 10.309 0 0 0-3.447-2.527 10.347 10.347 0 0 0-4.181-.916l-80.187-.579a10.318 10.318 0 0 0-7.349 2.99 10.235 10.235 0 0 0-3.037 7.307l.135 56.574a10.247 10.247 0 0 0 3.043 7.264 10.316 10.316 0 0 0 7.31 2.986l79.91-.335a10.336 10.336 0 0 0 7.774-3.556l24.503-28.392a10.257 10.257 0 0 0-.117-13.552zm-13.554 9.828a8.476 8.476 0 0 1-3.107 3.824 8.535 8.535 0 0 1-9.45.063 8.481 8.481 0 0 1-3.158-3.782 8.44 8.44 0 0 1-.516-4.893 8.465 8.465 0 0 1 2.298-4.354 8.534 8.534 0 0 1 9.257-1.898 8.488 8.488 0 0 1 4.626 4.549 8.441 8.441 0 0 1 .05 6.476v.015z" fill="#000" opacity=".4"/>
    <path d="m236.626 117.126-24.368-27.264a10.353 10.353 0 0 0-7.628-3.444l-80.187-.578a10.334 10.334 0 0 0-7.35 2.99 10.238 10.238 0 0 0-3.036 7.308l.131 56.573a10.25 10.25 0 0 0 3.057 7.276c.966.953 2.11 1.706 3.369 2.216 1.258.51 2.606.768 3.964.758l79.906-.335a10.321 10.321 0 0 0 7.774-3.556l24.5-28.392a10.257 10.257 0 0 0 2.494-6.801 10.255 10.255 0 0 0-2.626-6.751zm-13.55 9.828a8.482 8.482 0 0 1-3.107 3.824 8.536 8.536 0 0 1-9.45.063 8.481 8.481 0 0 1-3.158-3.782 8.449 8.449 0 0 1 1.782-9.247 8.519 8.519 0 0 1 4.339-2.348 8.537 8.537 0 0 1 4.918.45 8.491 8.491 0 0 1 4.626 4.549 8.45 8.45 0 0 1 .05 6.476v.015z" fill="#B0BEC5"/>
    <path d="M140.741 115.228c.062-6.858 4.304-11.178 10.251-11.12 5.948.058 10.051 4.393 9.988 11.306-.062 6.912-4.252 11.178-10.196 11.124-5.944-.055-10.109-4.452-10.043-11.31zm14.405.135c.04-4.368-1.629-6.468-4.198-6.49-2.506-.026-4.278 2.107-4.318 6.41-.04 4.302 1.692 6.464 4.198 6.49 2.568.022 4.278-2.053 4.318-6.41zm20.163-10.556 6.941.065-28.258 40.404-6.942-.065 28.259-40.404zm-6.985 29.873c.065-6.857 4.303-11.178 10.196-11.123 5.948.058 10.105 4.455 10.043 11.309-.062 6.854-4.303 11.16-10.255 11.098-5.871-.047-10.046-4.444-9.984-11.284zm14.346.131c.04-4.298-1.629-6.464-4.197-6.486-2.507-.026-4.275 2.049-4.315 6.41-.04 4.361 1.688 6.465 4.194 6.49 2.568.007 4.278-2.129 4.315-6.432l.003.018z" fill="#fff"/>
    <path d="M233.959 133.954a3.7 3.7 0 0 1 .8.571c.5.397 1.231.994 2.155 1.784.925.79 2.05 1.765 3.314 2.941a65.416 65.416 0 0 1 4.147 4.175 42.346 42.346 0 0 1 4.358 5.667l.519.827.489.862c.342.59.652 1.197.928 1.82a11.356 11.356 0 0 1 1.045 4.201 6.588 6.588 0 0 1-.336 2.289 5.9 5.9 0 0 1-1.206 2.064 7.78 7.78 0 0 1-4.179 2.381 11.402 11.402 0 0 1-4.936-.117 21.653 21.653 0 0 1-4.687-1.721 29.302 29.302 0 0 1-7.858-5.824 37.474 37.474 0 0 1-3.036-3.517 102.2 102.2 0 0 1-2.616-3.57c-3.288-4.732-5.845-9.282-7.453-13.352a45.412 45.412 0 0 1-1.048-2.93c-.146-.47-.285-.928-.398-1.383a8.524 8.524 0 0 1-.267-1.344 3.32 3.32 0 0 1 .603-2.442 3.566 3.566 0 0 1 1.731-1.201c.283-.093.574-.16.87-.2.259-.028.521-.034.782-.019.408.02.811.107 1.191.259.23.096.445.228.635.389.124.113.179.175.168.19-.011.014-.087-.026-.226-.11a2.872 2.872 0 0 0-.643-.287 3.745 3.745 0 0 0-1.133-.16 5.256 5.256 0 0 0-.73.058 4.723 4.723 0 0 0-.793.226 3.21 3.21 0 0 0-1.491 1.121 2.84 2.84 0 0 0-.438 2.111c.06.428.156.85.285 1.263.12.437.27.881.424 1.34.319.917.684 1.873 1.096 2.868 1.655 3.967 4.241 8.448 7.544 13.104a103.393 103.393 0 0 0 2.619 3.52 37.168 37.168 0 0 0 2.985 3.421 28.708 28.708 0 0 0 7.614 5.635 20.956 20.956 0 0 0 4.493 1.653c1.483.37 3.029.413 4.53.127a6.914 6.914 0 0 0 3.697-2.075 5.337 5.337 0 0 0 1.345-3.734 10.565 10.565 0 0 0-.965-3.899c-.259-.602-.55-1.19-.873-1.762l-.456-.84-.497-.823a42.806 42.806 0 0 0-4.198-5.638 67.885 67.885 0 0 0-4.019-4.237 184.244 184.244 0 0 0-3.196-3.047l-2.017-1.907a4.035 4.035 0 0 1-.672-.728zM195.902 77.456c-.051 0-1.074-7.117-2.287-15.91-1.213-8.795-2.152-15.93-2.097-15.937.055-.007 1.074 7.117 2.287 15.91 1.213 8.795 2.152 15.93 2.097 15.937zM226.024 38.498a.462.462 0 0 1-.033.11l-.117.316-.464 1.212-1.739 4.448a863.33 863.33 0 0 0-5.589 14.731 777.962 777.962 0 0 0-5.287 14.84c-.654 1.897-1.184 3.437-1.553 4.518l-.427 1.226c-.047.131-.088.233-.117.317a.51.51 0 0 1-.044.106.398.398 0 0 1 .026-.113l.099-.324c.091-.295.222-.728.39-1.238.344-1.074.855-2.624 1.498-4.535 1.286-3.822 3.113-9.1 5.239-14.862a607.603 607.603 0 0 1 5.637-14.717c.731-1.87 1.367-3.385 1.801-4.426l.501-1.198c.055-.127.102-.229.135-.309l.044-.102zM247.609 66.512c.032.04-5.195 4.12-11.691 9.1-6.496 4.98-11.764 9.005-11.797 8.962-.033-.044 5.199-4.12 11.691-9.1 6.492-4.98 11.767-9.006 11.797-8.962zM183.222 78.785c-.044.033-2.064-2.547-4.515-5.736-2.452-3.189-4.41-5.824-4.384-5.85.025-.025 2.064 2.548 4.515 5.737 2.451 3.189 4.424 5.817 4.384 5.85zM245.138 98.85c0 .05-3.219-.838-7.157-1.98-3.938-1.144-7.117-2.112-7.102-2.163.015-.05 3.219.837 7.157 1.98s7.12 2.112 7.102 2.163z" fill="#263238"/>
    <path d="m199.104 98.733 2.374-1.362 1.261-2.424 1.37 2.366 2.433 1.26-2.375 1.361-1.264 2.424-1.366-2.366-2.433-1.26zM186.266 94.975l.833-.476.442-.849.478.827.851.44-.833.477-.442.848-.478-.826-.851-.44zM194.463 111.695l1.607-.921.855-1.641.925 1.601 1.647.852-1.607.921-.855 1.642-.924-1.602-1.648-.852zM87.437 69.061l-3.36-5.904a15.764 15.764 0 0 0 2.076-11.252 15.805 15.805 0 0 0-6.085-9.703 15.912 15.912 0 0 0-21.307 2.092 15.78 15.78 0 0 0-4.067 10.7 15.78 15.78 0 0 0 4.24 10.631 15.911 15.911 0 0 0 21.338 1.747l7.165 1.69z" fill="#fff"/>
    <path d="m87.438 69.062-7.179-1.638a.045.045 0 0 1-.03-.019.044.044 0 0 1-.006-.035v-.019l.065.066a15.925 15.925 0 0 1-7.588 3.2c-.83.115-1.668.156-2.506.123-.434-.022-.873-.033-1.315-.07l-1.34-.203a15.992 15.992 0 0 1-9.905-6.334 15.73 15.73 0 0 1-2.678-6.1 16.042 16.042 0 0 1 .186-7.025 15.575 15.575 0 0 1 3.398-6.494l.647-.728c.215-.24.467-.437.698-.655.23-.219.46-.44.73-.623l.76-.568c.25-.191.514-.365.79-.52l.803-.484.84-.408c.276-.139.56-.26.851-.364a16.201 16.201 0 0 1 7.102-1.092c2.29.154 4.516.81 6.522 1.918a16.027 16.027 0 0 1 7.507 9.242c.492 1.667.725 3.4.69 5.136-.043 1.508-.304 3-.774 4.434a16.025 16.025 0 0 1-1.593 3.4v-.048l3.321 5.926-3.408-5.9a.046.046 0 0 1 0-.044c.65-1.064 1.173-2.2 1.56-3.385.461-1.425.715-2.908.752-4.404a16.977 16.977 0 0 0-.697-5.096 15.908 15.908 0 0 0-7.46-9.119 15.5 15.5 0 0 0-6.449-1.889 16.043 16.043 0 0 0-7.021 1.092 7.5 7.5 0 0 0-.84.364l-.83.4-.796.481c-.271.153-.531.325-.779.513l-.752.56c-.256.183-.471.416-.709.62-.237.203-.479.407-.687.644l-.64.703a15.389 15.389 0 0 0-3.36 6.417 15.886 15.886 0 0 0-.19 6.941 15.594 15.594 0 0 0 2.641 6.035 15.864 15.864 0 0 0 9.791 6.29l1.326.204c.439.036.874.047 1.3.073.833.035 1.667-.004 2.492-.117a15.8 15.8 0 0 0 7.579-3.145.047.047 0 0 1 .053.011.055.055 0 0 1 0 .059l-.025-.077 7.153 1.751z" fill="#263238"/>
    <path d="M65.924 51.884a2.199 2.199 0 0 0-.79-.204 2.367 2.367 0 0 0-2.173.8c1.713.991 4.048 2.305 5.717 3.255l2.108-1.201c-1.52-.834-3.426-1.882-4.862-2.65z" fill="#B0BEC5"/>
    <path d="M65.924 51.886a2.199 2.199 0 0 0-.79-.204 2.369 2.369 0 0 0-2.173.8c1.713.99 4.048 2.305 5.717 3.255l2.108-1.201c-1.52-.834-3.426-1.882-4.862-2.65z" fill="#000" opacity=".3"/>
    <path d="m72.38 57.949-.078-.066c-.526-.302-1.096-.877-1.614-.866-.201 0-.42.178-.943.47-.87.49-2.334 1.346-3.211 1.82-.73.41-1.659.727-2.51.45a3.598 3.598 0 0 1-1.176-.71l9.528-5.503c-.048-.142-.1-.276-.147-.415a2.71 2.71 0 0 1 1.01-3.106 2.736 2.736 0 0 1 3.276.1 2.718 2.718 0 0 1 .818 3.162c-.226.545-.623 1-1.132 1.301-.508.3-1.1.428-1.688.363-.22-.014-.439.03-.636.128-.365.174-.701.396-1.136.644.73.328 1.231.852 2.09.772 1.183-.11 2.232.746 2.593 1.885a2.7 2.7 0 0 1-1.015 3.01 2.736 2.736 0 0 1-4.194-1.39 2.71 2.71 0 0 1 .014-1.682c.044-.105.106-.23.15-.367zm2.432-4.368a1.308 1.308 0 0 0 1.226-.817 1.316 1.316 0 0 0-.297-1.421 1.325 1.325 0 0 0-.918-.383c-.352.004-.69.145-.938.395-.25.249-.39.586-.392.937a1.328 1.328 0 0 0 1.319 1.281v.008zm0 6.945a1.325 1.325 0 0 0 1.334-1.27 1.291 1.291 0 0 0-.785-1.245 1.333 1.333 0 0 0-1.437.255c-.25.235-.4.559-.416.902-.003.348.13.683.37.935.241.252.57.401.92.416l.014.007z" fill="#B0BEC5"/>
    <path d="M71.269 55.693c-.033 0-.019-.243-.29-.436a.557.557 0 0 0-.514-.062.54.54 0 0 0-.248.803.54.54 0 0 0 .763.136c.27-.193.256-.448.288-.44.033.007.03.058 0 .16a.607.607 0 0 1-.219.385.684.684 0 0 1-.657.12.705.705 0 0 1-.476-.664.702.702 0 0 1 .82-.69.684.684 0 0 1 .313.146.6.6 0 0 1 .22.382c.029.102.01.16 0 .16zM73.6 55.23a1.895 1.895 0 0 1-.194.128l-.544.328-1.801 1.055-1.827 1.034-.555.306a1.361 1.361 0 0 1-.208.105c.06-.048.126-.092.193-.13l.545-.328 1.8-1.053 1.827-1.033.556-.31a1.52 1.52 0 0 1 .208-.102zM72.013 53.773a.722.722 0 0 1-.088.062l-.263.164-.971.6c-.819.496-1.955 1.173-3.23 1.89l-3.255 1.842-1.005.531-.27.146-.095.047s.03-.022.088-.058l.263-.16.979-.572 3.248-1.86a738.594 738.594 0 0 0 3.24-1.867l.983-.564.27-.153.106-.048z" fill="#263238"/>
    <path d="m132.368 73.594.694 1.263 1.268.691-1.268.692-.694 1.263-.694-1.263-1.268-.692 1.268-.691.694-1.263zM137 56.295l.72-.047.581-.43.047.721.431.579-.723.047-.581.426-.048-.717-.427-.579zM253.855 113.735l.72-.048.581-.429.048.721.431.578-.724.048-.581.425-.047-.717-.428-.578zM171.543 77.797l.72-.047.584-.426.048.717.427.58-.72.046-.584.426-.044-.717-.431-.579zM175.934 47.04l.719-.048.581-.426.048.717.427.58-.72.047-.58.43-.048-.722-.427-.578zM153.812 66.128l1.097-.63.58-1.117.632 1.092 1.126.582-1.096.626-.585 1.121-.632-1.092-1.122-.582zM245.895 128.193l1.096-.63.58-1.118.632 1.092 1.122.579-1.096.63-.581 1.117-.632-1.092-1.121-.578zM240.391 108.228l1.096-.63.584-1.118.632 1.092 1.122.579-1.096.63-.585 1.121-.628-1.096-1.125-.578z" fill="#B0BEC5"/>
</svg>
