<svg width="207" height="207" viewBox="0 0 207 207" fill="none" xmlns="http://www.w3.org/2000/svg">
    <g clip-path="url(#vsxd0uzcfa)">
        <g filter="url(#xq4qgi3rvb)">
            <path d="m126.221 90.285 60.254 34.777a3.555 3.555 0 0 1 1.898 3.148 3.555 3.555 0 0 1-1.898 3.148l-88.72 51.237a4.192 4.192 0 0 1-3.793 0l-60.254-34.801a3.556 3.556 0 0 1-1.897-3.148 3.558 3.558 0 0 1 1.898-3.149l88.72-51.224a4.188 4.188 0 0 1 3.792.013z" fill="#F0F0F0"/>
            <path d="M95.862 178.939v4.106a3.846 3.846 0 0 1-1.9-.451l-60.254-34.801a3.552 3.552 0 0 1-.174-6.164c-.828.613-.782 1.503.195 2.07l60.254 34.776a3.935 3.935 0 0 0 1.88.464z" fill="#E6E6E6"/>
            <path opacity=".1" d="M95.862 178.939v4.106a3.846 3.846 0 0 1-1.9-.451l-60.254-34.801a3.552 3.552 0 0 1-.174-6.164c-.828.613-.782 1.503.195 2.07l60.254 34.776a3.935 3.935 0 0 0 1.88.464z" fill="#000"/>
            <path d="m79.592 173.74-30.334-17.513v-2.645l30.334 17.512v2.646z" fill="#455A64"/>
            <path d="m97.753 178.489 88.72-51.224c1.048-.605 1.048-1.586 0-2.19L126.22 90.299a4.194 4.194 0 0 0-3.792 0l-88.72 51.212c-1.048.604-1.048 1.585 0 2.19l60.253 34.776a4.202 4.202 0 0 0 3.792.012z" fill="#FAFAFA"/>
            <path d="M95.858 179.159c-.7.014-1.39-.151-2.008-.481l-60.253-34.776a1.37 1.37 0 0 1 0-2.575l88.72-51.224a4.455 4.455 0 0 1 4.016 0l60.253 34.776a1.371 1.371 0 0 1 0 2.579l-88.72 51.22a4.06 4.06 0 0 1-2.008.481zm28.467-89.105a3.63 3.63 0 0 0-1.784.413L33.821 141.7a.94.94 0 0 0 0 1.805l60.253 34.776a3.951 3.951 0 0 0 3.569 0l88.72-51.224a.94.94 0 0 0 0-1.801L126.109 90.48a3.634 3.634 0 0 0-1.784-.427z" fill="#E0E0E0"/>
            <path d="m105.529 149.33 30.864-17.818 14.523 8.387-30.864 17.815-14.523-8.384z" fill="#E0E0E0"/>
            <path d="m106.307 149.777 13.744 7.937 30.086-17.367-13.745-7.937-30.085 17.367z" fill="#EBEBEB"/>
            <path d="m124.139 87.098-10.172-71.145a4.199 4.199 0 0 0-2.339-2.898 4.968 4.968 0 0 0-3.95.227l-88.72 51.224a3.383 3.383 0 0 0-1.606 3.118l10.172 71.15a4.21 4.21 0 0 0 2.339 2.898 4.962 4.962 0 0 0 3.95-.224l88.732-51.228a3.392 3.392 0 0 0 1.594-3.122z" fill="#E6E6E6"/>
            <path opacity=".1" d="m124.139 87.098-10.172-71.145a4.199 4.199 0 0 0-2.339-2.898 4.968 4.968 0 0 0-3.95.227l-88.72 51.224a3.383 3.383 0 0 0-1.606 3.118l10.172 71.15a4.21 4.21 0 0 0 2.339 2.898 4.962 4.962 0 0 0 3.95-.224l88.732-51.228a3.392 3.392 0 0 0 1.594-3.122z" fill="#000"/>
            <path d="M113.85 15.546c-.315-.803-1.172-1.047-2.07-.522L23.06 66.236c-.53.33-.96.798-1.242 1.354l-4.107-1.735c.28-.56.71-1.032 1.242-1.362l88.724-51.207a4.97 4.97 0 0 1 3.95-.224 4.297 4.297 0 0 1 2.223 2.484z" fill="#F0F0F0"/>
            <path d="m23.06 66.238 88.721-51.212c1.048-.604 2.029-.19 2.186.927L124.139 87.1a3.397 3.397 0 0 1-1.606 3.122l-88.72 51.22c-1.048.604-2.03.19-2.186-.928L21.455 69.368a3.375 3.375 0 0 1 1.606-3.13z" fill="#FAFAFA"/>
            <path d="M32.873 141.94a1.434 1.434 0 0 1-.637-.14 1.589 1.589 0 0 1-.828-1.242L21.236 69.395a3.619 3.619 0 0 1 1.714-3.34l88.72-51.225a1.82 1.82 0 0 1 1.689-.166 1.584 1.584 0 0 1 .828 1.242l10.168 71.15a3.624 3.624 0 0 1-1.714 3.341l-88.716 51.237c-.318.192-.68.298-1.052.306zm-9.687-75.5a3.154 3.154 0 0 0-1.499 2.897l10.16 71.142a1.146 1.146 0 0 0 .583.919 1.377 1.377 0 0 0 1.271-.153l88.721-51.22a3.14 3.14 0 0 0 1.494-2.898l-10.168-71.142a1.123 1.123 0 0 0-.583-.915 1.37 1.37 0 0 0-1.271.15L23.186 66.44z" fill="#E0E0E0"/>
            <path d="M110.663 19.777 25.268 69.085l9.662 67.602 85.396-49.304-9.663-67.606z" fill="#37474F"/>
            <path d="m118.935 86.793-9.476-66.315-84.191 48.608 9.476 66.315 84.191-48.608z" fill="#455A64"/>
            <path opacity=".05" d="m68.337 44.216-34.99 81.38 1.585 11.091 21.68-12.52 41.86-97.347-30.135 17.396zM36.021 62.879l-8.736 20.307 2.728 19.102 20.56-47.817-14.552 8.408zm81.909 7.688-10.416 24.236 12.814-7.399-2.398-16.837zm-7.067-49.407-40.986 95.361 20.456-11.812 24.348-56.689-3.818-26.86z" fill="#fff"/>
            <path d="m47.198 140.923 75.977-43.884a2.485 2.485 0 0 1 2.273 0l26.165 15.103c.629.364.629.952 0 1.316l-75.978 43.884a2.504 2.504 0 0 1-2.276 0l-26.161-15.107c-.613-.364-.613-.952 0-1.312z" fill="#E0E0E0"/>
            <path d="m78.71 153.696-3.532-2.041a1.659 1.659 0 0 0-1.52 0l-3.423 1.979a.461.461 0 0 0 0 .874l3.531 2.041a1.698 1.698 0 0 0 1.52 0l3.423-1.979a.462.462 0 0 0 .23-.707.462.462 0 0 0-.23-.167zM86.112 149.451l-3.552-2.07a1.689 1.689 0 0 0-1.516 0l-4.84 2.795a.46.46 0 0 0-.313.438.462.462 0 0 0 .314.439l3.531 2.037a1.66 1.66 0 0 0 1.52 0l4.856-2.782a.46.46 0 0 0 .286-.428.463.463 0 0 0-.286-.429zM93.478 145.168l-3.536-2.037a1.651 1.651 0 0 0-1.515 0l-4.84 2.79a.46.46 0 0 0-.314.439.464.464 0 0 0 .314.439l3.536 2.041a1.689 1.689 0 0 0 1.515 0l4.84-2.795a.46.46 0 0 0 .314-.439.461.461 0 0 0-.314-.438zM73.2 145.77l3.536 2.041a1.689 1.689 0 0 0 1.515 0l4.84-2.794a.464.464 0 0 0 0-.878l-3.535-2.041a1.689 1.689 0 0 0-1.516 0l-4.84 2.799a.464.464 0 0 0 0 .873zM120.632 129.493l-3.532-2.041a1.654 1.654 0 0 0-1.519 0l-24.608 14.209a.455.455 0 0 0-.317.436.46.46 0 0 0 .317.437l3.531 2.041a1.66 1.66 0 0 0 1.52 0l2.575-1.494 1.176-.667 20.844-12.035a.456.456 0 0 0 .344-.438.455.455 0 0 0-.331-.448zM75.71 148.405l-3.536-2.041a1.685 1.685 0 0 0-1.52 0l-6.483 3.755a.46.46 0 0 0-.314.438.464.464 0 0 0 .314.439l3.536 2.041a1.676 1.676 0 0 0 1.515 0l6.508-3.759a.457.457 0 0 0 .307-.444.46.46 0 0 0-.328-.429zM68.084 145.78l-3.532-2.041a1.685 1.685 0 0 0-1.52 0l-4.967 2.869a.456.456 0 0 0-.317.436.46.46 0 0 0 .317.437l3.531 2.041a1.66 1.66 0 0 0 1.52 0l4.968-2.865a.46.46 0 0 0 .313-.439.461.461 0 0 0-.314-.438zM59.46 143.735l-3.535-2.041a1.676 1.676 0 0 0-1.515 0l-2.426 1.399a.46.46 0 0 0-.314.439.464.464 0 0 0 .314.439l3.535 2.041a1.69 1.69 0 0 0 1.516 0l2.426-1.4a.46.46 0 0 0 .314-.439.461.461 0 0 0-.314-.438zM54.371 139.648l-.828-.48a1.651 1.651 0 0 0-1.515 0l-3.42 1.97a.469.469 0 0 0-.313.439.464.464 0 0 0 .314.439l.828.48a1.647 1.647 0 0 0 1.519 0l3.42-1.97a.465.465 0 0 0-.005-.878zM54.587 138.559l.828.48a1.651 1.651 0 0 0 1.516 0l3.42-1.97a.464.464 0 0 0 0-.878l-.829-.48a1.651 1.651 0 0 0-1.515 0l-3.42 1.97a.467.467 0 0 0-.227.709.46.46 0 0 0 .227.169zM60.548 135.118l.828.481a1.688 1.688 0 0 0 1.516 0l3.42-1.975a.462.462 0 0 0 .228-.707.462.462 0 0 0-.229-.167l-.828-.484a1.689 1.689 0 0 0-1.515 0l-3.42 1.975a.46.46 0 0 0-.314.438.462.462 0 0 0 .314.439zM66.51 131.674l.829.485a1.689 1.689 0 0 0 1.515 0l3.42-1.975a.46.46 0 0 0 .314-.439.464.464 0 0 0-.314-.439l-.828-.48a1.65 1.65 0 0 0-1.516 0l-3.42 1.996a.458.458 0 0 0 0 .852zM72.472 128.235l.828.48a1.65 1.65 0 0 0 1.515 0l3.42-1.975a.456.456 0 0 0 .317-.436.459.459 0 0 0-.317-.437l-.828-.48a1.65 1.65 0 0 0-1.515 0l-3.42 1.97a.466.466 0 0 0-.314.439.464.464 0 0 0 .314.439zM78.434 124.79l.828.484a1.676 1.676 0 0 0 1.515 0l3.42-1.974a.461.461 0 0 0 0-.874l-.828-.484a1.676 1.676 0 0 0-1.516 0l-3.42 1.974a.461.461 0 0 0 0 .874zM84.396 121.35l.828.48a1.651 1.651 0 0 0 1.515 0l3.42-1.97a.464.464 0 0 0 0-.878l-.828-.48a1.651 1.651 0 0 0-1.515 0l-3.42 1.97a.468.468 0 0 0-.314.439.464.464 0 0 0 .314.439zM90.357 117.909l.828.481a1.689 1.689 0 0 0 1.515 0l3.42-1.975a.462.462 0 0 0 .229-.707.462.462 0 0 0-.23-.167l-.827-.484a1.689 1.689 0 0 0-1.515 0l-3.42 1.975a.46.46 0 0 0-.314.439.461.461 0 0 0 .314.438zM96.317 114.464l.828.484a1.689 1.689 0 0 0 1.515 0l3.42-1.975a.46.46 0 0 0 .314-.438.465.465 0 0 0-.314-.439l-.828-.481a1.69 1.69 0 0 0-1.516 0l-3.42 1.975a.462.462 0 0 0-.228.707.462.462 0 0 0 .229.167zM102.279 111.024l.828.48a1.65 1.65 0 0 0 1.515 0l3.42-1.97a.47.47 0 0 0 .314-.439.467.467 0 0 0-.314-.439l-.828-.48a1.653 1.653 0 0 0-1.516 0l-3.419 1.97a.466.466 0 0 0 0 .878zM108.242 107.579l.828.484a1.678 1.678 0 0 0 1.516 0l3.419-1.974a.464.464 0 0 0 .23-.167.467.467 0 0 0 0-.54.464.464 0 0 0-.23-.167l-.828-.484a1.674 1.674 0 0 0-1.515 0l-3.42 1.974a.464.464 0 0 0-.316.437.458.458 0 0 0 .316.437zM114.203 104.139l.828.48a1.65 1.65 0 0 0 1.515 0l3.419-1.97a.465.465 0 0 0 0-.878l-.828-.48a1.65 1.65 0 0 0-1.515 0l-3.419 1.971a.463.463 0 0 0 0 .877zM120.166 100.698l.828.481a1.66 1.66 0 0 0 1.515 0l3.419-1.975a.462.462 0 0 0 .317-.437.463.463 0 0 0-.317-.437l-.828-.484a1.682 1.682 0 0 0-1.515 0l-3.419 1.975a.462.462 0 0 0 0 .877zM85.67 143.528l3.585-2.07a.46.46 0 0 0 .314-.438.464.464 0 0 0-.314-.439l-3.531-2.037a1.66 1.66 0 0 0-1.52 0l-3.585 2.07a.456.456 0 0 0-.316.437.457.457 0 0 0 .316.436l3.532 2.041a1.647 1.647 0 0 0 1.52 0zM65.578 143.147l3.535 2.041a1.689 1.689 0 0 0 1.515 0l3.59-2.07a.462.462 0 0 0 .229-.707.468.468 0 0 0-.23-.167l-3.535-2.041a1.69 1.69 0 0 0-1.515 0l-3.59 2.07a.465.465 0 0 0 0 .874zM60.54 138.155l-3.585 2.07a.46.46 0 0 0-.314.438.464.464 0 0 0 .314.439l3.531 2.041a1.685 1.685 0 0 0 1.52 0l3.585-2.07a.46.46 0 0 0 .314-.439.461.461 0 0 0-.314-.438l-3.536-2.041a1.676 1.676 0 0 0-1.515 0zM66.655 134.613l-3.585 2.07a.468.468 0 0 0-.314.439.464.464 0 0 0 .314.439l3.531 2.041a1.685 1.685 0 0 0 1.52 0l3.585-2.07a.455.455 0 0 0 .316-.437.458.458 0 0 0-.316-.436l-3.532-2.041a1.697 1.697 0 0 0-1.52-.005zM72.802 131.074l-3.586 2.07a.464.464 0 0 0 0 .878l3.532 2.041a1.698 1.698 0 0 0 1.52 0l3.584-2.07a.456.456 0 0 0 .317-.437.456.456 0 0 0-.317-.436l-3.531-2.041a1.698 1.698 0 0 0-1.52-.005zM78.934 127.534l-3.585 2.07a.46.46 0 0 0-.314.439.464.464 0 0 0 .314.439l3.531 2.041a1.698 1.698 0 0 0 1.52 0l3.585-2.07a.461.461 0 0 0 0-.874l-3.531-2.041a1.645 1.645 0 0 0-.76-.186 1.648 1.648 0 0 0-.76.182zM85.067 123.995l-3.585 2.07a.46.46 0 0 0-.314.439.464.464 0 0 0 .314.439l3.535 2.037a1.663 1.663 0 0 0 1.516 0l3.585-2.07a.461.461 0 0 0 0-.874l-3.531-2.041a1.658 1.658 0 0 0-1.52 0zM91.201 120.472l-3.59 2.07a.462.462 0 0 0-.229.707.468.468 0 0 0 .23.167l3.535 2.041a1.662 1.662 0 0 0 1.515 0l3.59-2.07a.464.464 0 0 0 0-.878l-3.515-2.037a1.657 1.657 0 0 0-1.536 0zM97.332 116.916l-3.59 2.07a.456.456 0 0 0-.316.437.456.456 0 0 0 .317.436l3.535 2.041a1.651 1.651 0 0 0 1.515 0l3.59-2.07a.46.46 0 0 0 .314-.438.467.467 0 0 0-.314-.439l-3.536-2.037a1.651 1.651 0 0 0-1.515 0zM103.465 113.371l-3.59 2.07a.461.461 0 0 0 0 .874l3.536 2.041a1.687 1.687 0 0 0 1.515 0l3.589-2.07a.459.459 0 0 0 .314-.439.466.466 0 0 0-.314-.439l-3.535-2.041a1.702 1.702 0 0 0-.758-.178 1.699 1.699 0 0 0-.757.182zM109.596 109.832l-3.59 2.07a.46.46 0 0 0 0 .874l3.536 2.041a1.687 1.687 0 0 0 1.515 0l3.589-2.07a.463.463 0 0 0 0-.878l-3.535-2.041a1.686 1.686 0 0 0-1.515.004zM115.728 106.293l-3.59 2.07a.467.467 0 0 0-.314.439.46.46 0 0 0 .314.439l3.536 2.041a1.695 1.695 0 0 0 1.519 0l3.585-2.07a.463.463 0 0 0 0-.878l-3.535-2.041a1.691 1.691 0 0 0-1.515 0zM126.909 104.793l-3.535-2.041a1.7 1.7 0 0 0-1.52 0l-3.585 2.07a.462.462 0 0 0-.227.709.456.456 0 0 0 .227.169l3.531 2.041a1.7 1.7 0 0 0 1.52 0l3.585-2.07a.46.46 0 0 0 .004-.878zM124.404 102.161l3.523 2.041a1.7 1.7 0 0 0 1.52 0l2.562-1.482a.466.466 0 0 0 0-.878l-3.531-2.04a1.694 1.694 0 0 0-1.52 0l-2.562 1.481a.468.468 0 0 0-.31.442.464.464 0 0 0 .318.436zM76.815 136.658a1.688 1.688 0 0 0-1.515 0l-3.59 2.07a.467.467 0 0 0-.227.709.46.46 0 0 0 .227.169l3.536 2.041a1.689 1.689 0 0 0 1.515 0l3.59-2.07a.456.456 0 0 0 .316-.437.456.456 0 0 0-.316-.436l-3.536-2.046zM82.892 138.104l3.59-2.07a.462.462 0 0 0 0-.874l-3.536-2.041a1.65 1.65 0 0 0-1.515 0l-3.59 2.07a.46.46 0 0 0-.314.439.464.464 0 0 0 .314.439l3.536 2.037a1.662 1.662 0 0 0 1.515 0zM89.013 134.548l3.589-2.07a.46.46 0 0 0 0-.874l-3.523-2.024a1.65 1.65 0 0 0-1.515 0l-3.59 2.07a.46.46 0 0 0-.314.439.464.464 0 0 0 .314.439l3.536 2.037a1.659 1.659 0 0 0 1.503-.017zM95.16 131.025l3.585-2.07a.46.46 0 0 0 .314-.438.464.464 0 0 0-.314-.439l-3.523-2.037a1.65 1.65 0 0 0-1.515 0l-3.586 2.07a.456.456 0 0 0-.316.437.456.456 0 0 0 .316.436l3.532 2.041a1.646 1.646 0 0 0 1.507 0zM101.289 127.486l3.586-2.07a.468.468 0 0 0 .314-.439.467.467 0 0 0-.314-.439l-3.532-2.037a1.66 1.66 0 0 0-1.52 0l-3.584 2.07a.462.462 0 0 0-.317.437.456.456 0 0 0 .317.436l3.531 2.042a1.658 1.658 0 0 0 1.519 0zM107.422 123.946l3.585-2.07a.463.463 0 0 0 0-.878l-3.531-2.041a1.7 1.7 0 0 0-1.519 0l-3.586 2.07a.462.462 0 0 0-.229.707.462.462 0 0 0 .229.167l3.532 2.041a1.694 1.694 0 0 0 1.519.004zM113.553 120.405l3.585-2.07a.463.463 0 0 0 0-.878l-3.531-2.041a1.7 1.7 0 0 0-1.52 0l-3.585 2.07a.462.462 0 0 0-.229.707.462.462 0 0 0 .229.167l3.532 2.041a1.694 1.694 0 0 0 1.519.004zM119.685 116.866l3.585-2.07a.463.463 0 0 0 0-.878l-3.531-2.041a1.7 1.7 0 0 0-1.519 0l-3.586 2.07a.467.467 0 0 0-.314.439.467.467 0 0 0 .314.439l3.532 2.041a1.695 1.695 0 0 0 1.519 0zM125.815 113.327l3.589-2.07a.462.462 0 0 0 .229-.707.462.462 0 0 0-.229-.167l-3.548-2.045a1.7 1.7 0 0 0-1.519 0l-3.586 2.07a.467.467 0 0 0-.313.439.466.466 0 0 0 .313.439l3.536 2.041a1.69 1.69 0 0 0 1.528 0zM126.897 107.746l3.535 2.041a1.691 1.691 0 0 0 1.516 0l6.156-3.556a.462.462 0 0 0 .229-.707.462.462 0 0 0-.229-.167l-3.552-2.041a1.668 1.668 0 0 0-1.516 0l-6.156 3.552a.464.464 0 0 0 .017.878zM91.817 139.979l3.585-2.07a.46.46 0 0 0 .314-.439.461.461 0 0 0-.314-.438l-3.535-2.042a1.688 1.688 0 0 0-1.516 0l-3.589 2.07a.463.463 0 0 0-.317.437.459.459 0 0 0 .317.437l3.536 2.041a1.697 1.697 0 0 0 1.519.004zM97.962 136.432l3.59-2.07a.462.462 0 0 0 .316-.437.455.455 0 0 0-.316-.436l-3.536-2.041a1.676 1.676 0 0 0-1.515 0l-3.59 2.07a.46.46 0 0 0-.313.438.464.464 0 0 0 .314.439l3.535 2.041a1.677 1.677 0 0 0 1.515-.004zM104.111 132.893l3.589-2.07a.458.458 0 0 0 .317-.437.46.46 0 0 0-.317-.437l-3.535-2.041a1.665 1.665 0 0 0-1.516 0l-3.589 2.07a.46.46 0 0 0-.314.439.464.464 0 0 0 .314.439l3.536 2.037a1.66 1.66 0 0 0 1.515 0zM110.258 129.331l3.589-2.07a.466.466 0 0 0 0-.878l-3.535-2.041a1.691 1.691 0 0 0-1.515 0l-3.59 2.07a.462.462 0 0 0-.229.707.468.468 0 0 0 .229.167l3.536 2.041a1.66 1.66 0 0 0 1.515.004zM116.406 125.784l3.585-2.07a.46.46 0 0 0 .227-.709.462.462 0 0 0-.227-.169l-3.531-2.041a1.7 1.7 0 0 0-1.52 0l-3.585 2.07a.462.462 0 0 0-.227.709.456.456 0 0 0 .227.169l3.536 2.041a1.687 1.687 0 0 0 1.515 0zM122.544 122.236l3.586-2.07a.464.464 0 0 0 .316-.437.458.458 0 0 0-.316-.437l-3.532-2.041a1.658 1.658 0 0 0-1.519 0l-3.585 2.07a.463.463 0 0 0 0 .878l3.531 2.041a1.694 1.694 0 0 0 1.519-.004zM128.701 118.683l3.586-2.07a.467.467 0 0 0 .314-.439.467.467 0 0 0-.314-.439l-3.532-2.037a1.657 1.657 0 0 0-1.519 0l-3.585 2.07a.464.464 0 0 0-.23.167.467.467 0 0 0 0 .54.464.464 0 0 0 .23.167l3.531 2.041a1.658 1.658 0 0 0 1.519 0zM129.798 113.093l3.532 2.041a1.686 1.686 0 0 0 1.519 0l.414-.248 1.143-.658 7.767-4.484a.46.46 0 0 0 .314-.439.464.464 0 0 0-.314-.439l-3.519-2.057a1.7 1.7 0 0 0-1.52 0l-9.336 5.382a.457.457 0 0 0-.372.451.461.461 0 0 0 .372.451zM128.016 125.229l-3.532-2.041a1.686 1.686 0 0 0-1.519 0l-4.836 2.794a.462.462 0 0 0-.229.707.462.462 0 0 0 .229.167l3.532 2.041a1.654 1.654 0 0 0 1.519 0l4.836-2.795a.456.456 0 0 0 .316-.436.458.458 0 0 0-.316-.437zM135.4 120.965l-3.536-2.041a1.687 1.687 0 0 0-1.515 0l-4.84 2.79a.47.47 0 0 0-.314.439.467.467 0 0 0 .314.439l3.536 2.041a1.687 1.687 0 0 0 1.515 0l4.84-2.794a.464.464 0 0 0 0-.874zM140.347 118.103l-.633-.364a1.678 1.678 0 0 0-1.515 0l-2.406 1.395a.456.456 0 0 0-.316.436.458.458 0 0 0 .316.437l.63.365a1.686 1.686 0 0 0 1.515 0l2.409-1.391a.463.463 0 0 0 0-.878zM145.315 115.243l-.629-.364a1.691 1.691 0 0 0-1.515 0l-2.41 1.391a.467.467 0 0 0-.314.439.467.467 0 0 0 .314.439l.634.364a1.687 1.687 0 0 0 1.515 0l2.409-1.395a.464.464 0 0 0 .315-.438.462.462 0 0 0-.319-.436zM150.283 112.379l-.629-.36a1.65 1.65 0 0 0-1.52 0l-2.405 1.391a.456.456 0 0 0-.229.706.452.452 0 0 0 .229.167l.629.364a1.647 1.647 0 0 0 1.519 0l2.41-1.391a.462.462 0 0 0-.004-.877zM141.781 113.201a1.7 1.7 0 0 0-1.519 0l-2.397 1.392a.463.463 0 0 0 0 .877l.629.365a1.698 1.698 0 0 0 1.519 0l2.41-1.396a.456.456 0 0 0 .317-.436.459.459 0 0 0-.317-.437l-.642-.365z" fill="#FAFAFA"/>
            <path d="m25.268 69.085 78.821-45.507 18.021 11.646-14.237 8.222-1.263.729L43.293 80.73 25.268 69.085z" fill="#fff"/>
            <path d="m25.268 69.085 18.025 11.646 6.57-3.792-18.025-11.646-6.57 3.792zM38.404 61.5 56.43 73.144 63 69.353 44.974 57.707l-6.57 3.792zM51.54 53.915l18.025 11.646 6.57-3.792-18.026-11.646-6.57 3.792zM64.676 46.331 82.7 57.977l6.57-3.792-18.025-11.646-6.57 3.792zM77.813 38.747l18.025 11.646 6.57-3.792-18.025-11.646-6.57 3.792zM90.95 31.161l18.025 11.646 6.57-3.792-18.026-11.646-6.57 3.792zM104.09 23.577l18.025 11.646 6.571-3.792-18.026-11.646-6.57 3.792z" fill="#EFD16B"/>
            <path d="M43.293 80.73c0 2.095 1.47 2.943 3.283 1.896 1.813-1.048 3.287-3.594 3.287-5.689l-6.57 3.793zM56.43 73.146c0 2.095 1.47 2.943 3.283 1.896A7.254 7.254 0 0 0 63 69.353l-6.57 3.793zM69.553 65.562c0 2.095 1.474 2.943 3.287 1.896a7.257 7.257 0 0 0 3.283-5.688l-6.57 3.792zM82.705 57.96c0 2.095 1.47 2.944 3.283 1.896a7.257 7.257 0 0 0 3.283-5.688l-6.566 3.792zM95.842 50.392c0 2.095 1.47 2.943 3.283 1.896a7.261 7.261 0 0 0 3.283-5.688l-6.566 3.792zM108.979 42.808c0 2.095 1.469 2.943 3.283 1.896 1.813-1.047 3.287-3.593 3.287-5.688l-6.57 3.792zM122.131 35.28c0 2.095 1.47 2.944 3.283 1.897 1.813-1.048 3.287-3.594 3.287-5.689l-6.57 3.793z" fill="#EFD16B"/>
            <g opacity=".3" fill="#000">
                <path d="M43.293 80.732c0 2.094 1.47 2.943 3.283 1.896 1.813-1.048 3.287-3.594 3.287-5.689l-6.57 3.793zM56.43 73.148c0 2.095 1.47 2.943 3.283 1.896A7.253 7.253 0 0 0 63 69.356l-6.57 3.792zM69.553 65.562c0 2.095 1.474 2.943 3.287 1.896a7.257 7.257 0 0 0 3.283-5.688l-6.57 3.792zM82.707 57.96c0 2.095 1.47 2.944 3.283 1.896a7.256 7.256 0 0 0 3.283-5.688l-6.566 3.792zM95.842 50.394c0 2.095 1.47 2.943 3.283 1.896a7.262 7.262 0 0 0 3.283-5.688l-6.566 3.792zM108.979 42.81c0 2.095 1.469 2.943 3.283 1.896 1.813-1.048 3.287-3.594 3.287-5.688l-6.57 3.792zM122.131 35.282c0 2.095 1.47 2.944 3.283 1.897 1.813-1.048 3.287-3.594 3.287-5.689l-6.57 3.793z"/>
            </g>
            <path d="M49.86 76.939c0 2.095 1.473 2.943 3.287 1.896a7.256 7.256 0 0 0 3.283-5.688l-6.57 3.792zM63 69.353c0 2.095 1.47 2.943 3.283 1.896a7.257 7.257 0 0 0 3.27-5.688L63 69.353zM76.137 61.77c0 2.095 1.47 2.943 3.283 1.896a7.257 7.257 0 0 0 3.283-5.705l-6.566 3.809zM89.272 54.185c0 2.095 1.47 2.943 3.282 1.896 1.814-1.048 3.288-3.594 3.288-5.688l-6.57 3.792zM102.408 46.599c0 2.095 1.47 2.943 3.287 1.896a7.253 7.253 0 0 0 3.283-5.688l-6.57 3.792zM115.543 39.015c0 2.095 1.474 2.943 3.287 1.896a7.253 7.253 0 0 0 3.3-5.688l-6.587 3.792z" fill="#E0E0E0"/>
        </g>
        <g filter="url(#pewha75nbc)">
            <path d="m48.68 188.946-.695.414a1.339 1.339 0 0 1-.232.116c-.066.033-.14.062-.215.091h-.066a2.088 2.088 0 0 1-.232.071l-.141.033c-.119.026-.24.045-.36.058H46.457a.174.174 0 0 0-.045 0h-.133a2.162 2.162 0 0 1-.228 0h-.231l-.17-.025-.195-.033a3.513 3.513 0 0 1-.5-.149l-.12-.046-.1-.049c-.054-.029-.108-.05-.161-.083l-6.293-3.631-19.632-11.319s-.696-.989-.704-.997c-.008-.009 0 1.436 0 1.838a1.24 1.24 0 0 0 .704 1.068l25.916 14.966.187.095.194.083c.12.046.244.085.369.116l.161.037a4.653 4.653 0 0 0 .807.079H46.731c.151-.016.302-.041.45-.075.064-.014.126-.032.187-.054h.037c.06-.015.117-.035.174-.058.057-.019.112-.042.166-.07.08-.031.158-.07.232-.116l.703-.414v-1.946z" fill="#EFD16B"/>
            <path opacity=".2" d="m48.68 188.946-.695.414a1.339 1.339 0 0 1-.232.116c-.066.033-.14.062-.215.091h-.066a2.088 2.088 0 0 1-.232.071l-.141.033c-.119.026-.24.045-.36.058H46.457a.174.174 0 0 0-.045 0h-.133a2.162 2.162 0 0 1-.228 0h-.231l-.17-.025-.195-.033a3.513 3.513 0 0 1-.5-.149l-.12-.046-.1-.049c-.054-.029-.108-.05-.161-.083l-6.293-3.631-19.632-11.319s-.696-.989-.704-.997c-.008-.009 0 1.436 0 1.838a1.24 1.24 0 0 0 .704 1.068l25.916 14.966.187.095.194.083c.12.046.244.085.369.116l.161.037a4.653 4.653 0 0 0 .807.079H46.731c.151-.016.302-.041.45-.075.064-.014.126-.032.187-.054h.037c.06-.015.117-.035.174-.058.057-.019.112-.042.166-.07.08-.031.158-.07.232-.116l.703-.414v-1.946z" fill="#000"/>
            <path d="m79.594 171.1-30.913 17.847-.695.414a3.7 3.7 0 0 1-2.166.389v1.909c.744.1 1.5-.033 2.166-.381l.703-.414 30.914-17.839-.009-1.925z" fill="#EFD16B"/>
            <path d="m79.594 171.1-30.913 17.847-.695.414a3.7 3.7 0 0 1-2.166.389v1.909c.744.1 1.5-.033 2.166-.381l.703-.414 30.914-17.839-.009-1.925z" fill="#000" opacity=".3"/>
            <path d="m79.594 171.099-31.617 18.253a2.773 2.773 0 0 1-.58.244l-.161.046c-.316.078-.64.117-.965.116-.14 0-.282 0-.414-.021-.133-.021-.182-.021-.27-.037a3.163 3.163 0 0 1-.827-.257l-.182-.095-6.293-3.631-7.866-4.554-5.469-3.142-6.301-3.631a.085.085 0 0 1-.037-.029 1.311 1.311 0 0 1-.17-.116.867.867 0 0 1-.116-.095 1.227 1.227 0 0 1-.253-.302 1.187 1.187 0 0 1-.082-.178.486.486 0 0 1-.034-.133.982.982 0 0 1 .39-.898c.092-.084.194-.158.302-.219l30.445-17.583 1.168-.675 7.998 4.616 21.334 12.321z" fill="#EFD16B"/>
            <path opacity=".6" d="m48.68 188.585-.534.307c-.174.103-.356.215-.509.285-.343.151-.71.241-1.084.265a3.8 3.8 0 0 1-1.13-.083 3.012 3.012 0 0 1-.53-.182c-.154-.074-.336-.186-.514-.281-1.946-1.114-3.88-2.232-5.82-3.337l-15.733-8.756 21.727 12.544a3.497 3.497 0 0 0 1.706.414h.231c.228-.012.453-.044.675-.095.28-.063.55-.168.8-.311l.703-.414.013-.356z" fill="#fff"/>
            <path d="M46.276 189.758a3.52 3.52 0 0 1-1.706-.414l-6.289-3.635 6.289 3.635a3.52 3.52 0 0 0 1.706.414z" fill="#EFD16B"/>
            <path opacity=".5" d="m61.54 181.523-13.56 7.825 13.56-7.825z" fill="#fff"/>
            <path d="m79.486 171.045-9.443 5.27c-5.722 3.242-11.41 6.529-17.115 9.795l-4.26 2.484v.356l12.855-7.423 18.054-10.42-.09-.062z" fill="#fff"/>
            <path opacity=".1" d="m79.594 171.099-31.617 18.253a2.773 2.773 0 0 1-.58.244l-.161.046c-.316.078-.64.117-.965.116-.14 0-.282 0-.414-.021-.133-.021-.182-.021-.27-.037a3.123 3.123 0 0 1-.964-.327.132.132 0 0 1-.054-.021l-14.17-8.181-5.449-3.15-6.297-3.635-.041-.025a1.311 1.311 0 0 1-.17-.116.867.867 0 0 1-.116-.095 1.227 1.227 0 0 1-.253-.302 1.187 1.187 0 0 1-.082-.178.486.486 0 0 1-.034-.133.982.982 0 0 1 .39-.898 1.6 1.6 0 0 1 .31-.219l30.437-17.583 1.168-.675 7.998 4.616 21.334 12.321z" fill="#fff"/>
            <path d="M58.26 158.786 24.95 178.02l-6.297-3.634c-.944-.543-.944-1.425 0-1.967l31.605-18.249 8.003 4.616z" fill="#FAFAFA"/>
            <path d="m19.982 172.014 29.013 16.771-1.014.584a3.792 3.792 0 0 1-1.678.407 3.79 3.79 0 0 1-1.684-.382.176.176 0 0 1-.054-.021L24.95 178.021l-6.289-3.63a1.189 1.189 0 0 1-.708-.986v-.136a1.65 1.65 0 0 1 .054-.178v-.034c.03-.059.063-.117.1-.173.14-.193.323-.351.533-.464l.696-.414h.63l.016.008z" fill="#BA9E3A"/>
            <path d="m48.995 188.764 1.408-.811-21.33-12.312-1.407.811 21.33 12.312z" fill="#FAFAFA"/>
            <path d="M28.013 173.926a.382.382 0 0 1-.14.037.245.245 0 0 1-.133-.029l-3.026-1.747a.072.072 0 0 1-.035-.03.073.073 0 0 1-.01-.044.114.114 0 0 1 .066-.083l1.593-.919a2.68 2.68 0 0 1 .671-.282c.197-.052.4-.08.605-.083a2.11 2.11 0 0 1 .5.054c.127.033.25.08.365.141.08.042.15.1.207.17a.405.405 0 0 1 .058.414 2.41 2.41 0 0 1 .588 0c.21.013.414.075.596.182a.774.774 0 0 1 .277.248c.065.09.099.2.095.311a.617.617 0 0 1-.136.339 1.369 1.369 0 0 1-.414.344l-1.727.977zm-.252-2.53a.644.644 0 0 0-.414-.082c-.178.027-.349.09-.501.186l-.96.555.724.414.956-.551c.187-.112.294-.207.319-.29.025-.083-.004-.186-.124-.232zm.248 1.876 1.002-.58c.199-.116.306-.219.327-.315.02-.095-.033-.178-.149-.248a.77.77 0 0 0-.435-.083c-.192.02-.377.083-.542.182l-1.002.58.8.464zM30.017 168.978a.35.35 0 0 1 .17-.05.583.583 0 0 1 .195.025l4.289.944h.037a.074.074 0 0 1 .045.075.113.113 0 0 1-.066.082l-.389.224a.447.447 0 0 1-.19.066.625.625 0 0 1-.137 0l-.753-.165-1.71.985.29.435a.154.154 0 0 1 0 .078c0 .033-.042.071-.112.112l-.39.224a.316.316 0 0 1-.14.041.245.245 0 0 1-.133-.029h-.029l-1.656-2.484a.17.17 0 0 1-.041-.112c0-.033.033-.066.091-.099l.63-.352zm2.356 1.018-1.93-.414.742 1.118 1.188-.704zM37.784 168.284a.41.41 0 0 1-.186.058h-.132L34 168.085l1.93 1.114a.08.08 0 0 1 .035.032c.008.014.012.03.01.046a.105.105 0 0 1-.022.047.105.105 0 0 1-.04.032l-.439.253a.268.268 0 0 1-.14.037.218.218 0 0 1-.133-.025l-3.026-1.747a.074.074 0 0 1-.046-.074.113.113 0 0 1 .066-.083l.377-.22a.417.417 0 0 1 .182-.054h.137l3.465.249-1.933-1.114a.07.07 0 0 1-.035-.03.072.072 0 0 1-.01-.044.115.115 0 0 1 .066-.083l.438-.253a.382.382 0 0 1 .141-.037.302.302 0 0 1 .133.025l3.026 1.747a.079.079 0 0 1 .045.079.104.104 0 0 1-.023.047.1.1 0 0 1-.043.031l-.377.224zM41.81 165.721h.109a.07.07 0 0 1 .045.074c0 .033-.025.058-.062.083l-.513.298a.589.589 0 0 1-.224.071H38.52l1.243.707a.083.083 0 0 1 .035.03.077.077 0 0 1 .01.045.113.113 0 0 1-.023.049.116.116 0 0 1-.043.034l-.439.252a.245.245 0 0 1-.136.038.24.24 0 0 1-.137-.025l-3.014-1.702a.073.073 0 0 1-.046-.078.103.103 0 0 1 .063-.079l.438-.253a.267.267 0 0 1 .141-.037.218.218 0 0 1 .133.025l1.1.633.055-1.329a.228.228 0 0 1 .029-.103.294.294 0 0 1 .111-.095l.497-.29a.363.363 0 0 1 .14-.037.245.245 0 0 1 .133.029.06.06 0 0 1 .037.058l-.082 1.631 3.047-.029z" fill="#455A64"/>
            <path d="m44.428 180.402-.695.414a.215.215 0 0 1-.108.029.169.169 0 0 1-.108-.021.073.073 0 0 1-.037-.062.088.088 0 0 1 .02-.038.094.094 0 0 1 .034-.024l.232-.132-1.006-.58a.357.357 0 0 0-.207-.046.525.525 0 0 0-.22.058.231.231 0 0 1-.111.029.162.162 0 0 1-.104-.02c-.029 0-.041-.038-.037-.058a.087.087 0 0 1 .016-.04.09.09 0 0 1 .033-.026.924.924 0 0 1 .448-.121.762.762 0 0 1 .414.083l1.006.58.232-.133a.208.208 0 0 1 .111-.029.17.17 0 0 1 .104.021c.029 0 .041.037.037.058a.102.102 0 0 1-.02.035.092.092 0 0 1-.034.023zM45.336 179.183l-.464.265a.189.189 0 0 0-.103.129.117.117 0 0 0 .016.074c.013.023.034.04.058.05l.149.087h.054a.083.083 0 0 0 .054 0l.985-.567a.231.231 0 0 1 .112-.029.175.175 0 0 1 .107.02.065.065 0 0 1 .029.023.06.06 0 0 1 .009.035.111.111 0 0 1-.054.067l-1.163.662a.25.25 0 0 1-.216 0l-.298-.174a.245.245 0 0 1-.149-.244.372.372 0 0 1 .207-.257l.468-.265a.188.188 0 0 0 .104-.132.123.123 0 0 0-.017-.072.12.12 0 0 0-.054-.048l-.203-.116a.369.369 0 0 0-.211-.042.514.514 0 0 0-.224.062l-.463.265a.18.18 0 0 0-.067.053.183.183 0 0 0-.037.076.12.12 0 0 0 .075.124c.029 0 .041.033.037.058a.098.098 0 0 1-.054.066.256.256 0 0 1-.112.029.163.163 0 0 1-.103-.021.242.242 0 0 1-.15-.244.377.377 0 0 1 .212-.256l.464-.265a.975.975 0 0 1 .447-.125.736.736 0 0 1 .414.087l.203.116a.242.242 0 0 1 .145.24.366.366 0 0 1-.207.269zM47.752 177.9l.1.058a.244.244 0 0 1 .148.245.36.36 0 0 1-.211.256l-.464.269a.956.956 0 0 1-.443.12.737.737 0 0 1-.414-.087.057.057 0 0 1-.027-.023.06.06 0 0 1-.01-.035.105.105 0 0 1 .02-.039.116.116 0 0 1 .034-.027.256.256 0 0 1 .22-.008.355.355 0 0 0 .206.041.486.486 0 0 0 .224-.058l.464-.269a.176.176 0 0 0 .103-.128.11.11 0 0 0-.016-.073.11.11 0 0 0-.058-.047l-.1-.058a.418.418 0 0 0-.21-.046.514.514 0 0 0-.224.062l-.112.067a.258.258 0 0 1-.112.033.284.284 0 0 1-.108-.021.074.074 0 0 1-.037-.062.099.099 0 0 1 .054-.05l.116-.066a.197.197 0 0 0 .107-.128.127.127 0 0 0-.018-.072.125.125 0 0 0-.056-.048l-.104-.058a.414.414 0 0 0-.207-.046.474.474 0 0 0-.223.062l-.464.269a.176.176 0 0 0-.103.129c0 .049 0 .087.074.12.011.006.02.015.026.026a.06.06 0 0 1 .007.036.096.096 0 0 1-.017.037.1.1 0 0 1-.032.025.245.245 0 0 1-.112.033.213.213 0 0 1-.108-.025.235.235 0 0 1-.11-.096.243.243 0 0 1-.035-.144.351.351 0 0 1 .207-.256l.464-.27a.984.984 0 0 1 .447-.12.771.771 0 0 1 .414.083l.1.058a.282.282 0 0 1 .124.124.187.187 0 0 1 0 .141c.084-.008.168-.008.252 0 .078.01.153.032.224.066zM50.047 177.122a.083.083 0 0 1-.018.04.08.08 0 0 1-.036.026.209.209 0 0 1-.112.029.163.163 0 0 1-.103-.02l-.559-.319a.445.445 0 0 1-.174.165l-.464.265a.912.912 0 0 1-.447.12.77.77 0 0 1-.414-.082l-.5-.29a.058.058 0 0 1-.03-.025.056.056 0 0 1-.008-.037c0-.025.017-.046.05-.062a.26.26 0 0 1 .112-.034.212.212 0 0 1 .107.025l.501.286a.357.357 0 0 0 .207.046.476.476 0 0 0 .224-.063l.463-.265a.186.186 0 0 0 .108-.132.127.127 0 0 0-.02-.071.121.121 0 0 0-.054-.049l-.501-.29c-.03 0-.042-.033-.042-.058a.1.1 0 0 1 .054-.066.256.256 0 0 1 .112-.029.169.169 0 0 1 .108.021l1.403.828a.064.064 0 0 1 .033.041zM51.604 175.039a.098.098 0 0 0 .053 0 .083.083 0 0 0 .054 0l.638-.368c.138-.074.29-.115.447-.12a.754.754 0 0 1 .414.087l.203.116a.236.236 0 0 1 .145.24.338.338 0 0 1-.207.257l-.464.269a.934.934 0 0 1-.447.12.762.762 0 0 1-.414-.083.058.058 0 0 1-.03-.025.057.057 0 0 1-.007-.037.098.098 0 0 1 .053-.066.27.27 0 0 1 .108-.029.197.197 0 0 1 .108 0 .364.364 0 0 0 .207.045.474.474 0 0 0 .223-.062l.464-.269a.194.194 0 0 0 .07-.051.193.193 0 0 0 .038-.077.125.125 0 0 0-.075-.12l-.203-.116a.355.355 0 0 0-.207-.042.527.527 0 0 0-.223.058l-.696.414a.5.5 0 0 1-.223.062.416.416 0 0 1-.212-.041l-.5-.29a.055.055 0 0 1-.03-.024.06.06 0 0 1-.008-.038.084.084 0 0 1 .054-.062l1.16-.671a.23.23 0 0 1 .111-.029.17.17 0 0 1 .104.021c.029 0 .041.033.037.058a.112.112 0 0 1-.054.066l-.985.567a.038.038 0 0 0-.025.033s0 .021.02.029l.299.178zM53.738 173.88l.464-.269a.97.97 0 0 1 .443-.145.793.793 0 0 1 .414.087l.203.116a.245.245 0 0 1 .149.244.369.369 0 0 1-.215.257l-.464.269a.996.996 0 0 1-.443.12.72.72 0 0 1-.414-.087l-.803-.464a.234.234 0 0 1-.15-.24.353.353 0 0 1 .212-.256l.464-.27a.986.986 0 0 1 .447-.124.835.835 0 0 1 .414.087.058.058 0 0 1 .03.025c.006.011.009.024.007.037a.089.089 0 0 1-.02.038.083.083 0 0 1-.034.024.259.259 0 0 1-.112.034.207.207 0 0 1-.103-.025.417.417 0 0 0-.211-.042.5.5 0 0 0-.224.062l-.464.27a.173.173 0 0 0-.103.128c0 .045 0 .087.075.12l.256.149a.413.413 0 0 1 .182-.145zm.373.48a.355.355 0 0 0 .207.042.543.543 0 0 0 .224-.058l.463-.269a.197.197 0 0 0 .108-.129.126.126 0 0 0-.018-.073.126.126 0 0 0-.057-.051l-.203-.116a.492.492 0 0 0-.435.021l-.463.269a.177.177 0 0 0-.067.052.178.178 0 0 0-.036.076.126.126 0 0 0 .075.12l.202.116zM58.877 171.479l.1.058a.244.244 0 0 1 .149.244.37.37 0 0 1-.211.257l-.464.265a.986.986 0 0 1-.447.124.773.773 0 0 1-.414-.087l-.1-.058a.316.316 0 0 1-.124-.12.2.2 0 0 1-.02-.145c-.083.01-.166.01-.249 0a.724.724 0 0 1-.211-.075l-.1-.058a.234.234 0 0 1-.148-.24.36.36 0 0 1 .21-.256l.464-.269a.924.924 0 0 1 .448-.121.78.78 0 0 1 .413.083l.1.058a.297.297 0 0 1 .124.12.199.199 0 0 1 .02.145c.083-.008.167-.008.25 0a.611.611 0 0 1 .21.075zm-.935-.269a.362.362 0 0 0-.211-.046.47.47 0 0 0-.22.062l-.464.269a.176.176 0 0 0-.108.129c0 .025.007.05.02.071a.134.134 0 0 0 .055.049l.104.058a.363.363 0 0 0 .207.041.513.513 0 0 0 .223-.058l.464-.269a.176.176 0 0 0 .104-.128.113.113 0 0 0-.016-.074.108.108 0 0 0-.059-.046l-.1-.058zm.703.414a.37.37 0 0 0-.21-.046.5.5 0 0 0-.224.062l-.464.269a.183.183 0 0 0-.104.129c0 .025.007.05.02.071a.134.134 0 0 0 .055.049l.1.058a.416.416 0 0 0 .21.041.5.5 0 0 0 .224-.062l.46-.265a.194.194 0 0 0 .069-.051.193.193 0 0 0 .038-.077.118.118 0 0 0-.017-.072.115.115 0 0 0-.057-.048l-.1-.058zM62.625 169.899l-.464.264a.975.975 0 0 1-.447.125.763.763 0 0 1-.414-.087.07.07 0 0 1-.02-.019.058.058 0 0 1-.01-.027.089.089 0 0 1 .02-.038.095.095 0 0 1 .035-.024.191.191 0 0 1 .111-.029.17.17 0 0 1 .104.021.411.411 0 0 0 .207.041.474.474 0 0 0 .224-.062l.463-.265a.197.197 0 0 0 .108-.128.123.123 0 0 0-.075-.124l-.256-.145a.46.46 0 0 1-.178.165l-.464.265a.958.958 0 0 1-.443.124.782.782 0 0 1-.414-.086l-.199-.116a.236.236 0 0 1-.149-.241.36.36 0 0 1 .211-.256l.464-.269a.962.962 0 0 1 .447-.124.762.762 0 0 1 .414.086l.803.464a.24.24 0 0 1 .115.095.239.239 0 0 1 .034.145.372.372 0 0 1-.227.245zm-.973-.828a.412.412 0 0 0-.207-.042.504.504 0 0 0-.228.062l-.464.269a.176.176 0 0 0-.103.129c0 .025.006.05.02.071a.134.134 0 0 0 .054.049l.2.116a.416.416 0 0 0 .21.041.501.501 0 0 0 .224-.062l.463-.265a.176.176 0 0 0 .104-.128.119.119 0 0 0-.015-.074.126.126 0 0 0-.055-.051l-.203-.115zM64.358 168.913l-.696.414a.29.29 0 0 1-.112.029.206.206 0 0 1-.103-.021.06.06 0 0 1-.03-.024.06.06 0 0 1-.007-.038.089.089 0 0 1 .019-.038.084.084 0 0 1 .034-.024l.232-.137-1.006-.579a.412.412 0 0 0-.207-.042.525.525 0 0 0-.22.058.255.255 0 0 1-.11.029.157.157 0 0 1-.104-.021.056.056 0 0 1-.03-.024.059.059 0 0 1-.008-.038c0-.024.017-.045.05-.062a.974.974 0 0 1 .447-.124.793.793 0 0 1 .414.087l1.006.58.232-.133a.221.221 0 0 1 .112-.033.207.207 0 0 1 .103.025.053.053 0 0 1 .038.058.095.095 0 0 1-.021.034.11.11 0 0 1-.033.024zM65.865 168.023l-.464.269a.895.895 0 0 1-.443.12.753.753 0 0 1-.414-.083l-.79-.463a.244.244 0 0 1-.15-.245.376.376 0 0 1 .211-.256l.464-.269a.982.982 0 0 1 .443-.12.72.72 0 0 1 .414.087l.803.463a.236.236 0 0 1 .15.24.359.359 0 0 1-.224.257zm-.663.153.464-.269a.185.185 0 0 0 .083-.079l-1.764-.086.783.451a.417.417 0 0 0 .21.045.5.5 0 0 0 .224-.062zm-.74-.964-.464.269a.264.264 0 0 0-.087.078l1.767.091-.786-.455a.355.355 0 0 0-.207-.041.461.461 0 0 0-.224.058zM67.605 167.021l-.695.414a.209.209 0 0 1-.112.029.17.17 0 0 1-.103-.021.057.057 0 0 1-.03-.022.056.056 0 0 1-.008-.036c0-.025.021-.046.05-.066l.232-.133-1.002-.579a.364.364 0 0 0-.207-.042.46.46 0 0 0-.224.058.221.221 0 0 1-.111.033.197.197 0 0 1-.104-.025.057.057 0 0 1-.027-.023.06.06 0 0 1-.01-.034.101.101 0 0 1 .02-.04.114.114 0 0 1 .034-.027.968.968 0 0 1 .443-.12.754.754 0 0 1 .414.087l1.002.576.231-.133a.256.256 0 0 1 .112-.029.195.195 0 0 1 .104.021.055.055 0 0 1 .03.024.06.06 0 0 1 .007.038c.004.012-.017.033-.046.05zM65.32 173.112l-.708.414a.255.255 0 0 1-.112.029.183.183 0 0 1-.108-.021.07.07 0 0 1-.028-.026.064.064 0 0 1-.01-.036.084.084 0 0 1 .054-.062l.237-.137-1.019-.588a.378.378 0 0 0-.21-.045.474.474 0 0 0-.224.062.262.262 0 0 1-.116.033.207.207 0 0 1-.104-.025.047.047 0 0 1-.023-.008.047.047 0 0 1-.017-.016.057.057 0 0 1-.008-.023.049.049 0 0 1 .002-.023.085.085 0 0 1 .054-.067.977.977 0 0 1 .452-.124c.143-.01.286.02.414.087l1.014.588.236-.137a.259.259 0 0 1 .116-.028.162.162 0 0 1 .103.02.057.057 0 0 1 .03.025c.007.011.01.024.008.037.016.013-.005.05-.033.071zM66.237 171.872l-.468.274a.183.183 0 0 0-.108.128.131.131 0 0 0 .019.074.13.13 0 0 0 .056.05l.153.087a.122.122 0 0 0 .054 0h.058l1.002-.579a.21.21 0 0 1 .112-.029.21.21 0 0 1 .107.02.057.057 0 0 1 .03.025c.007.011.01.024.008.037a.114.114 0 0 1-.054.067l-1.18.679a.23.23 0 0 1-.112.029.183.183 0 0 1-.108-.021l-.302-.174a.243.243 0 0 1-.153-.248.365.365 0 0 1 .215-.261l.468-.269a.184.184 0 0 0 .108-.133.117.117 0 0 0-.017-.074.119.119 0 0 0-.058-.05l-.203-.116a.37.37 0 0 0-.21-.046.506.506 0 0 0-.228.063l-.472.273a.2.2 0 0 0-.108.132.127.127 0 0 0 .079.12.063.063 0 0 1 .03.025c.006.011.009.024.007.037a.102.102 0 0 1-.02.04.113.113 0 0 1-.034.027.255.255 0 0 1-.112.029.176.176 0 0 1-.107-.021.25.25 0 0 1-.154-.244.388.388 0 0 1 .216-.261l.472-.273a.993.993 0 0 1 .45-.125.754.754 0 0 1 .415.087l.203.116a.25.25 0 0 1 .149.249.357.357 0 0 1-.203.256zM69.058 170.246l-.472.269a.186.186 0 0 0-.103.133c0 .049 0 .087.074.12l.153.091a.099.099 0 0 0 .054 0 .122.122 0 0 0 .054 0l1.002-.58a.21.21 0 0 1 .112-.029.18.18 0 0 1 .107 0 .063.063 0 0 1 .03.025c.007.011.01.024.007.037a.088.088 0 0 1-.019.038.084.084 0 0 1-.034.024l-1.176.684a.333.333 0 0 1-.112.029.222.222 0 0 1-.108-.021l-.306-.178a.244.244 0 0 1-.149-.244.369.369 0 0 1 .211-.261l.472-.273a.184.184 0 0 0 .108-.133c0-.05 0-.087-.075-.12l-.203-.12a.382.382 0 0 0-.215-.041.505.505 0 0 0-.228.062l-.467.273a.183.183 0 0 0-.108.128.123.123 0 0 0 .075.124.063.063 0 0 1 .029.025c.007.011.01.024.008.038a.09.09 0 0 1-.018.037.1.1 0 0 1-.032.025.262.262 0 0 1-.116.033.224.224 0 0 1-.108-.025.24.24 0 0 1-.148-.244.364.364 0 0 1 .215-.261l.468-.269a.9.9 0 0 1 .455-.124.801.801 0 0 1 .414.082l.203.12a.245.245 0 0 1 .15.245.383.383 0 0 1-.204.281zM71.511 168.946l.1.058a.245.245 0 0 1 .149.245.358.358 0 0 1-.211.26l-.472.274a.978.978 0 0 1-.451.124.835.835 0 0 1-.414-.087.07.07 0 0 1-.027-.026.078.078 0 0 1-.01-.036.092.092 0 0 1 .019-.039.09.09 0 0 1 .034-.027.231.231 0 0 1 .112-.029.168.168 0 0 1 .108.02.383.383 0 0 0 .215.042.438.438 0 0 0 .223-.058l.472-.273a.192.192 0 0 0 .104-.129.117.117 0 0 0-.017-.074.119.119 0 0 0-.058-.05l-.099-.058a.385.385 0 0 0-.215-.046.488.488 0 0 0-.224.063l-.12.066a.211.211 0 0 1-.112.033.186.186 0 0 1-.103-.021.07.07 0 0 1-.041-.062.098.098 0 0 1 .053-.066l.12-.066a.186.186 0 0 0 .103-.133.118.118 0 0 0-.016-.074.119.119 0 0 0-.058-.05l-.1-.058a.383.383 0 0 0-.214-.041.463.463 0 0 0-.224.062l-.472.269a.187.187 0 0 0-.108.132.12.12 0 0 0 .08.12c.01.006.02.015.025.026a.062.062 0 0 1 .007.036.085.085 0 0 1-.054.067.232.232 0 0 1-.111.033.207.207 0 0 1-.104-.025.243.243 0 0 1-.153-.244.37.37 0 0 1 .215-.261l.468-.273a.944.944 0 0 1 .455-.12.78.78 0 0 1 .414.082l.104.062c.052.028.095.07.124.121a.206.206 0 0 1 .02.149.97.97 0 0 1 .253 0 .796.796 0 0 1 .212.082zM68.109 171.781a.28.28 0 0 1-.178-.025l-1.486-1.188c-.03-.025 0-.05.07-.058a.256.256 0 0 1 .178.025l1.474 1.18c.025.033 0 .058-.058.066z" fill="#fff"/>
            <path d="m40.193 171.812 4.293 2.484a.358.358 0 0 1 .236.335.354.354 0 0 1-.236.336l-5.159 3.03a1.279 1.279 0 0 1-1.163 0l-4.302-2.459a.35.35 0 0 1-.177-.543.35.35 0 0 1 .177-.128c1.42-.828 3.726-2.206 5.167-3.026a1.285 1.285 0 0 1 1.163-.029z" fill="#EFD16B"/>
            <path opacity=".7" d="m40.193 171.812 4.293 2.484a.358.358 0 0 1 .236.335.354.354 0 0 1-.236.336l-5.159 3.03a1.279 1.279 0 0 1-1.163 0l-4.302-2.459a.35.35 0 0 1-.177-.543.35.35 0 0 1 .177-.128c1.42-.828 3.726-2.206 5.167-3.026a1.285 1.285 0 0 1 1.163-.029z" fill="#fff"/>
            <path d="m43.314 173.624-2.045 1.188-1.942-1.113 2.041-1.189-.265-.149-6.33 3.689.261.153 2.041-1.188 1.93 1.114-2.041 1.188.26.149 6.343-3.689-.253-.153zm-2.306 1.341-1.73 1.011-1.93-1.114 1.731-1.01 1.93 1.113z" fill="#455A64"/>
        </g>
        <g filter="url(#0fk40f3vzd)">
            <path d="M32.293 148.145H12.785l2.02 8.408c.154 1.014.903 2.004 2.244 2.782 3.04 1.751 7.962 1.751 10.996 0 1.45-.828 2.198-1.921 2.265-3.014l1.983-8.176z" fill="#37474F"/>
            <path d="M29.929 153.907a8.05 8.05 0 0 0 1.172-.828l1.097-4.491a7.813 7.813 0 0 1-1.975 1.577c-4.14 2.376-10.719 2.438-14.979.194l.497-2.003-.153-.211h-2.803l2.02 8.404c.154 1.014.903 2.003 2.244 2.782 2.166 1.242 5.283 1.602 7.999 1.072-4.865.36-8.206-1.764-8.694-3.726-.199-.782-.547-2.513-.547-2.513 4.066 2.062 10.239 1.983 14.122-.257z" fill="#263238"/>
            <path d="M33.324 145.656a4.036 4.036 0 0 1-.65 1.516 7.22 7.22 0 0 1-2.451 2.177c-4.235 2.447-11.112 2.447-15.351 0a7.25 7.25 0 0 1-2.451-2.177 4.105 4.105 0 0 1-.65-1.516c-.377-1.842.658-3.759 3.1-5.171 4.24-2.446 11.117-2.446 15.352 0 2.442 1.412 3.481 3.329 3.1 5.171z" fill="#455A64"/>
            <path d="M32.672 147.171a7.213 7.213 0 0 1-2.45 2.178c-4.236 2.447-11.112 2.447-15.352 0a7.244 7.244 0 0 1-2.45-2.178 4.094 4.094 0 0 1-.65-1.515l.484 3.312c.22 1.333 1.209 2.629 2.98 3.648 4.041 2.33 10.587 2.33 14.627 0 1.743-1.006 2.737-2.286 2.973-3.602l.025-.17.463-3.184a4.031 4.031 0 0 1-.65 1.511z" fill="#37474F"/>
            <path d="M28.944 141.223c-3.532-2.037-9.257-2.037-12.789 0-2 1.159-2.865 2.716-2.604 4.223.203 1.155 1.072 2.277 2.604 3.163 3.532 2.041 9.257 2.041 12.789 0 1.532-.886 2.4-2.008 2.604-3.163.265-1.507-.605-3.064-2.604-4.223z" fill="#263238"/>
            <path d="M14.146 146.839a6.052 6.052 0 0 0 2 1.785c3.531 2.041 9.257 2.041 12.789 0a6.071 6.071 0 0 0 2.008-1.768c-.03-1.221-.829-2.434-2.46-3.37-3.274-1.9-8.61-1.9-11.877-.017-1.615.936-2.43 2.153-2.46 3.37z" fill="#FAFAFA"/>
            <path d="M23.227 143.045c-1.623-.439-1.9-3.954-.99-7.667.887-3.61 3.727-9.021 4.319-8.905.592.115 1.354 6.003.931 9.89-.513 4.707-2.645 7.125-4.26 6.682z" fill="#71D03C"/>
            <path opacity=".3" d="M23.227 143.045c-1.623-.439-1.9-3.954-.99-7.667.887-3.61 3.727-9.021 4.319-8.905.592.115 1.354 6.003.931 9.89-.513 4.707-2.645 7.125-4.26 6.682z" fill="#000"/>
            <path opacity=".5" d="M24.013 131.68c.29.459.468 1.242 1.15 1.242.547 0 .829-.576 1.33-.708a1.328 1.328 0 0 1 1.089.327v-.414a1.65 1.65 0 0 0-.94-.335 1.414 1.414 0 0 0-.787.356c-.252.198-.563.492-.91.352-.348-.141-.51-.659-.713-.99-.1-.18-.242-.334-.414-.447-.045.099-.087.199-.132.302a.895.895 0 0 1 .327.315zm1.925-1.453c.214-.141.402-.316.559-.518a.788.788 0 0 1 .39-.199.786.786 0 0 1 .438.038h.029c0-.124-.03-.249-.046-.369a1.054 1.054 0 0 0-.157-.037.91.91 0 0 0-.675.145c-.227.161-.352.439-.588.58-.414.256-.762-.207-.886-.555-.058-.158-.103-.319-.153-.472-.045.079-.087.161-.132.248.029.112.058.22.09.327.146.472.576 1.077 1.135.812h-.004zm-.054 4.695a4.087 4.087 0 0 1-.886.583c-.828.236-1.03-1.055-1.565-1.436a1.11 1.11 0 0 0-.757-.199 8.157 8.157 0 0 0-.096.298 1.03 1.03 0 0 1 .414 0 1.136 1.136 0 0 1 .733.65c.265.48.609 1.163 1.275 1.031.289-.088.554-.238.779-.439a1.413 1.413 0 0 1 1.13-.302c.237.06.455.176.637.339 0-.128 0-.256.021-.385a1.622 1.622 0 0 0-.774-.343 1.456 1.456 0 0 0-.907.203h-.004zm.51 2.84a1.623 1.623 0 0 0-1.106.144c-.39.191-.67.563-1.076.717-.882.335-1.019-.944-1.656-1.242a1.301 1.301 0 0 0-.667-.129c0 .1-.029.199-.041.298.085-.008.171-.008.256 0a1.186 1.186 0 0 1 .911.704c.315.584.725 1.056 1.44.708.382-.186.655-.534 1.048-.704.21-.106.444-.152.678-.131.234.022.457.109.643.251.091.096.174.198.248.307.034-.124.062-.257.091-.385a1.4 1.4 0 0 0-.765-.538h-.005z" fill="#71D03C"/>
            <path opacity=".1" d="M23.227 143.045c1.623.442 3.747-1.975 4.26-6.682.128-1.342.158-2.691.091-4.037-1.329 1.089-2.657 3.312-2.657 3.312a36.986 36.986 0 0 0-1.574-3.552 24.651 24.651 0 0 0-1.11 3.291c-.91 3.726-.633 7.229.99 7.668z" fill="#000"/>
            <path d="M21.901 144.994c-2.136 1.371-4.14-3.502-5.187-7.183-1.048-3.68-.369-13.293.708-13.819.761-.372 4.794 8.243 5.584 12.441.593 3.03.593 7.473-1.105 8.561z" fill="#71D03C"/>
            <path opacity=".1" d="M21.901 144.994c-2.136 1.371-4.14-3.502-5.187-7.183-1.048-3.68-.369-13.293.708-13.819.761-.372 4.794 8.243 5.584 12.441.593 3.03.593 7.473-1.105 8.561z" fill="#000"/>
            <path d="M17.295 130.782c.67.331 1.205.331 1.726-.232.522-.563.828-1.192 1.602-1.105-.07-.17-.144-.34-.219-.505a1.237 1.237 0 0 0-.368.037c-.663.178-.96.869-1.425 1.304-.716.671-1.482-.211-2.293-.161h-.075v.443c.364-.023.727.053 1.052.219zm5.87 6.624a2.696 2.696 0 0 0-.351-.099 1.316 1.316 0 0 0-1.01.227c-.646.476-.675 1.528-1.719 1.242-.795-.211-1.39-.732-2.227-.314a2.927 2.927 0 0 0-.766.575l.12.369a2.359 2.359 0 0 1 1.04-.646c.902-.232 1.58.679 2.483.53.729-.125.808-.924 1.317-1.321a1.138 1.138 0 0 1 1.184-.075l-.07-.488zm-5.833-10.114c.253.344.6.72 1.064.484.464-.236.534-.857.853-1.242l-.174-.331c-.31.414-.464 1.317-1.056 1.284-.463-.025-.645-.713-1.035-.911a.686.686 0 0 0-.385-.075c0 .091-.029.187-.041.282a.692.692 0 0 1 .091 0c.327-.004.513.269.683.509zm1.61 7.299c.829.182 1.243-.828 1.657-1.379a2.482 2.482 0 0 1 1.167-.989c-.054-.153-.112-.303-.17-.456a1.72 1.72 0 0 0-.439.166 2.905 2.905 0 0 0-.914.927c-.257.381-.464.89-.857 1.143-.394.252-.982-.162-1.45-.249a2.521 2.521 0 0 0-1.3.104 1.989 1.989 0 0 0-.413.195c0 .207 0 .414.033.616a1.98 1.98 0 0 1 1.366-.459c.493.008.857.281 1.32.381z" fill="#71D03C"/>
            <path opacity=".1" d="M21.889 132.611a11.987 11.987 0 0 0-1.73 2.832s-2.319-3.143-3.946-4.554c-.091 2.608.037 5.336.5 6.934 1.06 3.681 3.052 8.553 5.188 7.183 1.698-1.089 1.681-5.531 1.106-8.561a26.243 26.243 0 0 0-1.118-3.834z" fill="#000"/>
            <path d="M21.756 147.504c-3.904.211-7.555-2.153-9.936-5.134-2.38-2.981-4.214-9.141-3.68-9.522.534-.381 6.835 3.507 9.2 6.31 3.116 3.672 4.416 8.346 4.416 8.346z" fill="#71D03C"/>
            <path opacity=".2" d="M21.756 147.504c-3.904.211-7.555-2.153-9.936-5.134-2.38-2.981-4.214-9.141-3.68-9.522.534-.381 6.835 3.507 9.2 6.31 3.116 3.672 4.416 8.346 4.416 8.346z" fill="#000"/>
            <path d="M13.25 137.72c.227-.364.099-.828.049-1.204a1.1 1.1 0 0 1 .157-.758l-.438-.315a1.59 1.59 0 0 0-.162 1.06c.066.451.174 1.01-.414 1.093-.588.083-1.565-.497-2.07.153-.257.315-.157.716-.166 1.089-.01.166-.057.328-.14.472.07.149.14.298.215.443.157-.189.257-.419.29-.662.058-.456-.12-1.039.492-1.139.414-.066.828.133 1.242.162a1.008 1.008 0 0 0 .944-.394zm-2.178-3.258a.826.826 0 0 1 .174-.186l-.352-.215c-.29.376-.286.894-.576 1.271a.664.664 0 0 1-.737.207 1.233 1.233 0 0 0-.828.029.933.933 0 0 0-.161.091l.087.285a.898.898 0 0 1 .414-.116c.294 0 .571.149.87.129a.775.775 0 0 0 .517-.265c.31-.352.327-.845.575-1.23h.017zm4.326 5.233c.29-.268.492-.619.575-1.006.052-.274.086-.55.104-.828-.124-.108-.244-.219-.373-.327a4.008 4.008 0 0 1-.273 1.35 1.212 1.212 0 0 1-1.213.633 1.287 1.287 0 0 0-1.047.335 1.977 1.977 0 0 0-.39 1.048c-.078.542-.161 1.047-.666 1.354-.086.05-.176.093-.27.128l.282.335a1.6 1.6 0 0 0 .563-.414c.65-.774.12-2.314 1.511-2.314a1.7 1.7 0 0 0 1.18-.294h.017zm2.099.393c.08-.15.178-.289.294-.414-.112-.14-.224-.281-.34-.414-.32.347-.537.778-.625 1.242a3.592 3.592 0 0 1-.509 1.454c-.34.438-.878.393-1.329.641a1.9 1.9 0 0 0-.828.973 4.63 4.63 0 0 0-.207.985l.414.34a.321.321 0 0 1 0-.062c.091-.551.153-1.118.584-1.524.43-.405.981-.331 1.424-.641.828-.609.683-1.752 1.105-2.58h.017zm1.693 1.627c-.113.089-.22.186-.319.29-.666.733-.583 1.681-.828 2.579a1.57 1.57 0 0 1-.828 1.114c-.372.153-.794 0-1.117.298l-.03.037c.191.108.386.216.584.315.106-.024.215-.038.323-.041.211-.005.419-.054.609-.145.332-.187.592-.478.74-.828.415-.828.229-1.859.734-2.654.112-.183.252-.348.414-.489l-.282-.476z" fill="#71D03C"/>
            <path opacity=".2" d="M12.963 135.418c.368 3.233 2.09 11.931 8.793 12.085 0 0-1.3-4.666-4.4-8.342a24.604 24.604 0 0 0-4.393-3.743z" fill="#000"/>
            <path d="M21.757 147.503c-3.072-.451-5.71-2.393-7.063-8.181-1.354-5.787-1.56-8.396-.617-8.971 1.072-.663 5.262 5.171 6.624 7.738 3.362 6.441 1.056 9.414 1.056 9.414z" fill="#71D03C"/>
            <path opacity=".2" d="M16.056 136.814c.765.24 1.763.493 2.339-.26.22-.397.404-.813.55-1.242-.132-.195-.273-.414-.414-.588-.34.542-.33 1.349-.923 1.656a1.883 1.883 0 0 1-1.42-.054 3.315 3.315 0 0 0-1.412-.211c-.26.034-.511.121-.737.256.034.17.075.348.108.526.1-.056.203-.105.31-.145a2.325 2.325 0 0 1 1.599.062zm-.907-2.997c.219.119.469.166.716.137.464-.096.708-.547.948-.911.067-.11.146-.211.236-.302l-.29-.352a.368.368 0 0 0-.058.062c-.29.352-.534 1.068-1.076 1.076a3.409 3.409 0 0 1-.766-.223 1.843 1.843 0 0 0-.662 0 1.652 1.652 0 0 0-.613.236c0 .132.033.273.05.414.251-.15.535-.236.828-.253.234-.01.469.029.687.116zm3.353 6.425c.244-.461.568-.874.957-1.221a2.08 2.08 0 0 1 1.565-.277c-.104-.216-.216-.414-.332-.655a2.563 2.563 0 0 0-1.06.067c-.474.148-.886.45-1.171.857a6.63 6.63 0 0 1-.787 1.134c-.625.571-1.47.07-2.17-.066a2.571 2.571 0 0 0-.612-.05c.054.203.112.414.17.592.274-.001.546.041.807.124 1.023.323 1.934.518 2.633-.505zm3.536 1.126c-.05 0-.104.025-.153.046-.413.159-.773.43-1.04.782-.297.385-.455.828-.736 1.242a.97.97 0 0 1-1.242.414 2.073 2.073 0 0 0-1.35-.099 2.178 2.178 0 0 0-.853.534c.104.153.211.298.319.443.19-.175.416-.306.662-.385a1.447 1.447 0 0 1 1.056.132 1.655 1.655 0 0 0 2.174-.662c.265-.385.413-.828.712-1.205.17-.209.387-.375.633-.484a6.117 6.117 0 0 0-.182-.758z" fill="#fff"/>
            <path opacity=".15" d="M20.676 138.09a22.39 22.39 0 0 0-.977-1.656c-1.33 4.106-1.756 10.093 2.07 11.07-.013 0 2.293-2.973-1.093-9.414z" fill="#000"/>
            <path d="M23.342 147.504c3.904.211 7.555-2.153 9.936-5.134 2.38-2.981 4.214-9.141 3.68-9.522-.534-.381-6.851 3.511-9.22 6.314-3.096 3.668-4.396 8.342-4.396 8.342z" fill="#71D03C"/>
            <path opacity=".2" d="M23.342 147.504c3.904.211 7.555-2.153 9.936-5.134 2.38-2.981 4.214-9.141 3.68-9.522-.534-.381-6.851 3.511-9.22 6.314-3.096 3.668-4.396 8.342-4.396 8.342z" fill="#000"/>
            <path d="M32.84 138.114c.414-.029.828-.228 1.242-.162.613.1.414.683.493 1.139.032.243.133.473.29.662.074-.145.144-.294.215-.443a1.068 1.068 0 0 1-.14-.472c0-.373.09-.774-.166-1.089-.526-.65-1.437-.062-2.091-.153-.654-.091-.497-.642-.414-1.093a1.59 1.59 0 0 0-.162-1.06l-.438.315c.142.225.198.494.157.758-.05.393-.178.828.05 1.204a1.004 1.004 0 0 0 .964.394zm1.789-2.422a.775.775 0 0 0 .517.265c.298.02.571-.137.87-.129a.898.898 0 0 1 .413.116l.087-.285a.931.931 0 0 0-.161-.091 1.233 1.233 0 0 0-.828-.029.663.663 0 0 1-.737-.207c-.29-.377-.286-.895-.575-1.271l-.352.215a.826.826 0 0 1 .173.186c.257.385.274.878.593 1.23zm-3.726 4.297c1.39 0 .857 1.54 1.51 2.314a1.6 1.6 0 0 0 .564.414l.281-.335a1.787 1.787 0 0 1-.269-.128c-.505-.307-.588-.828-.666-1.354a1.976 1.976 0 0 0-.39-1.048 1.282 1.282 0 0 0-1.047-.335 1.212 1.212 0 0 1-1.213-.633 4.008 4.008 0 0 1-.273-1.35c-.129.108-.249.219-.373.327.018.278.052.554.104.828.088.389.295.74.592 1.006a1.7 1.7 0 0 0 1.175.294h.005zm-2.162 2.662c.444.311 1.01.253 1.425.642.414.389.492.973.583 1.523v.062l.414-.339a4.63 4.63 0 0 0-.207-.985 1.897 1.897 0 0 0-.828-.973c-.45-.249-.99-.203-1.329-.642a3.593 3.593 0 0 1-.509-1.453 2.515 2.515 0 0 0-.625-1.242c-.116.136-.228.277-.34.414.116.124.215.264.294.414.423.844.278 1.987 1.118 2.579h.005zm-3.1-.443c.162.141.301.306.414.489.505.794.327 1.817.732 2.653.15.351.41.642.742.828.19.092.397.141.608.145.109.004.217.017.323.042.199-.1.414-.207.584-.315l-.03-.037c-.322-.294-.744-.145-1.117-.298a1.575 1.575 0 0 1-.828-1.114c-.244-.898-.162-1.846-.828-2.579a3.031 3.031 0 0 0-.319-.29l-.281.476z" fill="#71D03C"/>
            <path opacity=".2" d="M32.135 135.418c-.368 3.233-2.09 11.931-8.793 12.085 0 0 1.3-4.666 4.4-8.342a24.601 24.601 0 0 1 4.393-3.743z" fill="#000"/>
            <path d="M23.343 147.503c3.072-.451 5.71-2.393 7.063-8.181 1.354-5.787 1.56-8.396.63-8.971-1.073-.663-5.263 5.171-6.625 7.738-3.374 6.441-1.068 9.414-1.068 9.414z" fill="#71D03C"/>
            <path opacity=".2" d="M30.638 136.734c.107.04.211.089.31.145.034-.178.075-.356.108-.525a1.92 1.92 0 0 0-.737-.257 3.315 3.315 0 0 0-1.411.211 1.883 1.883 0 0 1-1.42.054c-.592-.311-.584-1.118-.924-1.656-.14.194-.277.393-.414.588.146.429.33.845.551 1.242.575.753 1.573.501 2.335.261a2.33 2.33 0 0 1 1.602-.063zm0-3.047c.292.017.576.104.828.253 0-.141.037-.282.05-.414a1.653 1.653 0 0 0-.613-.236 1.89 1.89 0 0 0-.662 0 3.409 3.409 0 0 1-.766.223c-.543 0-.787-.724-1.077-1.076a.415.415 0 0 0-.058-.062l-.29.352c.09.091.17.193.237.302.24.364.484.828.948.911.247.03.497-.018.716-.137.218-.087.453-.126.687-.116zm-1.39 7.072c.267-.086.546-.128.827-.125.058-.19.116-.389.17-.592a2.571 2.571 0 0 0-.613.05c-.7.137-1.544.638-2.17.066a6.366 6.366 0 0 1-.786-1.134 2.257 2.257 0 0 0-1.171-.857 2.546 2.546 0 0 0-1.06-.066c-.116.223-.228.438-.331.654a2.078 2.078 0 0 1 1.565.277c.383.348.7.762.94 1.221.678 1.011 1.589.816 2.628.506zm-6.385 1.374c.247.109.464.275.634.484.298.365.447.828.712 1.205a1.655 1.655 0 0 0 2.173.662c.322-.176.7-.224 1.056-.132.246.079.472.21.662.385.108-.145.216-.29.32-.443a2.178 2.178 0 0 0-.854-.534 2.073 2.073 0 0 0-1.35.099.966.966 0 0 1-1.241-.414c-.282-.414-.44-.857-.737-1.242a2.376 2.376 0 0 0-1.04-.782c-.05-.021-.103-.029-.153-.046-.062.253-.124.501-.182.746v.012z" fill="#fff"/>
            <path opacity=".15" d="M24.427 138.09c.245-.464.58-1.04.977-1.656 1.33 4.106 1.756 10.093-2.07 11.07.009 0-2.297-2.973 1.093-9.414z" fill="#000"/>
            <path d="M22.547 148.141c2.591 0 3.453-3.527 3.196-6.363-.257-2.836-2.07-8.239-3.196-8.239-1.126 0-2.931 5.382-3.192 8.239-.26 2.856.604 6.363 3.192 6.363z" fill="#71D03C"/>
            <path opacity=".3" d="M22.547 148.141c2.591 0 3.453-3.527 3.196-6.363-.257-2.836-2.07-8.239-3.196-8.239-1.126 0-2.931 5.382-3.192 8.239-.26 2.856.604 6.363 3.192 6.363z" fill="#fff"/>
            <path opacity=".2" d="M22.535 137.233c.38-.135.715-.375.964-.692.223-.209.5-.352.8-.414-.067-.165-.133-.331-.203-.488a2.45 2.45 0 0 0-1.093.67 1.47 1.47 0 0 1-.539.414c-.314.112-.505-.058-.712-.265a1.726 1.726 0 0 0-.853-.509h-.024l-.162.414c.349.066.666.245.903.509a.976.976 0 0 0 .919.361zm-1.934 3.113c.861.675 1.578-.282 2.128-.853.46-.476.948-.575 1.474-.137.282.297.616.54.985.717.097.034.197.059.299.074-.034-.161-.07-.327-.108-.493a2.892 2.892 0 0 1-1.052-.699c-.77-.634-1.465-.369-2.07.335-.352.414-.923 1.097-1.503.663-.339-.253-.505-.688-.86-.936-.038.145-.071.286-.104.414.319.228.497.658.811.915zm.97 3.105c.488.646 1.096.807 1.759.252.28-.314.577-.613.89-.894.492-.335 1.055-.161 1.565.037v-.459a3.388 3.388 0 0 0-.717-.224 1.458 1.458 0 0 0-1.118.224c-.364.261-.591.666-.943.94a.875.875 0 0 1-.75.24c-.294-.108-.472-.48-.687-.696a2.16 2.16 0 0 0-1.002-.575 1.836 1.836 0 0 0-1.242.124v.443a1.82 1.82 0 0 1 2.244.584v.004zm2.442 2.637a2.071 2.071 0 0 1-1.462.439 1.178 1.178 0 0 1-.737-.323c-.14-.149-.244-.331-.393-.476a1.697 1.697 0 0 0-.973-.48 1.857 1.857 0 0 0-.828.066 5.7 5.7 0 0 0 .153.464 1.352 1.352 0 0 1 1.288.178c.31.231.46.612.79.828.305.182.656.273 1.01.26.374.001.742-.09 1.073-.265.373-.194.638-.534 1.002-.741.094-.055.194-.101.298-.136.07-.191.137-.385.19-.588a1.648 1.648 0 0 0-.36.079 3.54 3.54 0 0 0-1.051.695z" fill="#fff"/>
        </g>
        <g filter="url(#pvetgyigve)">
            <path d="M138.543 171.019a.971.971 0 0 0-.539-.154.865.865 0 0 0-.546.187c-1.954 1.565-7.191 2.566-11.642 2.032a3.39 3.39 0 0 0-.451-.024c-.323 0-.505.082-.505.215v2.26a.159.159 0 0 0 0 .075c.076.18.138.365.186.555a6.255 6.255 0 0 1-3.428 4.069c-.269.12-.438.282-.434.439v2.244c0 .099.07.199.227.281l8.545 4.554c2.323 1.338 6.467 2.426 11.125 2.451h.186c2.616-.025 5.084-.223 7.684-1.345.188-.081.35-.214.463-.385.944-1.408 1.354-2.679 1.346-3.855v-2.219c.004-4.512-6.086-7.588-12.217-11.38z" fill="url(#vpnhgab6zf)"/>
            <path opacity=".2" d="M138.543 171.019a.971.971 0 0 0-.539-.154.865.865 0 0 0-.546.187c-1.954 1.565-7.191 2.566-11.642 2.032a3.39 3.39 0 0 0-.451-.024c-.323 0-.505.082-.505.215v2.26a.159.159 0 0 0 0 .075c.076.18.138.365.186.555a6.255 6.255 0 0 1-3.428 4.069c-.269.12-.438.282-.434.439v2.244c0 .099.07.199.227.281l8.545 4.554c2.323 1.338 6.467 2.426 11.125 2.451h.186c2.616-.025 5.084-.223 7.684-1.345.188-.081.35-.214.463-.385.944-1.408 1.354-2.679 1.346-3.855v-2.219c.004-4.512-6.086-7.588-12.217-11.38z" fill="#000"/>
            <path d="M138.543 171.019c7.733 4.782 15.404 8.425 10.884 15.173a1.035 1.035 0 0 1-.464.389c-2.6 1.122-5.067 1.321-7.684 1.346h-.186c-4.658-.025-8.802-1.114-11.124-2.451l-8.545-4.554c-.414-.215-.232-.522.207-.72 2.633-1.205 4.326-4.322 3.241-6.869-.074-.178.112-.277.489-.285a3.4 3.4 0 0 1 .451.025c4.451.534 9.688-.468 11.642-2.033a.858.858 0 0 1 .546-.186.966.966 0 0 1 .543.165z" fill="url(#348g3ug2sg)"/>
            <path d="m140.21 184.325-6.425-.033.025-2.111 3.929.012.103-8.362 2.493-.009-.125 10.503z" fill="#FAFAFA"/>
        </g>
        <g filter="url(#bwjtr2t4kh)">
            <path d="M194.523 154.335a2.486 2.486 0 0 1-1.147 1.905l-34.263 19.781a2.547 2.547 0 0 1-2.293 0l-8.458-4.886a2.153 2.153 0 0 1 0-3.804l34.262-19.781a2.514 2.514 0 0 1 2.294 0l8.458 4.881a2.457 2.457 0 0 1 1.147 1.904z" fill="#EFD16B"/>
            <path opacity=".2" d="M194.523 154.335a2.486 2.486 0 0 1-1.147 1.905l-34.263 19.781a2.547 2.547 0 0 1-2.293 0l-8.458-4.886a2.153 2.153 0 0 1 0-3.804l34.262-19.781a2.514 2.514 0 0 1 2.294 0l8.458 4.881a2.457 2.457 0 0 1 1.147 1.904z" fill="#000"/>
            <path d="M193.55 152.547c.456.368.393.878-.174 1.209l-14.283 8.247-19.979 11.534a2.402 2.402 0 0 1-1.147.277v2.484a2.35 2.35 0 0 0 1.147-.273l34.262-19.785c.331-.174.61-.431.811-.745a2.146 2.146 0 0 0-.637-2.944v-.004z" fill="#EFD16B"/>
            <path d="m156.82 173.537-8.458-4.881c-.634-.369-.634-.961 0-1.325l34.262-19.781a2.514 2.514 0 0 1 2.294 0l8.458 4.881c.633.368.633.96 0 1.325l-14.283 8.247-19.98 11.534a2.525 2.525 0 0 1-2.293 0z" fill="#FAFAFA"/>
            <path d="M183.771 147.686c.327-.006.65.069.94.219l8.458 4.886c.166.095.269.211.269.302s-.103.207-.269.302l-14.283 8.247-19.98 11.538a2.153 2.153 0 0 1-1.879 0l-8.458-4.885c-.166-.095-.269-.211-.269-.302s.103-.211.269-.307l34.262-19.781c.291-.15.614-.225.94-.219zm0-.414c-.4-.008-.795.088-1.147.277l-34.262 19.781c-.634.365-.634.957 0 1.325l8.458 4.881a2.535 2.535 0 0 0 2.293 0l19.98-11.534 14.283-8.247c.633-.364.633-.956 0-1.325l-8.458-4.881a2.327 2.327 0 0 0-1.147-.277z" fill="#EFD16B"/>
            <path d="m162.082 168.365-1.656-.708c-.103-.046-.169-.112-.178-.182l-.112-1.114c-.02-.174-.38-.29-.612-.195l-1.462.601a.563.563 0 0 1-.335 0l-1.871-.435c-.294-.066-.551.083-.435.253l.749 1.08a.125.125 0 0 1 .029.102.127.127 0 0 1-.058.089l-1.039.828c-.165.136.037.343.344.356l1.925.062a.566.566 0 0 1 .315.103l1.242.957c.194.149.579.132.645-.034l.443-1.039a.257.257 0 0 1 .095-.093.255.255 0 0 1 .129-.035l1.801-.257c.273-.008.306-.207.041-.339zm6.31-3.672-1.656-.708c-.104-.046-.17-.112-.178-.182l-.129-1.102c0-.174-.376-.294-.608-.198l-1.462.612a.597.597 0 0 1-.335 0l-1.871-.434c-.298-.067-.555.078-.414.252l.749 1.081c.012.014.02.03.025.047a.141.141 0 0 1 .004.054.133.133 0 0 1-.058.089l-1.039.828c-.166.133.037.344.339.352l1.925.066a.586.586 0 0 1 .319.104l1.242.956c.195.149.576.133.646-.033l.443-1.039a.27.27 0 0 1 .224-.133l1.796-.252c.269-.029.303-.249.038-.36zm6.317-3.673-1.656-.707a.276.276 0 0 1-.178-.183l-.116-1.113c0-.174-.376-.294-.608-.199l-1.462.604a.597.597 0 0 1-.335 0l-1.855-.418c-.298-.07-.554.079-.434.253l.749 1.076c.012.015.02.031.025.049a.146.146 0 0 1 .004.055.133.133 0 0 1-.02.051.121.121 0 0 1-.038.04l-1.043.828c-.162.132.037.343.343.352l1.925.066c.115 0 .226.037.319.103l1.242.953c.195.153.576.132.646-.029l.439-1.039a.276.276 0 0 1 .228-.133l1.796-.253c.249-.024.282-.244.029-.356zm12.619-7.348-1.656-.704c-.108-.045-.174-.116-.178-.186l-.116-1.11c0-.178-.381-.294-.613-.198l-1.461.6a.563.563 0 0 1-.335 0l-1.868-.414c-.298-.07-.554.079-.434.248l.749 1.081a.14.14 0 0 1 .027.103.142.142 0 0 1-.019.052.125.125 0 0 1-.037.039l-1.043.828c-.166.133.037.34.343.352l1.926.067a.558.558 0 0 1 .318.103l1.242.952c.195.153.576.133.646-.033l.439-1.039a.282.282 0 0 1 .228-.128l1.796-.253c.261-.025.299-.244.038-.36h.008zm-6.309 3.676-1.656-.708c-.108-.045-.174-.116-.178-.186l-.116-1.109c0-.179-.381-.294-.613-.199l-1.461.6a.567.567 0 0 1-.336.021l-1.867-.435c-.298-.07-.555.079-.435.253l.75 1.076a.15.15 0 0 1 .024.049.136.136 0 0 1-.053.146l-1.044.828c-.165.132.038.343.344.352l1.925.066a.561.561 0 0 1 .319.103l1.242.952c.195.154.575.133.646-.033l.439-1.035a.276.276 0 0 1 .227-.132l1.797-.253c.265-.025.298-.244.037-.356h.009z" fill="#EFD16B"/>
        </g>
    </g>
    <defs>
        <filter id="xq4qgi3rvb" x="5.344" y="8.75" width="195.029" height="194.298" filterUnits="userSpaceOnUse" color-interpolation-filters="sRGB">
            <feFlood flood-opacity="0" result="BackgroundImageFix"/>
            <feColorMatrix in="SourceAlpha" values="0 0 0 0 0 0 0 0 0 0 0 0 0 0 0 0 0 0 127 0" result="hardAlpha"/>
            <feOffset dy="8"/>
            <feGaussianBlur stdDeviation="6"/>
            <feComposite in2="hardAlpha" operator="out"/>
            <feColorMatrix values="0 0 0 0 0 0 0 0 0 0 0 0 0 0 0 0 0 0 0.16 0"/>
            <feBlend in2="BackgroundImageFix" result="effect1_dropShadow_808_6775"/>
            <feBlend in="SourceGraphic" in2="effect1_dropShadow_808_6775" result="shape"/>
        </filter>
        <filter id="pewha75nbc" x="5.941" y="150.162" width="85.661" height="61.529" filterUnits="userSpaceOnUse" color-interpolation-filters="sRGB">
            <feFlood flood-opacity="0" result="BackgroundImageFix"/>
            <feColorMatrix in="SourceAlpha" values="0 0 0 0 0 0 0 0 0 0 0 0 0 0 0 0 0 0 127 0" result="hardAlpha"/>
            <feOffset dy="8"/>
            <feGaussianBlur stdDeviation="6"/>
            <feComposite in2="hardAlpha" operator="out"/>
            <feColorMatrix values="0 0 0 0 0 0 0 0 0 0 0 0 0 0 0 0 0 0 0.16 0"/>
            <feBlend in2="BackgroundImageFix" result="effect1_dropShadow_808_6775"/>
            <feBlend in="SourceGraphic" in2="effect1_dropShadow_808_6775" result="shape"/>
        </filter>
        <filter id="0fk40f3vzd" x="-3.953" y="119.98" width="53.004" height="60.668" filterUnits="userSpaceOnUse" color-interpolation-filters="sRGB">
            <feFlood flood-opacity="0" result="BackgroundImageFix"/>
            <feColorMatrix in="SourceAlpha" values="0 0 0 0 0 0 0 0 0 0 0 0 0 0 0 0 0 0 127 0" result="hardAlpha"/>
            <feOffset dy="8"/>
            <feGaussianBlur stdDeviation="6"/>
            <feComposite in2="hardAlpha" operator="out"/>
            <feColorMatrix values="0 0 0 0 0 0 0 0 0 0 0 0 0 0 0 0 0 0 0.16 0"/>
            <feBlend in2="BackgroundImageFix" result="effect1_dropShadow_808_6775"/>
            <feBlend in="SourceGraphic" in2="effect1_dropShadow_808_6775" result="shape"/>
        </filter>
        <filter id="pvetgyigve" x="109.184" y="166.854" width="53.591" height="43.35" filterUnits="userSpaceOnUse" color-interpolation-filters="sRGB">
            <feFlood flood-opacity="0" result="BackgroundImageFix"/>
            <feColorMatrix in="SourceAlpha" values="0 0 0 0 0 0 0 0 0 0 0 0 0 0 0 0 0 0 127 0" result="hardAlpha"/>
            <feOffset dy="8"/>
            <feGaussianBlur stdDeviation="6"/>
            <feComposite in2="hardAlpha" operator="out"/>
            <feColorMatrix values="0 0 0 0 0 0 0 0 0 0 0 0 0 0 0 0 0 0 0.16 0"/>
            <feBlend in2="BackgroundImageFix" result="effect1_dropShadow_808_6775"/>
            <feBlend in="SourceGraphic" in2="effect1_dropShadow_808_6775" result="shape"/>
        </filter>
        <filter id="bwjtr2t4kh" x="135.217" y="143.271" width="71.306" height="53.027" filterUnits="userSpaceOnUse" color-interpolation-filters="sRGB">
            <feFlood flood-opacity="0" result="BackgroundImageFix"/>
            <feColorMatrix in="SourceAlpha" values="0 0 0 0 0 0 0 0 0 0 0 0 0 0 0 0 0 0 127 0" result="hardAlpha"/>
            <feOffset dy="8"/>
            <feGaussianBlur stdDeviation="6"/>
            <feComposite in2="hardAlpha" operator="out"/>
            <feColorMatrix values="0 0 0 0 0 0 0 0 0 0 0 0 0 0 0 0 0 0 0.16 0"/>
            <feBlend in2="BackgroundImageFix" result="effect1_dropShadow_808_6775"/>
            <feBlend in="SourceGraphic" in2="effect1_dropShadow_808_6775" result="shape"/>
        </filter>
        <linearGradient id="vpnhgab6zf" x1="123.258" y1="184.576" x2="148.493" y2="184.85" gradientUnits="userSpaceOnUse">
            <stop stop-color="#FF4C35"/>
            <stop offset=".182" stop-color="#FE9B05"/>
            <stop offset=".365" stop-color="#FBC600"/>
            <stop offset=".594" stop-color="#72C63D"/>
            <stop offset=".781" stop-color="#665DFB"/>
            <stop offset="1" stop-color="#C92CE5"/>
        </linearGradient>
        <linearGradient id="348g3ug2sg" x1="123.266" y1="182.959" x2="148.506" y2="183.269" gradientUnits="userSpaceOnUse">
            <stop stop-color="#FF4C35"/>
            <stop offset=".182" stop-color="#FE9B05"/>
            <stop offset=".365" stop-color="#FBC600"/>
            <stop offset=".594" stop-color="#72C63D"/>
            <stop offset=".781" stop-color="#665DFB"/>
            <stop offset="1" stop-color="#C92CE5"/>
        </linearGradient>
        <clipPath id="vsxd0uzcfa">
            <path fill="#fff" d="M0 0h207v207H0z"/>
        </clipPath>
    </defs>
</svg>
