<svg width="108" height="106" viewBox="0 0 108 106" fill="none" xmlns="http://www.w3.org/2000/svg">
    <g clip-path="url(#hye4k2uq1a)">
        <path d="M84.169 98.624c-7.73-2.77-11.178-10.013-12.65-16.84-.243-1.138-.692-2.302-.329-3.415.364-1.113 1.638-2.069 2.928-1.819 1.067.212 1.738 1.105 2.487 1.809.998.938 2.281 1.611 3.701 1.944.925.212 2.008.243 2.726-.308.976-.755.773-2.12.476-3.252l-1.655-6.28c-.297-1.123-.595-2.272-.466-3.417.13-1.145.766-2.308 1.92-2.847 1.155-.538 2.836-.212 3.377.835.227.44.245.935.396 1.395.151.46.539.927 1.083.959.544.031.976-.386 1.288-.791 1.047-1.393 1.58-3.032 2.053-4.651.473-1.62.917-3.267 1.812-4.74.896-1.474 2.32-2.78 4.148-3.23 1.828-.449 4.061.164 4.934 1.654.874 1.49.225 3.31-.605 4.817a25.887 25.887 0 0 1-4.74 6.148c-.345.33-.718.687-.767 1.134-.09.803.92 1.39 1.835 1.473 1.037.091 2.062-.197 3.096-.29 1.035-.093 2.23.085 2.823.848.825 1.047.027 2.465-.859 3.466-1.777 2.001-3.937 3.722-6.385 5.088-.876.488-1.81.948-2.44 1.677-.63.73-.822 1.83-.156 2.533.666.704 1.922.725 2.879.373.956-.351 1.73-.998 2.601-1.484 1.63-.928 3.953-1.272 5.436-.15.976.733 1.352 1.944 1.242 3.063-.11 1.12-.649 2.171-1.251 3.161-2.106 3.458-5.159 6.502-8.968 8.544-3.808 2.041-7.546 3.116-11.98 2.607" fill="url(#ep6587sddb)"/>
        <path d="M85.084 93.988c.27-3.642.952-7.61 1.825-11.743l.661-3.055c.22-1.002.437-1.997.718-2.968a46.971 46.971 0 0 1 1.986-5.442 113.742 113.742 0 0 1 2.213-4.785 67.513 67.513 0 0 1 2.147-4.087 40.276 40.276 0 0 1 3.833-5.573c.51-.626.925-1.099 1.22-1.417.14-.15.244-.269.327-.36a.9.9 0 0 1 .12-.117.886.886 0 0 1-.098.132c-.078.091-.18.212-.31.37-.27.327-.673.809-1.17 1.44a42.278 42.278 0 0 0-3.758 5.593c-.696 1.23-1.394 2.603-2.113 4.09a116.729 116.729 0 0 0-2.196 4.784 47.687 47.687 0 0 0-1.965 5.425c-.278.956-.488 1.942-.712 2.947-.225 1.005-.434 2.025-.659 3.055-.873 4.128-1.557 8.088-1.84 11.717" fill="#E0E0E0"/>
        <path d="M88.363 76.209a2.255 2.255 0 0 1-.244-.456 31.904 31.904 0 0 1-.578-1.272c-.47-1.085-1.059-2.601-1.708-4.276-.649-1.675-1.257-3.18-1.745-4.257-.244-.538-.441-.97-.585-1.272a2.155 2.155 0 0 1-.198-.475c.112.138.207.286.283.441.171.288.396.715.659 1.247.532 1.06 1.174 2.57 1.815 4.24.642 1.67 1.2 3.15 1.635 4.293.203.515.371.95.508 1.297.074.158.127.322.158.49zM104.316 70.29a3.942 3.942 0 0 1-.647.198c-.417.115-1.024.28-1.766.503a88.685 88.685 0 0 0-5.722 1.927 94.86 94.86 0 0 0-5.556 2.272c-.7.312-1.259.575-1.647.757-.195.105-.4.193-.615.263.178-.126.368-.24.569-.337a35.9 35.9 0 0 1 1.613-.816c1.378-.666 3.33-1.51 5.538-2.332a66.248 66.248 0 0 1 5.766-1.874 27.802 27.802 0 0 1 1.796-.439c.219-.058.444-.099.671-.123zM85.23 93.683s-.06-.049-.16-.155l-.418-.46a64.666 64.666 0 0 1-1.48-1.761c-1.22-1.501-2.848-3.621-4.598-5.983-1.75-2.362-3.347-4.492-4.538-6.012l-1.415-1.8-.381-.492a.647.647 0 0 1-.12-.18c.06.046.113.098.159.155l.42.468a61.28 61.28 0 0 1 1.478 1.762c1.22 1.5 2.848 3.62 4.6 5.983 1.752 2.361 3.347 4.492 4.536 6.014.583.738 1.061 1.346 1.415 1.798.154.195.278.358.383.492.049.052.09.11.12.171zM105.761 83.21a.847.847 0 0 1-.198.122l-.595.311-2.196 1.126c-1.855.95-4.392 2.288-7.21 3.77-2.819 1.481-5.369 2.8-7.252 3.716-.94.46-1.708.825-2.238 1.06l-.617.276c-.07.036-.144.064-.222.084 0 0 .063-.049.198-.123l.595-.31 2.196-1.125c1.854-.95 4.392-2.287 7.21-3.77 2.818-1.481 5.368-2.8 7.252-3.718a84.817 84.817 0 0 1 2.237-1.06l.618-.278c.07-.034.144-.061.222-.08z" fill="#E0E0E0"/>
        <path d="M72.652 22.26c.22.094.43.206.625.335.376.212.888.53 1.442.886.554.356 1.047.693 1.396.945.195.125.376.268.539.424a3.708 3.708 0 0 1-.605-.36l-1.416-.914-1.417-.916a3.486 3.486 0 0 1-.564-.4zM109.604 22.31c.024.03-.852.622-1.952 1.323-1.101.702-2.021 1.247-2.045 1.217a20.95 20.95 0 0 1 1.952-1.32c.653-.441 1.336-.848 2.045-1.22zM105.456 43.772a26.559 26.559 0 0 1 2.122 1.579 25.896 25.896 0 0 1 2.026 1.673c-.027.027-.976-.681-2.123-1.578-1.147-.896-2.055-1.65-2.025-1.674zM72.652 47.024a23.591 23.591 0 0 1 1.93-1.6 24.545 24.545 0 0 1 2.03-1.506 23.632 23.632 0 0 1-1.93 1.6c-1.095.86-2.003 1.533-2.03 1.506zM98.111 34.132a2.952 2.952 0 0 1-.982 1.543 3.7 3.7 0 0 1-1.803.808c-.68.108-1.381.04-2.016-.199a3.415 3.415 0 0 1-1.549-1.138 2.752 2.752 0 0 1-.56-1.694c.01-.6.225-1.185.617-1.68a3.455 3.455 0 0 1 1.588-1.097 3.99 3.99 0 0 1 2.021-.147c.906.17 1.698.644 2.201 1.32.503.675.677 1.497.483 2.284z" fill="#EFD16B"/>
        <path d="M93.558 36.393c-.036-.015.112-.328.305-.848.266-.654.375-1.349.32-2.041-.08-.685-.444-1.32-1.023-1.79-.453-.352-.846-.424-.83-.466.018-.042.428 0 .953.337.33.232.603.52.803.844.2.325.325.682.365 1.05a3.972 3.972 0 0 1-.407 2.12c-.244.52-.454.807-.486.794z" fill="#EFD16B"/>
        <path d="M98.067 33.142c-.014.067-.942-.223-2.03.059-1.088.282-1.69.956-1.747.905-.027-.017.08-.212.356-.456.366-.317.817-.55 1.313-.676a3.57 3.57 0 0 1 1.528-.049c.383.077.592.189.58.217z" fill="#EFD16B"/>
        <path d="M96.491 32.987c-.044 0-.024-.212-.151-.511a1.337 1.337 0 0 0-.351-.518 1.6 1.6 0 0 0-.573-.336 1.785 1.785 0 0 0-1.346.084c-.324.147-.473.312-.507.289-.034-.024.07-.227.41-.424.222-.135.479-.22.748-.248.269-.028.542.002.794.087.253.086.477.224.653.403.176.179.299.393.357.623.09.341-.007.557-.034.55z" fill="#EFD16B"/>
        <path d="M95.376 33.308c-.076-.015-.022-.424-.161-.916-.14-.492-.395-.836-.334-.88.06-.045.451.276.6.825.149.549-.037.992-.105.97z" fill="#EFD16B"/>
        <path d="M95.344 32.354c0 .07-.302.085-.593.212-.29.127-.532.312-.588.259-.056-.053.098-.289.464-.469s.734-.057.717-.002zM89.754 33.778c.402.293.695.683.842 1.12.147.438.141.904-.016 1.339-.158.435-.46.819-.87 1.104-.41.285-.907.459-1.43.498a2.99 2.99 0 0 1-1.507-.276 2.495 2.495 0 0 1-1.077-.958 2.047 2.047 0 0 1-.282-1.315c.058-.453.27-.882.607-1.23.452-.468 1.1-.76 1.8-.813.7-.053 1.395.138 1.933.53z" fill="#EFD16B"/>
        <path d="M89.866 37.229a4.02 4.02 0 0 1-.539-.475 4.43 4.43 0 0 0-1.464-.914 2.821 2.821 0 0 0-1.745-.044c-.228.09-.447.195-.656.316.137-.199.35-.349.6-.424a2.743 2.743 0 0 1 1.877 0 3.89 3.89 0 0 1 1.49.994c.182.159.33.344.437.547z" fill="#EFD16B"/>
        <path d="M88.97 33.447c.047.034-.507.469-.677 1.205-.171.735.131 1.322.073 1.337-.022.01-.132-.12-.222-.368a1.78 1.78 0 0 1-.053-1.005 1.94 1.94 0 0 1 .507-.904c.195-.199.356-.282.373-.265z" fill="#EFD16B"/>
        <path d="M88.288 34.31c-.017.025-.173-.062-.447-.096a1.471 1.471 0 0 0-.515.03c-.168.04-.325.109-.46.203a1.12 1.12 0 0 0-.307.369.981.981 0 0 0-.108.445c0 .24.07.386.039.399-.032.012-.15-.123-.186-.393a.954.954 0 0 1 .075-.523c.075-.167.195-.315.351-.431a1.33 1.33 0 0 1 .543-.236c.2-.04.41-.034.607.014.293.072.425.203.408.218z" fill="#EFD16B"/>
        <path d="M88.139 35.075c-.04.038-.342-.143-.764-.234-.422-.09-.785-.068-.795-.119-.01-.05.37-.165.847-.055.475.11.751.376.712.407z" fill="#EFD16B"/>
        <path d="M87.395 34.751c.05.028-.044.212-.047.424-.002.212.052.424 0 .437-.051.013-.188-.161-.195-.439-.007-.278.203-.451.242-.422z" fill="#EFD16B"/>
        <path d="M89.869 32.986c-.937-.532-1.513-1.484-1.886-2.393a3.942 3.942 0 0 1-.042-2.863c.516.203.982.491 1.369.85.387.36.688.782.886 1.243.39.92.16 2.277-.327 3.163z" fill="#BA9E3A"/>
        <path d="M88.778 29.234c.416 1.19.751 2.401 1.005 3.626z" fill="#FFEFB7"/>
        <path d="M89.783 32.86a2.4 2.4 0 0 1-.168-.526c-.1-.377-.217-.806-.346-1.272l-.364-1.272a2.287 2.287 0 0 1-.127-.534c.1.16.177.333.227.51.12.32.268.77.407 1.273.14.502.244.958.305 1.29.048.174.07.352.066.53z" fill="#EFD16B"/>
        <path d="M92.24 37.12c1.094-.213 2.27.114 3.28.531 1.016.426 1.844 1.128 2.36 2a4.876 4.876 0 0 1-3.297-.096c-1.025-.411-1.967-1.511-2.343-2.436z" fill="#BA9E3A"/>
        <path d="M96.064 39.102a38.93 38.93 0 0 1-3.66-1.942z" fill="#FFEFB7"/>
        <path d="M92.404 37.16c.194.073.377.163.55.27l1.285.693 1.296.678c.187.083.363.184.524.301a2.808 2.808 0 0 1-.576-.212 22.554 22.554 0 0 1-2.589-1.374c-.18-.1-.345-.22-.49-.356z" fill="#EFD16B"/>
        <path d="M91.184 37.57c.203.554.056 1.181-.173 1.726-.228.55-.657 1.02-1.22 1.338a1.956 1.956 0 0 1-.127-1.709c.22-.555.92-1.107 1.53-1.355" fill="#BA9E3A"/>
        <path d="M90.044 39.664c.328-.686.7-1.355 1.115-2.004z" fill="#FFEFB7"/>
        <path d="M91.16 37.66c.036.02-.218.464-.525 1.016-.308.55-.552 1.002-.59.988.095-.365.25-.716.458-1.044.166-.344.388-.668.656-.96z" fill="#EFD16B"/>
        <path d="M3.19 57.254s-2.684.653-.329 5.654c2.355 5 4.06 7.52 4.06 7.52s.39 1.148-.705 1.242c-1.096.093-3.436-.412-4.03.697-.616 1.153.268 2.347 2.195 3.481 1.928 1.134 6.017 3.75 6.386 3.988.368.237.695.78-.037.947-.732.168-6.132.255-5.922 2.474.21 2.22 6.142 4.611 6.786 4.876.644.265.778.53.693.848-.086.318-1.899.193-3.43.274-1.533.08-3.29.405-3.05 1.675.238 1.27 3.613 4.157 12.358 5.563l4.101.424 2.536-2.854c4.997-6.392 5.009-10.505 4.135-11.546-.873-1.04-2.374-.184-3.516.707-1.142.89-2.32 2.094-2.635 1.927-.315-.168-.432-.424-.203-1.022.23-.598 2.44-5.936.772-7.632-1.67-1.696-5.534 1.581-6.188 1.918-.654.337-.864-.254-.8-.636.063-.381.802-4.767 1.22-6.75.417-1.982.063-3.366-1.313-3.797-1.325-.413-2.558 1.389-3.416 2-.86.61-1.513-.437-1.513-.437s-.854-2.832-3.301-7.796c-2.448-4.962-4.912-3.73-4.912-3.73" fill="url(#o4piypj05c)"/>
        <path d="M21.754 96.303c-1.782-3.65-4.195-8.713-6.832-14.314a2277.903 2277.903 0 0 0-6.796-14.325L6.028 63.33l-.566-1.178-.144-.308a1.309 1.309 0 0 1-.044-.106s.022.034.056.102l.159.303.588 1.168c.512 1.018 1.24 2.493 2.13 4.319 1.781 3.65 4.192 8.713 6.832 14.312 2.64 5.599 5.04 10.668 6.798 14.329M5.428 73.191c.098.019.194.049.283.09.175.063.43.163.732.288.622.25 1.464.617 2.398 1.036l2.38 1.08.72.326c.09.034.178.078.258.13a1.31 1.31 0 0 1-.28-.088 14.423 14.423 0 0 1-.733-.29 79.446 79.446 0 0 1-2.391-1.06l-2.377-1.07-.732-.323a1.228 1.228 0 0 1-.258-.119zM12.504 75.94c-.037-.014.756-1.57 1.769-3.471 1.012-1.902 1.861-3.435 1.898-3.422.037.013-.756 1.569-1.771 3.472-1.016 1.904-1.862 3.435-1.896 3.42z" fill="#E0E0E0"/>
        <path d="M16.115 84.696c.053-.077.115-.148.185-.212l.545-.533a64.92 64.92 0 0 0 1.752-1.82 66.55 66.55 0 0 0 1.661-1.883l.488-.579c.056-.077.121-.148.195-.212-.038.082-.088.16-.148.231-.105.144-.26.352-.457.602a36.848 36.848 0 0 1-1.632 1.908 30.6 30.6 0 0 1-1.791 1.8c-.244.212-.437.4-.576.52-.065.067-.14.126-.222.178zM9.085 83.434c.095-.003.189.005.28.024.181.02.44.059.757.106.64.097 1.518.237 2.487.4.968.163 1.844.316 2.479.435l.746.144c.094.014.184.037.271.07a1.25 1.25 0 0 1-.28-.021c-.181-.023-.44-.06-.757-.108a164.203 164.203 0 0 1-4.963-.834c-.317-.059-.573-.11-.749-.146a1.341 1.341 0 0 1-.27-.07zM11.152 91.52c.12 0 .24.012.359.034l.976.133a255.323 255.323 0 0 1 6.363 1.016l.962.173c.119.017.236.044.349.08-.121 0-.241-.011-.36-.033l-.975-.134c-.82-.118-1.952-.292-3.192-.491-1.24-.2-2.369-.384-3.172-.526l-.961-.172a1.995 1.995 0 0 1-.349-.08zM19.95 92.869c.072-.097.153-.188.245-.272.17-.186.392-.423.659-.71.556-.602 1.322-1.433 2.14-2.372.817-.94 1.532-1.802 2.047-2.432l.607-.744c.07-.095.152-.184.244-.265a1.86 1.86 0 0 1-.193.293c-.131.182-.324.445-.573.767a51.923 51.923 0 0 1-2.016 2.455 55.15 55.15 0 0 1-2.176 2.353c-.288.293-.525.528-.693.687a2.083 2.083 0 0 1-.29.24z" fill="#E0E0E0"/>
        <path d="M9.398 36.984c-.112.142-.241.272-.386.388-.244.23-.598.537-.99.874a43.5 43.5 0 0 1-1.018.848 2.59 2.59 0 0 1-.452.326c.11-.142.238-.273.384-.388.244-.226.597-.536.993-.873.395-.337.754-.636 1.02-.848.134-.124.284-.234.449-.327zM24.984 36.947c.163.097.313.21.447.335.263.212.617.52 1.005.86.388.342.732.654.976.885.143.118.269.25.376.392a2.472 2.472 0 0 1-.447-.333 37.421 37.421 0 0 1-1.005-.862 37.844 37.844 0 0 1-.976-.887 2.224 2.224 0 0 1-.376-.39zM24.94 22.809c.111-.142.24-.272.386-.388.244-.229.598-.538.99-.873.393-.335.752-.636 1.018-.848a2.36 2.36 0 0 1 .451-.327c-.11.14-.238.27-.383.386-.244.229-.6.538-.993.875-.392.337-.754.636-1.02.848a2.388 2.388 0 0 1-.449.327zM9.354 22.843a2.476 2.476 0 0 1-.447-.333c-.263-.212-.62-.522-1.005-.86-.386-.34-.732-.656-.976-.887a2.316 2.316 0 0 1-.376-.39c.166.095.319.206.454.333.263.212.62.52 1.008.863.388.343.732.655.976.886.138.117.261.247.366.388zM43.297 23.035c-.111.143-.24.273-.386.39-.244.227-.598.537-.99.872-.393.334-.752.636-1.018.848a2.489 2.489 0 0 1-.452.326c.11-.142.239-.272.383-.388.244-.229.6-.538.994-.873.392-.335.753-.636 1.02-.848.133-.124.284-.234.449-.327zM58.883 23.002c.164.096.313.209.447.335.263.212.62.52 1.005.86.386.342.732.654.976.885.143.116.269.248.373.392a2.63 2.63 0 0 1-.444-.333c-.263-.212-.62-.521-1.007-.863a37.844 37.844 0 0 1-.976-.886 2.22 2.22 0 0 1-.374-.39zM58.842 8.863c.108-.14.235-.27.378-.383.244-.23.6-.539.99-.874.391-.335.755-.636 1.02-.848.134-.124.285-.234.45-.326a2.167 2.167 0 0 1-.381.385c-.244.23-.6.539-.993.876-.393.337-.757.636-1.023.848-.131.123-.28.23-.441.322zM43.255 8.903a2.436 2.436 0 0 1-.449-.332 37.183 37.183 0 0 1-1.003-.861 38.05 38.05 0 0 1-.976-.886 2.443 2.443 0 0 1-.376-.39c.165.093.315.204.447.33a48.045 48.045 0 0 1 1.981 1.749c.143.117.27.248.376.39z" fill="#EFD16B"/>
        <path d="M55.572 15.077a2.114 2.114 0 0 0-.634-1.234 2.562 2.562 0 0 0-1.276-.717 2.285 2.285 0 0 0-1.28.096 1.928 1.928 0 0 0-.95.752 1.834 1.834 0 0 0-.584-.572 2.197 2.197 0 0 0-.744-.287 2.338 2.338 0 0 0-.815-.01c-.508.1-.967.335-1.313.674-.367.332-.61.754-.692 1.209a2.42 2.42 0 0 0 .349 1.696 4.25 4.25 0 0 0 1.502 1.272c.989.542 2.292 1.223 2.292 1.223s1.134-.704 2.15-1.208a4.291 4.291 0 0 0 1.563-1.224 2.446 2.446 0 0 0 .432-1.67z" fill="#BA9E3A"/>
        <path d="m51.05 59.288-1.599-.034 1.25 7.54c12.09.213 24.124-5.227 30.84-13.966l-30.492 6.46z" fill="#EB996E"/>
        <path d="M39.166 60.57c.67 0 12.769-1.933 12.769-1.933l2.286 9.516-11.58 6.71-3.474-14.293z" fill="#FF725E"/>
        <path d="M39.166 60.57c.67 0 12.769-1.933 12.769-1.933l2.286 9.516-11.58 6.71-3.474-14.293z" fill="#000" opacity=".3"/>
        <path d="M60.978 60.173s-9.121 1.246-11.785 4.363c-2.665 3.116-5.227 3.829-3.997 11.397 0 0 11.068 3.294 11.068 3.561 0 .268 2.196 26.214 2.196 26.214h30.426L86.69 74.775l10.141-5.99S92.576 55.51 83.335 56.171c-13.57.973-22.357 4-22.357 4z" fill="#455A64"/>
        <path d="M76.95 89.856a.436.436 0 0 1-.04.118l-.138.333c-.061.146-.14.322-.244.522-.105.199-.208.424-.35.678-.14.254-.287.52-.468.803-.18.284-.38.583-.593.897a20.193 20.193 0 0 1-1.576 1.934 21.566 21.566 0 0 1-1.85 1.742c-.307.248-.597.486-.885.691-.288.206-.554.399-.808.566-.254.168-.488.312-.69.44a9.565 9.565 0 0 1-.535.31l-.346.19a.737.737 0 0 1-.125.059s.035-.03.11-.078l.332-.213c.147-.086.325-.195.525-.328.2-.134.432-.274.676-.45.244-.175.515-.358.793-.574.278-.216.568-.447.873-.695.647-.55 1.259-1.13 1.833-1.739a21.277 21.277 0 0 0 1.573-1.918c.215-.31.425-.603.6-.887l.489-.792c.148-.244.258-.473.366-.67.107-.198.19-.37.258-.511.069-.142.117-.24.161-.327a.392.392 0 0 1 .059-.101zM77.804 86.484c-.066.103-.142.201-.227.293-.151.186-.38.45-.671.77a32.242 32.242 0 0 1-5.146 4.526c-.364.256-.664.458-.876.593-.105.075-.217.141-.334.2.094-.086.196-.164.305-.234.202-.144.488-.356.849-.619a40.969 40.969 0 0 0 2.684-2.16 40.411 40.411 0 0 0 2.452-2.355c.3-.314.54-.568.703-.747a2.23 2.23 0 0 1 .26-.267zM50.049 34.195c-.388-.373-1.105.065-1.296.54-.19.475-.244 1.06-.732 1.332-.649.345-1.754-.075-2.113.51-.276.45.271.978.193 1.485-.142.9-1.913.848-2.313 1.68-.244.501.139 1.046.43 1.525.29.48.465 1.16-.03 1.484-.495.324-1.313.072-1.708.48-.522.542.449 1.305.349 2.009-.073.515-.693.82-1.26.984-.565.163-1.207.299-1.546.727-.747.947.656 2.181.44 3.315-.133.685-.86 1.317-.594 1.972.34.848 1.952.812 2.289 1.651.28.713-.578 1.633.02 2.18.597.547 1.664-.11 2.44.182.892.34.895 1.724 1.861 1.84.43.051.842-.212 1.276-.19 1.052.04 1.516 1.575 2.557 1.422.608-.089 1.016-.765 1.626-.687.61.079.775.79 1.312 1.026.84.37 1.645-.62 2.574-.74.581-.076 1.184.212 1.745.06.561-.153.866-.636.927-1.12.02-.487-.05-.974-.207-1.441a12.536 12.536 0 0 1 .61-7.9" fill="#263238"/>
        <path d="m56.383 62.386-.405-4.174s-4.836-.186-6.564-5.459c-.86-2.62-1.322-7.02-1.551-10.63-.244-3.983 4.201-8.592 7.947-8.64l11.402 2.431.2 1.739 2.467 23.71c.16 1.542-.385 3.077-1.518 4.272-1.133 1.196-2.763 1.955-4.536 2.113-.895.08-1.8.004-2.661-.223a7.15 7.15 0 0 1-2.355-1.101 6.128 6.128 0 0 1-1.68-1.807 5.321 5.321 0 0 1-.746-2.23z" fill="#936754"/>
        <path d="M49.56 45.844c.11.079.657-.37 1.511-.458.854-.087 1.532.212 1.613.117.04-.044-.083-.197-.38-.34-.4-.185-.856-.26-1.306-.211a2.25 2.25 0 0 0-1.188.477c-.237.207-.303.38-.25.415zM57.469 44.649c.11.08.659-.37 1.513-.456.854-.087 1.53.212 1.61.117.04-.045-.083-.198-.38-.342a2.482 2.482 0 0 0-1.304-.212c-.444.045-.86.213-1.188.477-.239.21-.305.382-.251.416zM55.349 49.375c0-.043-.545-.068-1.418-.072-.22 0-.432-.013-.488-.138a.849.849 0 0 1 .068-.577c.14-.481.288-.983.444-1.511.61-2.146 1.023-3.903.923-3.924-.1-.022-.674 1.696-1.284 3.852l-.417 1.515c-.051.223-.161.482 0 .755a.515.515 0 0 0 .167.16.608.608 0 0 0 .23.08c.125.013.252.013.376 0 .871-.045 1.4-.098 1.398-.14z" fill="#263238"/>
        <path d="M55.978 58.214c2.918-.267 5.694-1.233 8.018-2.788 0 0-1.63 3.945-7.891 4.091l-.127-1.303zM55.959 51.123c.138-.194.33-.354.56-.465.23-.112.487-.17.75-.171.19-.006.38.023.557.083.178.06.34.15.475.267.132.111.22.255.255.412a.686.686 0 0 1-.065.465c-.19.306-.663.425-1.085.363a3.52 3.52 0 0 1-1.17-.452 1.007 1.007 0 0 1-.275-.193.226.226 0 0 1-.037-.278" fill="#7C5142"/>
        <path d="M57.932 49.626c-.139 0-.029.812-.744 1.467s-1.708.667-1.708.782c0 .05.244.133.66.1a2.48 2.48 0 0 0 1.429-.609c.363-.329.565-.767.564-1.223-.008-.341-.14-.53-.2-.517zM57.059 40.666c.112.193.952 0 1.967 0 1.015 0 1.859.153 1.966-.043.05-.093-.12-.267-.473-.424a3.854 3.854 0 0 0-1.502-.286 3.84 3.84 0 0 0-1.494.314c-.352.168-.506.346-.464.439zM49.288 42.112c.173.153.732-.084 1.444-.167s1.32-.023 1.435-.212c.049-.091-.069-.25-.354-.382a2.267 2.267 0 0 0-1.22-.154c-.414.05-.8.211-1.105.46-.22.197-.279.38-.2.455zM50.43 34.996c0 .062.227.094.488.07.26-.023.468-.093.46-.154-.007-.062-.226-.094-.487-.07-.261.023-.461.089-.461.154z" fill="#263238"/>
        <path d="M50.961 36.002c-1.92-2.616 1.438-5.243 3.082-6.148 1.645-.905 3.809-1.151 5.578-.443.808.322 1.54.833 2.418.945 2.028.257 3.953-1.696 5.88-1.09 1.589.495 2.077 2.44 3.66 2.924.769.233 1.608.062 2.42.066.813.004 1.765.3 1.953.988.207.765-.637 1.666-.085 2.287.68.766 2.317-.148 3.147.494.776.6.112 2.014 1.025 2.447.666.318 1.666-.225 2.196.256.53.481-.276 1.297-.288 2.003-.012.706.832 1.205 1.55 1.582.717.377 1.493 1.007 1.254 1.696-.279.801-1.723 1-1.88 1.828-.155.826 1.233 1.653.733 2.401-.33.5-1.22.446-1.672.872-.732.71-2.703 2.05-3 2.968-.408 1.272.209.75-.594 1.872-.446.62-.263 1.569-.949 1.995-.686.426-1.708-.064-2.552.101-1.381.267-2.023 2.186-3.416 1.949-.71-.123-1.306-.831-1.989-.62-.588.185-.732.955-1.342 1.094-.817.187-1.173-.848-1.74-1.392-.753-.727-2.21-.636-2.927-1.402-.64-.684-.357-1.696.036-2.508.393-.812.874-1.696.54-2.533-.384-.946-1.77-1.67-1.428-2.629.376-1.047 2.542-1.134 2.564-2.232.022-1.035-2.02-1.438-1.915-2.47.07-.693 1.11-1.06 1.232-1.745.142-.799-1.02-1.365-1.1-2.17-.051-.516.351-.97.622-1.43.27-.46.37-1.119-.12-1.411-.783-.467-1.752.598-2.684.445-.651-.108-.959-.74-1.246-1.26 0 0-1.933-2.052-4.88-1.469-2.948.583-4.083 1.739-4.083 1.739z" fill="#263238"/>
        <path d="M50.8 35.01c-.534.578-.134 1.596.696 1.768.773.16 1.513-.316 2.125-.755.612-.439 1.384-.895 2.142-.691 1.394.375 1.264 2.504 2.67 2.845.576.138 1.169-.104 1.737-.265.569-.161 1.293-.212 1.669.195.505.543.027 1.526.666 1.946.268.176.652.18.898.377.395.316.18.904-.173 1.258-.354.354-.837.636-.976 1.1-.222.719.532 1.378 1.266 1.764.735.386 1.608.763 1.842 1.484.379 1.157-1.168 2.442-.47 3.48.392.586 1.373.711 2.074.41.7-.301 1.156-.91 1.464-1.533 1.251-2.559.475-5.486-.367-8.168-.551-1.758-1.163-3.572-2.54-4.944-1.43-1.425-3.533-2.21-5.648-2.648-1.618-.337-3.319-.494-4.939-.172-1.62.323-3.155 1.181-3.904 2.472" fill="#263238"/>
        <path d="M71.49 57.843a.34.34 0 0 0 .114.044.494.494 0 0 0 .364-.066.749.749 0 0 0 .334-.438.586.586 0 0 0 0-.344.872.872 0 0 0-.222-.34 2.638 2.638 0 0 0-.867-.495 3.213 3.213 0 0 1-1.01-.537.819.819 0 0 1-.288-.479.78.78 0 0 1 .178-.55 5.36 5.36 0 0 1 .489-.503c.198-.172.353-.378.456-.605a.69.69 0 0 0 .029-.396.75.75 0 0 0-.197-.358 2.155 2.155 0 0 0-.762-.437c-.276-.108-.564-.2-.827-.324a1.063 1.063 0 0 1-.588-.543.685.685 0 0 1-.003-.384.758.758 0 0 1 .208-.339c.215-.224.446-.436.69-.636a2.14 2.14 0 0 0 .606-.765.968.968 0 0 0 .04-.502 1.032 1.032 0 0 0-.221-.465 2.802 2.802 0 0 0-.827-.678c-.32-.185-.654-.327-.957-.516a2.012 2.012 0 0 1-.732-.686.923.923 0 0 1 .032-.906c.181-.3.395-.584.64-.848.272-.284.46-.623.546-.986a.991.991 0 0 0-.12-.574 1.334 1.334 0 0 0-.436-.424 6.942 6.942 0 0 0-1.128-.511 2.05 2.05 0 0 1-.932-.604.88.88 0 0 1-.137-.469.88.88 0 0 1 .137-.468c.176-.311.385-.608.625-.884.241-.298.397-.64.456-1a.904.904 0 0 0-.117-.552 1.051 1.051 0 0 0-.461-.39 2.828 2.828 0 0 0-1.184-.134c-.366.03-.735.023-1.1-.02a1.042 1.042 0 0 1-.457-.165.86.86 0 0 1-.302-.34c-.136-.27-.166-.588-.295-.89a1.116 1.116 0 0 0-.292-.417 1.33 1.33 0 0 0-.467-.27c-.693-.245-1.405-.094-2.025-.024-.306.04-.617.04-.922 0a2.46 2.46 0 0 1-.813-.286c-.463-.29-.901-.607-1.313-.95a3.8 3.8 0 0 0-1.359-.712 3.388 3.388 0 0 0-1.415-.051c-.374.064-.73.195-1.042.385a2.55 2.55 0 0 0-.773.72c-.253.354-.398.759-.42 1.176-.01.142.003.285.037.424.012 0-.015-.149 0-.424.04-.406.195-.796.449-1.139.195-.269.453-.5.757-.678.303-.179.646-.3 1.007-.358.449-.074.912-.051 1.35.066.484.145.926.383 1.292.695.414.352.857.678 1.325.975.266.153.563.258.876.312.324.043.653.043.976 0 .64-.07 1.313-.2 1.925.02.15.052.286.13.398.232a.94.94 0 0 1 .247.356c.114.274.141.592.292.903.08.162.204.303.363.41.16.108.348.178.547.205.382.047.768.056 1.152.026a2.64 2.64 0 0 1 1.076.118c.153.07.28.176.364.308a.71.71 0 0 1 .09.443c-.056.327-.201.639-.422.91a5.577 5.577 0 0 0-.644.913 1.346 1.346 0 0 0-.154.553.99.99 0 0 0 .176.564c.26.31.62.548 1.034.683a6.8 6.8 0 0 1 1.086.49c.153.096.28.22.37.364a.833.833 0 0 1 .096.462 1.962 1.962 0 0 1-.503.893 5.246 5.246 0 0 0-.66.888 1.1 1.1 0 0 0-.027 1.06c.192.31.472.57.814.759.318.197.662.343.962.515.302.167.564.383.77.636a.866.866 0 0 1 .19.389.808.808 0 0 1-.028.421c-.126.27-.318.511-.564.708-.251.203-.486.42-.705.65a.92.92 0 0 0-.24.413.839.839 0 0 0 .01.461c.123.282.369.51.684.636.283.132.573.212.844.325.263.085.502.219.7.392.084.083.141.184.166.292a.556.556 0 0 1-.022.325c-.168.424-.634.704-.9 1.081a.79.79 0 0 0-.196.612.84.84 0 0 0 .335.565c.31.239.669.423 1.059.544.313.103.6.26.842.46a.648.648 0 0 1 .205.284.57.57 0 0 1 .017.336.72.72 0 0 1-.296.424.478.478 0 0 1-.332.078c-.082-.032-.121-.049-.124-.044zM45.013 55.723a.565.565 0 0 1-.244.114.864.864 0 0 1-.395-.072.736.736 0 0 1-.298-.237c-.217-.255-.161-.666-.164-1.126a1.615 1.615 0 0 0-.202-.733 6.748 6.748 0 0 1-.374-.747.671.671 0 0 1-.041-.409.73.73 0 0 1 .207-.369c.27-.213.589-.376.935-.477.349-.14.773-.241 1.064-.576a.664.664 0 0 0 .13-.289.626.626 0 0 0-.02-.31 1.122 1.122 0 0 0-.398-.5c-.33-.264-.75-.462-.935-.786-.185-.324.052-.708.425-.92.373-.212.859-.31 1.31-.537.24-.111.437-.28.571-.485.128-.214.178-.456.144-.695a2.762 2.762 0 0 0-.576-1.245 3.58 3.58 0 0 1-.622-1.104 1.078 1.078 0 0 1 .004-.566c.052-.186.152-.359.294-.505.27-.305.622-.555.917-.848.305-.29.505-.65.574-1.039.049-.356.043-.717-.018-1.072-.095-.677-.224-1.306-.065-1.857.133-.499.412-.959.81-1.336.297-.29.656-.527 1.056-.7a4.889 4.889 0 0 1 1.084-.307c-.1-.004-.201 0-.3.013-.287.038-.566.109-.83.212a3.603 3.603 0 0 0-1.262.842c-.344.358-.591.779-.724 1.231-.178.585-.05 1.24.036 1.908.053.341.053.687 0 1.028a1.71 1.71 0 0 1-.532.946c-.28.28-.636.528-.932.858a1.36 1.36 0 0 0-.334.58c-.058.214-.06.436-.002.65.231.867 1.095 1.471 1.19 2.332a.9.9 0 0 1-.117.58 1.145 1.145 0 0 1-.488.41c-.402.212-.905.288-1.325.547-.216.123-.39.294-.507.494a.692.692 0 0 0 0 .668c.244.405.683.587.99.848a.984.984 0 0 1 .342.413.476.476 0 0 1-.08.452c-.213.262-.62.385-.977.521-.37.113-.708.292-.993.526a.871.871 0 0 0-.244.454.945.945 0 0 0 .056.468c.115.26.248.513.398.759.124.213.194.446.205.685.02.443-.037.88.22 1.168a.79.79 0 0 0 .338.248.919.919 0 0 0 .438.055.36.36 0 0 0 .155-.052.299.299 0 0 0 .106-.111z" fill="#455A64"/>
        <path d="M78.633 51.268c.324-.075.62-.221.862-.424.284-.246.488-.553.593-.89.076-.224.098-.46.063-.693a1.545 1.545 0 0 0-.263-.655h.06a.602.602 0 0 1-.121.225.708.708 0 0 1-.213.167c-.175.088-.376.13-.578.119a1.023 1.023 0 0 1-.585-.2 1.02 1.02 0 0 1-.337-.494 1.358 1.358 0 0 1-.029-.611c.038-.204.121-.398.246-.574.276-.367.612-.698.998-.981l.037.072a8.21 8.21 0 0 1-1.823-.013 2.862 2.862 0 0 1-.915-.288c-.29-.16-.531-.378-.703-.636a1.17 1.17 0 0 1-.203-.886 1.48 1.48 0 0 1 .55-.795c.26-.212.556-.401.817-.613.266-.21.453-.484.54-.787a.714.714 0 0 0-.018-.451.645.645 0 0 0-.344-.329c-.322-.14-.72-.048-1.09.021-.372.07-.784.17-1.191.047a.906.906 0 0 1-.488-.343 1.14 1.14 0 0 1-.188-.518c-.11-.729.41-1.403.244-2.096a.981.981 0 0 0-.256-.458 1.274 1.274 0 0 0-.488-.297 2.911 2.911 0 0 0-1.22-.127c-.452.05-.898.135-1.333.254-.441.116-.9.172-1.361.168a1.919 1.919 0 0 1-1.24-.473 2.008 2.008 0 0 1-.563-1.06c-.176-.753-.137-1.505-.32-2.21a1.775 1.775 0 0 0-.527-.93 1.744 1.744 0 0 0-1.052-.403 5.21 5.21 0 0 0-1.161.1c-.378.073-.76.126-1.145.159a2.746 2.746 0 0 1-1.124-.144 4.95 4.95 0 0 1-.942-.488 8.857 8.857 0 0 0-.869-.502 2.317 2.317 0 0 0-.934-.248c-.318 0-.632.06-.92.178-.288.108-.559.242-.827.362a4.372 4.372 0 0 1-.825.3 3.997 3.997 0 0 1-.842.101 11.61 11.61 0 0 1-1.542-.11 8.74 8.74 0 0 0-1.33-.085 3.82 3.82 0 0 0-1.088.212c-.494.142-.905.446-1.144.848a1.436 1.436 0 0 0-.132.451v-.118c0-.05.01-.1.027-.147a.915.915 0 0 1 .073-.197c.116-.205.277-.389.475-.54.197-.152.427-.268.677-.341a3.882 3.882 0 0 1 1.102-.212c.45-.008.898.017 1.343.076a11.23 11.23 0 0 0 1.53.101c.277-.004.552-.039.82-.103.28-.073.551-.172.807-.297.266-.121.537-.257.83-.369.301-.121.629-.186.96-.189.345.018.68.106.977.257.305.153.599.322.88.506.286.189.596.348.923.475.34.119.708.165 1.074.136.38-.035.758-.088 1.132-.161.39-.08.792-.114 1.193-.102a1.84 1.84 0 0 1 1.125.424c.292.274.487.614.563.982.188.72.15 1.484.323 2.21.066.37.251.717.534 1 .303.271.718.428 1.154.436.448.003.893-.052 1.322-.163a8.63 8.63 0 0 1 1.355-.259 3.04 3.04 0 0 1 1.273.136c.205.071.387.183.532.326.143.145.24.32.28.507.164.761-.36 1.425-.243 2.107.016.167.074.329.17.473.095.14.243.246.418.301.354.11.749.024 1.122-.05.19-.041.384-.07.578-.09a1.23 1.23 0 0 1 .594.079c.186.079.33.217.402.386.062.164.07.34.022.508-.09.327-.29.622-.576.848-.27.212-.566.401-.817.61-.26.194-.442.454-.52.743-.052.283.015.574.188.818.162.243.39.447.664.596.269.14.566.235.876.28a7.965 7.965 0 0 0 1.795.017h.14l-.103.08c-.377.277-.706.601-.976.96-.12.167-.2.351-.238.545-.037.193-.03.39.02.581.052.177.16.338.313.462.148.115.337.181.534.187a.879.879 0 0 0 .52-.097.703.703 0 0 0 .327-.363l.017-.068.042.06c.142.207.232.438.265.677.034.24.009.483-.072.713a1.977 1.977 0 0 1-.62.9c-.183.15-.399.267-.635.345-.126.034-.227.046-.227.046z" fill="#455A64"/>
        <path d="M50.08 48.203c-.034 0-.078-.079-.097-.187-.02-.108 0-.195.03-.201.029-.007.077.078.097.186.02.108.005.198-.03.202zM51.65 47.737c-.032.012-.083-.03-.115-.096-.032-.065-.03-.125 0-.135.03-.011.083.03.115.093.031.064.039.127 0 .138zM51.083 48.995c-.036 0-.06-.089-.053-.195.007-.106.039-.193.073-.19.034.002.058.089.054.194-.005.106-.04.193-.074.191zM59.404 47.042c-.025.021-.1 0-.169-.068-.068-.067-.102-.125-.078-.146.025-.021.1 0 .169.068.068.068.102.119.078.146zM60.875 46.713c-.022.024-.097 0-.173-.044-.076-.045-.115-.106-.095-.131.02-.026.1 0 .173.044.073.044.115.106.095.131zM60.321 47.816c-.036 0-.053-.077-.041-.162.012-.084.051-.152.085-.148.034.004.054.076.042.161-.012.085-.052.153-.086.149zM58.113 47.817c-.034-.013-.03-.083 0-.16.03-.076.093-.124.124-.112.032.013.03.083 0 .157-.029.074-.092.125-.124.115zM62.63 46.58c-.032.01-.093-.053-.137-.144-.044-.092-.051-.174-.02-.185.032-.01.096.053.137.142.041.09.054.174.02.187zM49.754 49.693c-.035-.013-.017-.102.031-.197.05-.096.12-.161.152-.149.031.013.014.1-.035.195-.048.096-.117.164-.148.15z" fill="#7C5142"/>
        <path d="M44.92 73.656c.037.424 4.558 23.144 5.932 27.005 1.185 3.328 6.673 7.288 11.224 3.33 4.348-3.776 6.139-20.738 6.139-20.738l-10.222.414-.141-10.011s-7.564-2.364-13.515 0" fill="#936754"/>
        <path d="M86.808 53.48c-1.289-2.732-7.052-2.033-7.052-2.033S61.84 65.422 59.233 67.507c-2.608 2.083-3.091 4.102-3.023 4.691 0 0-.617 5.55-.203 7.62.415 2.068 2.55 5.475 4.339 5.087 0 0 1.44-.672.698-1.524 0 0 1.5.848 2.059-.095.559-.944-.908-2.12-.908-2.12s1.833 1.204 2.294-.142c.461-1.347-1.415-2.167-1.415-2.167s-1.296-2.211-.862-3.43c.435-1.22 2.423-1.442 2.59-3.547.072-.916.114-1.605.14-2.095l21.292-11.06s1.862-2.514.574-5.245z" fill="#FFBE9D"/>
        <path d="M46.428 61.04a1.637 1.637 0 0 1-.073-.8c.068-.31.21-.604.42-.862a6.42 6.42 0 0 1 .995-.915 5.569 5.569 0 0 0 1.193-1.209c.364-.532.6-1.122.693-1.736a3.925 3.925 0 0 0-.227-2.025c-.281-.676-.63-1.329-1.042-1.952a9.105 9.105 0 0 1-.959-1.919 3.073 3.073 0 0 1-.044-1.882c.371-1.186 1.186-2.12 1.599-3.026.389-.702.507-1.494.336-2.26a1.841 1.841 0 0 0-.266-.583c-.085-.123-.146-.178-.153-.171.12.251.213.512.28.778a3.26 3.26 0 0 1-.434 2.147c-.425.865-1.267 1.777-1.689 3.04a3.324 3.324 0 0 0 .025 2.038c.238.692.566 1.358.976 1.986.402.61.744 1.248 1.022 1.908.245.606.328 1.252.244 1.89a3.987 3.987 0 0 1-.62 1.64 5.536 5.536 0 0 1-1.112 1.18 5.972 5.972 0 0 0-.976.99c-.21.285-.343.606-.39.94a1.19 1.19 0 0 0 .085.636c.023.063.063.12.117.168zM27.332 55.282c-.256.514-.679.952-1.217 1.26a3.68 3.68 0 0 1-1.813.475 4.466 4.466 0 0 1-1.84-.436 3.835 3.835 0 0 1-1.398-1.127c-.698-.952-.947-2.102-.695-3.21.105-.498.297-.994.244-1.496-.093-.71-.69-1.3-.896-1.993-.366-1.25.686-2.572 2.055-3.072 1.369-.5 2.928-.346 4.37 0" fill="#263238"/>
        <path d="M48.185 40.825c1.317 1.15.815 2.664.2 3.688-.615 1.025-1.354 2.063-1.37 3.219-.014 1.155.733 2.255 1.106 3.392a5.57 5.57 0 0 1-.393 4.371c-.541 1.018-1.39 1.895-1.952 2.91-.56 1.016-.751 2.297 0 3.213a2.48 2.48 0 0 1-.967-.399 2.078 2.078 0 0 1-.658-.733 3.493 3.493 0 0 1-.383-1.832c.059-2.379 1.37-4.692 1.042-7.053-.19-1.374-.932-2.693-.83-4.073.103-1.38 1.042-2.599 1.709-3.856.666-1.257 1.076-2.826.175-3.973" fill="#263238"/>
        <path d="M44.942 36.311c1.615.183 3.218.916 4 2.158.78 1.243.512 3.002-.823 3.816-1.26.766-3.043.513-4.336-.212-.976-.52-1.716-1.315-2.096-2.253a2.692 2.692 0 0 1-.143-1.456c.087-.488.309-.95.646-1.349.7-.774 1.979-1.153 3.04-.806" fill="#263238"/>
        <path d="M46.262 36.167c-.712-1.707-2.46-2.998-4.429-3.604-1.969-.607-4.148-.598-6.192-.26-2.045.336-4.024.98-5.978 1.623-1.423.468-2.877.954-4.036 1.813-1.16.858-1.925 2.02-2.44 3.25-.976 2.306-1.018 3.996.127 6.245.488.98.093 2.076.539 3.072.446.996 2.518 2.186 1.874 3.097" fill="#263238"/>
        <path d="M47.304 42.463c-.032-3.231-2.242-7.297-5.954-7.13l-11.687 1.989a2.336 2.336 0 0 0-1.44.563 1.78 1.78 0 0 0-.622 1.26l-.915 23.415 13.793 2.73c.125-1.873 0-6.44 0-6.43 0 .011 4.775-.461 6.1-5.78.644-2.646.761-7.028.725-10.617z" fill="#FFBE9D"/>
        <path d="M46.094 45.99c-.105.084-.681-.331-1.533-.37-.851-.037-1.5.304-1.588.213-.042-.043.068-.202.351-.36a2.46 2.46 0 0 1 1.276-.278c.447.017.874.16 1.22.405.244.184.325.356.274.39zM37.683 45.79c-.103.085-.68-.328-1.532-.366-.852-.038-1.501.303-1.587.212-.043-.043.066-.2.35-.358.382-.206.829-.303 1.278-.278.446.018.873.16 1.22.405.242.182.33.347.27.386zM40.426 50.07c0-.043.532-.098 1.398-.153.217 0 .427-.036.47-.164a.842.842 0 0 0-.11-.568l-.553-1.471c-.766-2.09-1.308-3.816-1.22-3.833.088-.017.798 1.647 1.564 3.74.183.515.361 1.007.527 1.484.068.212.195.47.066.748a.486.486 0 0 1-.152.167.577.577 0 0 1-.221.092 1.598 1.598 0 0 1-.374.027c-.849-.006-1.395-.027-1.395-.07z" fill="#263238"/>
        <path d="M40.48 58.861c-2.911-.099-5.733-.897-8.153-2.306 0 0 1.967 3.797 8.179 3.585l-.027-1.279z" fill="#EB996E"/>
        <path d="M38.198 42.28c-.098.2-.942.064-1.952.122-1.01.057-1.833.256-1.952.07-.054-.09.097-.272.437-.452a3.838 3.838 0 0 1 2.97-.144c.363.144.529.312.497.405zM45.891 42.53c-.161.16-.732-.041-1.442-.083-.71-.043-1.313.053-1.44-.13-.053-.089.052-.252.322-.4a2.36 2.36 0 0 1 2.321.171c.24.185.31.363.24.441z" fill="#263238"/>
        <path d="M39.962 51.756a1.4 1.4 0 0 0-.549-.403 1.617 1.617 0 0 0-.705-.12c-.177.005-.35.042-.51.107-.16.065-.302.158-.42.272a.684.684 0 0 0-.205.395.643.643 0 0 0 .09.426.995.995 0 0 0 .467.273c.183.05.38.051.563.004a3.202 3.202 0 0 0 1.047-.479.846.846 0 0 0 .244-.193.212.212 0 0 0 .015-.259" fill="#EB996E"/>
        <path d="M38.034 50.475c.13 0 .083.748.79 1.314.709.566 1.628.528 1.628.636 0 .047-.212.136-.602.128a2.338 2.338 0 0 1-1.362-.486 1.558 1.558 0 0 1-.607-1.102c-.013-.316.105-.499.153-.49zM46.367 37.61c-.405 1.683-3.511 1.808-5.431 1.388a6.394 6.394 0 0 1-2.571 1.53 7.186 7.186 0 0 1-3.1.27 1.957 1.957 0 0 0-.847 0 1.687 1.687 0 0 0-.67.517c-.885.908-2.124 1.5-3.48 1.66-.206.84-.697 1.608-1.408 2.205a5.263 5.263 0 0 1-2.587 1.143s-.617-.303-.244-2.461c.374-2.159.384-6.683.384-6.683l6.934-2.332 8.17-.913s5.533.826 4.85 3.676z" fill="#263238"/>
        <path d="M23.407 45.479c.053.01.014-.594.517-1.484.305-.531.749-.993 1.295-1.348a4.896 4.896 0 0 1 2.44-.76h.108l.032-.09c.302-.849.83-1.754 1.759-2.383.93-.63 2.313-.878 3.416-.331l.18.09.083-.173c.03-.061.061-.127.09-.193a4.447 4.447 0 0 1 1.677-1.742 5.38 5.38 0 0 1 2.472-.74c.4-.009.8.02 1.193.087.4.082.817.086 1.22.012.368-.112.697-.305.954-.56.218-.21.464-.397.732-.56a3.753 3.753 0 0 1 1.369-.432 3.91 3.91 0 0 1 1.451.102c.345.107.678.242.993.403 0 0-.063-.07-.212-.176a3.129 3.129 0 0 0-.732-.343 3.986 3.986 0 0 0-1.535-.167c-.52.044-1.022.19-1.468.425-.593.286-.976.895-1.628 1.06-.651.166-1.464-.184-2.35-.138a5.71 5.71 0 0 0-2.669.777c-.79.468-1.415 1.117-1.806 1.876-.031.072-.066.142-.097.212l.263-.083c-1.28-.636-2.83-.316-3.811.364-.901.663-1.544 1.552-1.84 2.544l.142-.095a5.07 5.07 0 0 0-2.584.848 3.96 3.96 0 0 0-1.303 1.454 3.28 3.28 0 0 0-.359 1.139 1.03 1.03 0 0 0 .008.405z" fill="#455A64"/>
        <path d="M34.445 40.326c.148.084.314.142.488.17.477.108.97.156 1.464.142a6.737 6.737 0 0 0 2.381-.489 5.987 5.987 0 0 0 1.957-1.275l-.227.036.198.089c.854.36 1.814.485 2.752.358a4.815 4.815 0 0 0 2.077-.795 3.932 3.932 0 0 0 1.008-.994 1.02 1.02 0 0 0 .22-.445c-.06-.036-.381.623-1.384 1.259a4.82 4.82 0 0 1-1.97.687c-.868.1-1.752-.023-2.542-.354l-.183-.083-.132-.06-.095.096c-1.043 1.022-2.504 1.65-4.072 1.749-1.196.076-1.925-.15-1.94-.091z" fill="#455A64"/>
        <path d="M38.127 37.322c0 .095.908.07 1.952.337s1.786.691 1.85.615c.063-.076-.628-.636-1.748-.92-1.12-.284-2.073-.11-2.054-.032zM40.48 37.265c.075.061.404-.15.82-.38.414-.229.77-.407.731-.492-.039-.084-.488-.034-.937.225-.449.259-.69.59-.615.647zM30.678 39.912c.034.089.83-.093 1.81-.015.981.078 1.735.358 1.784.276.049-.083-.678-.52-1.752-.594-1.074-.074-1.884.259-1.842.333zM28.782 42.702c0 .08 1.159.18 2.525-.168 1.366-.348 2.296-.965 2.24-1.028-.056-.064-1.032.4-2.342.723-1.31.322-2.426.38-2.423.473zM24.431 44.546c.078.066.683-.462 1.66-.702.975-.24 1.81-.097 1.834-.188.025-.091-.846-.4-1.937-.117-1.09.284-1.642.969-1.557 1.007zM25.053 36.839c.03 0 .11-.176.347-.452.353-.377.8-.679 1.308-.884 1.271-.538 3.277-.873 5.458-.788 1.873.1 3.723.406 5.507.911 1.381.373 2.223.647 2.245.602-.17-.11-.36-.197-.561-.258-.371-.147-.915-.342-1.6-.558a21.961 21.961 0 0 0-5.576-1.015c-2.24-.085-4.285.29-5.595.907a3.353 3.353 0 0 0-1.303 1.013.995.995 0 0 0-.23.522z" fill="#455A64"/>
        <path d="M24.363 39.73c.068.024.259-.65 1.05-1.467 1.056-1.043 2.47-1.765 4.033-2.06 1.827-.356 3.56-.212 4.782-.087s1.991.267 2.003.212c.012-.055-.732-.244-1.964-.441a14.217 14.217 0 0 0-4.904 0c-1.909.375-3.416 1.338-4.148 2.228-.311.345-.558.73-.732 1.14-.08.15-.12.311-.12.475z" fill="#455A64"/>
        <path d="M21.6 50.296c.035-.049-.59-.337-1.463-.911a4.121 4.121 0 0 1-1.245-1.239 1.891 1.891 0 0 1-.107-1.891 2.53 2.53 0 0 1 .641-.806c.273-.23.595-.41.948-.531a3.778 3.778 0 0 1 1.854-.104c1.071.212 1.596.657 1.635.606 0-.015-.098-.136-.351-.307a3.813 3.813 0 0 0-1.22-.518 3.94 3.94 0 0 0-2.033.047c-.401.129-.768.327-1.079.582-.31.255-.558.562-.73.902a2.119 2.119 0 0 0 .147 2.154c.345.51.82.946 1.389 1.272.37.223.758.421 1.163.592.276.118.44.171.452.152zM21.313 50.326a1.649 1.649 0 0 0-.283.465c-.226.434-.42.881-.58 1.337a6.178 6.178 0 0 0-.389 2.12 4.12 4.12 0 0 0 .845 2.519c.29.376.667.696 1.107.938.44.243.934.404 1.45.471.422.053.853.017 1.257-.103.403-.12.769-.321 1.066-.588.413-.346.672-.809.731-1.306a.826.826 0 0 0-.078-.527c-.034 0 0 .19-.063.51-.136.552-.509 1.038-1.043 1.359-.534.32-1.19.452-1.831.367a3.811 3.811 0 0 1-1.304-.444 3.308 3.308 0 0 1-.997-.853 3.987 3.987 0 0 1-.798-2.358c-.009-.69.092-1.379.3-2.045.346-1.145.671-1.843.61-1.862z" fill="#263238"/>
        <path d="M30.878 40.283c.77 1.334.18 2.95-.608 4.274-.788 1.325-1.798 2.64-1.864 4.13-.11 2.497 2.457 4.706 2.103 7.187-.121.738-.495 1.429-1.073 1.981a4.465 4.465 0 0 1-2.167 1.118c1.362-.795 1.484-2.533.976-3.884-.508-1.35-3.035-4.907-3.399-6.296-1.22-4.664-.703-5.207 1.174-6.846" fill="#263238"/>
        <path d="M25.705 43.61c0 .038.376.114.996.036a4.416 4.416 0 0 0 2.174-.91c.605-.485 1.03-1.115 1.22-1.81.139-.53.08-.867.036-.867-.044 0-.097.322-.293.801a4.052 4.052 0 0 1-1.22 1.637 4.978 4.978 0 0 1-1.973.924c-.564.13-.94.138-.94.189z" fill="#455A64"/>
        <path d="M27.94 57.49s.073-.027.19-.105c.169-.12.32-.257.452-.407.488-.568.746-1.26.732-1.97a2.714 2.714 0 0 0-.42-1.412 6.708 6.708 0 0 0-1.193-1.284 4.85 4.85 0 0 1-1.162-1.402 3.569 3.569 0 0 1-.383-1.8c.03-.617.232-1.22.588-1.755.351-.502.752-.977 1.198-1.418a10.301 10.301 0 0 0 1.953-2.544 5.04 5.04 0 0 0 .58-2.002 1.799 1.799 0 0 0-.063-.754c-.078-.013.107 1.11-.76 2.66a10.934 10.934 0 0 1-1.978 2.447c-.47.45-.89.936-1.254 1.454a3.695 3.695 0 0 0-.644 1.908c-.035.669.11 1.335.422 1.946a5.05 5.05 0 0 0 1.25 1.484c.445.36.839.766 1.17 1.209.258.393.403.834.425 1.287a2.894 2.894 0 0 1-.58 1.886c-.303.38-.547.55-.523.573z" fill="#455A64"/>
        <path d="M25.078 43.433c-.017-.013-.166.078-.395.29a3.79 3.79 0 0 0-.769 1.026c-.51.937-.732 2.451-.195 3.98a9.682 9.682 0 0 0 2.31 3.453c.771.772 1.316 1.19 1.35 1.162.034-.028-.434-.509-1.145-1.308-.71-.8-1.644-1.949-2.166-3.403a5.202 5.202 0 0 1 .083-3.795c.415-.93.983-1.363.927-1.405z" fill="#455A64"/>
        <path d="M49.234 90.921a5.184 5.184 0 0 1-.383-2.592c.097-.878.42-1.726.944-2.481 2.61-3.666 2.116-8.86-3.172-15.6a5.029 5.029 0 0 1-.195-.264c-.764-1.096-6.62-9.485-16.016-10.31-1.928-.167-4.185.287-5.63 1.408-1.81 1.406-3.903 3.657-4.791 6.127-1.503 4.15-3.055 13.1-1.006 18.635 1.428 3.856 5.573 11.66 7.957 16.029 1.057 1.942-1.889 3.74.58 3.833H53.4c-.805-3.225-3.409-12.924-4.165-14.785z" fill="#FF725E"/>
        <path d="M38.798 81.678s22.536 6.11 26.13 5.33c3.594-.78 24.43-24.306 24.43-24.306l-7.62-4.901-19.045 16.561-18.21-5.66-5.685 12.976z" fill="#FFBE9D"/>
        <path d="M64.613 74.515a1.361 1.361 0 0 1-.16-.032l-.45-.112-1.652-.424c-1.393-.367-3.318-.872-5.436-1.45a170.63 170.63 0 0 1-5.397-1.563c-.686-.212-1.24-.39-1.618-.52l-.437-.148a.769.769 0 0 1-.148-.059c.053.01.106.022.158.038l.444.13 1.63.485c1.376.407 3.287.95 5.407 1.53l5.424 1.485 1.64.462.442.133c.053.01.104.025.153.045z" fill="#EB996E"/>
        <path d="M79.42 59.817s-.442-1.196 0-2.26a6.172 6.172 0 0 1 1.06-1.522c.127-.141.285-.258.466-.343a1.689 1.689 0 0 1 1.19-.083c.195.058.373.151.523.273l3.858-4.113s1.84-1.06 2.98.534c0 0 .26-1.034 1.136-.44.876.593.44 2.268.44 2.268s1.051.15.612 2.436c0 0 .488.837.107 2.36-.38 1.521-2.823 4.875-3.523 5.632l-2.281 2.703" fill="#FFBE9D"/>
        <path d="M85.985 67.262a.428.428 0 0 1 .037-.051l.114-.144c.108-.132.262-.316.454-.554l1.708-2.056c.371-.424.732-.935 1.135-1.484a26.62 26.62 0 0 0 1.193-1.794c.195-.326.395-.663.576-1.015.2-.357.362-.728.488-1.109.116-.4.177-.81.18-1.221a2.91 2.91 0 0 0-.244-1.247v-.031c.086-.428.116-.862.088-1.296a1.89 1.89 0 0 0-.166-.636.74.74 0 0 0-.19-.266.878.878 0 0 0-.298-.175l-.063-.015.012-.05c.063-.271.098-.547.105-.823a2.316 2.316 0 0 0-.117-.848 1.23 1.23 0 0 0-.27-.437 1.146 1.146 0 0 0-.467-.263.514.514 0 0 0-.244 0 .574.574 0 0 0-.212.132c-.116.124-.199.269-.244.424l-.04.125-.075-.108a1.788 1.788 0 0 0-.559-.547 2.097 2.097 0 0 0-.773-.289 2.737 2.737 0 0 0-1.562.319h.015l-3.37 3.58-.375.399-.093.097-.022.026c-.144.01-.042 0-.073 0h-.015l-.054-.04a1.62 1.62 0 0 0-1.254-.242c-.32.07-.604.233-.803.462a8.069 8.069 0 0 0-.536.653c-.153.203-.29.416-.408.636a2.607 2.607 0 0 0-.227.604c-.07.333-.09.672-.058 1.01.02.213.054.425.105.635.017.068.029.119.041.161.007.018.011.037.012.055a.282.282 0 0 1-.024-.053l-.051-.159a4.019 4.019 0 0 1-.122-.636 3.26 3.26 0 0 1 .041-1.023c.047-.213.122-.421.222-.62.118-.22.253-.432.405-.636.163-.216.341-.436.535-.661.209-.244.508-.418.846-.494a1.73 1.73 0 0 1 1.093.112c.087.04.169.087.244.14l.056.04h.015-.068l.022-.023.093-.1.373-.398 3.355-3.591a2.837 2.837 0 0 1 1.644-.337c.298.047.58.151.825.304.246.153.45.35.598.58l-.117.017c.048-.175.14-.339.268-.48a.683.683 0 0 1 .266-.163.64.64 0 0 1 .33 0c.2.057.382.159.524.295.136.14.238.304.3.48.096.284.137.58.122.877a3.989 3.989 0 0 1-.11.848l-.05-.066a.984.984 0 0 1 .356.196.82.82 0 0 1 .224.31c.099.215.158.442.176.673.028.442-.003.885-.093 1.32v-.031c.178.413.261.852.244 1.293-.005.42-.068.84-.188 1.247-.126.385-.29.761-.488 1.123-.185.354-.388.691-.586 1.018a25.596 25.596 0 0 1-1.22 1.793c-.407.547-.77 1.048-1.151 1.484-.732.865-1.332 1.558-1.745 2.038-.202.233-.359.424-.47.542l-.123.14a.346.346 0 0 1-.022.024z" fill="#EB996E"/>
        <path d="M87.298 54.77c.357-.412.747-.802 1.166-1.167.39-.388.811-.752 1.26-1.09-.356.414-.746.803-1.167 1.167-.388.39-.809.754-1.259 1.09zM81.398 57.554a7.8 7.8 0 0 1 .637-1.001c.201-.338.431-.662.688-.971a4.52 4.52 0 0 1-.578 1.026 4.91 4.91 0 0 1-.747.946zM89.572 56.511c-.03-.017.349-.591.783-1.314.435-.723.761-1.323.796-1.31-.035.143-.09.28-.166.411-.12.248-.298.585-.517.95-.22.365-.435.685-.6.91-.08.13-.179.248-.296.353zM90.721 58.832c.116-.482.272-.956.466-1.418.155-.474.35-.937.586-1.385a9.203 9.203 0 0 1-.466 1.419c-.155.473-.35.936-.586 1.384z" fill="#EB996E"/>
        <path d="M31.239 60.322s6.241.692 10.436 4.224c6.175 5.202 7.7 5.511 7.703 5.562.002.051-9.575 13.443-9.575 13.443l-8.564-3.618-5.063-13.072 5.063-6.539z" fill="#FF725E"/>
        <path d="M46.94 80.014h.02a.187.187 0 0 1 .065.032.159.159 0 0 1 .043.053.138.138 0 0 1 0 .127.77.77 0 0 1-.316.339 1.449 1.449 0 0 1-.322.163c0 .038-.014.075-.017.106-.024.212.022.329.144.363a.31.31 0 0 0 .147 0 .538.538 0 0 0 .263-.174.308.308 0 0 1-.078-.049.173.173 0 0 1-.056-.09.156.156 0 0 1 .01-.1.136.136 0 0 1 .032-.05.161.161 0 0 1 .053-.035.201.201 0 0 1 .142-.013.206.206 0 0 1 .067.031c.02.014.036.032.048.052a.148.148 0 0 1 .014.13l-.015.033h.05a.162.162 0 0 1 .07 0c.01.002.02.007.027.015.006.008.01.018.01.028 0 .01-.004.02-.01.029a.05.05 0 0 1-.011.018.06.06 0 0 1-.019.014.363.363 0 0 1-.202.025.783.783 0 0 1-.23.212.464.464 0 0 1-.359.061c-.16-.044-.243-.165-.258-.362a1.169 1.169 0 0 1 .298-.8c.139-.14.266-.192.39-.158zm-.395.439a1.208 1.208 0 0 0-.063.129c.06-.027.118-.059.173-.095a.648.648 0 0 0 .276-.276.038.038 0 0 0 0-.017.042.042 0 0 0-.008-.031.053.053 0 0 0-.03-.02.196.196 0 0 0-.092.006.172.172 0 0 0-.075.047.976.976 0 0 0-.181.257zm.488.37h-.02c-.01 0-.02.003-.028.009a.038.038 0 0 0-.015.021c-.014.031.01.059.073.083a.04.04 0 0 1 0-.019l.012-.023a.016.016 0 0 1 0-.011c.016-.031.01-.05-.017-.06h-.005z" fill="#263238"/>
        <path d="M48.109 81.02a.081.081 0 0 1 .04-.025.092.092 0 0 1 .05 0l.037.015c.1.043.176.12.212.212a.405.405 0 0 1 0 .288.433.433 0 0 1-.178.212.126.126 0 0 1-.047.02.136.136 0 0 1-.053.001.056.056 0 0 1-.019-.01.048.048 0 0 1-.013-.015.053.053 0 0 1 0-.053.055.055 0 0 1 .013-.024l.019-.014a.398.398 0 0 0 .144-.18v-.024a.255.255 0 0 0-.03-.212.14.14 0 0 0-.032-.048.165.165 0 0 0-.053-.032.421.421 0 0 1-.063.082 1.149 1.149 0 0 1-.31.238.768.768 0 0 1-.561.079.263.263 0 0 1-.069-.026c-.104-.06-.131-.163-.075-.314 0-.02.017-.04.027-.061a.634.634 0 0 1 .202-.23.333.333 0 0 1 .141-.068.364.364 0 0 1 .162 0c.04.01.077.03.105.058a.15.15 0 0 1 .048.079c.007.03.004.06-.01.088v.022a.282.282 0 0 1-.095.114.341.341 0 0 1-.148.057.468.468 0 0 1-.276-.017.181.181 0 0 0-.015.034.16.16 0 0 0-.012.053c0 .05.032.08.098.1a.42.42 0 0 0 .117.015.736.736 0 0 0 .434-.193c.08-.066.151-.14.21-.22zm-.542-.057a.076.076 0 0 0-.029 0 .433.433 0 0 0-.198.157.201.201 0 0 0 .044.015c.052.017.11.017.161 0a.17.17 0 0 0 .07-.036.14.14 0 0 0 .04-.06.028.028 0 0 0 0-.012c0-.038 0-.062-.027-.07a.138.138 0 0 0-.06.006zM48.778 80.92l.1.03.139-.25.027-.043a.075.075 0 0 1 .04-.033.09.09 0 0 1 .055-.001h.022c.029.015.036.044.02.089 0 .013-.057.104-.152.273l.102.03c.017.004.032.01.044.021.009.009.014.02.017.03a.061.061 0 0 1-.002.034.053.053 0 0 1-.02.025.082.082 0 0 1-.04.018.09.09 0 0 1-.045-.005l-.122-.034a7.924 7.924 0 0 0-.288.553.173.173 0 0 0 0 .079c0 .038.025.063.056.072h.022a.26.26 0 0 0 .09-.017c.03-.01.063-.01.093 0h.025a.05.05 0 0 1 .019.026.044.044 0 0 1-.002.031.153.153 0 0 1-.045.046.362.362 0 0 1-.27.026.208.208 0 0 1-.084-.042.17.17 0 0 1-.05-.072.28.28 0 0 1 0-.212c0-.017.102-.2.285-.545l-.088-.023a.07.07 0 0 1-.026-.012.06.06 0 0 1-.018-.02.05.05 0 0 1 0-.049.073.073 0 0 1 .017-.025.078.078 0 0 1 .079 0zM49.72 81.629l.107.03.193-.342c.188-.329.37-.469.553-.424a.288.288 0 0 1 .088.04.16.16 0 0 1 .06.087.143.143 0 0 1-.01.102.482.482 0 0 1-.05.09c-.093.128-.22.234-.37.308a1.17 1.17 0 0 1-.288.117l-.032.057.102.028c.016.004.03.012.042.02.009.01.015.02.018.03a.052.052 0 0 1-.004.034.046.046 0 0 1-.02.028.088.088 0 0 1-.083.013l-.121-.034-.149.267.342-.106a.153.153 0 0 1 .085 0 .06.06 0 0 1 .025.017.047.047 0 0 1 .014.024.043.043 0 0 1-.002.027.124.124 0 0 1-.035.038.142.142 0 0 1-.048.023c-.088.032-.244.083-.474.155l-.153.272a.246.246 0 0 1-.122.112.278.278 0 0 1-.183.01.236.236 0 0 1-.137-.103.176.176 0 0 1-.02-.151.197.197 0 0 1 .083-.106.428.428 0 0 1 .113-.047l.295-.09.212-.372-.097-.025h-.015a.07.07 0 0 1-.025-.012.06.06 0 0 1-.016-.02.052.052 0 0 1-.006-.023c0-.008.002-.016.005-.024a.071.071 0 0 1 .013-.023.068.068 0 0 1 .019-.022.087.087 0 0 1 .09-.005zm-.315.79.056-.1-.137.043c-.058.017-.093.04-.102.07a.042.042 0 0 0 0 .03.05.05 0 0 0 .012.034c.008.01.02.017.034.02a.107.107 0 0 0 .037 0c.031.007.066-.027.1-.097zm1.132-1.393c-.056-.014-.117.013-.186.08-.087.099-.159.205-.214.319a.403.403 0 0 1-.032.05 1.1 1.1 0 0 0 .19-.1.672.672 0 0 0 .279-.28.04.04 0 0 0 0-.018c0-.01-.003-.02-.01-.028a.054.054 0 0 0-.027-.018v-.005zM50.852 82.185c0 .06.02.094.053.102a.326.326 0 0 0 .113 0 .255.255 0 0 1 .105-.01.06.06 0 0 1 .024.017c.006.006.01.013.013.022a.045.045 0 0 1 0 .024.164.164 0 0 1-.048.047.366.366 0 0 1-.272.027.212.212 0 0 1-.103-.059.298.298 0 0 1 0-.307.737.737 0 0 1 .034-.083.42.42 0 0 1 .056-.102.376.376 0 0 1-.146 0h-.061a.28.28 0 0 1-.12 0l-.022-.013a.04.04 0 0 1-.016-.02.035.035 0 0 1 .002-.026.094.094 0 0 1 .044-.028h.02a.166.166 0 0 1 .034-.216.177.177 0 0 1 .08-.034.19.19 0 0 1 .088.007c.032.01.062.026.085.048a.123.123 0 0 1 .037.061.111.111 0 0 1-.005.069.204.204 0 0 1-.042.07.224.224 0 0 0 .052-.015.352.352 0 0 1 .124-.015.117.117 0 0 1 .061.04.034.034 0 0 1 0 .03v.013a.906.906 0 0 0-.144.241.53.53 0 0 0-.027.108c-.017-.008-.02-.002-.02.002zm-.152-.527a.025.025 0 0 0 0-.013.031.031 0 0 0-.007-.02.039.039 0 0 0-.02-.012.043.043 0 0 0-.024.007.034.034 0 0 0-.014.018.06.06 0 0 0 0 .041.07.07 0 0 0 .026.034.084.084 0 0 0 .04-.055z" fill="#263238"/>
        <path d="M51.423 81.845c0 .017-.022.05-.047.104-.078.157-.127.254-.139.292a.182.182 0 0 0 0 .079c0 .04.025.063.056.072h.02a.293.293 0 0 0 .097-.017.193.193 0 0 1 .098-.01c.01.002.019.008.024.016a.052.052 0 0 1 .015.025.048.048 0 0 1-.002.028.184.184 0 0 1-.113.07.396.396 0 0 1-.21 0 .196.196 0 0 1-.07-.033.165.165 0 0 1-.049-.056.318.318 0 0 1 0-.267 1.61 1.61 0 0 1 .107-.212l.059-.11v-.015c.032-.053.068-.074.112-.062h.02c.034.035.039.053.022.096zm-.027-.254a.048.048 0 0 1 .01-.02.07.07 0 0 1 .034-.018.078.078 0 0 1 .041.002.061.061 0 0 1 .03.016c.01.008.018.019.021.03a.052.052 0 0 1-.002.036.073.073 0 0 1-.055.045.089.089 0 0 1-.072-.019.055.055 0 0 1 .002-.073h-.01z" fill="#263238"/>
        <path d="M51.489 82.305c0-.02.017-.04.026-.061a.634.634 0 0 1 .203-.229.32.32 0 0 1 .139-.07.352.352 0 0 1 .161 0c.026.006.05.016.073.03a.16.16 0 0 1 .078.086.136.136 0 0 1-.007.109v.019a.3.3 0 0 1-.075.097.35.35 0 0 1-.113.064.455.455 0 0 1-.276 0l-.048-.02-.017.035a.144.144 0 0 0 0 .083.133.133 0 0 0 .037.043.157.157 0 0 0 .055.026.437.437 0 0 0 .242-.006.218.218 0 0 1 .09 0c.01.003.017.007.024.013a.053.053 0 0 1 .016.026c.003.01.003.02 0 .029a.044.044 0 0 1-.016.021.317.317 0 0 1-.197.062.71.71 0 0 1-.244-.015.417.417 0 0 1-.064-.023c-.117-.056-.144-.162-.087-.319zm.436-.24a.4.4 0 0 0-.212.16l.044.019a.28.28 0 0 0 .159 0 .186.186 0 0 0 .067-.037.156.156 0 0 0 .042-.058c.015-.045 0-.073-.024-.081a.13.13 0 0 0-.076-.002z" fill="#263238"/>
        <path d="m52.035 82.646.286-.526.014-.025c.03-.045.064-.064.103-.053h.022c.026.015.034.044.017.087l-.015.032a.13.13 0 0 1 0 .023.254.254 0 0 1 .113-.057.28.28 0 0 1 .131.002c.032.009.06.026.08.049a.124.124 0 0 1 .028.057.116.116 0 0 1-.005.061l-.02.05-.051.137a.948.948 0 0 0-.064.212v.015c0 .049.02.078.054.087h.02a.315.315 0 0 0 .1-.017.192.192 0 0 1 .097-.01c.01.001.018.006.024.012.007.009.01.019.01.03 0 .01-.003.02-.01.03a.186.186 0 0 1-.114.067.384.384 0 0 1-.203 0 .197.197 0 0 1-.11-.068.378.378 0 0 1 0-.352l.023-.057a.487.487 0 0 0 .026-.07c.025-.061.027-.093 0-.1-.041 0-.114.053-.214.155a1.3 1.3 0 0 0-.193.231l-.012.024a.165.165 0 0 1-.04.05.097.097 0 0 1-.039.02.106.106 0 0 1-.046.002.037.037 0 0 1-.022-.013.07.07 0 0 1 .01-.085z" fill="#263238"/>
        <path d="M53.475 83.004c.02.003.042.002.062-.003a.14.14 0 0 0 .055-.027 1.09 1.09 0 0 0 .212-.242l.146-.2a.075.075 0 0 1 .039-.026.087.087 0 0 1 .05 0l.038.014a.42.42 0 0 1 .13.088.357.357 0 0 1 .083.124.41.41 0 0 1-.181.503.131.131 0 0 1-.1.02.063.063 0 0 1-.027-.018.057.057 0 0 1 0-.062.096.096 0 0 1 .012-.02l.017-.016a.405.405 0 0 0 .147-.178v-.023a.275.275 0 0 0-.03-.212c-.026-.045-.053-.072-.085-.08-.032-.01-.044.059-.085.118-.061.092-.131.18-.21.26a.423.423 0 0 1-.049.041.345.345 0 0 1-.3.044.216.216 0 0 1-.1-.06.172.172 0 0 1-.046-.099l-.032.015a.33.33 0 0 1-.232.028.189.189 0 0 1-.098-.057.266.266 0 0 1 0-.274.625.625 0 0 1 .227-.288.325.325 0 0 1 .14-.07.358.358 0 0 1 .163 0c.033.01.065.024.093.042l.258-.468c0-.015.015-.026.022-.034.03-.04.061-.053.098-.045l.024.011c.025.015.032.042.015.085-.017.042-.049.095-.13.244a7.891 7.891 0 0 0-.363.701.213.213 0 0 0 0 .066c-.022.06-.002.087.037.097zm-.271-.174a.383.383 0 0 0 .063-.075 2.8 2.8 0 0 0 .173-.294.124.124 0 0 0-.08-.03.32.32 0 0 0-.117.033.277.277 0 0 0-.09.073.542.542 0 0 0-.14.212.154.154 0 0 0 0 .032c-.014.057 0 .089.03.1a.188.188 0 0 0 .08 0 .285.285 0 0 0 .08-.051zM45.618 80.152a.458.458 0 0 0-.02-.307.507.507 0 0 0-.205-.242.529.529 0 0 0-.356-.06.52.52 0 0 0-.197.086.381.381 0 0 0-.126-.22.484.484 0 0 0-.25-.115.642.642 0 0 0-.34.05.55.55 0 0 0-.342.596c.032.138.1.268.201.378l.373.424s.308-.07.569-.106c.16-.019.314-.07.446-.15a.614.614 0 0 0 .247-.334zM38.696 82.716a.864.864 0 0 1-.178-.02l-.506-.084c-.22-.033-.488-.082-.797-.152-.31-.07-.662-.134-1.045-.237l-.602-.155c-.21-.053-.423-.123-.647-.187-.449-.125-.915-.29-1.408-.456a31.317 31.317 0 0 1-3.099-1.306 29.605 29.605 0 0 1-2.879-1.643c-.417-.284-.82-.546-1.174-.818-.178-.133-.353-.256-.514-.386-.161-.13-.305-.252-.462-.364-.3-.231-.546-.463-.77-.658a11.203 11.203 0 0 1-.56-.515l-.341-.335a.626.626 0 0 1-.112-.123c.047.034.09.07.132.108l.356.32c.154.143.344.314.573.503.23.189.488.424.783.636l.464.365c.163.127.342.248.52.38.356.266.759.527 1.176.805.92.59 1.88 1.134 2.872 1.63.997.485 2.025.921 3.079 1.306.488.17.954.335 1.4.464.22.066.432.136.64.193l.6.161c.378.108.732.18 1.037.252.305.073.571.13.788.172l.488.102c.063.01.125.024.186.042zM46.506 103.335a1.182 1.182 0 0 1-.168 0l-.488-.025c-.208 0-.462-.028-.754-.059-.293-.032-.63-.058-.996-.115s-.77-.108-1.198-.191a48.52 48.52 0 0 1-1.359-.279 26.982 26.982 0 0 1-5.907-2.12c-.422-.212-.83-.424-1.19-.637-.362-.212-.704-.409-1.004-.6-.3-.19-.566-.37-.798-.527-.231-.157-.429-.301-.585-.424l-.359-.274a.903.903 0 0 1-.12-.102.64.64 0 0 1 .137.085l.373.259c.162.114.36.252.596.405.237.152.5.333.807.513.308.18.637.388 1.008.587.371.199.769.409 1.193.623a28.196 28.196 0 0 0 5.888 2.106c.476.106.925.211 1.352.288.427.076.825.146 1.19.201.367.055.698.093.991.132.293.038.544.061.75.078l.487.047a.874.874 0 0 1 .154.029zM49.378 70.107l-.07-.017-.199-.061a2.095 2.095 0 0 1-.31-.125 4.074 4.074 0 0 1-.402-.212 16.741 16.741 0 0 1-2.3-1.624c-.926-.731-1.977-1.65-3.217-2.6-.62-.47-1.305-.932-2.006-1.422-.7-.49-1.44-.981-2.215-1.463a21.324 21.324 0 0 0-4.675-2.253 13.914 13.914 0 0 0-4.277-.69c-.986.001-1.965.14-2.9.414l-.433.142c-.125.043-.225.087-.31.12l-.193.071a.59.59 0 0 1-.066.023s.02-.012.061-.031l.186-.085c.082-.034.183-.083.307-.13l.432-.15c.935-.29 1.92-.443 2.913-.45 1.476-.007 2.94.22 4.321.67a21.231 21.231 0 0 1 4.71 2.26c.776.484 1.512.98 2.215 1.468.703.487 1.386.953 2.008 1.43 1.237.959 2.284 1.881 3.2 2.619.703.6 1.46 1.15 2.266 1.645.126.076.258.147.393.212.097.05.199.094.302.133l.193.07a.249.249 0 0 1 .066.036zM22.24 71.016a1.21 1.21 0 0 1-.063-.253 9.234 9.234 0 0 1-.108-.697 14.19 14.19 0 0 1 .21-4.638c.064-.293.125-.529.173-.69.02-.085.048-.168.086-.248a.953.953 0 0 1-.037.257c-.034.163-.08.4-.132.693a17.373 17.373 0 0 0-.21 4.609c.025.295.05.532.067.697a.87.87 0 0 1 .014.27z" fill="#263238"/>
        <path d="M37.207 101.532c-.034 0-1.85-4.836-4.057-10.812-2.209-5.977-3.97-10.846-3.936-10.857.034-.01 1.85 4.836 4.058 10.823 2.208 5.987 3.982 10.835 3.935 10.846zM36.814 105.338c-.034 0-.475-1.118-.976-2.515-.5-1.397-.895-2.544-.861-2.544.034 0 .473 1.115.976 2.515.503 1.399.893 2.535.861 2.544z" fill="#263238"/>
        <path d="M40.767 82.207c-2.128 1.726-12.77-2.671-17.034-6.8.2.974.747 1.87 1.565 2.56 1.952 1.652 3.904 2.917 6.18 4.486 2.757 1.908 5.773 3.674 9.211 4.355 3.438.68 7.181.012 9.584-2.229-3.245-.786-7.134-1.79-9.506-2.372z" fill="#000" opacity=".3"/>
        <path d="M21.791 70.384c0 .019-.193-.051-.505-.091a2.727 2.727 0 0 0-.554-.015c-.225.018-.447.06-.661.125a3.01 3.01 0 0 0-.6.27 2.29 2.29 0 0 0-.418.315c-.212.212-.302.36-.322.35a.966.966 0 0 1 .244-.4c.122-.132.262-.25.418-.35a2.733 2.733 0 0 1 1.322-.412c.193-.008.387.005.576.04.18.02.351.078.5.168zM43.317 66.61a3.863 3.863 0 0 0-.803-.424 4.541 4.541 0 0 0-2.518-.142c-1.066.212-2.179.86-3.143 1.787-.963.926-1.817 2.1-2.928 3.197a7.898 7.898 0 0 1-1.847 1.393c-.654.343-1.37.589-2.118.727a8.083 8.083 0 0 1-2.056.125l-.244-.013-.244-.027c-.154-.022-.308-.037-.454-.062a8.652 8.652 0 0 1-.835-.189 7.115 7.115 0 0 1-2.281-1.06 4.314 4.314 0 0 1-.518-.424l-.126-.114a.279.279 0 0 1-.04-.043s.018.011.05.035l.134.108c.167.142.345.275.532.398.678.46 1.45.806 2.276 1.02.28.077.564.14.852.189.144.023.295.036.449.055l.229.027.244.01a8.019 8.019 0 0 0 2.023-.133 7.363 7.363 0 0 0 2.079-.718 7.868 7.868 0 0 0 1.817-1.374c1.096-1.086 1.938-2.273 2.928-3.195.991-.922 2.116-1.596 3.206-1.794a4.542 4.542 0 0 1 2.56.178c.215.086.418.195.603.323l.136.106.037.034zM43.11 77.676a.53.53 0 0 1-.066.095c-.047.062-.11.155-.208.265a7.753 7.753 0 0 1-.89.893c-1.07.921-2.388 1.597-3.833 1.967a10.43 10.43 0 0 1-4.449.153 9.453 9.453 0 0 1-1.29-.327c-.152-.046-.264-.095-.342-.123a.894.894 0 0 1-.115-.05c.16.034.318.08.471.133.427.123.863.22 1.306.293 1.46.244 2.966.181 4.392-.185a9.697 9.697 0 0 0 4.718-2.78 3.74 3.74 0 0 1 .305-.334zM30.473 84.08a.241.241 0 0 1-.064 0h-.183c-.1-.004-.2-.004-.3 0a3.555 3.555 0 0 0-.405.02 5.226 5.226 0 0 0-2.391.797c-.48.304-.89.687-1.203 1.126a2.567 2.567 0 0 0-.525 1.677c.027.31.16.608.383.852.233.259.568.434.94.492.192.02.386.004.57-.05.183-.052.351-.14.491-.255.297-.24.49-.56.55-.908a2.662 2.662 0 0 0-.581-1.986 4.557 4.557 0 0 0-1.635-1.327 5.923 5.923 0 0 0-1.923-.58 7.473 7.473 0 0 0-1.784 0 9.667 9.667 0 0 0-2.484.65c-.28.112-.488.212-.634.273l-.163.074a.21.21 0 0 1-.059.024l.051-.032.159-.085a9.399 9.399 0 0 1 3.113-.98c.6-.08 1.211-.084 1.813-.014.693.083 1.36.28 1.967.583.676.329 1.252.793 1.681 1.354.478.603.691 1.335.6 2.063a1.58 1.58 0 0 1-.59.971 1.477 1.477 0 0 1-.538.28 1.624 1.624 0 0 1-.624.053 1.706 1.706 0 0 1-1.015-.532 1.545 1.545 0 0 1-.393-.922c-.029-.615.165-1.221.554-1.734.322-.45.742-.84 1.237-1.147.715-.451 1.56-.72 2.44-.778a3.94 3.94 0 0 1 .413 0c.1-.001.2.004.3.016l.183.022a.19.19 0 0 1 .049.004zM49.107 90.859l-.073.047-.22.125a7.276 7.276 0 0 1-.898.409 8.02 8.02 0 0 1-1.53.424 7.477 7.477 0 0 1-2.12.074 6.7 6.7 0 0 1-1.22-.252 5.638 5.638 0 0 1-1.19-.545c-.821-.497-1.46-1.188-1.843-1.99a3.392 3.392 0 0 1-.33-1.368c-.005-.243.022-.486.079-.723.13-.49.406-.942.8-1.31.2-.192.437-.352.7-.473.268-.128.566-.2.872-.212.311-.005.618.064.888.2.259.14.48.33.645.553.166.224.273.476.314.74.106.506.01 1.03-.271 1.483-.294.425-.716.77-1.22 1.001-.479.216-.996.36-1.53.424a6.85 6.85 0 0 1-1.528.03 9.83 9.83 0 0 1-1.417-.212 12.964 12.964 0 0 1-2.404-.806 24.366 24.366 0 0 1-3.145-1.73 41.676 41.676 0 0 1-.812-.526l-.208-.14a.475.475 0 0 1-.068-.05.377.377 0 0 1 .076.042l.217.132.822.508a26.336 26.336 0 0 0 3.172 1.696c.76.336 1.56.6 2.386.789.459.105.927.177 1.399.216.499.043 1.002.031 1.498-.036a5 5 0 0 0 1.49-.424c.484-.22.889-.553 1.17-.96.267-.433.357-.931.256-1.414a1.562 1.562 0 0 0-.293-.696 1.85 1.85 0 0 0-.605-.521 1.763 1.763 0 0 0-.823-.185 2.085 2.085 0 0 0-.815.19 2.67 2.67 0 0 0-1.149 1.04 2.48 2.48 0 0 0-.29.668c-.056.23-.081.463-.076.697.01.457.117.909.317 1.332.271.569.673 1.084 1.182 1.512a5.343 5.343 0 0 0 1.776.98c.383.122.78.207 1.185.255.698.08 1.406.061 2.096-.055a8.707 8.707 0 0 0 2.425-.79l.228-.117a.398.398 0 0 1 .085-.032zM34.12 94.258c-.14.01-.281.01-.421 0h-.488c-.188 0-.41 0-.652.021-.242.022-.503.028-.783.062s-.581.072-.893.119a14.664 14.664 0 0 0-3.877 1.206c-.276.138-.542.265-.779.4-.236.136-.456.263-.651.384s-.366.242-.518.344a7.725 7.725 0 0 0-.38.271 2.99 2.99 0 0 1-.327.229c.088-.096.187-.184.295-.263.095-.083.217-.18.366-.286.149-.106.312-.233.51-.356.198-.123.408-.265.65-.399.24-.133.487-.271.777-.413 1.221-.59 2.546-1 3.921-1.215.318-.044.618-.091.903-.11.286-.02.55-.04.793-.049.244-.008.462 0 .654 0 .163-.001.326.005.488.02.139.002.276.014.413.035zM50.852 97.316a.839.839 0 0 1-.122.092c-.086.057-.205.146-.374.245-.465.291-.954.552-1.464.78a14.09 14.09 0 0 1-5.455 1.23 14.215 14.215 0 0 1-5.525-.966 12.384 12.384 0 0 1-1.512-.706c-.174-.092-.298-.176-.386-.227a.955.955 0 0 1-.13-.087c.051.017.099.04.142.068.093.046.225.123.4.212.491.25 1 .475 1.523.672 1.728.655 3.601.972 5.486.926a14.39 14.39 0 0 0 6.897-1.935c.17-.094.295-.176.385-.227a.63.63 0 0 1 .135-.077zM36.902 61.932v.06l-.039.175c-.07.222-.171.436-.303.636-.334.528-1.073 1.156-2.157 1.664-.589.28-1.203.517-1.837.71-.73.23-1.503.335-2.279.31a4.123 4.123 0 0 1-2.36-.803 2.586 2.586 0 0 1-.76-.98 1.86 1.86 0 0 1-.118-1.213c.104-.4.356-.76.719-1.023a2.34 2.34 0 0 1 1.287-.43c.225.004.447.049.651.13.205.082.389.199.54.344.299.274.472.634.488 1.011-.001.18-.047.356-.133.519a1.28 1.28 0 0 1-.37.422c-.293.214-.644.36-1.02.425-.666.107-1.35.09-2.008-.051a7.437 7.437 0 0 1-2.637-1.033 4.654 4.654 0 0 1-.798-.615c.02.012.038.024.056.038l.151.12a7.59 7.59 0 0 0 3.235 1.416 5.382 5.382 0 0 0 1.967.035c.36-.06.697-.2.976-.407.144-.108.259-.241.338-.39.08-.15.12-.314.12-.479a1.368 1.368 0 0 0-.456-.939 1.548 1.548 0 0 0-.5-.318 1.737 1.737 0 0 0-.602-.12 2.21 2.21 0 0 0-1.209.409c-.34.248-.577.586-.675.962-.09.384-.052.783.112 1.149.158.358.409.679.732.94a3.996 3.996 0 0 0 2.28.78 6.804 6.804 0 0 0 2.24-.295c.625-.19 1.233-.42 1.817-.692 1.078-.496 1.815-1.106 2.157-1.617a2.82 2.82 0 0 0 .395-.85zM36.033 103.997a6.25 6.25 0 0 1-.656.04 8.844 8.844 0 0 0-3.028.721c-.191.095-.388.18-.59.256.164-.13.348-.239.546-.326a7.377 7.377 0 0 1 3.067-.73c.222-.013.444 0 .661.039zM45.306 104.95a1.93 1.93 0 0 1-.313.064c-.285.046-.574.08-.864.101a13.037 13.037 0 0 1-5.629-.807 10.09 10.09 0 0 1-.78-.337 1.548 1.548 0 0 1-.271-.149c.102.027.2.063.293.108a14.351 14.351 0 0 0 6.38 1.107c.366-.019.661-.042.864-.066.105-.017.212-.024.32-.021z" fill="#FAFAFA"/>
        <path d="M54.51 71.876s1.302-2.086 2.683-1.727c1.381.358 1.564.595 1.564.595s.835-1.013 2.277-.06c0 0 1.644-.953 3.22.06 0 0 1.44-.757 2.262.248.823 1.005 2.47 3.445 2.265 6.246-.205 2.8-1.418 11.999-1.418 11.999l-11.077 1.68s2.471-8.678 1.449-9.499c-2.052-1.643-2.982-5.088-2.982-5.088l-2.44-3.391s.488-1.788 1.784-.656a35.292 35.292 0 0 1 2.603 2.57l-.273-2.332s-1.781.547-1.918-.645z" fill="#936754"/>
        <path d="M56.33 71.533c.08.204.12.42.117.636.041.214.041.433 0 .647a1.66 1.66 0 0 1-.117-.636 1.679 1.679 0 0 1 0-.647zM59.946 73.562c-.037 0-.176-.659-.5-1.44-.325-.78-.703-1.37-.67-1.386.116.11.211.236.281.371a6.324 6.324 0 0 1 .835 2.014 1.3 1.3 0 0 1 .054.441zM62.083 72.72a5.537 5.537 0 0 0-.488-1.173 6.092 6.092 0 0 0-.852-.998c.403.245.733.57.964.947.231.377.357.797.366 1.224h.01zM65.196 72.572c-.036.01-.217-.477-.517-1.047-.3-.57-.595-1.012-.564-1.029.542.61.913 1.32 1.081 2.076zM57.957 81.67a.142.142 0 0 1 0 .055v.784c-.03.764-.11 1.525-.244 2.28a17.534 17.534 0 0 1-.94 3.294c-.463 1.215-1.085 2.512-1.676 3.89a19.261 19.261 0 0 0-1.251 3.99 10.122 10.122 0 0 0-.1 3.364 7.15 7.15 0 0 0 .688 2.19c.05.112.107.22.173.325l.139.233c.032.059.06.106.083.146.01.017.018.034.024.051a.214.214 0 0 1-.036-.047l-.093-.139-.149-.229a2.157 2.157 0 0 1-.185-.323 6.921 6.921 0 0 1-.732-2.196 10.035 10.035 0 0 1 .075-3.392c.264-1.37.684-2.713 1.255-4.011.592-1.382 1.22-2.678 1.683-3.884.43-1.066.756-2.16.976-3.273.138-.752.23-1.51.276-2.27 0-.264.017-.471.024-.622v-.161c0-.019.004-.037.01-.055z" fill="#7C5142"/>
        <path d="M77.072 73.113s3.467 10.532 4.162 14.051c.696 3.52 3.805 12.65 10.166 10.842 6.36-1.808 7.522-6.443 7.29-11.465-.231-5.022-3.382-16.841-3.382-16.841l-8.215 4.842-1.464-5.368-8.557 3.939z" fill="#936754"/>
        <path d="M78.297 59.193s-1.896-1.249-3.228.623c0 0-.874-.905-1.899-.212-1.024.694-.202 2.35-.202 2.35s-1.154-.124-.642 2.543c0 0-1.464.831-.334 2.756.951 1.622 4.26 4.961 5.08 5.852l1.22 1.75L85.5 69.7s1.61-2.493 1.098-3.74a7.092 7.092 0 0 0-1.22-1.764 1.698 1.698 0 0 0-.546-.408 1.988 1.988 0 0 0-1.403-.107c-.23.068-.44.177-.618.32l-4.514-4.808z" fill="#936754"/>
        <path d="M77.528 62.702c-.051.046-.583-.636-1.24-1.435-.329-.405-.634-.768-.858-1.027a3.75 3.75 0 0 1-.361-.424c.163.106.308.233.429.376.244.246.564.604.893 1.01.33.408.617.783.82 1.06l.317.44zM84.28 65.955c-.015.01-.12-.106-.286-.297-.166-.19-.397-.449-.641-.746a4.09 4.09 0 0 1-.762-1.143c.03-.012.366.497.864 1.08.32.341.597.712.825 1.106zM74.72 64.736a2.077 2.077 0 0 1-.34-.424 15.339 15.339 0 0 1-1.305-2.169 2.053 2.053 0 0 1-.2-.479c.111.14.205.289.28.445a57.668 57.668 0 0 0 1.303 2.17c.104.146.191.298.262.457zM73.575 67.26a1.949 1.949 0 0 1-.205-.396 20.737 20.737 0 0 0-.488-.963 5.407 5.407 0 0 1-.566-1.401c.086.125.156.258.208.396.114.248.285.588.488.963.257.444.447.915.563 1.401z" fill="#7C5142"/>
        <path d="M95.55 85.543a.044.044 0 0 0 0 .017c.006.02.006.04.002.061a.135.135 0 0 1-.028.057.16.16 0 0 1-.053.041.186.186 0 0 1-.067.019.876.876 0 0 1-.457-.05 1.29 1.29 0 0 1-.302-.141l-.105.04c-.198.083-.283.174-.256.272a.21.21 0 0 0 .07.101c.08.057.178.09.281.096a.211.211 0 0 1 0-.079.158.158 0 0 1 .054-.08.197.197 0 0 1 .095-.04.188.188 0 0 1 .124.017c.037.02.063.052.073.088a.132.132 0 0 1 0 .106.153.153 0 0 1-.05.057.184.184 0 0 1-.074.03h-.037l.03.03a.12.12 0 0 1 .039.047.048.048 0 0 1 0 .025.044.044 0 0 1-.015.024.055.055 0 0 1-.03.012.062.062 0 0 1-.043 0 .257.257 0 0 1-.12-.125.88.88 0 0 1-.295-.057.382.382 0 0 1-.142-.083.316.316 0 0 1-.085-.13.285.285 0 0 1 .031-.205.35.35 0 0 1 .17-.146c.137-.078.29-.133.45-.163h.04c.123-.021.248-.026.373-.015.188.017.298.072.327.174zm-.683.458a.02.02 0 0 0 0-.015.04.04 0 0 0-.021-.016.047.047 0 0 0-.028-.001c-.034 0-.046.038-.039.089h.049c.034-.02.046-.036.039-.057zm.097-.516-.146.022c.054.027.11.051.168.072.118.05.25.068.381.053h.017a.052.052 0 0 0 .024-.022.043.043 0 0 0 .005-.03c-.014-.044-.058-.071-.131-.088a1.28 1.28 0 0 0-.318-.007z" fill="#263238"/>
        <path d="M95.208 86.825c.016.001.03.007.041.016a.06.06 0 0 1 .023.033.148.148 0 0 1 0 .034.283.283 0 0 1-.018.133.316.316 0 0 1-.077.115.504.504 0 0 1-.261.14.51.51 0 0 1-.283-.017.106.106 0 0 1-.043-.021.088.088 0 0 1-.026-.036.044.044 0 0 1 0-.034.076.076 0 0 1 .044-.032h.049a.487.487 0 0 0 .232.013h.027a.313.313 0 0 0 .178-.125.12.12 0 0 0 .027-.045.107.107 0 0 0 .005-.05.634.634 0 0 1-.105 0 1.118 1.118 0 0 1-.364-.098.605.605 0 0 1-.215-.137.506.506 0 0 1-.127-.204.185.185 0 0 1 0-.06c0-.1.083-.167.244-.212l.066-.013a.762.762 0 0 1 .305.028c.05.01.094.032.13.062.037.03.063.068.078.11.01.033.01.068 0 .102a.148.148 0 0 1-.05.069.183.183 0 0 1-.082.036h-.025a.332.332 0 0 1-.147-.008.345.345 0 0 1-.226-.227v-.044h-.039a.264.264 0 0 0-.051.017.099.099 0 0 0-.046.05.084.084 0 0 0 .002.064c.01.03.025.06.044.087a.66.66 0 0 0 .38.212c.101.026.205.04.31.042zm-.21-.394a.056.056 0 0 0-.021-.017.437.437 0 0 0-.244-.06.216.216 0 0 0 0 .037.211.211 0 0 0 .08.11.194.194 0 0 0 .139.03h.012c.04-.013.057-.03.052-.053a.101.101 0 0 0-.017-.047zM95.435 88.212c0 .032.017.062.025.087l.4-.034c.388-.032.6.028.644.174a.242.242 0 0 1 0 .08.146.146 0 0 1-.051.083.185.185 0 0 1-.098.04.783.783 0 0 1-.105.013c-.151 0-.3-.03-.436-.089a1.074 1.074 0 0 1-.244-.138h-.066l.024.081a.07.07 0 0 1 0 .038.057.057 0 0 1-.018.028.07.07 0 0 1-.033.014h-.034a.073.073 0 0 1-.035-.018.059.059 0 0 1-.017-.032l-.026-.1-.313.028.259.182a.097.097 0 0 1 .049.067c0 .004 0 .008-.003.011a.046.046 0 0 1-.014.022.056.056 0 0 1-.025.012.148.148 0 0 1-.097-.027 14.536 14.536 0 0 1-.366-.248l-.318.027a.29.29 0 0 1-.163-.03.196.196 0 0 1-.095-.118.172.172 0 0 1 .027-.142.187.187 0 0 1 .053-.055.257.257 0 0 1 .208-.032.43.43 0 0 1 .097.057l.222.157.437-.034-.022-.078v-.015a.048.048 0 0 1 .009-.043.06.06 0 0 1 .018-.016.067.067 0 0 1 .024-.007h.027c.027.004.047.023.056.055zm-.866.17.117-.01-.105-.073a.173.173 0 0 0-.112-.038.09.09 0 0 0-.03.013.052.052 0 0 0-.025.025.043.043 0 0 0-.001.034.12.12 0 0 0 .012.026c.02.023.069.031.144.023zm1.8.097c-.014-.044-.07-.074-.163-.087a1.745 1.745 0 0 0-.39 0h-.061c.058.032.12.058.183.079a.735.735 0 0 0 .385.055h.018a.053.053 0 0 0 .022-.02.044.044 0 0 0 .007-.027zM95.48 89.252c-.052.03-.074.058-.067.087.016.027.038.05.064.07a.171.171 0 0 1 .058.068.031.031 0 0 1 0 .026.044.044 0 0 1-.013.019.054.054 0 0 1-.023.01.185.185 0 0 1-.122-.04.264.264 0 0 1-.103-.14.134.134 0 0 1 0-.097c.032-.072.122-.123.271-.155l.093-.017a.675.675 0 0 1 .117-.01.25.25 0 0 1-.063-.105V88.94l-.017-.017a.163.163 0 0 1-.06-.079.058.058 0 0 1 0-.02c0-.018.018-.03.038-.033.008 0 .016.002.024.005a.059.059 0 0 1 .02.012l.014.01a.185.185 0 0 1 .056-.053.217.217 0 0 1 .076-.029.174.174 0 0 1 .08 0c.027.006.051.019.07.036.019.018.03.04.035.064a.13.13 0 0 1 0 .08.114.114 0 0 1-.036.055.141.141 0 0 1-.064.03.298.298 0 0 1-.085 0l.041.028a.2.2 0 0 1 .071.076.077.077 0 0 1 0 .062.046.046 0 0 1-.024.017h-.03c-.095-.006-.191 0-.285.016a.685.685 0 0 0-.11.037l-.027.016zm.402-.358h.012a.03.03 0 0 0 .015-.014.024.024 0 0 0 0-.02v-.01a.032.032 0 0 0-.017-.014.04.04 0 0 0-.022-.001.083.083 0 0 0-.037.02.066.066 0 0 0-.02.035c.022.008.046.01.069.004z" fill="#263238"/>
        <path d="M96.058 89.475a1.021 1.021 0 0 1-.118.017 4.511 4.511 0 0 0-.33.048.181.181 0 0 0-.075.032.073.073 0 0 0-.033.03.06.06 0 0 0-.006.042v.015a.248.248 0 0 0 .061.06.131.131 0 0 1 .059.06.04.04 0 0 1 0 .024.06.06 0 0 1-.018.022.07.07 0 0 1-.026.012.179.179 0 0 1-.117-.042.26.26 0 0 1-.103-.142.14.14 0 0 1 .022-.125.409.409 0 0 1 .244-.123c.08-.014.162-.024.244-.03l.127-.013h.017c.064 0 .1.015.11.045v.017c0 .006-.007.042-.058.05zm.214-.14a.062.062 0 0 1 .034 0 .067.067 0 0 1 .033.014c.01.008.016.017.019.028.002.01.002.02 0 .03a.057.057 0 0 1-.019.028.072.072 0 0 1-.033.016h-.034a.067.067 0 0 1-.032-.015.052.052 0 0 1-.017-.03.054.054 0 0 1 .02-.058.068.068 0 0 1 .034-.013h-.005z" fill="#263238"/>
        <path d="m95.682 89.743.066-.01a.732.732 0 0 1 .305.025c.049.01.094.031.13.061.037.03.063.069.077.11a.142.142 0 0 1 0 .064.132.132 0 0 1-.04.095.171.171 0 0 1-.102.047H96.1a.344.344 0 0 1-.244-.05.32.32 0 0 1-.14-.183.144.144 0 0 1 0-.044h-.038a.167.167 0 0 0-.078.031.105.105 0 0 0-.017.1c.004.02.013.038.024.055.026.04.059.076.098.106.023.014.04.033.051.055a.037.037 0 0 1 0 .024.051.051 0 0 1-.016.023.063.063 0 0 1-.028.013h-.024c-.044 0-.096-.04-.15-.104a.431.431 0 0 1-.1-.166.23.23 0 0 1 0-.055c-.007-.1.074-.16.245-.197zm.424.18a.446.446 0 0 0-.244-.067.193.193 0 0 0 0 .04c.011.042.04.08.08.104a.177.177 0 0 0 .139.03c.047-.011.07-.03.062-.056a.113.113 0 0 0-.037-.05zM95.635 90.276l.61-.06h.032c.056 0 .088.016.095.047a.035.035 0 0 1 0 .017c0 .026-.024.045-.07.055h-.061c.04.008.077.026.107.05.03.026.05.058.06.093a.11.11 0 0 1 0 .078.114.114 0 0 1-.036.047.14.14 0 0 1-.058.025l-.054.01-.149.03a1.108 1.108 0 0 0-.217.06h-.015c-.044.025-.06.05-.053.078v.017a.201.201 0 0 0 .063.057.161.161 0 0 1 .056.064.03.03 0 0 1 0 .021.05.05 0 0 1-.018.025.063.063 0 0 1-.03.011.182.182 0 0 1-.118-.044.29.29 0 0 1-.1-.136.154.154 0 0 1 0-.11c.037-.068.144-.121.322-.161l.064-.011.075-.015c.066-.015.098-.027.096-.042-.02-.028-.103-.051-.244-.072a1.645 1.645 0 0 0-.3-.02h-.027a.173.173 0 0 1-.066 0 .08.08 0 0 1-.038-.016.064.064 0 0 1-.02-.032.051.051 0 0 1 0-.02.086.086 0 0 1 .038-.036.104.104 0 0 1 .056-.01z" fill="#263238"/>
        <path d="M96.006 91.43c.007.015.019.03.034.04a.127.127 0 0 0 .052.023c.104.023.212.033.32.028h.243a.08.08 0 0 1 .042.014c.012.008.02.02.024.032a.16.16 0 0 1 0 .034c.005.046 0 .091-.017.134a.318.318 0 0 1-.078.117.504.504 0 0 1-.261.137.49.49 0 0 1-.283-.014.104.104 0 0 1-.04-.022.084.084 0 0 1-.023-.036.037.037 0 0 1 0-.027.06.06 0 0 1 .019-.024.072.072 0 0 1 .03-.012h.048c.078.024.163.03.244.014h.025a.335.335 0 0 0 .178-.122.14.14 0 0 0 .031-.1h-.148a2.296 2.296 0 0 1-.337-.02.231.231 0 0 1-.059-.012.287.287 0 0 1-.12-.07.234.234 0 0 1-.065-.112.145.145 0 0 1 .005-.098.17.17 0 0 1 .068-.078l-.032-.015a.272.272 0 0 1-.083-.06.234.234 0 0 1-.051-.084.123.123 0 0 1 0-.093c.027-.066.107-.113.244-.14l.068-.011a.75.75 0 0 1 .303.026c.049.01.094.031.13.061.036.03.063.068.077.11a.171.171 0 0 1 0 .085l.55-.049h.038c.05 0 .078.015.086.045a.063.063 0 0 1 0 .02c0 .026-.025.043-.069.052-.043.008-.112.013-.283.03-.27.018-.54.049-.807.093a.212.212 0 0 0-.066.023.081.081 0 0 0-.032.036.069.069 0 0 0-.005.045zm.027-.27a.34.34 0 0 0 .098 0c.117 0 .233-.008.349-.023a.057.057 0 0 0 0-.04.132.132 0 0 0-.013-.028.259.259 0 0 0-.086-.064.296.296 0 0 0-.109-.027.676.676 0 0 0-.244 0h-.032c-.058.017-.082.04-.075.068.01.02.025.038.046.05.018.025.04.047.066.064zM94.786 84.712a.53.53 0 0 0 .266-.16.41.41 0 0 0 .12-.257.329.329 0 0 0-.028-.145.37.37 0 0 0-.09-.125.456.456 0 0 0-.172-.093.327.327 0 0 0 .112-.416.521.521 0 0 0-.213-.209.631.631 0 0 0-.31-.075.719.719 0 0 0-.385.13.814.814 0 0 0-.244.318c-.09.197-.2.456-.2.456s.212.173.37.335c.095.1.214.178.35.23a.735.735 0 0 0 .424.011zM92.068 74.27s.012-.027.049-.07a1.16 1.16 0 0 1 .195-.165c.265-.167.592-.243.918-.212.225.02.439.094.62.212.212.142.375.33.473.547.114.248.14.52.073.78a1.385 1.385 0 0 1-.488.719c-.221.18-.508.289-.81.306a1.45 1.45 0 0 1-.85-.213 1.301 1.301 0 0 1-.478-.495 1.098 1.098 0 0 1-.126-.637c.038-.298.19-.576.431-.79a.878.878 0 0 1 .213-.143.209.209 0 0 1 .085-.027 2.305 2.305 0 0 0-.258.212 1.257 1.257 0 0 0-.371.759c-.015.2.03.4.132.58.102.18.255.333.446.446.215.127.471.193.732.186.285-.012.556-.111.766-.28.22-.168.376-.39.449-.635.062-.235.042-.48-.059-.704a1.183 1.183 0 0 0-.985-.706 1.438 1.438 0 0 0-.874.17c-.198.076-.273.169-.283.16z" fill="#263238"/>
        <path d="M93.569 76.183a2.696 2.696 0 0 1-.132-.34 1.776 1.776 0 0 0-.512-.688 2.02 2.02 0 0 0-.803-.386 2.652 2.652 0 0 1-.383-.078.812.812 0 0 1 .405-.013c.329.047.634.178.876.377.249.206.427.468.515.757.05.119.062.247.034.371z" fill="#263238"/>
        <path d="M93.078 75.255c-.034.017-.158-.327 0-.734.159-.407.488-.612.5-.583-.138.2-.26.409-.366.624a4.53 4.53 0 0 0-.134.693zM96.668 79.239s.026.012.07.05a.93.93 0 0 1 .15.194c.122.229.169.483.134.734a1.27 1.27 0 0 1-.33.686 1.501 1.501 0 0 1-1.496.392 1.369 1.369 0 0 1-.703-.515 1.17 1.17 0 0 1-.212-.812c.033-.265.15-.517.34-.727.145-.175.343-.311.572-.394.23-.083.48-.109.725-.075.32.063.6.228.786.463a.723.723 0 0 1 .125.212.16.16 0 0 1 .017.08 1.5 1.5 0 0 0-.186-.256 1.34 1.34 0 0 0-.761-.401 1.416 1.416 0 0 0-.661.082c-.208.08-.387.206-.518.367a1.223 1.223 0 0 0-.3.662c-.028.255.04.511.195.73.143.212.365.377.63.466.246.076.515.076.761 0 .232-.067.44-.187.598-.348a1.18 1.18 0 0 0 .232-1.325 2.553 2.553 0 0 0-.168-.265z" fill="#263238"/>
        <path d="M94.413 80.47c.125-.04.253-.07.383-.094.303-.085.58-.23.808-.424.232-.2.41-.443.522-.71.037-.118.083-.233.136-.346a.608.608 0 0 1-.041.374 1.685 1.685 0 0 1-.522.778 1.88 1.88 0 0 1-.881.413c-.249.05-.405.026-.405.008z" fill="#263238"/>
        <path d="M95.472 80.087a1.015 1.015 0 0 1 .788.058c.13.044.247.113.343.2a.819.819 0 0 1 .213.308c-.034.024-.244-.233-.617-.388-.373-.154-.725-.135-.727-.178zM92.79 78.679s-.1 0-.244-.1a.905.905 0 0 1-.37-.564.894.894 0 0 1 .04-.507c.062-.163.17-.31.316-.428a1.1 1.1 0 0 1 .602-.25c.24-.02.48.035.676.155.205.12.356.299.427.504a.965.965 0 0 1 0 .605.93.93 0 0 1-.276.439 1.145 1.145 0 0 1-.492.258c-.243.05-.499.016-.713-.095-.149-.079-.198-.162-.19-.166a1.111 1.111 0 0 0 .88.172c.165-.048.312-.132.429-.243a.853.853 0 0 0 .238-.393.864.864 0 0 0 0-.532.834.834 0 0 0-.371-.435.97.97 0 0 0-.573-.139.935.935 0 0 0-.542.214.967.967 0 0 0-.255.307.847.847 0 0 0-.019.743.95.95 0 0 0 .24.317c.114.097.202.127.197.138z" fill="#263238"/>
        <path d="M93.966 77.192c-.271.19-.493.427-.651.697-.113.291-.157.6-.127.905-.017 0-.078-.089-.107-.265a1.16 1.16 0 0 1 .105-.69c.102-.216.271-.402.488-.54.168-.099.285-.122.292-.107z" fill="#263238"/>
        <path d="M93.347 77.755c.024.028-.218.212-.571.202-.354-.011-.586-.179-.559-.212.027-.034.244.076.561.074.317-.002.55-.098.569-.064zM93.976 75.882c0-.011.073.025.203.063.183.05.377.055.563.017a1.25 1.25 0 0 0 .708-.396c.215-.26.325-.575.312-.895a1.43 1.43 0 0 0-.056-.373l.078.044a2.232 2.232 0 0 0-.753.297 1.925 1.925 0 0 0-.56.528 3.901 3.901 0 0 0-.295.555.418.418 0 0 1 .022-.167c.043-.148.108-.291.196-.424.14-.228.334-.427.57-.583.237-.157.509-.267.798-.324l.061-.013.017.057c.041.133.063.27.066.407.01.35-.115.693-.356.973a1.319 1.319 0 0 1-.793.424 1.167 1.167 0 0 1-.6-.06c-.13-.073-.186-.126-.18-.13z" fill="#263238"/>
        <path d="M95.43 74.875c-.172.232-.396.43-.658.585-.23.184-.5.322-.796.407.218-.191.457-.363.715-.513.39-.271.713-.506.74-.479zM93.264 76.239a.477.477 0 0 1-.108.154c-.118.126-.26.233-.42.318a1.76 1.76 0 0 1-1.713-.015 1.595 1.595 0 0 1-.536-.496l-.03-.044.042-.036c.156-.132.348-.227.557-.278.209-.05.43-.055.641-.013a.795.795 0 0 1 .432.202 3.146 3.146 0 0 0-.449-.123 1.461 1.461 0 0 0-.587.04c-.189.052-.361.142-.504.263l.013-.078c.126.18.297.334.5.449.256.144.556.218.861.212.257-.008.507-.067.732-.174.205-.109.396-.237.569-.381z" fill="#263238"/>
        <path d="M91.32 76.463c.274-.134.582-.207.897-.212.512-.043.92.034.915.068-.005.034-.412.023-.908.063-.495.04-.895.119-.905.08zM90.64 82.265s-.011-.027-.019-.082a.914.914 0 0 1 0-.242c.047-.3.184-.582.398-.82a3.52 3.52 0 0 1 1.144-.813c.528-.225 1.03-.491 1.503-.795.237-.166.434-.37.584-.602.137-.22.229-.46.27-.708.071-.42.011-.85-.173-1.244a2.905 2.905 0 0 0-.488-.725 2.49 2.49 0 0 1-.224-.242c.1.059.19.13.266.212.223.214.405.459.539.723.206.408.279.858.21 1.3a2.07 2.07 0 0 1-.279.754c-.158.244-.368.46-.62.636a9.59 9.59 0 0 1-1.53.802 3.53 3.53 0 0 0-1.126.76c-.21.224-.354.488-.42.77-.04.2-.02.316-.034.316z" fill="#263238"/>
        <path d="M94.594 77.718c-.04 0-.064-.16-.2-.288-.137-.13-.3-.168-.298-.213.002-.044.048-.035.132-.025a.49.49 0 0 1 .27.136c.074.072.12.164.13.26 0 .085-.022.13-.034.13zM96.118 77.86c0 .037-.346-.018-.749.056-.402.075-.702.234-.732.2-.029-.034.261-.255.703-.331.442-.076.793.042.778.074z" fill="#263238"/>
        <path d="M94.547 78.218c.26 0 .52.013.779.038.278.014.558-.007.83-.064.335-.071.638-.23.868-.453v.095l-.025-.017a2.016 2.016 0 0 0-.92-.354 2.098 2.098 0 0 0-.827.068 3.64 3.64 0 0 0-.707.32s.044-.061.153-.144a2.091 2.091 0 0 1 1.4-.365c.366.038.71.167.992.371l.024.017.059.042-.052.053a1.823 1.823 0 0 1-.949.484 3.003 3.003 0 0 1-.864.04 5.634 5.634 0 0 1-.568-.078c-.125-.026-.195-.045-.193-.053zM92.302 80.152s-.066 0-.178-.028a1.662 1.662 0 0 1-.441-.212 1.831 1.831 0 0 1-.553-.58 1.572 1.572 0 0 1-.22-.728v-.06h.063a1.435 1.435 0 0 1 1.13.293c.21.174.35.401.402.649.04.168.04.341 0 .509a.36.36 0 0 1-.073.174c.035-.22.027-.442-.022-.66a1.116 1.116 0 0 0-.39-.578 1.356 1.356 0 0 0-1.025-.257l.06-.07c.01.24.077.476.197.692.119.217.288.41.497.567.174.111.36.207.553.289z" fill="#263238"/>
        <path d="M92.398 80.199c-.022 0-.044-.076-.108-.189a1.983 1.983 0 0 0-.32-.398 2.422 2.422 0 0 1-.346-.412c-.073-.118-.088-.212-.07-.212.016 0 .065.062.156.161.09.1.222.225.37.376a1.3 1.3 0 0 1 .303.45c.049.133.034.222.015.224zM94.513 80.54c0 .035-.434.122-.94-.031a1.365 1.365 0 0 1-.775-.475c.029-.032.346.212.822.348.476.135.89.13.893.159zM91.956 80.662s.07 0 .185.051c.164.069.311.164.435.28.191.18.329.399.4.636.09.305.079.625-.032.924l-.017.05h-.042a1.483 1.483 0 0 1-1.137-.56 1.219 1.219 0 0 1-.244-.776c.004-.185.048-.367.132-.537.064-.116.115-.172.122-.167-.1.224-.152.461-.153.701.006.252.096.496.258.704a1.394 1.394 0 0 0 1.03.503l-.073.046c.1-.274.115-.567.041-.848a1.42 1.42 0 0 0-.346-.606 2.654 2.654 0 0 0-.56-.4z" fill="#263238"/>
        <path d="M92.466 82.077c-.025.025-.332-.246-.488-.7a1.187 1.187 0 0 1-.04-.848c.042 0 .028.376.177.797.148.422.383.726.35.75zM90.96 81.181a.728.728 0 0 1-.522-.074.912.912 0 0 1-.493-1.134l.015-.055h.063c.215.028.416.11.58.233a.997.997 0 0 1 .348.467.64.64 0 0 1 .024.466 2.778 2.778 0 0 0-.117-.424.968.968 0 0 0-.335-.402 1.18 1.18 0 0 0-.522-.2l.078-.049a.831.831 0 0 0 .056.66c.076.145.198.269.352.356.15.07.308.123.473.156zM93.835 81.171c0-.013.11-.017.244.076.044.032.08.073.103.118a.29.29 0 0 1 .033.145.272.272 0 0 1-.09.177.351.351 0 0 1-.198.088.347.347 0 0 1-.208-.053.271.271 0 0 1-.118-.159.29.29 0 0 1-.015-.151.308.308 0 0 1 .066-.141c.12-.138.244-.13.244-.115s-.093.051-.161.164a.21.21 0 0 0 0 .197c.013.035.039.065.074.086a.216.216 0 0 0 .118.03.206.206 0 0 0 .112-.045.162.162 0 0 0 .057-.095.218.218 0 0 0-.014-.1.243.243 0 0 0-.06-.086c-.1-.08-.2-.117-.187-.136zM91.038 80.102c0-.015.062-.042.179-.027a.23.23 0 0 1 .105.045c.03.023.052.053.063.086a.151.151 0 0 1-.017.148.176.176 0 0 1-.067.056.209.209 0 0 1-.09.02.266.266 0 0 1-.138-.046.213.213 0 0 1-.08-.108.218.218 0 0 1 .011-.212.145.145 0 0 1 .057-.051.173.173 0 0 1 .08-.019c.037 0 .049.021.046.028-.002.006-.07.02-.092.084a.14.14 0 0 0 .017.113c.024.042.066.076.102.074.078 0 .051-.11-.03-.136-.08-.025-.148-.033-.145-.055zM91.458 77.556c-.017-.013.068-.078.18 0 .036.025.06.06.07.098a.157.157 0 0 1-.013.114.224.224 0 0 1-.098.099.274.274 0 0 1-.146.03.253.253 0 0 1-.127-.067.2.2 0 0 1-.059-.12.187.187 0 0 1 .015-.104.215.215 0 0 1 .07-.086c.103-.072.184-.04.179-.025-.005.014-.061.031-.108.09a.12.12 0 0 0-.026.049.107.107 0 0 0 0 .053.095.095 0 0 0 .03.05.12.12 0 0 0 .055.029c.02.001.04-.003.059-.011a.096.096 0 0 0 .041-.038.067.067 0 0 0 .015-.042.068.068 0 0 0-.015-.043c-.054-.068-.115-.061-.122-.076zM95.108 76.308c0 .019-.044.052-.05.127-.008.074.043.159.153.125a.133.133 0 0 0 .056-.03.109.109 0 0 0 .031-.05.098.098 0 0 0 0-.057.11.11 0 0 0-.034-.05c-.048-.057-.11-.06-.112-.078-.002-.02.076-.06.18 0 .033.02.058.048.076.08a.189.189 0 0 1 .022.1.215.215 0 0 1-.052.13.268.268 0 0 1-.128.082.263.263 0 0 1-.147.003.23.23 0 0 1-.12-.075.208.208 0 0 1-.024-.212c.052-.104.15-.112.15-.095zM96.96 78.538c0-.015.064-.05.159 0a.192.192 0 0 1 .067.07.161.161 0 0 1 .02.089.195.195 0 0 1-.045.113.242.242 0 0 1-.108.074.223.223 0 0 1-.135-.011.184.184 0 0 1-.094-.085.143.143 0 0 1-.013-.1.159.159 0 0 1 .059-.088c.102-.068.178 0 .161 0-.017 0-.059.014-.09.061a.048.048 0 0 0 0 .064c.008.01.02.019.033.023a.084.084 0 0 0 .042.004.1.1 0 0 0 .04-.027.081.081 0 0 0 .019-.04.084.084 0 0 0-.001-.042.092.092 0 0 0-.021-.037c-.039-.04-.093-.051-.093-.068zM94.798 73.484c0 .019-.065 0-.124.057s-.08.136.017.174c.098.038.154-.036.151-.11-.002-.075-.048-.102-.041-.12.007-.016.097-.014.139.098.012.034.015.07.008.104a.208.208 0 0 1-.047.096.227.227 0 0 1-.123.068.253.253 0 0 1-.255-.1.19.19 0 0 1-.032-.125.197.197 0 0 1 .044-.095.24.24 0 0 1 .09-.066c.117-.053.188.008.173.019zM93.4 73.204c.187-.129.361-.27.52-.424.18-.197.311-.424.385-.666a1.58 1.58 0 0 0 .045-.744l.087.05-.075.022a1.5 1.5 0 0 0-.732.5 1.309 1.309 0 0 0-.261.649c-.01.214.015.428.073.636 0 0-.049-.049-.093-.157a1.17 1.17 0 0 1-.08-.492c.008-.252.092-.497.244-.712.187-.257.467-.453.795-.558l.083-.023.073-.021.015.072c.052.295.022.597-.088.88a1.66 1.66 0 0 1-.412.617 1.664 1.664 0 0 1-.413.294c-.097.066-.163.083-.166.077z" fill="#263238"/>
        <path d="M94.025 71.835a5.85 5.85 0 0 0-.356.615c-.142.356-.105.67-.149.676-.044.006-.141-.322.017-.719.159-.396.468-.602.488-.572zM95.038 81.796s.044-.077.19-.119a.795.795 0 0 1 .313-.006c.104.019.201.058.285.114a2.12 2.12 0 0 1 .88 1.018c.034.082.062.167.084.252a.534.534 0 0 1 0 .293.282.282 0 0 1-.1.15.284.284 0 0 1-.181.053 1.274 1.274 0 0 1-.288-.072 1.92 1.92 0 0 1-.464-.25 1.845 1.845 0 0 1-.56-.636 1.524 1.524 0 0 1-.17-.539.45.45 0 0 1 0-.212c.049.242.131.478.245.702.134.229.323.43.554.592.132.092.278.169.434.227.078.029.16.05.244.06.068 0 .112-.03.134-.1a.9.9 0 0 0-.088-.467 2.158 2.158 0 0 0-.813-.994.705.705 0 0 0-.246-.119.766.766 0 0 0-.28-.02c-.06.02-.118.044-.173.073z" fill="#263238"/>
        <path d="M96.35 82.906c-.024.028-.351-.188-.695-.517a2.106 2.106 0 0 1-.542-.657c.032-.023.305.242.644.564.34.322.62.58.593.61z" fill="#263238"/>
        <path d="M92.11 89.237a4.961 4.961 0 0 1-.07-.197l-.189-.577c-.161-.509-.393-1.232-.676-2.12-.576-1.787-1.413-4.24-2.35-6.96-.937-2.72-1.761-5.18-2.315-6.973-.278-.897-.488-1.624-.64-2.12l-.16-.58-.04-.151a.128.128 0 0 1 0-.053c.01.016.018.033.022.05 0 .039.03.088.052.15.044.14.107.332.185.574l.676 2.12c.576 1.789 1.413 4.24 2.352 6.962.94 2.722 1.76 5.177 2.316 6.97.275.897.488 1.624.636 2.12.069.246.122.44.164.581.015.062.027.11.039.153a.136.136 0 0 1-.002.05z" fill="#7C5142"/>
    </g>
    <defs>
        <linearGradient id="ep6587sddb" x1="73.531" y1="85.689" x2="103.672" y2="85.858" gradientUnits="userSpaceOnUse">
            <stop stop-color="#FF4C35"/>
            <stop offset=".182" stop-color="#FE9B05"/>
            <stop offset=".365" stop-color="#FBC600"/>
            <stop offset=".594" stop-color="#72C63D"/>
            <stop offset=".781" stop-color="#665DFB"/>
            <stop offset="1" stop-color="#C92CE5"/>
        </linearGradient>
        <linearGradient id="o4piypj05c" x1="3.821" y1="85.34" x2="27.27" y2="85.455" gradientUnits="userSpaceOnUse">
            <stop stop-color="#FF4C35"/>
            <stop offset=".182" stop-color="#FE9B05"/>
            <stop offset=".365" stop-color="#FBC600"/>
            <stop offset=".594" stop-color="#72C63D"/>
            <stop offset=".781" stop-color="#665DFB"/>
            <stop offset="1" stop-color="#C92CE5"/>
        </linearGradient>
        <clipPath id="hye4k2uq1a">
            <rect width="108" height="106" rx="8" fill="#fff"/>
        </clipPath>
    </defs>
</svg>
