<svg width="16" height="16" viewBox="0 0 16 16" fill="none" xmlns="http://www.w3.org/2000/svg">
    <g clip-path="url(#rvkrkcdoma)">
        <path d="m14.273 7.72-6-6a1.325 1.325 0 0 0-.94-.387H2.667c-.734 0-1.334.6-1.334 1.333v4.667c0 .367.147.7.394.947l6 6c.24.24.573.386.94.386.366 0 .7-.146.94-.393l4.666-4.667c.247-.24.394-.573.394-.94 0-.366-.154-.706-.394-.946zM3.667 4.666c-.554 0-1-.446-1-1 0-.553.446-1 1-1 .553 0 1 .447 1 1 0 .554-.447 1-1 1z" fill="#BA9E3A"/>
    </g>
    <defs>
        <clipPath id="rvkrkcdoma">
            <path fill="#fff" d="M0 0h16v16H0z"/>
        </clipPath>
    </defs>
</svg>
