<svg width="24" height="24" viewBox="0 0 24 24" fill="none" xmlns="http://www.w3.org/2000/svg">
<g clip-path="url(#clip0_808_6773)">
<path d="M13 5.08078C16.06 5.52078 18.48 7.94078 18.92 11.0008H21.95C21.48 6.28078 17.72 2.52078 13 2.05078V5.08078ZM18.92 13.0008C18.48 16.0608 16.06 18.4808 13 18.9208V21.9508C17.72 21.4808 21.48 17.7208 21.95 13.0008H18.92ZM11 18.9208C7.61 18.4308 5 15.5208 5 12.0008C5 8.48078 7.61 5.57078 11 5.08078V2.05078C5.95 2.55078 2 6.81078 2 12.0008C2 17.1908 5.95 21.4508 11 21.9508V18.9208Z" fill="#78909C"/>
</g>
<defs>
<clipPath id="clip0_808_6773">
<rect width="24" height="24" fill="white"/>
</clipPath>
</defs>
</svg>
