<svg width="16" height="16" viewBox="0 0 16 16" fill="none" xmlns="http://www.w3.org/2000/svg">
    <g clip-path="url(#6lamlz19aa)">
        <path d="M8 1.334c-2.8 0-5.333 2.147-5.333 5.467 0 2.12 1.633 4.613 4.893 7.486.253.22.633.22.887 0 3.253-2.873 4.886-5.366 4.886-7.486 0-3.32-2.533-5.467-5.333-5.467zm0 6.667c-.733 0-1.333-.6-1.333-1.334 0-.733.6-1.333 1.333-1.333s1.333.6 1.333 1.333c0 .734-.6 1.334-1.333 1.334z" fill="#BA9E3A"/>
    </g>
    <defs>
        <clipPath id="6lamlz19aa">
            <path fill="#fff" d="M0 0h16v16H0z"/>
        </clipPath>
    </defs>
</svg>
