<svg width="16" height="16" viewBox="0 0 16 16" fill="none" xmlns="http://www.w3.org/2000/svg">
    <g clip-path="url(#oy3nf1buia)">
        <path d="M10.667 8h-2C8.3 8 8 8.3 8 8.665v2c0 .367.3.667.667.667h2c.366 0 .666-.3.666-.667v-2c0-.367-.3-.667-.666-.667zm0-6.667v.666H5.333v-.666c0-.367-.3-.667-.666-.667-.367 0-.667.3-.667.667v.666h-.667c-.74 0-1.326.6-1.326 1.334L2 12.666c0 .733.593 1.333 1.333 1.333h9.334C13.4 14 14 13.4 14 12.666V3.333c0-.734-.6-1.334-1.333-1.334H12v-.666c0-.367-.3-.667-.667-.667-.366 0-.666.3-.666.667zM12 12.666H4a.669.669 0 0 1-.667-.667V5.333h9.334v6.666c0 .367-.3.667-.667.667z" fill="#546E7A"/>
    </g>
    <defs>
        <clipPath id="oy3nf1buia">
            <path fill="#fff" d="M0 0h16v16H0z"/>
        </clipPath>
    </defs>
</svg>
