<svg width="16" height="16" viewBox="0 0 16 16" fill="none" xmlns="http://www.w3.org/2000/svg">
    <g clip-path="url(#au8oyw35ca)">
        <path d="m10.066 12.914.667 1.16a6.55 6.55 0 0 1-2.067.56v-1.347c.494-.06.96-.187 1.4-.373zM2.713 8.667H1.366c.074.734.267 1.427.56 2.067l1.16-.667a5.166 5.166 0 0 1-.373-1.4zm7.353-5.58.667-1.16a6.498 6.498 0 0 0-2.067-.56v1.347c.494.06.96.187 1.4.373zm3.22 4.247h1.347a6.501 6.501 0 0 0-.56-2.067l-1.16.667c.187.44.313.907.373 1.4zm-7.353 5.58-.667 1.16a6.55 6.55 0 0 0 2.067.56v-1.347a5.168 5.168 0 0 1-1.4-.373zm1.4-10.2V1.367a6.498 6.498 0 0 0-2.067.56l.667 1.16c.44-.186.907-.313 1.4-.373zm4.906 2.067 1.16-.674a6.79 6.79 0 0 0-1.513-1.513l-.673 1.16c.393.3.733.64 1.027 1.027zM3.086 5.934l-1.16-.667a6.499 6.499 0 0 0-.56 2.067h1.347c.06-.493.187-.96.373-1.4zm10.2 2.733c-.06.494-.186.96-.373 1.4l1.16.667a6.55 6.55 0 0 0 .56-2.067h-1.347zm-2.066 3.574.673 1.16a6.79 6.79 0 0 0 1.513-1.514l-1.16-.673c-.3.393-.64.733-1.027 1.027zM4.78 3.76l-.667-1.167A6.682 6.682 0 0 0 2.6 4.114l1.16.673a5.133 5.133 0 0 1 1.02-1.026zm-1.02 7.46-1.16.666A6.79 6.79 0 0 0 4.113 13.4l.673-1.16a5.132 5.132 0 0 1-1.026-1.02zM8 4.666c-.367 0-.667.3-.667.667v2.393c0 .354.14.694.393.94l2 2a.664.664 0 1 0 .94-.94l-2-2V5.334c0-.367-.3-.667-.666-.667z" fill="#546E7A"/>
    </g>
    <defs>
        <clipPath id="au8oyw35ca">
            <path fill="#fff" d="M0 0h16v16H0z"/>
        </clipPath>
    </defs>
</svg>
