<svg width="24" height="24" viewBox="0 0 24 24" fill="none" xmlns="http://www.w3.org/2000/svg">
    <g clip-path="url(#xmxcmgh3da)">
        <path d="m23 12-2.44-2.79.34-3.69-3.61-.82-1.89-3.2L12 2.96 8.6 1.5 6.71 4.69 3.1 5.5l.34 3.7L1 12l2.44 2.79-.34 3.7 3.61.82L8.6 22.5l3.4-1.47 3.4 1.46 1.89-3.19 3.61-.82-.34-3.69L23 12zM9.38 16.01 7 13.61a.996.996 0 0 1 0-1.41l.07-.07c.39-.39 1.03-.39 1.42 0l1.61 1.62 5.15-5.16c.39-.39 1.03-.39 1.42 0l.07.07c.39.39.39 1.02 0 1.41l-5.92 5.94c-.41.39-1.04.39-1.44 0z" fill="url(#v8x6jzr09b)"/>
    </g>
    <defs>
        <linearGradient id="v8x6jzr09b" x1="2.543" y1="16.389" x2="21.315" y2="16.529" gradientUnits="userSpaceOnUse">
            <stop stop-color="#FF4C35"/>
            <stop offset=".182" stop-color="#FE9B05"/>
            <stop offset=".365" stop-color="#FBC600"/>
            <stop offset=".594" stop-color="#72C63D"/>
            <stop offset=".781" stop-color="#665DFB"/>
            <stop offset="1" stop-color="#C92CE5"/>
        </linearGradient>
        <clipPath id="xmxcmgh3da">
            <path fill="#fff" d="M0 0h24v24H0z"/>
        </clipPath>
    </defs>
</svg>
