<svg width="24" height="24" viewBox="0 0 24 24" fill="none" xmlns="http://www.w3.org/2000/svg">
    <path d="m12 20.975-1.025-.925C9.208 18.433 7.75 17.037 6.6 15.862c-1.15-1.175-2.067-2.225-2.75-3.15-.683-.925-1.163-1.762-1.438-2.512A6.564 6.564 0 0 1 2 7.925c0-1.5.504-2.754 1.513-3.763C4.52 3.154 5.767 2.65 7.25 2.65c.95 0 1.83.225 2.637.675.809.45 1.513 1.1 2.113 1.95.7-.9 1.442-1.563 2.225-1.988a5.213 5.213 0 0 1 2.525-.637c1.483 0 2.73.504 3.738 1.512C21.495 5.171 22 6.425 22 7.925c0 .767-.137 1.525-.413 2.275-.274.75-.754 1.587-1.437 2.512s-1.6 1.975-2.75 3.15c-1.15 1.175-2.608 2.571-4.375 4.188L12 20.975z" fill="#fff"/>
</svg>
