<svg width="16" height="16" viewBox="0 0 16 16" fill="none" xmlns="http://www.w3.org/2000/svg">
    <g clip-path="url(#jobp831wpa)">
        <path d="M8 1.334c-3.667 0-6.667 3-6.667 6.667 0 3.666 3 6.666 6.667 6.666 3.666 0 6.666-3 6.666-6.666 0-3.667-3-6.667-6.666-6.667zm2.366 9.2-2.72-1.673a.657.657 0 0 1-.32-.567V5.167a.514.514 0 0 1 .507-.5c.273 0 .5.227.5.5v2.967l2.56 1.54c.24.147.32.46.173.7a.513.513 0 0 1-.7.16z" fill="#546E7A"/>
    </g>
    <defs>
        <clipPath id="jobp831wpa">
            <path fill="#fff" d="M0 0h16v16H0z"/>
        </clipPath>
    </defs>
</svg>
