<svg width="16" height="16" viewBox="0 0 16 16" fill="none" xmlns="http://www.w3.org/2000/svg">
    <g clip-path="url(#ocfa80m6oa)">
        <path d="M3.333 3.333C3.333 2.6 3.933 2 4.667 2h4.666a3.335 3.335 0 0 0 3.333 5.267v5.72c0 .48-.486.8-.926.613L8 12l-3.74 1.6a.663.663 0 0 1-.927-.613V3.333zm11.38-1.106c.26.26.26.68 0 .94l-2.36 2.36c-.26.26-.68.26-.94 0l-.94-.94a.664.664 0 1 1 .94-.94l.474.473 1.886-1.887a.658.658 0 0 1 .94-.006z" fill="#90A4AE"/>
    </g>
    <defs>
        <clipPath id="ocfa80m6oa">
            <path fill="#fff" d="M0 0h16v16H0z"/>
        </clipPath>
    </defs>
</svg>
