<svg width="40" height="40" viewBox="0 0 40 40" fill="none" xmlns="http://www.w3.org/2000/svg">
    <rect width="40" height="40" rx="20" fill="#ECEFF1"/>
    <g clip-path="url(#fnqj5t39ka)">
        <path d="M13.333 16.667h3.334v-3.333h-3.334v3.333zm5 10h3.334v-3.333h-3.334v3.333zm-5 0h3.334v-3.333h-3.334v3.333zm0-5h3.334v-3.333h-3.334v3.333zm5 0h3.334v-3.333h-3.334v3.333zm5-8.333v3.333h3.334v-3.333h-3.334zm-5 3.333h3.334v-3.333h-3.334v3.333zm5 5h3.334v-3.333h-3.334v3.333zm0 5h3.334v-3.333h-3.334v3.333z" fill="url(#t9byr454hb)"/>
    </g>
    <defs>
        <linearGradient id="t9byr454hb" x1="14.268" y1="22.788" x2="25.646" y2="22.868" gradientUnits="userSpaceOnUse">
            <stop stop-color="#FF4C35"/>
            <stop offset=".182" stop-color="#FE9B05"/>
            <stop offset=".365" stop-color="#FBC600"/>
            <stop offset=".594" stop-color="#72C63D"/>
            <stop offset=".781" stop-color="#665DFB"/>
            <stop offset="1" stop-color="#C92CE5"/>
        </linearGradient>
        <clipPath id="fnqj5t39ka">
            <path fill="#fff" transform="translate(10 10)" d="M0 0h20v20H0z"/>
        </clipPath>
    </defs>
</svg>
