<svg width="24" height="24" viewBox="0 0 24 24" fill="none" xmlns="http://www.w3.org/2000/svg">
    <g clip-path="url(#cigsrrzmja)">
        <path d="m10.92 12.75 1.08-.82 1.07.81c.39.29.92-.08.78-.55l-.42-1.36 1.2-.95c.37-.28.16-.88-.32-.88h-1.4l-.43-1.34a.5.5 0 0 0-.95 0L11.09 9H9.68c-.47 0-.68.6-.31.89l1.19.95-.42 1.36c-.14.47.39.84.78.55zM6 21.61c0 .68.67 1.16 1.32.95L12 21l4.68 1.56a.998.998 0 0 0 1.32-.95v-6.33A7.96 7.96 0 0 0 20 10c0-4.42-3.58-8-8-8s-8 3.58-8 8c0 2.03.76 3.87 2 5.28v6.33zM12 4c3.31 0 6 2.69 6 6s-2.69 6-6 6-6-2.69-6-6 2.69-6 6-6z" fill="url(#urjerae85b)"/>
    </g>
    <defs>
        <linearGradient id="urjerae85b" x1="5.122" y1="16.616" x2="18.775" y2="16.691" gradientUnits="userSpaceOnUse">
            <stop stop-color="#FF4C35"/>
            <stop offset=".182" stop-color="#FE9B05"/>
            <stop offset=".365" stop-color="#FBC600"/>
            <stop offset=".594" stop-color="#72C63D"/>
            <stop offset=".781" stop-color="#665DFB"/>
            <stop offset="1" stop-color="#C92CE5"/>
        </linearGradient>
        <clipPath id="cigsrrzmja">
            <path fill="#fff" d="M0 0h24v24H0z"/>
        </clipPath>
    </defs>
</svg>
