<svg width="100" height="100" viewBox="0 0 100 100" fill="none" xmlns="http://www.w3.org/2000/svg">
    <path d="M26.667 10v10m46.666-10v10M10 80V30a10 10 0 0 1 10-10h60a10 10 0 0 1 10 10v50m-80 0a10 10 0 0 0 10 10h60a10 10 0 0 0 10-10m-80 0V46.667a10 10 0 0 1 10-10h60a10 10 0 0 1 10 10V80M50 53.333h.036v.036H50v-.036zm0 10h.036v.036H50v-.036zm0 10h.036v.036H50v-.036zm-10-10h.036v.036H40v-.036zm0 10h.036v.036H40v-.036zm-10-10h.036v.036H30v-.036zm0 10h.036v.036H30v-.036zm30-20h.036v.036H60v-.036zm0 10h.036v.036H60v-.036zm0 10h.036v.036H60v-.036zm10-20h.036v.036H70v-.036zm0 10h.036v.036H70v-.036z" stroke="url(#gwl2iutw1a)" stroke-width="3.704" stroke-linecap="round" stroke-linejoin="round"/>
    <defs>
        <linearGradient id="gwl2iutw1a" x1="15.61" y1="66.721" x2="83.874" y2="67.206" gradientUnits="userSpaceOnUse">
            <stop stop-color="#FF4C35"/>
            <stop offset=".182" stop-color="#FE9B05"/>
            <stop offset=".365" stop-color="#FBC600"/>
            <stop offset=".594" stop-color="#72C63D"/>
            <stop offset=".781" stop-color="#665DFB"/>
            <stop offset="1" stop-color="#C92CE5"/>
        </linearGradient>
    </defs>
</svg>
