<svg width="68" height="68" viewBox="0 0 68 68" fill="none" xmlns="http://www.w3.org/2000/svg">
    <path d="M60.859 17.828a6.836 6.836 0 0 1-.831.557 9.78 9.78 0 0 1-3.717 1.272 9.458 9.458 0 0 1-2.856-3.981c-.529-1.536-.06-2.514.978-3.042.177-.085.364-.148.557-.186h.274a2.299 2.299 0 0 1 2.348 1.859l.117.508.372-.44a2.298 2.298 0 0 1 2.934-.284c.231.174.427.39.577.636.655 1.018.528 2.093-.753 3.1z" fill="url(#weicguuf6a)"/>
    <path d="M54.511 23.149a.331.331 0 0 1-.254-.117.333.333 0 0 1 .049-.46c.407-.292.741-.674.978-1.115a.323.323 0 0 1 .43-.157.322.322 0 0 1 .166.421 4 4 0 0 1-1.125 1.36.324.324 0 0 1-.244.068zM14.887 41.841a.323.323 0 0 1-.274-.156 15.742 15.742 0 0 1-1.34-2.935.332.332 0 0 1 .332-.43.312.312 0 0 1 .284.225 14.42 14.42 0 0 0 1.281 2.827.323.323 0 0 1-.117.44.254.254 0 0 1-.166.03zm-1.957-5.996a.312.312 0 0 1-.322-.283 14.341 14.341 0 0 1 .01-3.248.333.333 0 0 1 .361-.283.333.333 0 0 1 .284.361 14.058 14.058 0 0 0-.098 1.585c0 .507.03 1.013.088 1.516a.333.333 0 0 1-.293.352h-.03zm.763-6.25h-.117a.323.323 0 0 1-.186-.42c.153-.384.326-.76.519-1.126.322-.591.675-1.166 1.056-1.721a.325.325 0 0 1 .541.02.325.325 0 0 1-.013.361c-.355.53-.681 1.079-.978 1.644-.203.348-.38.71-.528 1.085a.332.332 0 0 1-.303.157h.01zm34.89-4.45a.322.322 0 0 1-.01-.646c1.033-.05 2.056-.23 3.043-.538a.333.333 0 0 1 .195.626 12.94 12.94 0 0 1-3.208.557h-.02zm-3.198-.167a17.875 17.875 0 0 1-3.13-.782.322.322 0 0 1-.206-.411.332.332 0 0 1 .401-.215c.987.343 2.001.599 3.033.763a.313.313 0 0 1 .264.371.323.323 0 0 1-.362.274zm-28.082-.538a.323.323 0 0 1-.225-.567 15.043 15.043 0 0 1 2.64-1.888.322.322 0 0 1 .44.127.323.323 0 0 1-.126.44c-.906.503-1.75 1.11-2.514 1.81a.362.362 0 0 1-.196.078h-.02zm22.086-1.477a.411.411 0 0 1-.147 0 24.248 24.248 0 0 1-1.868-1.056 23.91 23.91 0 0 1-.9-.587.324.324 0 1 1 .362-.538c.284.196.577.391.88.577a15.78 15.78 0 0 0 1.82.978.315.315 0 0 1 .173.31.312.312 0 0 1-.036.12.303.303 0 0 1-.265.196h-.019zM22.761 21.34a.333.333 0 0 1-.313-.226.32.32 0 0 1 .215-.41 20.193 20.193 0 0 1 3.16-.724.329.329 0 0 1 .328.154.325.325 0 0 1-.23.491c-1.029.15-2.043.382-3.033.695l-.127.02zm6.26-.979a.333.333 0 0 1-.333-.293.323.323 0 0 1 .303-.352 80.44 80.44 0 0 0 3.15-.323.323.323 0 0 1 .293.521.332.332 0 0 1-.215.125c-.978.117-1.956.224-3.179.322h-.02zm6.309-.812a.323.323 0 0 1-.185-.59.312.312 0 0 1 .116-.045 37.694 37.694 0 0 0 3.072-.724.323.323 0 1 1 .176.616 31.88 31.88 0 0 1-3.12.743h-.06zm-1.174-.166a.312.312 0 0 1-.225-.098 14.791 14.791 0 0 1-2.025-2.562.322.322 0 0 1 .098-.45.313.313 0 0 1 .44.088c.565.863 1.221 1.663 1.956 2.386a.313.313 0 0 1 0 .46.343.343 0 0 1-.195.137l-.05.04zm7.316-1.682a.332.332 0 0 1-.293-.186.322.322 0 0 1 .156-.43c.944-.424 1.831-.962 2.641-1.605a.327.327 0 1 1 .411.51 13.336 13.336 0 0 1-2.797 1.71.34.34 0 0 1-.118 0zm-10.661-3.649a.332.332 0 0 1-.313-.225 11.612 11.612 0 0 1-.538-3.218.323.323 0 0 1 .313-.332.312.312 0 0 1 .323.313c.025 1.03.197 2.05.508 3.032a.324.324 0 0 1-.205.41l-.088.02zm15.415-.4a.344.344 0 0 1-.166 0 .323.323 0 0 1-.117-.44c.489-.892.789-1.874.88-2.886a.303.303 0 0 1 .352-.294.323.323 0 0 1 .293.352 7.951 7.951 0 0 1-.978 3.14.333.333 0 0 1-.264.127zm-15.582-5.87h-.078a.312.312 0 0 1-.235-.39 11.27 11.27 0 0 1 1.233-3.023.327.327 0 1 1 .557.342 10.202 10.202 0 0 0-1.164 2.837.322.322 0 0 1-.313.225v.01zM46.98 7.49a.323.323 0 0 1-.313-.254 7.14 7.14 0 0 0-1.213-2.759.324.324 0 1 1 .519-.39 7.64 7.64 0 0 1 1.37 3.002.313.313 0 0 1-.245.382l-.118.02zM34.127 2.696a.342.342 0 0 1-.323-.296.323.323 0 0 1 .166-.32 10.006 10.006 0 0 1 3.1-1.007.313.313 0 0 1 .373.264.333.333 0 0 1-.265.381 9.272 9.272 0 0 0-2.934.978.294.294 0 0 1-.117 0zm9.184-.146a.254.254 0 0 1-.146 0 8.54 8.54 0 0 0-2.935-.9.342.342 0 0 1-.283-.372.324.324 0 0 1 .371-.274 9.156 9.156 0 0 1 3.13.978.323.323 0 0 1 .127.44.313.313 0 0 1-.264.128zM17.997 45.587a.293.293 0 0 1-.215-.078 16.58 16.58 0 0 1-1.193-1.144.314.314 0 0 1 0-.46.324.324 0 0 1 .46 0c.36.39.741.76 1.144 1.105a.332.332 0 0 1 0 .46.352.352 0 0 1-.196.117z" fill="#455A64"/>
    <path d="m55.665 67.36-32.66-16.256a16.169 16.169 0 0 0-10.417-1.487c-3.16.656-6.387 2.338-7.434 6.358-1.046 4.02 3.17 8.53 14.467 10.134 15.66 2.22 36.044 1.252 36.044 1.252z" fill="url(#z4ot9desgb)"/>
    <path opacity=".3" d="m55.665 67.36-32.66-16.256a16.169 16.169 0 0 0-10.417-1.487c-3.16.656-6.387 2.338-7.434 6.358-1.046 4.02 3.17 8.53 14.467 10.134 15.66 2.22 36.044 1.252 36.044 1.252z" fill="#fff"/>
    <path d="M55.665 67.36 24.16 46.244s-3.082-7.248 5.79-8.334c4.01-.489 8.324 1.282 13.528 8.334 6.426 8.705 12.187 21.118 12.187 21.118z" fill="url(#3ow9v2s8bc)"/>
    <path opacity=".3" d="M55.665 67.36 24.16 46.244s-3.082-7.248 5.79-8.334c4.01-.489 8.324 1.282 13.528 8.334 6.426 8.705 12.187 21.118 12.187 21.118z" fill="#fff"/>
    <path d="m24.16 46.243.606 5.751 30.9 15.367L24.16 46.243z" fill="url(#8fl44om0td)"/>
    <path opacity=".2" d="m24.16 46.243.606 5.751 30.9 15.367L24.16 46.243z" fill="#000"/>
    <defs>
        <linearGradient id="weicguuf6a" x1="53.851" y1="17.559" x2="61.329" y2="17.623" gradientUnits="userSpaceOnUse">
            <stop stop-color="#FF4C35"/>
            <stop offset=".182" stop-color="#FE9B05"/>
            <stop offset=".365" stop-color="#FBC600"/>
            <stop offset=".594" stop-color="#72C63D"/>
            <stop offset=".781" stop-color="#665DFB"/>
            <stop offset="1" stop-color="#C92CE5"/>
        </linearGradient>
        <linearGradient id="z4ot9desgb" x1="8.553" y1="62.262" x2="51.771" y2="63.114" gradientUnits="userSpaceOnUse">
            <stop stop-color="#FF4C35"/>
            <stop offset=".182" stop-color="#FE9B05"/>
            <stop offset=".365" stop-color="#FBC600"/>
            <stop offset=".594" stop-color="#72C63D"/>
            <stop offset=".781" stop-color="#665DFB"/>
            <stop offset="1" stop-color="#C92CE5"/>
        </linearGradient>
        <linearGradient id="3ow9v2s8bc" x1="25.887" y1="58.769" x2="53.213" y2="58.979" gradientUnits="userSpaceOnUse">
            <stop stop-color="#FF4C35"/>
            <stop offset=".182" stop-color="#FE9B05"/>
            <stop offset=".365" stop-color="#FBC600"/>
            <stop offset=".594" stop-color="#72C63D"/>
            <stop offset=".781" stop-color="#665DFB"/>
            <stop offset="1" stop-color="#C92CE5"/>
        </linearGradient>
        <linearGradient id="8fl44om0td" x1="26.369" y1="61.216" x2="53.251" y2="61.5" gradientUnits="userSpaceOnUse">
            <stop stop-color="#FF4C35"/>
            <stop offset=".182" stop-color="#FE9B05"/>
            <stop offset=".365" stop-color="#FBC600"/>
            <stop offset=".594" stop-color="#72C63D"/>
            <stop offset=".781" stop-color="#665DFB"/>
            <stop offset="1" stop-color="#C92CE5"/>
        </linearGradient>
    </defs>
</svg>
